%FSLAX34Y34*%
G04 Gerber Fmt 3.4, Leading zero omitted, Abs format*
G04 (created by PCBNEW (2014-jan-25)-product) date Wed 30 Apr 2014 08:14:39 PM MDT*
%MOIN*%
G01*
G70*
G90*
G04 APERTURE LIST*
%ADD10C,0.003937*%
%ADD11C,0.074848*%
%ADD12R,0.153548X0.153548*%
%ADD13C,0.133848*%
%ADD14R,0.083748X0.095748*%
%ADD15O,0.083748X0.095748*%
%ADD16C,0.141732*%
%ADD17C,0.074803*%
%ADD18C,0.114173*%
G04 APERTURE END LIST*
G54D10*
G54D11*
X66500Y-49000D03*
X66500Y-50000D03*
G54D12*
X71059Y-37500D03*
X73421Y-37500D03*
X72240Y-35650D03*
X71059Y-30500D03*
X73421Y-30500D03*
X72240Y-28650D03*
G54D11*
X71062Y-42497D03*
X71062Y-43497D03*
X71062Y-44297D03*
X71062Y-45297D03*
G54D13*
X72112Y-41297D03*
X72112Y-46697D03*
G54D14*
X42000Y-50000D03*
G54D15*
X43000Y-50000D03*
X44000Y-50000D03*
X45000Y-50000D03*
X46000Y-50000D03*
X47000Y-50000D03*
X48000Y-50000D03*
X49000Y-50000D03*
X50000Y-50000D03*
X51000Y-50000D03*
X52000Y-50000D03*
X53000Y-50000D03*
X54000Y-50000D03*
X55000Y-50000D03*
X56000Y-50000D03*
X57000Y-50000D03*
X58000Y-50000D03*
X59000Y-50000D03*
X60000Y-50000D03*
X61000Y-50000D03*
X62000Y-50000D03*
X63000Y-50000D03*
G54D16*
X42000Y-39500D03*
X46000Y-39500D03*
G54D17*
X45250Y-43000D03*
X44750Y-42000D03*
X44250Y-43000D03*
X43750Y-42000D03*
X43250Y-43000D03*
X42750Y-42000D03*
G54D16*
X42000Y-31500D03*
X46000Y-31500D03*
G54D17*
X45250Y-35000D03*
X44750Y-34000D03*
X44250Y-35000D03*
X43750Y-34000D03*
X43250Y-35000D03*
X42750Y-34000D03*
G54D16*
X42000Y-23500D03*
X46000Y-23500D03*
G54D17*
X45250Y-27000D03*
X44750Y-26000D03*
X44250Y-27000D03*
X43750Y-26000D03*
X43250Y-27000D03*
X42750Y-26000D03*
G54D16*
X42000Y-15500D03*
X46000Y-15500D03*
G54D17*
X45250Y-19000D03*
X44750Y-18000D03*
X44250Y-19000D03*
X43750Y-18000D03*
X43250Y-19000D03*
X42750Y-18000D03*
G54D16*
X49000Y-39500D03*
X53000Y-39500D03*
G54D17*
X52250Y-43000D03*
X51750Y-42000D03*
X51250Y-43000D03*
X50750Y-42000D03*
X50250Y-43000D03*
X49750Y-42000D03*
G54D16*
X49000Y-31500D03*
X53000Y-31500D03*
G54D17*
X52250Y-35000D03*
X51750Y-34000D03*
X51250Y-35000D03*
X50750Y-34000D03*
X50250Y-35000D03*
X49750Y-34000D03*
G54D16*
X49000Y-23500D03*
X53000Y-23500D03*
G54D17*
X52250Y-27000D03*
X51750Y-26000D03*
X51250Y-27000D03*
X50750Y-26000D03*
X50250Y-27000D03*
X49750Y-26000D03*
G54D16*
X49000Y-15500D03*
X53000Y-15500D03*
G54D17*
X52250Y-19000D03*
X51750Y-18000D03*
X51250Y-19000D03*
X50750Y-18000D03*
X50250Y-19000D03*
X49750Y-18000D03*
G54D16*
X56000Y-39500D03*
X60000Y-39500D03*
G54D17*
X59250Y-43000D03*
X58750Y-42000D03*
X58250Y-43000D03*
X57750Y-42000D03*
X57250Y-43000D03*
X56750Y-42000D03*
G54D16*
X56000Y-31500D03*
X60000Y-31500D03*
G54D17*
X59250Y-35000D03*
X58750Y-34000D03*
X58250Y-35000D03*
X57750Y-34000D03*
X57250Y-35000D03*
X56750Y-34000D03*
G54D16*
X56000Y-23500D03*
X60000Y-23500D03*
G54D17*
X59250Y-27000D03*
X58750Y-26000D03*
X58250Y-27000D03*
X57750Y-26000D03*
X57250Y-27000D03*
X56750Y-26000D03*
G54D16*
X56000Y-15500D03*
X60000Y-15500D03*
G54D17*
X59250Y-19000D03*
X58750Y-18000D03*
X58250Y-19000D03*
X57750Y-18000D03*
X57250Y-19000D03*
X56750Y-18000D03*
G54D16*
X63000Y-39500D03*
X67000Y-39500D03*
G54D17*
X66250Y-43000D03*
X65750Y-42000D03*
X65250Y-43000D03*
X64750Y-42000D03*
X64250Y-43000D03*
X63750Y-42000D03*
G54D16*
X63000Y-31500D03*
X67000Y-31500D03*
G54D17*
X66250Y-35000D03*
X65750Y-34000D03*
X65250Y-35000D03*
X64750Y-34000D03*
X64250Y-35000D03*
X63750Y-34000D03*
G54D16*
X63000Y-23500D03*
X67000Y-23500D03*
G54D17*
X66250Y-27000D03*
X65750Y-26000D03*
X65250Y-27000D03*
X64750Y-26000D03*
X64250Y-27000D03*
X63750Y-26000D03*
G54D16*
X63000Y-15500D03*
X67000Y-15500D03*
G54D17*
X66250Y-19000D03*
X65750Y-18000D03*
X65250Y-19000D03*
X64750Y-18000D03*
X64250Y-19000D03*
X63750Y-18000D03*
G54D18*
X41692Y-53543D03*
X43661Y-53543D03*
X45629Y-53543D03*
X47598Y-53543D03*
M02*
