M48
;DRILL file {pcbnew (2014-jan-25)-product} date Wed 30 Apr 2014 08:11:02 PM MDT
;FORMAT={-:-/ absolute / metric / decimal}
FMAT,2
METRIC,TZ
T1C0.800
T2C0.900
T3C1.001
T4C1.016
T5C1.400
T6C2.301
T7C3.000
T8C3.200
%
G90
G05
M71
T1
X168.91Y-124.46
X168.91Y-127.
T2
X108.585Y-45.72
X108.585Y-66.04
X108.585Y-86.36
X108.585Y-106.68
X109.855Y-48.26
X109.855Y-68.58
X109.855Y-88.9
X109.855Y-109.22
X111.125Y-45.72
X111.125Y-66.04
X111.125Y-86.36
X111.125Y-106.68
X112.395Y-48.26
X112.395Y-68.58
X112.395Y-88.9
X112.395Y-109.22
X113.665Y-45.72
X113.665Y-66.04
X113.665Y-86.36
X113.665Y-106.68
X114.935Y-48.26
X114.935Y-68.58
X114.935Y-88.9
X114.935Y-109.22
X126.365Y-45.72
X126.365Y-66.04
X126.365Y-86.36
X126.365Y-106.68
X127.635Y-48.26
X127.635Y-68.58
X127.635Y-88.9
X127.635Y-109.22
X128.905Y-45.72
X128.905Y-66.04
X128.905Y-86.36
X128.905Y-106.68
X130.175Y-48.26
X130.175Y-68.58
X130.175Y-88.9
X130.175Y-109.22
X131.445Y-45.72
X131.445Y-66.04
X131.445Y-86.36
X131.445Y-106.68
X132.715Y-48.26
X132.715Y-68.58
X132.715Y-88.9
X132.715Y-109.22
X144.145Y-45.72
X144.145Y-66.04
X144.145Y-86.36
X144.145Y-106.68
X145.415Y-48.26
X145.415Y-68.58
X145.415Y-88.9
X145.415Y-109.22
X146.685Y-45.72
X146.685Y-66.04
X146.685Y-86.36
X146.685Y-106.68
X147.955Y-48.26
X147.955Y-68.58
X147.955Y-88.9
X147.955Y-109.22
X149.225Y-45.72
X149.225Y-66.04
X149.225Y-86.36
X149.225Y-106.68
X150.495Y-48.26
X150.495Y-68.58
X150.495Y-88.9
X150.495Y-109.22
X161.925Y-45.72
X161.925Y-66.04
X161.925Y-86.36
X161.925Y-106.68
X163.195Y-48.26
X163.195Y-68.58
X163.195Y-88.9
X163.195Y-109.22
X164.465Y-45.72
X164.465Y-66.04
X164.465Y-86.36
X164.465Y-106.68
X165.735Y-48.26
X165.735Y-68.58
X165.735Y-88.9
X165.735Y-109.22
X167.005Y-45.72
X167.005Y-66.04
X167.005Y-86.36
X167.005Y-106.68
X168.275Y-48.26
X168.275Y-68.58
X168.275Y-88.9
X168.275Y-109.22
T3
X180.5Y-107.944
X180.5Y-110.484
X180.5Y-112.516
X180.5Y-115.056
T4
X106.68Y-127.
X109.22Y-127.
X111.76Y-127.
X114.3Y-127.
X116.84Y-127.
X119.38Y-127.
X121.92Y-127.
X124.46Y-127.
X127.Y-127.
X129.54Y-127.
X132.08Y-127.
X134.62Y-127.
X137.16Y-127.
X139.7Y-127.
X142.24Y-127.
X144.78Y-127.
X147.32Y-127.
X149.86Y-127.
X152.4Y-127.
X154.94Y-127.
X157.48Y-127.
X160.02Y-127.
T5
X105.9Y-136.
X110.9Y-136.
X115.9Y-136.
X120.9Y-136.
T6
X183.167Y-104.896
X183.167Y-118.612
T7
X107.Y-119.5
X188.Y-126.5
X189.Y-36.5
T8
X106.68Y-39.37
X106.68Y-59.69
X106.68Y-80.01
X106.68Y-100.33
X116.84Y-39.37
X116.84Y-59.69
X116.84Y-80.01
X116.84Y-100.33
X124.46Y-39.37
X124.46Y-59.69
X124.46Y-80.01
X124.46Y-100.33
X134.62Y-39.37
X134.62Y-59.69
X134.62Y-80.01
X134.62Y-100.33
X142.24Y-39.37
X142.24Y-59.69
X142.24Y-80.01
X142.24Y-100.33
X152.4Y-39.37
X152.4Y-59.69
X152.4Y-80.01
X152.4Y-100.33
X160.02Y-39.37
X160.02Y-59.69
X160.02Y-80.01
X160.02Y-100.33
X170.18Y-39.37
X170.18Y-59.69
X170.18Y-80.01
X170.18Y-100.33
T3
X180.49Y-78.469G85X180.49Y-76.471
G05
X180.49Y-96.249G85X180.49Y-94.251
G05
X184.489Y-72.771G85X182.49Y-72.771
G05
X184.489Y-90.551G85X182.49Y-90.551
G05
X186.489Y-78.469G85X186.489Y-76.471
G05
X186.489Y-96.249G85X186.489Y-94.251
G05
T0
M30
