%FSLAX34Y34*%
G04 Gerber Fmt 3.4, Leading zero omitted, Abs format*
G04 (created by PCBNEW (2014-jan-25)-product) date Wed 30 Apr 2014 08:14:39 PM MDT*
%MOIN*%
G01*
G70*
G90*
G04 APERTURE LIST*
%ADD10C,0.003937*%
%ADD11C,0.011811*%
%ADD12C,0.012000*%
%ADD13C,0.015000*%
%ADD14C,0.005000*%
%ADD15C,0.010000*%
%ADD16C,0.005906*%
%ADD17C,0.008000*%
G04 APERTURE END LIST*
G54D10*
G54D11*
X69417Y-47708D02*
X69417Y-48101D01*
X69164Y-47708D02*
X69164Y-48017D01*
X69192Y-48073D01*
X69249Y-48101D01*
X69333Y-48101D01*
X69389Y-48073D01*
X69417Y-48045D01*
X69670Y-48073D02*
X69727Y-48101D01*
X69839Y-48101D01*
X69895Y-48073D01*
X69924Y-48017D01*
X69924Y-47989D01*
X69895Y-47933D01*
X69839Y-47904D01*
X69755Y-47904D01*
X69699Y-47876D01*
X69670Y-47820D01*
X69670Y-47792D01*
X69699Y-47736D01*
X69755Y-47708D01*
X69839Y-47708D01*
X69895Y-47736D01*
X70177Y-48101D02*
X70177Y-47511D01*
X70177Y-47736D02*
X70233Y-47708D01*
X70345Y-47708D01*
X70402Y-47736D01*
X70430Y-47764D01*
X70458Y-47820D01*
X70458Y-47989D01*
X70430Y-48045D01*
X70402Y-48073D01*
X70345Y-48101D01*
X70233Y-48101D01*
X70177Y-48073D01*
X71161Y-47708D02*
X71161Y-48298D01*
X71161Y-47736D02*
X71217Y-47708D01*
X71330Y-47708D01*
X71386Y-47736D01*
X71414Y-47764D01*
X71442Y-47820D01*
X71442Y-47989D01*
X71414Y-48045D01*
X71386Y-48073D01*
X71330Y-48101D01*
X71217Y-48101D01*
X71161Y-48073D01*
X71780Y-48101D02*
X71723Y-48073D01*
X71695Y-48045D01*
X71667Y-47989D01*
X71667Y-47820D01*
X71695Y-47764D01*
X71723Y-47736D01*
X71780Y-47708D01*
X71864Y-47708D01*
X71920Y-47736D01*
X71948Y-47764D01*
X71976Y-47820D01*
X71976Y-47989D01*
X71948Y-48045D01*
X71920Y-48073D01*
X71864Y-48101D01*
X71780Y-48101D01*
X72173Y-47708D02*
X72286Y-48101D01*
X72398Y-47820D01*
X72511Y-48101D01*
X72623Y-47708D01*
X73073Y-48073D02*
X73017Y-48101D01*
X72904Y-48101D01*
X72848Y-48073D01*
X72820Y-48017D01*
X72820Y-47792D01*
X72848Y-47736D01*
X72904Y-47708D01*
X73017Y-47708D01*
X73073Y-47736D01*
X73101Y-47792D01*
X73101Y-47848D01*
X72820Y-47904D01*
X73354Y-48101D02*
X73354Y-47708D01*
X73354Y-47820D02*
X73383Y-47764D01*
X73411Y-47736D01*
X73467Y-47708D01*
X73523Y-47708D01*
X74254Y-48101D02*
X74198Y-48073D01*
X74170Y-48045D01*
X74142Y-47989D01*
X74142Y-47820D01*
X74170Y-47764D01*
X74198Y-47736D01*
X74254Y-47708D01*
X74339Y-47708D01*
X74395Y-47736D01*
X74423Y-47764D01*
X74451Y-47820D01*
X74451Y-47989D01*
X74423Y-48045D01*
X74395Y-48073D01*
X74339Y-48101D01*
X74254Y-48101D01*
X74704Y-47708D02*
X74704Y-48101D01*
X74704Y-47764D02*
X74732Y-47736D01*
X74789Y-47708D01*
X74873Y-47708D01*
X74929Y-47736D01*
X74957Y-47792D01*
X74957Y-48101D01*
X75323Y-48101D02*
X75267Y-48073D01*
X75239Y-48017D01*
X75239Y-47511D01*
X75492Y-47708D02*
X75632Y-48101D01*
X75773Y-47708D02*
X75632Y-48101D01*
X75576Y-48242D01*
X75548Y-48270D01*
X75492Y-48298D01*
X73097Y-34734D02*
X73097Y-34284D01*
X73322Y-34509D02*
X72872Y-34509D01*
X72731Y-33721D02*
X72731Y-34003D01*
X73012Y-34031D01*
X72984Y-34003D01*
X72956Y-33946D01*
X72956Y-33806D01*
X72984Y-33749D01*
X73012Y-33721D01*
X73069Y-33693D01*
X73209Y-33693D01*
X73266Y-33721D01*
X73294Y-33749D01*
X73322Y-33806D01*
X73322Y-33946D01*
X73294Y-34003D01*
X73266Y-34031D01*
X72731Y-33525D02*
X73322Y-33328D01*
X72731Y-33131D01*
X74267Y-34720D02*
X73873Y-34720D01*
X73676Y-34720D02*
X73704Y-34748D01*
X73732Y-34720D01*
X73704Y-34692D01*
X73676Y-34720D01*
X73732Y-34720D01*
X73873Y-34438D02*
X74267Y-34438D01*
X73929Y-34438D02*
X73901Y-34410D01*
X73873Y-34354D01*
X73873Y-34270D01*
X73901Y-34214D01*
X73957Y-34185D01*
X74267Y-34185D01*
X73873Y-33904D02*
X74267Y-33904D01*
X73929Y-33904D02*
X73901Y-33876D01*
X73873Y-33820D01*
X73873Y-33735D01*
X73901Y-33679D01*
X73957Y-33651D01*
X74267Y-33651D01*
X74239Y-33145D02*
X74267Y-33201D01*
X74267Y-33314D01*
X74239Y-33370D01*
X74182Y-33398D01*
X73957Y-33398D01*
X73901Y-33370D01*
X73873Y-33314D01*
X73873Y-33201D01*
X73901Y-33145D01*
X73957Y-33117D01*
X74014Y-33117D01*
X74070Y-33398D01*
X74267Y-32864D02*
X73873Y-32864D01*
X73985Y-32864D02*
X73929Y-32836D01*
X73901Y-32807D01*
X73873Y-32751D01*
X73873Y-32695D01*
X74818Y-34284D02*
X75408Y-34284D01*
X74846Y-34284D02*
X74818Y-34228D01*
X74818Y-34115D01*
X74846Y-34059D01*
X74874Y-34031D01*
X74930Y-34003D01*
X75099Y-34003D01*
X75155Y-34031D01*
X75183Y-34059D01*
X75212Y-34115D01*
X75212Y-34228D01*
X75183Y-34284D01*
X75212Y-33750D02*
X74818Y-33750D01*
X74621Y-33750D02*
X74649Y-33778D01*
X74677Y-33750D01*
X74649Y-33721D01*
X74621Y-33750D01*
X74677Y-33750D01*
X74818Y-33468D02*
X75212Y-33468D01*
X74874Y-33468D02*
X74846Y-33440D01*
X74818Y-33384D01*
X74818Y-33300D01*
X74846Y-33243D01*
X74902Y-33215D01*
X75212Y-33215D01*
X60098Y-48953D02*
X60098Y-48671D01*
X60267Y-49009D02*
X59676Y-48812D01*
X60267Y-48615D01*
X60267Y-48109D02*
X60267Y-48446D01*
X60267Y-48278D02*
X59676Y-48278D01*
X59760Y-48334D01*
X59817Y-48390D01*
X59845Y-48446D01*
X59873Y-47603D02*
X60267Y-47603D01*
X59648Y-47743D02*
X60070Y-47884D01*
X60070Y-47518D01*
X62704Y-48699D02*
X62676Y-48756D01*
X62676Y-48840D01*
X62704Y-48924D01*
X62760Y-48981D01*
X62817Y-49009D01*
X62929Y-49037D01*
X63014Y-49037D01*
X63126Y-49009D01*
X63182Y-48981D01*
X63239Y-48924D01*
X63267Y-48840D01*
X63267Y-48784D01*
X63239Y-48699D01*
X63210Y-48671D01*
X63014Y-48671D01*
X63014Y-48784D01*
X63267Y-48418D02*
X62676Y-48418D01*
X63267Y-48081D01*
X62676Y-48081D01*
X63267Y-47800D02*
X62676Y-47800D01*
X62676Y-47659D01*
X62704Y-47575D01*
X62760Y-47518D01*
X62817Y-47490D01*
X62929Y-47462D01*
X63014Y-47462D01*
X63126Y-47490D01*
X63182Y-47518D01*
X63239Y-47575D01*
X63267Y-47659D01*
X63267Y-47800D01*
X62098Y-48953D02*
X62098Y-48671D01*
X62267Y-49009D02*
X61676Y-48812D01*
X62267Y-48615D01*
X62267Y-48109D02*
X62267Y-48446D01*
X62267Y-48278D02*
X61676Y-48278D01*
X61760Y-48334D01*
X61817Y-48390D01*
X61845Y-48446D01*
X61676Y-47603D02*
X61676Y-47715D01*
X61704Y-47771D01*
X61732Y-47800D01*
X61817Y-47856D01*
X61929Y-47884D01*
X62154Y-47884D01*
X62210Y-47856D01*
X62239Y-47828D01*
X62267Y-47771D01*
X62267Y-47659D01*
X62239Y-47603D01*
X62210Y-47575D01*
X62154Y-47546D01*
X62014Y-47546D01*
X61957Y-47575D01*
X61929Y-47603D01*
X61901Y-47659D01*
X61901Y-47771D01*
X61929Y-47828D01*
X61957Y-47856D01*
X62014Y-47884D01*
X61098Y-48953D02*
X61098Y-48671D01*
X61267Y-49009D02*
X60676Y-48812D01*
X61267Y-48615D01*
X61267Y-48109D02*
X61267Y-48446D01*
X61267Y-48278D02*
X60676Y-48278D01*
X60760Y-48334D01*
X60817Y-48390D01*
X60845Y-48446D01*
X60676Y-47575D02*
X60676Y-47856D01*
X60957Y-47884D01*
X60929Y-47856D01*
X60901Y-47800D01*
X60901Y-47659D01*
X60929Y-47603D01*
X60957Y-47575D01*
X61014Y-47546D01*
X61154Y-47546D01*
X61210Y-47575D01*
X61239Y-47603D01*
X61267Y-47659D01*
X61267Y-47800D01*
X61239Y-47856D01*
X61210Y-47884D01*
X56098Y-48953D02*
X56098Y-48671D01*
X56267Y-49009D02*
X55676Y-48812D01*
X56267Y-48615D01*
X56267Y-48109D02*
X56267Y-48446D01*
X56267Y-48278D02*
X55676Y-48278D01*
X55760Y-48334D01*
X55817Y-48390D01*
X55845Y-48446D01*
X55676Y-47743D02*
X55676Y-47687D01*
X55704Y-47631D01*
X55732Y-47603D01*
X55789Y-47575D01*
X55901Y-47546D01*
X56042Y-47546D01*
X56154Y-47575D01*
X56210Y-47603D01*
X56239Y-47631D01*
X56267Y-47687D01*
X56267Y-47743D01*
X56239Y-47800D01*
X56210Y-47828D01*
X56154Y-47856D01*
X56042Y-47884D01*
X55901Y-47884D01*
X55789Y-47856D01*
X55732Y-47828D01*
X55704Y-47800D01*
X55676Y-47743D01*
X57098Y-48953D02*
X57098Y-48671D01*
X57267Y-49009D02*
X56676Y-48812D01*
X57267Y-48615D01*
X57267Y-48109D02*
X57267Y-48446D01*
X57267Y-48278D02*
X56676Y-48278D01*
X56760Y-48334D01*
X56817Y-48390D01*
X56845Y-48446D01*
X57267Y-47546D02*
X57267Y-47884D01*
X57267Y-47715D02*
X56676Y-47715D01*
X56760Y-47771D01*
X56817Y-47828D01*
X56845Y-47884D01*
X58098Y-48953D02*
X58098Y-48671D01*
X58267Y-49009D02*
X57676Y-48812D01*
X58267Y-48615D01*
X58267Y-48109D02*
X58267Y-48446D01*
X58267Y-48278D02*
X57676Y-48278D01*
X57760Y-48334D01*
X57817Y-48390D01*
X57845Y-48446D01*
X57732Y-47884D02*
X57704Y-47856D01*
X57676Y-47800D01*
X57676Y-47659D01*
X57704Y-47603D01*
X57732Y-47575D01*
X57789Y-47546D01*
X57845Y-47546D01*
X57929Y-47575D01*
X58267Y-47912D01*
X58267Y-47546D01*
X59098Y-48953D02*
X59098Y-48671D01*
X59267Y-49009D02*
X58676Y-48812D01*
X59267Y-48615D01*
X59267Y-48109D02*
X59267Y-48446D01*
X59267Y-48278D02*
X58676Y-48278D01*
X58760Y-48334D01*
X58817Y-48390D01*
X58845Y-48446D01*
X58676Y-47912D02*
X58676Y-47546D01*
X58901Y-47743D01*
X58901Y-47659D01*
X58929Y-47603D01*
X58957Y-47575D01*
X59014Y-47546D01*
X59154Y-47546D01*
X59210Y-47575D01*
X59239Y-47603D01*
X59267Y-47659D01*
X59267Y-47828D01*
X59239Y-47884D01*
X59210Y-47912D01*
X55098Y-48671D02*
X55098Y-48390D01*
X55267Y-48728D02*
X54676Y-48531D01*
X55267Y-48334D01*
X55267Y-48109D02*
X55267Y-47996D01*
X55239Y-47940D01*
X55210Y-47912D01*
X55126Y-47856D01*
X55014Y-47828D01*
X54789Y-47828D01*
X54732Y-47856D01*
X54704Y-47884D01*
X54676Y-47940D01*
X54676Y-48053D01*
X54704Y-48109D01*
X54732Y-48137D01*
X54789Y-48165D01*
X54929Y-48165D01*
X54985Y-48137D01*
X55014Y-48109D01*
X55042Y-48053D01*
X55042Y-47940D01*
X55014Y-47884D01*
X54985Y-47856D01*
X54929Y-47828D01*
X54098Y-48671D02*
X54098Y-48390D01*
X54267Y-48728D02*
X53676Y-48531D01*
X54267Y-48334D01*
X53929Y-48053D02*
X53901Y-48109D01*
X53873Y-48137D01*
X53817Y-48165D01*
X53789Y-48165D01*
X53732Y-48137D01*
X53704Y-48109D01*
X53676Y-48053D01*
X53676Y-47940D01*
X53704Y-47884D01*
X53732Y-47856D01*
X53789Y-47828D01*
X53817Y-47828D01*
X53873Y-47856D01*
X53901Y-47884D01*
X53929Y-47940D01*
X53929Y-48053D01*
X53957Y-48109D01*
X53985Y-48137D01*
X54042Y-48165D01*
X54154Y-48165D01*
X54210Y-48137D01*
X54239Y-48109D01*
X54267Y-48053D01*
X54267Y-47940D01*
X54239Y-47884D01*
X54210Y-47856D01*
X54154Y-47828D01*
X54042Y-47828D01*
X53985Y-47856D01*
X53957Y-47884D01*
X53929Y-47940D01*
X53098Y-48671D02*
X53098Y-48390D01*
X53267Y-48728D02*
X52676Y-48531D01*
X53267Y-48334D01*
X52676Y-48193D02*
X52676Y-47800D01*
X53267Y-48053D01*
X52098Y-48671D02*
X52098Y-48390D01*
X52267Y-48728D02*
X51676Y-48531D01*
X52267Y-48334D01*
X51676Y-47884D02*
X51676Y-47996D01*
X51704Y-48053D01*
X51732Y-48081D01*
X51817Y-48137D01*
X51929Y-48165D01*
X52154Y-48165D01*
X52210Y-48137D01*
X52239Y-48109D01*
X52267Y-48053D01*
X52267Y-47940D01*
X52239Y-47884D01*
X52210Y-47856D01*
X52154Y-47828D01*
X52014Y-47828D01*
X51957Y-47856D01*
X51929Y-47884D01*
X51901Y-47940D01*
X51901Y-48053D01*
X51929Y-48109D01*
X51957Y-48137D01*
X52014Y-48165D01*
X51098Y-48671D02*
X51098Y-48390D01*
X51267Y-48728D02*
X50676Y-48531D01*
X51267Y-48334D01*
X50676Y-47856D02*
X50676Y-48137D01*
X50957Y-48165D01*
X50929Y-48137D01*
X50901Y-48081D01*
X50901Y-47940D01*
X50929Y-47884D01*
X50957Y-47856D01*
X51014Y-47828D01*
X51154Y-47828D01*
X51210Y-47856D01*
X51239Y-47884D01*
X51267Y-47940D01*
X51267Y-48081D01*
X51239Y-48137D01*
X51210Y-48165D01*
X50098Y-48671D02*
X50098Y-48390D01*
X50267Y-48728D02*
X49676Y-48531D01*
X50267Y-48334D01*
X49873Y-47884D02*
X50267Y-47884D01*
X49648Y-48025D02*
X50070Y-48165D01*
X50070Y-47800D01*
X49098Y-48671D02*
X49098Y-48390D01*
X49267Y-48728D02*
X48676Y-48531D01*
X49267Y-48334D01*
X48676Y-48193D02*
X48676Y-47828D01*
X48901Y-48025D01*
X48901Y-47940D01*
X48929Y-47884D01*
X48957Y-47856D01*
X49014Y-47828D01*
X49154Y-47828D01*
X49210Y-47856D01*
X49239Y-47884D01*
X49267Y-47940D01*
X49267Y-48109D01*
X49239Y-48165D01*
X49210Y-48193D01*
X48098Y-48671D02*
X48098Y-48390D01*
X48267Y-48728D02*
X47676Y-48531D01*
X48267Y-48334D01*
X47732Y-48165D02*
X47704Y-48137D01*
X47676Y-48081D01*
X47676Y-47940D01*
X47704Y-47884D01*
X47732Y-47856D01*
X47789Y-47828D01*
X47845Y-47828D01*
X47929Y-47856D01*
X48267Y-48193D01*
X48267Y-47828D01*
X47098Y-48671D02*
X47098Y-48390D01*
X47267Y-48728D02*
X46676Y-48531D01*
X47267Y-48334D01*
X47267Y-47828D02*
X47267Y-48165D01*
X47267Y-47996D02*
X46676Y-47996D01*
X46760Y-48053D01*
X46817Y-48109D01*
X46845Y-48165D01*
X46098Y-48671D02*
X46098Y-48390D01*
X46267Y-48728D02*
X45676Y-48531D01*
X46267Y-48334D01*
X45676Y-48025D02*
X45676Y-47968D01*
X45704Y-47912D01*
X45732Y-47884D01*
X45789Y-47856D01*
X45901Y-47828D01*
X46042Y-47828D01*
X46154Y-47856D01*
X46210Y-47884D01*
X46239Y-47912D01*
X46267Y-47968D01*
X46267Y-48025D01*
X46239Y-48081D01*
X46210Y-48109D01*
X46154Y-48137D01*
X46042Y-48165D01*
X45901Y-48165D01*
X45789Y-48137D01*
X45732Y-48109D01*
X45704Y-48081D01*
X45676Y-48025D01*
X45267Y-48685D02*
X44676Y-48685D01*
X44676Y-48545D01*
X44704Y-48460D01*
X44760Y-48404D01*
X44817Y-48376D01*
X44929Y-48348D01*
X45014Y-48348D01*
X45126Y-48376D01*
X45182Y-48404D01*
X45239Y-48460D01*
X45267Y-48545D01*
X45267Y-48685D01*
X44676Y-48151D02*
X44676Y-47785D01*
X44901Y-47982D01*
X44901Y-47898D01*
X44929Y-47842D01*
X44957Y-47814D01*
X45014Y-47785D01*
X45154Y-47785D01*
X45210Y-47814D01*
X45239Y-47842D01*
X45267Y-47898D01*
X45267Y-48067D01*
X45239Y-48123D01*
X45210Y-48151D01*
X44267Y-48685D02*
X43676Y-48685D01*
X43676Y-48545D01*
X43704Y-48460D01*
X43760Y-48404D01*
X43817Y-48376D01*
X43929Y-48348D01*
X44014Y-48348D01*
X44126Y-48376D01*
X44182Y-48404D01*
X44239Y-48460D01*
X44267Y-48545D01*
X44267Y-48685D01*
X43732Y-48123D02*
X43704Y-48095D01*
X43676Y-48039D01*
X43676Y-47898D01*
X43704Y-47842D01*
X43732Y-47814D01*
X43789Y-47785D01*
X43845Y-47785D01*
X43929Y-47814D01*
X44267Y-48151D01*
X44267Y-47785D01*
X43267Y-48685D02*
X42676Y-48685D01*
X42676Y-48545D01*
X42704Y-48460D01*
X42760Y-48404D01*
X42817Y-48376D01*
X42929Y-48348D01*
X43014Y-48348D01*
X43126Y-48376D01*
X43182Y-48404D01*
X43239Y-48460D01*
X43267Y-48545D01*
X43267Y-48685D01*
X43267Y-47785D02*
X43267Y-48123D01*
X43267Y-47954D02*
X42676Y-47954D01*
X42760Y-48010D01*
X42817Y-48067D01*
X42845Y-48123D01*
X42267Y-48685D02*
X41676Y-48685D01*
X41676Y-48545D01*
X41704Y-48460D01*
X41760Y-48404D01*
X41817Y-48376D01*
X41929Y-48348D01*
X42014Y-48348D01*
X42126Y-48376D01*
X42182Y-48404D01*
X42239Y-48460D01*
X42267Y-48545D01*
X42267Y-48685D01*
X41676Y-47982D02*
X41676Y-47926D01*
X41704Y-47870D01*
X41732Y-47842D01*
X41789Y-47814D01*
X41901Y-47785D01*
X42042Y-47785D01*
X42154Y-47814D01*
X42210Y-47842D01*
X42239Y-47870D01*
X42267Y-47926D01*
X42267Y-47982D01*
X42239Y-48039D01*
X42210Y-48067D01*
X42154Y-48095D01*
X42042Y-48123D01*
X41901Y-48123D01*
X41789Y-48095D01*
X41732Y-48067D01*
X41704Y-48039D01*
X41676Y-47982D01*
G54D12*
X67000Y-48520D02*
X67000Y-50500D01*
X67000Y-50500D02*
X66000Y-50500D01*
X66000Y-50500D02*
X66000Y-48500D01*
X66000Y-48500D02*
X67000Y-48500D01*
X66750Y-48500D02*
X67000Y-48750D01*
G54D13*
X75075Y-39272D02*
X75075Y-35728D01*
X76453Y-39272D02*
X76453Y-35728D01*
X76453Y-35728D02*
X70744Y-35728D01*
X70744Y-35728D02*
X70744Y-39272D01*
X70744Y-39272D02*
X76453Y-39272D01*
X75075Y-32272D02*
X75075Y-28728D01*
X76453Y-32272D02*
X76453Y-28728D01*
X76453Y-28728D02*
X70744Y-28728D01*
X70744Y-28728D02*
X70744Y-32272D01*
X70744Y-32272D02*
X76453Y-32272D01*
G54D14*
X70612Y-40947D02*
X76162Y-40947D01*
X76162Y-46847D02*
X70612Y-46847D01*
X70612Y-40947D02*
X70612Y-46847D01*
X76162Y-40947D02*
X76162Y-46847D01*
G54D15*
X42500Y-50500D02*
X63500Y-50500D01*
X63500Y-50500D02*
X63500Y-49500D01*
X63500Y-49500D02*
X42500Y-49500D01*
X41500Y-49500D02*
X42500Y-49500D01*
X42500Y-49500D02*
X42500Y-50500D01*
X41500Y-49500D02*
X41500Y-50500D01*
X41500Y-50500D02*
X42500Y-50500D01*
G54D16*
X48188Y-55236D02*
X48188Y-55511D01*
X48188Y-55511D02*
X41102Y-55511D01*
X41102Y-55511D02*
X41102Y-55236D01*
X48188Y-55118D02*
X48188Y-55236D01*
X48188Y-55236D02*
X41102Y-55236D01*
X41102Y-55236D02*
X41102Y-55078D01*
X41102Y-55118D02*
X41102Y-51968D01*
X41102Y-51968D02*
X48188Y-51968D01*
X48188Y-51968D02*
X48188Y-55118D01*
G54D17*
X68142Y-49566D02*
X68161Y-49585D01*
X68180Y-49642D01*
X68180Y-49680D01*
X68161Y-49738D01*
X68123Y-49776D01*
X68085Y-49795D01*
X68009Y-49814D01*
X67952Y-49814D01*
X67876Y-49795D01*
X67838Y-49776D01*
X67800Y-49738D01*
X67780Y-49680D01*
X67780Y-49642D01*
X67800Y-49585D01*
X67819Y-49566D01*
X68180Y-49185D02*
X68180Y-49414D01*
X68180Y-49299D02*
X67780Y-49299D01*
X67838Y-49338D01*
X67876Y-49376D01*
X67895Y-49414D01*
X69666Y-37985D02*
X69685Y-38004D01*
X69704Y-38061D01*
X69704Y-38100D01*
X69685Y-38157D01*
X69647Y-38195D01*
X69609Y-38214D01*
X69533Y-38233D01*
X69476Y-38233D01*
X69400Y-38214D01*
X69362Y-38195D01*
X69324Y-38157D01*
X69304Y-38100D01*
X69304Y-38061D01*
X69324Y-38004D01*
X69343Y-37985D01*
X69304Y-37738D02*
X69304Y-37661D01*
X69324Y-37623D01*
X69362Y-37585D01*
X69438Y-37566D01*
X69571Y-37566D01*
X69647Y-37585D01*
X69685Y-37623D01*
X69704Y-37661D01*
X69704Y-37738D01*
X69685Y-37776D01*
X69647Y-37814D01*
X69571Y-37833D01*
X69438Y-37833D01*
X69362Y-37814D01*
X69324Y-37776D01*
X69304Y-37738D01*
X69704Y-37395D02*
X69304Y-37395D01*
X69704Y-37166D01*
X69304Y-37166D01*
X69704Y-36766D02*
X69704Y-36995D01*
X69704Y-36880D02*
X69304Y-36880D01*
X69362Y-36919D01*
X69400Y-36957D01*
X69419Y-36995D01*
X69666Y-30985D02*
X69685Y-31004D01*
X69704Y-31061D01*
X69704Y-31100D01*
X69685Y-31157D01*
X69647Y-31195D01*
X69609Y-31214D01*
X69533Y-31233D01*
X69476Y-31233D01*
X69400Y-31214D01*
X69362Y-31195D01*
X69324Y-31157D01*
X69304Y-31100D01*
X69304Y-31061D01*
X69324Y-31004D01*
X69343Y-30985D01*
X69304Y-30738D02*
X69304Y-30661D01*
X69324Y-30623D01*
X69362Y-30585D01*
X69438Y-30566D01*
X69571Y-30566D01*
X69647Y-30585D01*
X69685Y-30623D01*
X69704Y-30661D01*
X69704Y-30738D01*
X69685Y-30776D01*
X69647Y-30814D01*
X69571Y-30833D01*
X69438Y-30833D01*
X69362Y-30814D01*
X69324Y-30776D01*
X69304Y-30738D01*
X69704Y-30395D02*
X69304Y-30395D01*
X69704Y-30166D01*
X69304Y-30166D01*
X69343Y-29995D02*
X69324Y-29976D01*
X69304Y-29938D01*
X69304Y-29842D01*
X69324Y-29804D01*
X69343Y-29785D01*
X69381Y-29766D01*
X69419Y-29766D01*
X69476Y-29785D01*
X69704Y-30014D01*
X69704Y-29766D01*
G54D12*
X73577Y-44569D02*
X73577Y-44997D01*
X73548Y-45083D01*
X73491Y-45140D01*
X73405Y-45169D01*
X73348Y-45169D01*
X74177Y-45169D02*
X73834Y-45169D01*
X74005Y-45169D02*
X74005Y-44569D01*
X73948Y-44654D01*
X73891Y-44711D01*
X73834Y-44740D01*
X74377Y-44569D02*
X74777Y-44569D01*
X74520Y-45169D01*
X72791Y-42569D02*
X72791Y-43054D01*
X72820Y-43111D01*
X72848Y-43140D01*
X72905Y-43169D01*
X73020Y-43169D01*
X73077Y-43140D01*
X73105Y-43111D01*
X73134Y-43054D01*
X73134Y-42569D01*
X73391Y-43140D02*
X73477Y-43169D01*
X73620Y-43169D01*
X73677Y-43140D01*
X73705Y-43111D01*
X73734Y-43054D01*
X73734Y-42997D01*
X73705Y-42940D01*
X73677Y-42911D01*
X73620Y-42883D01*
X73505Y-42854D01*
X73448Y-42826D01*
X73420Y-42797D01*
X73391Y-42740D01*
X73391Y-42683D01*
X73420Y-42626D01*
X73448Y-42597D01*
X73505Y-42569D01*
X73648Y-42569D01*
X73734Y-42597D01*
X74191Y-42854D02*
X74277Y-42883D01*
X74305Y-42911D01*
X74334Y-42969D01*
X74334Y-43054D01*
X74305Y-43111D01*
X74277Y-43140D01*
X74220Y-43169D01*
X73991Y-43169D01*
X73991Y-42569D01*
X74191Y-42569D01*
X74248Y-42597D01*
X74277Y-42626D01*
X74305Y-42683D01*
X74305Y-42740D01*
X74277Y-42797D01*
X74248Y-42826D01*
X74191Y-42854D01*
X73991Y-42854D01*
X74448Y-43226D02*
X74905Y-43226D01*
X75362Y-43169D02*
X75020Y-43169D01*
X75191Y-43169D02*
X75191Y-42569D01*
X75134Y-42654D01*
X75077Y-42711D01*
X75020Y-42740D01*
G54D17*
X52178Y-50828D02*
X52178Y-51233D01*
X52201Y-51280D01*
X52225Y-51304D01*
X52273Y-51328D01*
X52368Y-51328D01*
X52416Y-51304D01*
X52440Y-51280D01*
X52463Y-51233D01*
X52463Y-50828D01*
X52963Y-51328D02*
X52678Y-51328D01*
X52820Y-51328D02*
X52820Y-50828D01*
X52773Y-50899D01*
X52725Y-50947D01*
X52678Y-50971D01*
G54D16*
X43868Y-44784D02*
X43868Y-45065D01*
X43850Y-45121D01*
X43812Y-45159D01*
X43756Y-45178D01*
X43718Y-45178D01*
X44262Y-45178D02*
X44037Y-45178D01*
X44149Y-45178D02*
X44149Y-44784D01*
X44112Y-44840D01*
X44074Y-44878D01*
X44037Y-44896D01*
X43596Y-37678D02*
X43465Y-37490D01*
X43371Y-37678D02*
X43371Y-37284D01*
X43521Y-37284D01*
X43559Y-37303D01*
X43578Y-37321D01*
X43596Y-37359D01*
X43596Y-37415D01*
X43578Y-37453D01*
X43559Y-37471D01*
X43521Y-37490D01*
X43371Y-37490D01*
X43878Y-37284D02*
X43878Y-37565D01*
X43859Y-37621D01*
X43821Y-37659D01*
X43765Y-37678D01*
X43728Y-37678D01*
X44271Y-37678D02*
X44046Y-37678D01*
X44159Y-37678D02*
X44159Y-37284D01*
X44121Y-37340D01*
X44084Y-37378D01*
X44046Y-37396D01*
X44609Y-37415D02*
X44609Y-37678D01*
X44515Y-37265D02*
X44421Y-37546D01*
X44665Y-37546D01*
X43868Y-36784D02*
X43868Y-37065D01*
X43850Y-37121D01*
X43812Y-37159D01*
X43756Y-37178D01*
X43718Y-37178D01*
X44037Y-36821D02*
X44056Y-36803D01*
X44093Y-36784D01*
X44187Y-36784D01*
X44224Y-36803D01*
X44243Y-36821D01*
X44262Y-36859D01*
X44262Y-36896D01*
X44243Y-36953D01*
X44018Y-37178D01*
X44262Y-37178D01*
X43596Y-29678D02*
X43465Y-29490D01*
X43371Y-29678D02*
X43371Y-29284D01*
X43521Y-29284D01*
X43559Y-29303D01*
X43578Y-29321D01*
X43596Y-29359D01*
X43596Y-29415D01*
X43578Y-29453D01*
X43559Y-29471D01*
X43521Y-29490D01*
X43371Y-29490D01*
X43878Y-29284D02*
X43878Y-29565D01*
X43859Y-29621D01*
X43821Y-29659D01*
X43765Y-29678D01*
X43728Y-29678D01*
X44271Y-29678D02*
X44046Y-29678D01*
X44159Y-29678D02*
X44159Y-29284D01*
X44121Y-29340D01*
X44084Y-29378D01*
X44046Y-29396D01*
X44609Y-29415D02*
X44609Y-29678D01*
X44515Y-29265D02*
X44421Y-29546D01*
X44665Y-29546D01*
X43868Y-28784D02*
X43868Y-29065D01*
X43850Y-29121D01*
X43812Y-29159D01*
X43756Y-29178D01*
X43718Y-29178D01*
X44018Y-28784D02*
X44262Y-28784D01*
X44131Y-28934D01*
X44187Y-28934D01*
X44224Y-28953D01*
X44243Y-28971D01*
X44262Y-29009D01*
X44262Y-29103D01*
X44243Y-29140D01*
X44224Y-29159D01*
X44187Y-29178D01*
X44074Y-29178D01*
X44037Y-29159D01*
X44018Y-29140D01*
X43596Y-21678D02*
X43465Y-21490D01*
X43371Y-21678D02*
X43371Y-21284D01*
X43521Y-21284D01*
X43559Y-21303D01*
X43578Y-21321D01*
X43596Y-21359D01*
X43596Y-21415D01*
X43578Y-21453D01*
X43559Y-21471D01*
X43521Y-21490D01*
X43371Y-21490D01*
X43878Y-21284D02*
X43878Y-21565D01*
X43859Y-21621D01*
X43821Y-21659D01*
X43765Y-21678D01*
X43728Y-21678D01*
X44271Y-21678D02*
X44046Y-21678D01*
X44159Y-21678D02*
X44159Y-21284D01*
X44121Y-21340D01*
X44084Y-21378D01*
X44046Y-21396D01*
X44609Y-21415D02*
X44609Y-21678D01*
X44515Y-21265D02*
X44421Y-21546D01*
X44665Y-21546D01*
X43868Y-20784D02*
X43868Y-21065D01*
X43850Y-21121D01*
X43812Y-21159D01*
X43756Y-21178D01*
X43718Y-21178D01*
X44224Y-20915D02*
X44224Y-21178D01*
X44131Y-20765D02*
X44037Y-21046D01*
X44281Y-21046D01*
X43596Y-13678D02*
X43465Y-13490D01*
X43371Y-13678D02*
X43371Y-13284D01*
X43521Y-13284D01*
X43559Y-13303D01*
X43578Y-13321D01*
X43596Y-13359D01*
X43596Y-13415D01*
X43578Y-13453D01*
X43559Y-13471D01*
X43521Y-13490D01*
X43371Y-13490D01*
X43878Y-13284D02*
X43878Y-13565D01*
X43859Y-13621D01*
X43821Y-13659D01*
X43765Y-13678D01*
X43728Y-13678D01*
X44271Y-13678D02*
X44046Y-13678D01*
X44159Y-13678D02*
X44159Y-13284D01*
X44121Y-13340D01*
X44084Y-13378D01*
X44046Y-13396D01*
X44609Y-13415D02*
X44609Y-13678D01*
X44515Y-13265D02*
X44421Y-13546D01*
X44665Y-13546D01*
X50868Y-44784D02*
X50868Y-45065D01*
X50850Y-45121D01*
X50812Y-45159D01*
X50756Y-45178D01*
X50718Y-45178D01*
X51243Y-44784D02*
X51056Y-44784D01*
X51037Y-44971D01*
X51056Y-44953D01*
X51093Y-44934D01*
X51187Y-44934D01*
X51224Y-44953D01*
X51243Y-44971D01*
X51262Y-45009D01*
X51262Y-45103D01*
X51243Y-45140D01*
X51224Y-45159D01*
X51187Y-45178D01*
X51093Y-45178D01*
X51056Y-45159D01*
X51037Y-45140D01*
X50596Y-37678D02*
X50465Y-37490D01*
X50371Y-37678D02*
X50371Y-37284D01*
X50521Y-37284D01*
X50559Y-37303D01*
X50578Y-37321D01*
X50596Y-37359D01*
X50596Y-37415D01*
X50578Y-37453D01*
X50559Y-37471D01*
X50521Y-37490D01*
X50371Y-37490D01*
X50878Y-37284D02*
X50878Y-37565D01*
X50859Y-37621D01*
X50821Y-37659D01*
X50765Y-37678D01*
X50728Y-37678D01*
X51271Y-37678D02*
X51046Y-37678D01*
X51159Y-37678D02*
X51159Y-37284D01*
X51121Y-37340D01*
X51084Y-37378D01*
X51046Y-37396D01*
X51609Y-37415D02*
X51609Y-37678D01*
X51515Y-37265D02*
X51421Y-37546D01*
X51665Y-37546D01*
X50868Y-36784D02*
X50868Y-37065D01*
X50850Y-37121D01*
X50812Y-37159D01*
X50756Y-37178D01*
X50718Y-37178D01*
X51224Y-36784D02*
X51149Y-36784D01*
X51112Y-36803D01*
X51093Y-36821D01*
X51056Y-36878D01*
X51037Y-36953D01*
X51037Y-37103D01*
X51056Y-37140D01*
X51074Y-37159D01*
X51112Y-37178D01*
X51187Y-37178D01*
X51224Y-37159D01*
X51243Y-37140D01*
X51262Y-37103D01*
X51262Y-37009D01*
X51243Y-36971D01*
X51224Y-36953D01*
X51187Y-36934D01*
X51112Y-36934D01*
X51074Y-36953D01*
X51056Y-36971D01*
X51037Y-37009D01*
X50596Y-29678D02*
X50465Y-29490D01*
X50371Y-29678D02*
X50371Y-29284D01*
X50521Y-29284D01*
X50559Y-29303D01*
X50578Y-29321D01*
X50596Y-29359D01*
X50596Y-29415D01*
X50578Y-29453D01*
X50559Y-29471D01*
X50521Y-29490D01*
X50371Y-29490D01*
X50878Y-29284D02*
X50878Y-29565D01*
X50859Y-29621D01*
X50821Y-29659D01*
X50765Y-29678D01*
X50728Y-29678D01*
X51271Y-29678D02*
X51046Y-29678D01*
X51159Y-29678D02*
X51159Y-29284D01*
X51121Y-29340D01*
X51084Y-29378D01*
X51046Y-29396D01*
X51609Y-29415D02*
X51609Y-29678D01*
X51515Y-29265D02*
X51421Y-29546D01*
X51665Y-29546D01*
X50868Y-28784D02*
X50868Y-29065D01*
X50850Y-29121D01*
X50812Y-29159D01*
X50756Y-29178D01*
X50718Y-29178D01*
X51018Y-28784D02*
X51281Y-28784D01*
X51112Y-29178D01*
X50596Y-21678D02*
X50465Y-21490D01*
X50371Y-21678D02*
X50371Y-21284D01*
X50521Y-21284D01*
X50559Y-21303D01*
X50578Y-21321D01*
X50596Y-21359D01*
X50596Y-21415D01*
X50578Y-21453D01*
X50559Y-21471D01*
X50521Y-21490D01*
X50371Y-21490D01*
X50878Y-21284D02*
X50878Y-21565D01*
X50859Y-21621D01*
X50821Y-21659D01*
X50765Y-21678D01*
X50728Y-21678D01*
X51271Y-21678D02*
X51046Y-21678D01*
X51159Y-21678D02*
X51159Y-21284D01*
X51121Y-21340D01*
X51084Y-21378D01*
X51046Y-21396D01*
X51609Y-21415D02*
X51609Y-21678D01*
X51515Y-21265D02*
X51421Y-21546D01*
X51665Y-21546D01*
X50868Y-20784D02*
X50868Y-21065D01*
X50850Y-21121D01*
X50812Y-21159D01*
X50756Y-21178D01*
X50718Y-21178D01*
X51112Y-20953D02*
X51074Y-20934D01*
X51056Y-20915D01*
X51037Y-20878D01*
X51037Y-20859D01*
X51056Y-20821D01*
X51074Y-20803D01*
X51112Y-20784D01*
X51187Y-20784D01*
X51224Y-20803D01*
X51243Y-20821D01*
X51262Y-20859D01*
X51262Y-20878D01*
X51243Y-20915D01*
X51224Y-20934D01*
X51187Y-20953D01*
X51112Y-20953D01*
X51074Y-20971D01*
X51056Y-20990D01*
X51037Y-21028D01*
X51037Y-21103D01*
X51056Y-21140D01*
X51074Y-21159D01*
X51112Y-21178D01*
X51187Y-21178D01*
X51224Y-21159D01*
X51243Y-21140D01*
X51262Y-21103D01*
X51262Y-21028D01*
X51243Y-20990D01*
X51224Y-20971D01*
X51187Y-20953D01*
X50596Y-13678D02*
X50465Y-13490D01*
X50371Y-13678D02*
X50371Y-13284D01*
X50521Y-13284D01*
X50559Y-13303D01*
X50578Y-13321D01*
X50596Y-13359D01*
X50596Y-13415D01*
X50578Y-13453D01*
X50559Y-13471D01*
X50521Y-13490D01*
X50371Y-13490D01*
X50878Y-13284D02*
X50878Y-13565D01*
X50859Y-13621D01*
X50821Y-13659D01*
X50765Y-13678D01*
X50728Y-13678D01*
X51271Y-13678D02*
X51046Y-13678D01*
X51159Y-13678D02*
X51159Y-13284D01*
X51121Y-13340D01*
X51084Y-13378D01*
X51046Y-13396D01*
X51609Y-13415D02*
X51609Y-13678D01*
X51515Y-13265D02*
X51421Y-13546D01*
X51665Y-13546D01*
X57868Y-44784D02*
X57868Y-45065D01*
X57850Y-45121D01*
X57812Y-45159D01*
X57756Y-45178D01*
X57718Y-45178D01*
X58074Y-45178D02*
X58149Y-45178D01*
X58187Y-45159D01*
X58206Y-45140D01*
X58243Y-45084D01*
X58262Y-45009D01*
X58262Y-44859D01*
X58243Y-44821D01*
X58224Y-44803D01*
X58187Y-44784D01*
X58112Y-44784D01*
X58074Y-44803D01*
X58056Y-44821D01*
X58037Y-44859D01*
X58037Y-44953D01*
X58056Y-44990D01*
X58074Y-45009D01*
X58112Y-45028D01*
X58187Y-45028D01*
X58224Y-45009D01*
X58243Y-44990D01*
X58262Y-44953D01*
X57596Y-37678D02*
X57465Y-37490D01*
X57371Y-37678D02*
X57371Y-37284D01*
X57521Y-37284D01*
X57559Y-37303D01*
X57578Y-37321D01*
X57596Y-37359D01*
X57596Y-37415D01*
X57578Y-37453D01*
X57559Y-37471D01*
X57521Y-37490D01*
X57371Y-37490D01*
X57878Y-37284D02*
X57878Y-37565D01*
X57859Y-37621D01*
X57821Y-37659D01*
X57765Y-37678D01*
X57728Y-37678D01*
X58271Y-37678D02*
X58046Y-37678D01*
X58159Y-37678D02*
X58159Y-37284D01*
X58121Y-37340D01*
X58084Y-37378D01*
X58046Y-37396D01*
X58609Y-37415D02*
X58609Y-37678D01*
X58515Y-37265D02*
X58421Y-37546D01*
X58665Y-37546D01*
X57681Y-36784D02*
X57681Y-37065D01*
X57662Y-37121D01*
X57625Y-37159D01*
X57568Y-37178D01*
X57531Y-37178D01*
X58074Y-37178D02*
X57850Y-37178D01*
X57962Y-37178D02*
X57962Y-36784D01*
X57925Y-36840D01*
X57887Y-36878D01*
X57850Y-36896D01*
X58318Y-36784D02*
X58356Y-36784D01*
X58393Y-36803D01*
X58412Y-36821D01*
X58431Y-36859D01*
X58449Y-36934D01*
X58449Y-37028D01*
X58431Y-37103D01*
X58412Y-37140D01*
X58393Y-37159D01*
X58356Y-37178D01*
X58318Y-37178D01*
X58281Y-37159D01*
X58262Y-37140D01*
X58243Y-37103D01*
X58224Y-37028D01*
X58224Y-36934D01*
X58243Y-36859D01*
X58262Y-36821D01*
X58281Y-36803D01*
X58318Y-36784D01*
X57596Y-29678D02*
X57465Y-29490D01*
X57371Y-29678D02*
X57371Y-29284D01*
X57521Y-29284D01*
X57559Y-29303D01*
X57578Y-29321D01*
X57596Y-29359D01*
X57596Y-29415D01*
X57578Y-29453D01*
X57559Y-29471D01*
X57521Y-29490D01*
X57371Y-29490D01*
X57878Y-29284D02*
X57878Y-29565D01*
X57859Y-29621D01*
X57821Y-29659D01*
X57765Y-29678D01*
X57728Y-29678D01*
X58271Y-29678D02*
X58046Y-29678D01*
X58159Y-29678D02*
X58159Y-29284D01*
X58121Y-29340D01*
X58084Y-29378D01*
X58046Y-29396D01*
X58609Y-29415D02*
X58609Y-29678D01*
X58515Y-29265D02*
X58421Y-29546D01*
X58665Y-29546D01*
X57681Y-28784D02*
X57681Y-29065D01*
X57662Y-29121D01*
X57625Y-29159D01*
X57568Y-29178D01*
X57531Y-29178D01*
X58074Y-29178D02*
X57850Y-29178D01*
X57962Y-29178D02*
X57962Y-28784D01*
X57925Y-28840D01*
X57887Y-28878D01*
X57850Y-28896D01*
X58449Y-29178D02*
X58224Y-29178D01*
X58337Y-29178D02*
X58337Y-28784D01*
X58299Y-28840D01*
X58262Y-28878D01*
X58224Y-28896D01*
X57596Y-21678D02*
X57465Y-21490D01*
X57371Y-21678D02*
X57371Y-21284D01*
X57521Y-21284D01*
X57559Y-21303D01*
X57578Y-21321D01*
X57596Y-21359D01*
X57596Y-21415D01*
X57578Y-21453D01*
X57559Y-21471D01*
X57521Y-21490D01*
X57371Y-21490D01*
X57878Y-21284D02*
X57878Y-21565D01*
X57859Y-21621D01*
X57821Y-21659D01*
X57765Y-21678D01*
X57728Y-21678D01*
X58271Y-21678D02*
X58046Y-21678D01*
X58159Y-21678D02*
X58159Y-21284D01*
X58121Y-21340D01*
X58084Y-21378D01*
X58046Y-21396D01*
X58609Y-21415D02*
X58609Y-21678D01*
X58515Y-21265D02*
X58421Y-21546D01*
X58665Y-21546D01*
X57681Y-20784D02*
X57681Y-21065D01*
X57662Y-21121D01*
X57625Y-21159D01*
X57568Y-21178D01*
X57531Y-21178D01*
X58074Y-21178D02*
X57850Y-21178D01*
X57962Y-21178D02*
X57962Y-20784D01*
X57925Y-20840D01*
X57887Y-20878D01*
X57850Y-20896D01*
X58224Y-20821D02*
X58243Y-20803D01*
X58281Y-20784D01*
X58374Y-20784D01*
X58412Y-20803D01*
X58431Y-20821D01*
X58449Y-20859D01*
X58449Y-20896D01*
X58431Y-20953D01*
X58206Y-21178D01*
X58449Y-21178D01*
X57596Y-13678D02*
X57465Y-13490D01*
X57371Y-13678D02*
X57371Y-13284D01*
X57521Y-13284D01*
X57559Y-13303D01*
X57578Y-13321D01*
X57596Y-13359D01*
X57596Y-13415D01*
X57578Y-13453D01*
X57559Y-13471D01*
X57521Y-13490D01*
X57371Y-13490D01*
X57878Y-13284D02*
X57878Y-13565D01*
X57859Y-13621D01*
X57821Y-13659D01*
X57765Y-13678D01*
X57728Y-13678D01*
X58271Y-13678D02*
X58046Y-13678D01*
X58159Y-13678D02*
X58159Y-13284D01*
X58121Y-13340D01*
X58084Y-13378D01*
X58046Y-13396D01*
X58609Y-13415D02*
X58609Y-13678D01*
X58515Y-13265D02*
X58421Y-13546D01*
X58665Y-13546D01*
X64681Y-44784D02*
X64681Y-45065D01*
X64662Y-45121D01*
X64625Y-45159D01*
X64568Y-45178D01*
X64531Y-45178D01*
X65074Y-45178D02*
X64850Y-45178D01*
X64962Y-45178D02*
X64962Y-44784D01*
X64925Y-44840D01*
X64887Y-44878D01*
X64850Y-44896D01*
X65206Y-44784D02*
X65449Y-44784D01*
X65318Y-44934D01*
X65374Y-44934D01*
X65412Y-44953D01*
X65431Y-44971D01*
X65449Y-45009D01*
X65449Y-45103D01*
X65431Y-45140D01*
X65412Y-45159D01*
X65374Y-45178D01*
X65262Y-45178D01*
X65224Y-45159D01*
X65206Y-45140D01*
X64596Y-37678D02*
X64465Y-37490D01*
X64371Y-37678D02*
X64371Y-37284D01*
X64521Y-37284D01*
X64559Y-37303D01*
X64578Y-37321D01*
X64596Y-37359D01*
X64596Y-37415D01*
X64578Y-37453D01*
X64559Y-37471D01*
X64521Y-37490D01*
X64371Y-37490D01*
X64878Y-37284D02*
X64878Y-37565D01*
X64859Y-37621D01*
X64821Y-37659D01*
X64765Y-37678D01*
X64728Y-37678D01*
X65271Y-37678D02*
X65046Y-37678D01*
X65159Y-37678D02*
X65159Y-37284D01*
X65121Y-37340D01*
X65084Y-37378D01*
X65046Y-37396D01*
X65609Y-37415D02*
X65609Y-37678D01*
X65515Y-37265D02*
X65421Y-37546D01*
X65665Y-37546D01*
X64681Y-36784D02*
X64681Y-37065D01*
X64662Y-37121D01*
X64625Y-37159D01*
X64568Y-37178D01*
X64531Y-37178D01*
X65074Y-37178D02*
X64850Y-37178D01*
X64962Y-37178D02*
X64962Y-36784D01*
X64925Y-36840D01*
X64887Y-36878D01*
X64850Y-36896D01*
X65412Y-36915D02*
X65412Y-37178D01*
X65318Y-36765D02*
X65224Y-37046D01*
X65468Y-37046D01*
X64596Y-29678D02*
X64465Y-29490D01*
X64371Y-29678D02*
X64371Y-29284D01*
X64521Y-29284D01*
X64559Y-29303D01*
X64578Y-29321D01*
X64596Y-29359D01*
X64596Y-29415D01*
X64578Y-29453D01*
X64559Y-29471D01*
X64521Y-29490D01*
X64371Y-29490D01*
X64878Y-29284D02*
X64878Y-29565D01*
X64859Y-29621D01*
X64821Y-29659D01*
X64765Y-29678D01*
X64728Y-29678D01*
X65271Y-29678D02*
X65046Y-29678D01*
X65159Y-29678D02*
X65159Y-29284D01*
X65121Y-29340D01*
X65084Y-29378D01*
X65046Y-29396D01*
X65609Y-29415D02*
X65609Y-29678D01*
X65515Y-29265D02*
X65421Y-29546D01*
X65665Y-29546D01*
X64681Y-28784D02*
X64681Y-29065D01*
X64662Y-29121D01*
X64625Y-29159D01*
X64568Y-29178D01*
X64531Y-29178D01*
X65074Y-29178D02*
X64850Y-29178D01*
X64962Y-29178D02*
X64962Y-28784D01*
X64925Y-28840D01*
X64887Y-28878D01*
X64850Y-28896D01*
X65431Y-28784D02*
X65243Y-28784D01*
X65224Y-28971D01*
X65243Y-28953D01*
X65281Y-28934D01*
X65374Y-28934D01*
X65412Y-28953D01*
X65431Y-28971D01*
X65449Y-29009D01*
X65449Y-29103D01*
X65431Y-29140D01*
X65412Y-29159D01*
X65374Y-29178D01*
X65281Y-29178D01*
X65243Y-29159D01*
X65224Y-29140D01*
X64596Y-21678D02*
X64465Y-21490D01*
X64371Y-21678D02*
X64371Y-21284D01*
X64521Y-21284D01*
X64559Y-21303D01*
X64578Y-21321D01*
X64596Y-21359D01*
X64596Y-21415D01*
X64578Y-21453D01*
X64559Y-21471D01*
X64521Y-21490D01*
X64371Y-21490D01*
X64878Y-21284D02*
X64878Y-21565D01*
X64859Y-21621D01*
X64821Y-21659D01*
X64765Y-21678D01*
X64728Y-21678D01*
X65271Y-21678D02*
X65046Y-21678D01*
X65159Y-21678D02*
X65159Y-21284D01*
X65121Y-21340D01*
X65084Y-21378D01*
X65046Y-21396D01*
X65609Y-21415D02*
X65609Y-21678D01*
X65515Y-21265D02*
X65421Y-21546D01*
X65665Y-21546D01*
X64681Y-20784D02*
X64681Y-21065D01*
X64662Y-21121D01*
X64625Y-21159D01*
X64568Y-21178D01*
X64531Y-21178D01*
X65074Y-21178D02*
X64850Y-21178D01*
X64962Y-21178D02*
X64962Y-20784D01*
X64925Y-20840D01*
X64887Y-20878D01*
X64850Y-20896D01*
X65412Y-20784D02*
X65337Y-20784D01*
X65299Y-20803D01*
X65281Y-20821D01*
X65243Y-20878D01*
X65224Y-20953D01*
X65224Y-21103D01*
X65243Y-21140D01*
X65262Y-21159D01*
X65299Y-21178D01*
X65374Y-21178D01*
X65412Y-21159D01*
X65431Y-21140D01*
X65449Y-21103D01*
X65449Y-21009D01*
X65431Y-20971D01*
X65412Y-20953D01*
X65374Y-20934D01*
X65299Y-20934D01*
X65262Y-20953D01*
X65243Y-20971D01*
X65224Y-21009D01*
X64596Y-13678D02*
X64465Y-13490D01*
X64371Y-13678D02*
X64371Y-13284D01*
X64521Y-13284D01*
X64559Y-13303D01*
X64578Y-13321D01*
X64596Y-13359D01*
X64596Y-13415D01*
X64578Y-13453D01*
X64559Y-13471D01*
X64521Y-13490D01*
X64371Y-13490D01*
X64878Y-13284D02*
X64878Y-13565D01*
X64859Y-13621D01*
X64821Y-13659D01*
X64765Y-13678D01*
X64728Y-13678D01*
X65271Y-13678D02*
X65046Y-13678D01*
X65159Y-13678D02*
X65159Y-13284D01*
X65121Y-13340D01*
X65084Y-13378D01*
X65046Y-13396D01*
X65609Y-13415D02*
X65609Y-13678D01*
X65515Y-13265D02*
X65421Y-13546D01*
X65665Y-13546D01*
X44406Y-57353D02*
X44406Y-56763D01*
X44631Y-56763D01*
X44687Y-56791D01*
X44715Y-56819D01*
X44744Y-56875D01*
X44744Y-56960D01*
X44715Y-57016D01*
X44687Y-57044D01*
X44631Y-57072D01*
X44406Y-57072D01*
X45306Y-57353D02*
X44969Y-57353D01*
X45137Y-57353D02*
X45137Y-56763D01*
X45081Y-56847D01*
X45025Y-56903D01*
X44969Y-56931D01*
X43394Y-52179D02*
X43366Y-52207D01*
X43281Y-52235D01*
X43225Y-52235D01*
X43141Y-52207D01*
X43084Y-52151D01*
X43056Y-52095D01*
X43028Y-51982D01*
X43028Y-51898D01*
X43056Y-51785D01*
X43084Y-51729D01*
X43141Y-51673D01*
X43225Y-51645D01*
X43281Y-51645D01*
X43366Y-51673D01*
X43394Y-51701D01*
X43759Y-51645D02*
X43872Y-51645D01*
X43928Y-51673D01*
X43984Y-51729D01*
X44012Y-51841D01*
X44012Y-52038D01*
X43984Y-52151D01*
X43928Y-52207D01*
X43872Y-52235D01*
X43759Y-52235D01*
X43703Y-52207D01*
X43647Y-52151D01*
X43619Y-52038D01*
X43619Y-51841D01*
X43647Y-51729D01*
X43703Y-51673D01*
X43759Y-51645D01*
X44266Y-52235D02*
X44266Y-51645D01*
X44603Y-52235D01*
X44603Y-51645D01*
X44884Y-52235D02*
X44884Y-51645D01*
X45222Y-52235D01*
X45222Y-51645D01*
X45362Y-52291D02*
X45812Y-52291D01*
X46206Y-51841D02*
X46206Y-52235D01*
X46065Y-51616D02*
X45925Y-52038D01*
X46290Y-52038D01*
G54D12*
X41611Y-45743D02*
X41611Y-45143D01*
X41811Y-45572D01*
X42011Y-45143D01*
X42011Y-45743D01*
X42297Y-45743D02*
X42297Y-45143D01*
X42297Y-45429D02*
X42640Y-45429D01*
X42640Y-45743D02*
X42640Y-45143D01*
X72712Y-14884D02*
X72112Y-14884D01*
X72540Y-14684D01*
X72112Y-14484D01*
X72712Y-14484D01*
X72712Y-14198D02*
X72112Y-14198D01*
X72398Y-14198D02*
X72398Y-13855D01*
X72712Y-13855D02*
X72112Y-13855D01*
X72515Y-50317D02*
X71915Y-50317D01*
X72344Y-50117D01*
X71915Y-49917D01*
X72515Y-49917D01*
X72515Y-49631D02*
X71915Y-49631D01*
X72201Y-49631D02*
X72201Y-49288D01*
X72515Y-49288D02*
X71915Y-49288D01*
M02*
