%FSLAX34Y34*%
G04 Gerber Fmt 3.4, Leading zero omitted, Abs format*
G04 (created by PCBNEW (2014-jan-25)-product) date Wed 30 Apr 2014 08:14:39 PM MDT*
%MOIN*%
G01*
G70*
G90*
G04 APERTURE LIST*
%ADD10C,0.003937*%
%ADD11C,0.059100*%
%ADD12R,0.137800X0.137800*%
%ADD13C,0.118100*%
%ADD14R,0.068000X0.080000*%
%ADD15O,0.068000X0.080000*%
%ADD16C,0.125984*%
%ADD17C,0.059055*%
%ADD18C,0.098425*%
%ADD19C,0.010000*%
G04 APERTURE END LIST*
G54D10*
G54D11*
X66500Y-49000D03*
X66500Y-50000D03*
G54D12*
X71059Y-37500D03*
X73421Y-37500D03*
X72240Y-35650D03*
X71059Y-30500D03*
X73421Y-30500D03*
X72240Y-28650D03*
G54D11*
X71062Y-42497D03*
X71062Y-43497D03*
X71062Y-44297D03*
X71062Y-45297D03*
G54D13*
X72112Y-41297D03*
X72112Y-46697D03*
G54D14*
X42000Y-50000D03*
G54D15*
X43000Y-50000D03*
X44000Y-50000D03*
X45000Y-50000D03*
X46000Y-50000D03*
X47000Y-50000D03*
X48000Y-50000D03*
X49000Y-50000D03*
X50000Y-50000D03*
X51000Y-50000D03*
X52000Y-50000D03*
X53000Y-50000D03*
X54000Y-50000D03*
X55000Y-50000D03*
X56000Y-50000D03*
X57000Y-50000D03*
X58000Y-50000D03*
X59000Y-50000D03*
X60000Y-50000D03*
X61000Y-50000D03*
X62000Y-50000D03*
X63000Y-50000D03*
G54D16*
X42000Y-39500D03*
X46000Y-39500D03*
G54D17*
X45250Y-43000D03*
X44750Y-42000D03*
X44250Y-43000D03*
X43750Y-42000D03*
X43250Y-43000D03*
X42750Y-42000D03*
G54D16*
X42000Y-31500D03*
X46000Y-31500D03*
G54D17*
X45250Y-35000D03*
X44750Y-34000D03*
X44250Y-35000D03*
X43750Y-34000D03*
X43250Y-35000D03*
X42750Y-34000D03*
G54D16*
X42000Y-23500D03*
X46000Y-23500D03*
G54D17*
X45250Y-27000D03*
X44750Y-26000D03*
X44250Y-27000D03*
X43750Y-26000D03*
X43250Y-27000D03*
X42750Y-26000D03*
G54D16*
X42000Y-15500D03*
X46000Y-15500D03*
G54D17*
X45250Y-19000D03*
X44750Y-18000D03*
X44250Y-19000D03*
X43750Y-18000D03*
X43250Y-19000D03*
X42750Y-18000D03*
G54D16*
X49000Y-39500D03*
X53000Y-39500D03*
G54D17*
X52250Y-43000D03*
X51750Y-42000D03*
X51250Y-43000D03*
X50750Y-42000D03*
X50250Y-43000D03*
X49750Y-42000D03*
G54D16*
X49000Y-31500D03*
X53000Y-31500D03*
G54D17*
X52250Y-35000D03*
X51750Y-34000D03*
X51250Y-35000D03*
X50750Y-34000D03*
X50250Y-35000D03*
X49750Y-34000D03*
G54D16*
X49000Y-23500D03*
X53000Y-23500D03*
G54D17*
X52250Y-27000D03*
X51750Y-26000D03*
X51250Y-27000D03*
X50750Y-26000D03*
X50250Y-27000D03*
X49750Y-26000D03*
G54D16*
X49000Y-15500D03*
X53000Y-15500D03*
G54D17*
X52250Y-19000D03*
X51750Y-18000D03*
X51250Y-19000D03*
X50750Y-18000D03*
X50250Y-19000D03*
X49750Y-18000D03*
G54D16*
X56000Y-39500D03*
X60000Y-39500D03*
G54D17*
X59250Y-43000D03*
X58750Y-42000D03*
X58250Y-43000D03*
X57750Y-42000D03*
X57250Y-43000D03*
X56750Y-42000D03*
G54D16*
X56000Y-31500D03*
X60000Y-31500D03*
G54D17*
X59250Y-35000D03*
X58750Y-34000D03*
X58250Y-35000D03*
X57750Y-34000D03*
X57250Y-35000D03*
X56750Y-34000D03*
G54D16*
X56000Y-23500D03*
X60000Y-23500D03*
G54D17*
X59250Y-27000D03*
X58750Y-26000D03*
X58250Y-27000D03*
X57750Y-26000D03*
X57250Y-27000D03*
X56750Y-26000D03*
G54D16*
X56000Y-15500D03*
X60000Y-15500D03*
G54D17*
X59250Y-19000D03*
X58750Y-18000D03*
X58250Y-19000D03*
X57750Y-18000D03*
X57250Y-19000D03*
X56750Y-18000D03*
G54D16*
X63000Y-39500D03*
X67000Y-39500D03*
G54D17*
X66250Y-43000D03*
X65750Y-42000D03*
X65250Y-43000D03*
X64750Y-42000D03*
X64250Y-43000D03*
X63750Y-42000D03*
G54D16*
X63000Y-31500D03*
X67000Y-31500D03*
G54D17*
X66250Y-35000D03*
X65750Y-34000D03*
X65250Y-35000D03*
X64750Y-34000D03*
X64250Y-35000D03*
X63750Y-34000D03*
G54D16*
X63000Y-23500D03*
X67000Y-23500D03*
G54D17*
X66250Y-27000D03*
X65750Y-26000D03*
X65250Y-27000D03*
X64750Y-26000D03*
X64250Y-27000D03*
X63750Y-26000D03*
G54D16*
X63000Y-15500D03*
X67000Y-15500D03*
G54D17*
X66250Y-19000D03*
X65750Y-18000D03*
X65250Y-19000D03*
X64750Y-18000D03*
X64250Y-19000D03*
X63750Y-18000D03*
G54D18*
X41692Y-53543D03*
X43661Y-53543D03*
X45629Y-53543D03*
X47598Y-53543D03*
G54D10*
G36*
X76220Y-51720D02*
X75250Y-51720D01*
X75250Y-14203D01*
X75122Y-13894D01*
X74886Y-13657D01*
X74577Y-13529D01*
X74242Y-13529D01*
X73933Y-13657D01*
X73697Y-13893D01*
X73569Y-14202D01*
X73568Y-14536D01*
X73696Y-14845D01*
X73932Y-15082D01*
X74241Y-15210D01*
X74575Y-15210D01*
X74884Y-15083D01*
X75121Y-14846D01*
X75249Y-14537D01*
X75250Y-14203D01*
X75250Y-51720D01*
X74856Y-51720D01*
X74856Y-49636D01*
X74728Y-49327D01*
X74492Y-49091D01*
X74360Y-49036D01*
X74360Y-38238D01*
X74360Y-38139D01*
X74360Y-37612D01*
X74360Y-37387D01*
X74360Y-36860D01*
X74360Y-36761D01*
X74360Y-31238D01*
X74360Y-31139D01*
X74360Y-30612D01*
X74360Y-30387D01*
X74360Y-29860D01*
X74360Y-29761D01*
X74321Y-29669D01*
X74251Y-29599D01*
X74159Y-29561D01*
X73533Y-29561D01*
X73471Y-29623D01*
X73471Y-30450D01*
X74297Y-30450D01*
X74360Y-30387D01*
X74360Y-30612D01*
X74297Y-30550D01*
X73471Y-30550D01*
X73471Y-31376D01*
X73533Y-31439D01*
X74159Y-31439D01*
X74251Y-31400D01*
X74321Y-31330D01*
X74360Y-31238D01*
X74360Y-36761D01*
X74321Y-36669D01*
X74251Y-36599D01*
X74159Y-36561D01*
X73533Y-36561D01*
X73471Y-36623D01*
X73471Y-37450D01*
X74297Y-37450D01*
X74360Y-37387D01*
X74360Y-37612D01*
X74297Y-37550D01*
X73471Y-37550D01*
X73471Y-38376D01*
X73533Y-38439D01*
X74159Y-38439D01*
X74251Y-38400D01*
X74321Y-38330D01*
X74360Y-38238D01*
X74360Y-49036D01*
X74183Y-48962D01*
X73849Y-48962D01*
X73540Y-49090D01*
X73371Y-49259D01*
X73371Y-38376D01*
X73371Y-37550D01*
X73371Y-37450D01*
X73371Y-36623D01*
X73371Y-31376D01*
X73371Y-30550D01*
X73371Y-30450D01*
X73371Y-29623D01*
X73308Y-29561D01*
X73046Y-29561D01*
X73070Y-29550D01*
X73140Y-29480D01*
X73179Y-29388D01*
X73179Y-29289D01*
X73179Y-28762D01*
X73179Y-28537D01*
X73179Y-28010D01*
X73179Y-27911D01*
X73140Y-27819D01*
X73070Y-27749D01*
X72978Y-27711D01*
X72352Y-27711D01*
X72290Y-27773D01*
X72290Y-28600D01*
X73116Y-28600D01*
X73179Y-28537D01*
X73179Y-28762D01*
X73116Y-28700D01*
X72290Y-28700D01*
X72290Y-29526D01*
X72352Y-29589D01*
X72614Y-29589D01*
X72590Y-29599D01*
X72520Y-29669D01*
X72482Y-29761D01*
X72482Y-29860D01*
X72482Y-30387D01*
X72544Y-30450D01*
X73371Y-30450D01*
X73371Y-30550D01*
X72544Y-30550D01*
X72482Y-30612D01*
X72482Y-31139D01*
X72482Y-31238D01*
X72520Y-31330D01*
X72590Y-31400D01*
X72682Y-31439D01*
X73308Y-31439D01*
X73371Y-31376D01*
X73371Y-36623D01*
X73308Y-36561D01*
X73046Y-36561D01*
X73070Y-36550D01*
X73140Y-36480D01*
X73179Y-36388D01*
X73179Y-36289D01*
X73179Y-35762D01*
X73179Y-35537D01*
X73179Y-35010D01*
X73179Y-34911D01*
X73140Y-34819D01*
X73070Y-34749D01*
X72978Y-34711D01*
X72352Y-34711D01*
X72290Y-34773D01*
X72290Y-35600D01*
X73116Y-35600D01*
X73179Y-35537D01*
X73179Y-35762D01*
X73116Y-35700D01*
X72290Y-35700D01*
X72290Y-36526D01*
X72352Y-36589D01*
X72614Y-36589D01*
X72590Y-36599D01*
X72520Y-36669D01*
X72482Y-36761D01*
X72482Y-36860D01*
X72482Y-37387D01*
X72544Y-37450D01*
X73371Y-37450D01*
X73371Y-37550D01*
X72544Y-37550D01*
X72482Y-37612D01*
X72482Y-38139D01*
X72482Y-38238D01*
X72520Y-38330D01*
X72590Y-38400D01*
X72682Y-38439D01*
X73308Y-38439D01*
X73371Y-38376D01*
X73371Y-49259D01*
X73303Y-49326D01*
X73175Y-49635D01*
X73175Y-49969D01*
X73302Y-50278D01*
X73539Y-50515D01*
X73847Y-50643D01*
X74182Y-50643D01*
X74491Y-50516D01*
X74727Y-50279D01*
X74856Y-49971D01*
X74856Y-49636D01*
X74856Y-51720D01*
X72956Y-51720D01*
X72956Y-46848D01*
X72956Y-41448D01*
X72950Y-41114D01*
X72834Y-40835D01*
X72709Y-40772D01*
X72638Y-40843D01*
X72638Y-40701D01*
X72575Y-40576D01*
X72264Y-40454D01*
X72190Y-40455D01*
X72190Y-36526D01*
X72190Y-35700D01*
X72190Y-35600D01*
X72190Y-34773D01*
X72190Y-29526D01*
X72190Y-28700D01*
X72190Y-28600D01*
X72190Y-27773D01*
X72127Y-27711D01*
X71501Y-27711D01*
X71409Y-27749D01*
X71339Y-27819D01*
X71301Y-27911D01*
X71301Y-28010D01*
X71301Y-28537D01*
X71363Y-28600D01*
X72190Y-28600D01*
X72190Y-28700D01*
X71363Y-28700D01*
X71301Y-28762D01*
X71301Y-29289D01*
X71301Y-29388D01*
X71339Y-29480D01*
X71409Y-29550D01*
X71433Y-29561D01*
X70320Y-29561D01*
X70228Y-29599D01*
X70158Y-29669D01*
X70120Y-29761D01*
X70120Y-29860D01*
X70120Y-31238D01*
X70158Y-31330D01*
X70228Y-31400D01*
X70320Y-31439D01*
X70419Y-31439D01*
X71797Y-31439D01*
X71889Y-31400D01*
X71959Y-31330D01*
X71998Y-31238D01*
X71998Y-31139D01*
X71998Y-29761D01*
X71959Y-29669D01*
X71889Y-29599D01*
X71865Y-29589D01*
X72127Y-29589D01*
X72190Y-29526D01*
X72190Y-34773D01*
X72127Y-34711D01*
X71501Y-34711D01*
X71409Y-34749D01*
X71339Y-34819D01*
X71301Y-34911D01*
X71301Y-35010D01*
X71301Y-35537D01*
X71363Y-35600D01*
X72190Y-35600D01*
X72190Y-35700D01*
X71363Y-35700D01*
X71301Y-35762D01*
X71301Y-36289D01*
X71301Y-36388D01*
X71339Y-36480D01*
X71409Y-36550D01*
X71433Y-36561D01*
X70320Y-36561D01*
X70228Y-36599D01*
X70158Y-36669D01*
X70120Y-36761D01*
X70120Y-36860D01*
X70120Y-38238D01*
X70158Y-38330D01*
X70228Y-38400D01*
X70320Y-38439D01*
X70419Y-38439D01*
X71797Y-38439D01*
X71889Y-38400D01*
X71959Y-38330D01*
X71998Y-38238D01*
X71998Y-38139D01*
X71998Y-36761D01*
X71959Y-36669D01*
X71889Y-36599D01*
X71865Y-36589D01*
X72127Y-36589D01*
X72190Y-36526D01*
X72190Y-40455D01*
X71929Y-40460D01*
X71650Y-40576D01*
X71587Y-40701D01*
X72112Y-41226D01*
X72638Y-40701D01*
X72638Y-40843D01*
X72183Y-41297D01*
X72709Y-41822D01*
X72834Y-41760D01*
X72956Y-41448D01*
X72956Y-46848D01*
X72950Y-46514D01*
X72834Y-46235D01*
X72709Y-46172D01*
X72638Y-46243D01*
X72638Y-46101D01*
X72638Y-41893D01*
X72112Y-41368D01*
X72042Y-41439D01*
X72042Y-41297D01*
X71516Y-40772D01*
X71391Y-40835D01*
X71269Y-41146D01*
X71275Y-41480D01*
X71391Y-41760D01*
X71516Y-41822D01*
X72042Y-41297D01*
X72042Y-41439D01*
X71587Y-41893D01*
X71650Y-42019D01*
X71961Y-42141D01*
X72296Y-42134D01*
X72575Y-42019D01*
X72638Y-41893D01*
X72638Y-46101D01*
X72575Y-45976D01*
X72264Y-45854D01*
X71929Y-45860D01*
X71650Y-45976D01*
X71613Y-46050D01*
X71613Y-42578D01*
X71602Y-42361D01*
X71540Y-42212D01*
X71445Y-42185D01*
X71374Y-42256D01*
X71374Y-42114D01*
X71348Y-42020D01*
X71143Y-41947D01*
X70926Y-41958D01*
X70777Y-42020D01*
X70751Y-42114D01*
X71062Y-42426D01*
X71374Y-42114D01*
X71374Y-42256D01*
X71133Y-42497D01*
X71445Y-42809D01*
X71540Y-42782D01*
X71613Y-42578D01*
X71613Y-46050D01*
X71608Y-46059D01*
X71608Y-45189D01*
X71525Y-44989D01*
X71372Y-44835D01*
X71281Y-44797D01*
X71371Y-44760D01*
X71525Y-44607D01*
X71608Y-44406D01*
X71608Y-44189D01*
X71525Y-43989D01*
X71434Y-43897D01*
X71525Y-43807D01*
X71608Y-43606D01*
X71608Y-43389D01*
X71525Y-43189D01*
X71372Y-43035D01*
X71287Y-43000D01*
X71348Y-42975D01*
X71374Y-42880D01*
X71062Y-42568D01*
X70992Y-42639D01*
X70992Y-42497D01*
X70680Y-42185D01*
X70585Y-42212D01*
X70512Y-42416D01*
X70523Y-42633D01*
X70585Y-42782D01*
X70680Y-42809D01*
X70992Y-42497D01*
X70992Y-42639D01*
X70751Y-42880D01*
X70777Y-42975D01*
X70842Y-42998D01*
X70754Y-43034D01*
X70600Y-43188D01*
X70517Y-43388D01*
X70517Y-43605D01*
X70600Y-43806D01*
X70691Y-43897D01*
X70600Y-43988D01*
X70517Y-44188D01*
X70517Y-44405D01*
X70600Y-44606D01*
X70753Y-44759D01*
X70844Y-44797D01*
X70754Y-44834D01*
X70600Y-44988D01*
X70517Y-45188D01*
X70517Y-45405D01*
X70600Y-45606D01*
X70753Y-45759D01*
X70954Y-45843D01*
X71171Y-45843D01*
X71371Y-45760D01*
X71525Y-45607D01*
X71608Y-45406D01*
X71608Y-45189D01*
X71608Y-46059D01*
X71587Y-46101D01*
X72112Y-46626D01*
X72638Y-46101D01*
X72638Y-46243D01*
X72183Y-46697D01*
X72709Y-47222D01*
X72834Y-47160D01*
X72956Y-46848D01*
X72956Y-51720D01*
X72638Y-51720D01*
X72638Y-47293D01*
X72112Y-46768D01*
X72042Y-46839D01*
X72042Y-46697D01*
X71516Y-46172D01*
X71391Y-46235D01*
X71269Y-46546D01*
X71275Y-46880D01*
X71391Y-47160D01*
X71516Y-47222D01*
X72042Y-46697D01*
X72042Y-46839D01*
X71587Y-47293D01*
X71650Y-47419D01*
X71961Y-47541D01*
X72296Y-47534D01*
X72575Y-47419D01*
X72638Y-47293D01*
X72638Y-51720D01*
X67880Y-51720D01*
X67880Y-39325D01*
X67880Y-31325D01*
X67880Y-23325D01*
X67880Y-15325D01*
X67746Y-15002D01*
X67499Y-14754D01*
X67175Y-14620D01*
X66825Y-14619D01*
X66502Y-14753D01*
X66254Y-15000D01*
X66120Y-15324D01*
X66119Y-15674D01*
X66253Y-15997D01*
X66500Y-16245D01*
X66824Y-16379D01*
X67174Y-16380D01*
X67497Y-16246D01*
X67745Y-15999D01*
X67879Y-15675D01*
X67880Y-15325D01*
X67880Y-23325D01*
X67746Y-23002D01*
X67499Y-22754D01*
X67175Y-22620D01*
X66825Y-22619D01*
X66795Y-22632D01*
X66795Y-18892D01*
X66712Y-18691D01*
X66559Y-18538D01*
X66358Y-18454D01*
X66295Y-18454D01*
X66295Y-17892D01*
X66212Y-17691D01*
X66059Y-17538D01*
X65858Y-17454D01*
X65642Y-17454D01*
X65441Y-17537D01*
X65288Y-17690D01*
X65252Y-17775D01*
X65227Y-17714D01*
X65132Y-17688D01*
X65061Y-17758D01*
X65061Y-17617D01*
X65035Y-17522D01*
X64830Y-17449D01*
X64613Y-17460D01*
X64464Y-17522D01*
X64438Y-17617D01*
X64750Y-17929D01*
X65061Y-17617D01*
X65061Y-17758D01*
X64820Y-18000D01*
X65132Y-18311D01*
X65227Y-18285D01*
X65250Y-18219D01*
X65287Y-18308D01*
X65440Y-18461D01*
X65641Y-18545D01*
X65857Y-18545D01*
X66058Y-18462D01*
X66211Y-18309D01*
X66295Y-18108D01*
X66295Y-17892D01*
X66295Y-18454D01*
X66142Y-18454D01*
X65941Y-18537D01*
X65788Y-18690D01*
X65750Y-18782D01*
X65712Y-18691D01*
X65559Y-18538D01*
X65358Y-18454D01*
X65142Y-18454D01*
X65061Y-18487D01*
X65061Y-18382D01*
X64750Y-18070D01*
X64679Y-18141D01*
X64679Y-18000D01*
X64367Y-17688D01*
X64272Y-17714D01*
X64249Y-17780D01*
X64212Y-17691D01*
X64059Y-17538D01*
X63880Y-17463D01*
X63880Y-15325D01*
X63746Y-15002D01*
X63499Y-14754D01*
X63175Y-14620D01*
X62825Y-14619D01*
X62502Y-14753D01*
X62254Y-15000D01*
X62120Y-15324D01*
X62119Y-15674D01*
X62253Y-15997D01*
X62500Y-16245D01*
X62824Y-16379D01*
X63174Y-16380D01*
X63497Y-16246D01*
X63745Y-15999D01*
X63879Y-15675D01*
X63880Y-15325D01*
X63880Y-17463D01*
X63858Y-17454D01*
X63642Y-17454D01*
X63441Y-17537D01*
X63288Y-17690D01*
X63204Y-17891D01*
X63204Y-18107D01*
X63287Y-18308D01*
X63440Y-18461D01*
X63641Y-18545D01*
X63857Y-18545D01*
X64058Y-18462D01*
X64211Y-18309D01*
X64247Y-18224D01*
X64272Y-18285D01*
X64367Y-18311D01*
X64679Y-18000D01*
X64679Y-18141D01*
X64438Y-18382D01*
X64464Y-18477D01*
X64669Y-18550D01*
X64886Y-18539D01*
X65035Y-18477D01*
X65061Y-18382D01*
X65061Y-18487D01*
X64941Y-18537D01*
X64788Y-18690D01*
X64750Y-18782D01*
X64712Y-18691D01*
X64559Y-18538D01*
X64358Y-18454D01*
X64142Y-18454D01*
X63941Y-18537D01*
X63788Y-18690D01*
X63704Y-18891D01*
X63704Y-19107D01*
X63787Y-19308D01*
X63940Y-19461D01*
X64141Y-19545D01*
X64357Y-19545D01*
X64558Y-19462D01*
X64711Y-19309D01*
X64749Y-19217D01*
X64787Y-19308D01*
X64940Y-19461D01*
X65141Y-19545D01*
X65357Y-19545D01*
X65558Y-19462D01*
X65711Y-19309D01*
X65749Y-19217D01*
X65787Y-19308D01*
X65940Y-19461D01*
X66141Y-19545D01*
X66357Y-19545D01*
X66558Y-19462D01*
X66711Y-19309D01*
X66795Y-19108D01*
X66795Y-18892D01*
X66795Y-22632D01*
X66502Y-22753D01*
X66254Y-23000D01*
X66120Y-23324D01*
X66119Y-23674D01*
X66253Y-23997D01*
X66500Y-24245D01*
X66824Y-24379D01*
X67174Y-24380D01*
X67497Y-24246D01*
X67745Y-23999D01*
X67879Y-23675D01*
X67880Y-23325D01*
X67880Y-31325D01*
X67746Y-31002D01*
X67499Y-30754D01*
X67175Y-30620D01*
X66825Y-30619D01*
X66795Y-30632D01*
X66795Y-26892D01*
X66712Y-26691D01*
X66559Y-26538D01*
X66358Y-26454D01*
X66295Y-26454D01*
X66295Y-25892D01*
X66212Y-25691D01*
X66059Y-25538D01*
X65858Y-25454D01*
X65642Y-25454D01*
X65441Y-25537D01*
X65288Y-25690D01*
X65252Y-25775D01*
X65227Y-25714D01*
X65132Y-25688D01*
X65061Y-25758D01*
X65061Y-25617D01*
X65035Y-25522D01*
X64830Y-25449D01*
X64613Y-25460D01*
X64464Y-25522D01*
X64438Y-25617D01*
X64750Y-25929D01*
X65061Y-25617D01*
X65061Y-25758D01*
X64820Y-26000D01*
X65132Y-26311D01*
X65227Y-26285D01*
X65250Y-26219D01*
X65287Y-26308D01*
X65440Y-26461D01*
X65641Y-26545D01*
X65857Y-26545D01*
X66058Y-26462D01*
X66211Y-26309D01*
X66295Y-26108D01*
X66295Y-25892D01*
X66295Y-26454D01*
X66142Y-26454D01*
X65941Y-26537D01*
X65788Y-26690D01*
X65750Y-26782D01*
X65712Y-26691D01*
X65559Y-26538D01*
X65358Y-26454D01*
X65142Y-26454D01*
X65061Y-26487D01*
X65061Y-26382D01*
X64750Y-26070D01*
X64679Y-26141D01*
X64679Y-26000D01*
X64367Y-25688D01*
X64272Y-25714D01*
X64249Y-25780D01*
X64212Y-25691D01*
X64059Y-25538D01*
X63880Y-25463D01*
X63880Y-23325D01*
X63746Y-23002D01*
X63499Y-22754D01*
X63175Y-22620D01*
X62825Y-22619D01*
X62502Y-22753D01*
X62254Y-23000D01*
X62120Y-23324D01*
X62119Y-23674D01*
X62253Y-23997D01*
X62500Y-24245D01*
X62824Y-24379D01*
X63174Y-24380D01*
X63497Y-24246D01*
X63745Y-23999D01*
X63879Y-23675D01*
X63880Y-23325D01*
X63880Y-25463D01*
X63858Y-25454D01*
X63642Y-25454D01*
X63441Y-25537D01*
X63288Y-25690D01*
X63204Y-25891D01*
X63204Y-26107D01*
X63287Y-26308D01*
X63440Y-26461D01*
X63641Y-26545D01*
X63857Y-26545D01*
X64058Y-26462D01*
X64211Y-26309D01*
X64247Y-26224D01*
X64272Y-26285D01*
X64367Y-26311D01*
X64679Y-26000D01*
X64679Y-26141D01*
X64438Y-26382D01*
X64464Y-26477D01*
X64669Y-26550D01*
X64886Y-26539D01*
X65035Y-26477D01*
X65061Y-26382D01*
X65061Y-26487D01*
X64941Y-26537D01*
X64788Y-26690D01*
X64750Y-26782D01*
X64712Y-26691D01*
X64559Y-26538D01*
X64358Y-26454D01*
X64142Y-26454D01*
X63941Y-26537D01*
X63788Y-26690D01*
X63704Y-26891D01*
X63704Y-27107D01*
X63787Y-27308D01*
X63940Y-27461D01*
X64141Y-27545D01*
X64357Y-27545D01*
X64558Y-27462D01*
X64711Y-27309D01*
X64749Y-27217D01*
X64787Y-27308D01*
X64940Y-27461D01*
X65141Y-27545D01*
X65357Y-27545D01*
X65558Y-27462D01*
X65711Y-27309D01*
X65749Y-27217D01*
X65787Y-27308D01*
X65940Y-27461D01*
X66141Y-27545D01*
X66357Y-27545D01*
X66558Y-27462D01*
X66711Y-27309D01*
X66795Y-27108D01*
X66795Y-26892D01*
X66795Y-30632D01*
X66502Y-30753D01*
X66254Y-31000D01*
X66120Y-31324D01*
X66119Y-31674D01*
X66253Y-31997D01*
X66500Y-32245D01*
X66824Y-32379D01*
X67174Y-32380D01*
X67497Y-32246D01*
X67745Y-31999D01*
X67879Y-31675D01*
X67880Y-31325D01*
X67880Y-39325D01*
X67746Y-39002D01*
X67499Y-38754D01*
X67175Y-38620D01*
X66825Y-38619D01*
X66795Y-38632D01*
X66795Y-34892D01*
X66712Y-34691D01*
X66559Y-34538D01*
X66358Y-34454D01*
X66295Y-34454D01*
X66295Y-33892D01*
X66212Y-33691D01*
X66059Y-33538D01*
X65858Y-33454D01*
X65642Y-33454D01*
X65441Y-33537D01*
X65288Y-33690D01*
X65252Y-33775D01*
X65227Y-33714D01*
X65132Y-33688D01*
X65061Y-33758D01*
X65061Y-33617D01*
X65035Y-33522D01*
X64830Y-33449D01*
X64613Y-33460D01*
X64464Y-33522D01*
X64438Y-33617D01*
X64750Y-33929D01*
X65061Y-33617D01*
X65061Y-33758D01*
X64820Y-34000D01*
X65132Y-34311D01*
X65227Y-34285D01*
X65250Y-34219D01*
X65287Y-34308D01*
X65440Y-34461D01*
X65641Y-34545D01*
X65857Y-34545D01*
X66058Y-34462D01*
X66211Y-34309D01*
X66295Y-34108D01*
X66295Y-33892D01*
X66295Y-34454D01*
X66142Y-34454D01*
X65941Y-34537D01*
X65788Y-34690D01*
X65750Y-34782D01*
X65712Y-34691D01*
X65559Y-34538D01*
X65358Y-34454D01*
X65142Y-34454D01*
X65061Y-34487D01*
X65061Y-34382D01*
X64750Y-34070D01*
X64679Y-34141D01*
X64679Y-34000D01*
X64367Y-33688D01*
X64272Y-33714D01*
X64249Y-33780D01*
X64212Y-33691D01*
X64059Y-33538D01*
X63880Y-33463D01*
X63880Y-31325D01*
X63746Y-31002D01*
X63499Y-30754D01*
X63175Y-30620D01*
X62825Y-30619D01*
X62502Y-30753D01*
X62254Y-31000D01*
X62120Y-31324D01*
X62119Y-31674D01*
X62253Y-31997D01*
X62500Y-32245D01*
X62824Y-32379D01*
X63174Y-32380D01*
X63497Y-32246D01*
X63745Y-31999D01*
X63879Y-31675D01*
X63880Y-31325D01*
X63880Y-33463D01*
X63858Y-33454D01*
X63642Y-33454D01*
X63441Y-33537D01*
X63288Y-33690D01*
X63204Y-33891D01*
X63204Y-34107D01*
X63287Y-34308D01*
X63440Y-34461D01*
X63641Y-34545D01*
X63857Y-34545D01*
X64058Y-34462D01*
X64211Y-34309D01*
X64247Y-34224D01*
X64272Y-34285D01*
X64367Y-34311D01*
X64679Y-34000D01*
X64679Y-34141D01*
X64438Y-34382D01*
X64464Y-34477D01*
X64669Y-34550D01*
X64886Y-34539D01*
X65035Y-34477D01*
X65061Y-34382D01*
X65061Y-34487D01*
X64941Y-34537D01*
X64788Y-34690D01*
X64750Y-34782D01*
X64712Y-34691D01*
X64559Y-34538D01*
X64358Y-34454D01*
X64142Y-34454D01*
X63941Y-34537D01*
X63788Y-34690D01*
X63704Y-34891D01*
X63704Y-35107D01*
X63787Y-35308D01*
X63940Y-35461D01*
X64141Y-35545D01*
X64357Y-35545D01*
X64558Y-35462D01*
X64711Y-35309D01*
X64749Y-35217D01*
X64787Y-35308D01*
X64940Y-35461D01*
X65141Y-35545D01*
X65357Y-35545D01*
X65558Y-35462D01*
X65711Y-35309D01*
X65749Y-35217D01*
X65787Y-35308D01*
X65940Y-35461D01*
X66141Y-35545D01*
X66357Y-35545D01*
X66558Y-35462D01*
X66711Y-35309D01*
X66795Y-35108D01*
X66795Y-34892D01*
X66795Y-38632D01*
X66502Y-38753D01*
X66254Y-39000D01*
X66120Y-39324D01*
X66119Y-39674D01*
X66253Y-39997D01*
X66500Y-40245D01*
X66824Y-40379D01*
X67174Y-40380D01*
X67497Y-40246D01*
X67745Y-39999D01*
X67879Y-39675D01*
X67880Y-39325D01*
X67880Y-51720D01*
X67050Y-51720D01*
X67050Y-50080D01*
X67045Y-49988D01*
X67045Y-48891D01*
X66962Y-48691D01*
X66809Y-48537D01*
X66795Y-48531D01*
X66795Y-42892D01*
X66712Y-42691D01*
X66559Y-42538D01*
X66358Y-42454D01*
X66295Y-42454D01*
X66295Y-41892D01*
X66212Y-41691D01*
X66059Y-41538D01*
X65858Y-41454D01*
X65642Y-41454D01*
X65441Y-41537D01*
X65288Y-41690D01*
X65252Y-41775D01*
X65227Y-41714D01*
X65132Y-41688D01*
X65061Y-41758D01*
X65061Y-41617D01*
X65035Y-41522D01*
X64830Y-41449D01*
X64613Y-41460D01*
X64464Y-41522D01*
X64438Y-41617D01*
X64750Y-41929D01*
X65061Y-41617D01*
X65061Y-41758D01*
X64820Y-42000D01*
X65132Y-42311D01*
X65227Y-42285D01*
X65250Y-42219D01*
X65287Y-42308D01*
X65440Y-42461D01*
X65641Y-42545D01*
X65857Y-42545D01*
X66058Y-42462D01*
X66211Y-42309D01*
X66295Y-42108D01*
X66295Y-41892D01*
X66295Y-42454D01*
X66142Y-42454D01*
X65941Y-42537D01*
X65788Y-42690D01*
X65750Y-42782D01*
X65712Y-42691D01*
X65559Y-42538D01*
X65358Y-42454D01*
X65142Y-42454D01*
X65061Y-42487D01*
X65061Y-42382D01*
X64750Y-42070D01*
X64679Y-42141D01*
X64679Y-42000D01*
X64367Y-41688D01*
X64272Y-41714D01*
X64249Y-41780D01*
X64212Y-41691D01*
X64059Y-41538D01*
X63880Y-41463D01*
X63880Y-39325D01*
X63746Y-39002D01*
X63499Y-38754D01*
X63175Y-38620D01*
X62825Y-38619D01*
X62502Y-38753D01*
X62254Y-39000D01*
X62120Y-39324D01*
X62119Y-39674D01*
X62253Y-39997D01*
X62500Y-40245D01*
X62824Y-40379D01*
X63174Y-40380D01*
X63497Y-40246D01*
X63745Y-39999D01*
X63879Y-39675D01*
X63880Y-39325D01*
X63880Y-41463D01*
X63858Y-41454D01*
X63642Y-41454D01*
X63441Y-41537D01*
X63288Y-41690D01*
X63204Y-41891D01*
X63204Y-42107D01*
X63287Y-42308D01*
X63440Y-42461D01*
X63641Y-42545D01*
X63857Y-42545D01*
X64058Y-42462D01*
X64211Y-42309D01*
X64247Y-42224D01*
X64272Y-42285D01*
X64367Y-42311D01*
X64679Y-42000D01*
X64679Y-42141D01*
X64438Y-42382D01*
X64464Y-42477D01*
X64669Y-42550D01*
X64886Y-42539D01*
X65035Y-42477D01*
X65061Y-42382D01*
X65061Y-42487D01*
X64941Y-42537D01*
X64788Y-42690D01*
X64750Y-42782D01*
X64712Y-42691D01*
X64559Y-42538D01*
X64358Y-42454D01*
X64142Y-42454D01*
X63941Y-42537D01*
X63788Y-42690D01*
X63704Y-42891D01*
X63704Y-43107D01*
X63787Y-43308D01*
X63940Y-43461D01*
X64141Y-43545D01*
X64357Y-43545D01*
X64558Y-43462D01*
X64711Y-43309D01*
X64749Y-43217D01*
X64787Y-43308D01*
X64940Y-43461D01*
X65141Y-43545D01*
X65357Y-43545D01*
X65558Y-43462D01*
X65711Y-43309D01*
X65749Y-43217D01*
X65787Y-43308D01*
X65940Y-43461D01*
X66141Y-43545D01*
X66357Y-43545D01*
X66558Y-43462D01*
X66711Y-43309D01*
X66795Y-43108D01*
X66795Y-42892D01*
X66795Y-48531D01*
X66608Y-48454D01*
X66391Y-48454D01*
X66191Y-48537D01*
X66037Y-48690D01*
X65954Y-48891D01*
X65954Y-49108D01*
X66037Y-49308D01*
X66190Y-49462D01*
X66275Y-49497D01*
X66214Y-49522D01*
X66188Y-49617D01*
X66500Y-49929D01*
X66811Y-49617D01*
X66785Y-49522D01*
X66720Y-49499D01*
X66808Y-49462D01*
X66962Y-49309D01*
X67045Y-49108D01*
X67045Y-48891D01*
X67045Y-49988D01*
X67039Y-49863D01*
X66977Y-49714D01*
X66882Y-49688D01*
X66570Y-50000D01*
X66882Y-50311D01*
X66977Y-50285D01*
X67050Y-50080D01*
X67050Y-51720D01*
X66811Y-51720D01*
X66811Y-50382D01*
X66500Y-50070D01*
X66429Y-50141D01*
X66429Y-50000D01*
X66117Y-49688D01*
X66022Y-49714D01*
X65949Y-49919D01*
X65960Y-50136D01*
X66022Y-50285D01*
X66117Y-50311D01*
X66429Y-50000D01*
X66429Y-50141D01*
X66188Y-50382D01*
X66214Y-50477D01*
X66419Y-50550D01*
X66636Y-50539D01*
X66785Y-50477D01*
X66811Y-50382D01*
X66811Y-51720D01*
X63584Y-51720D01*
X63584Y-50142D01*
X63584Y-49857D01*
X63508Y-49640D01*
X63355Y-49468D01*
X63147Y-49368D01*
X63141Y-49367D01*
X63050Y-49414D01*
X63050Y-49950D01*
X63527Y-49950D01*
X63584Y-49857D01*
X63584Y-50142D01*
X63527Y-50050D01*
X63050Y-50050D01*
X63050Y-50585D01*
X63141Y-50632D01*
X63147Y-50631D01*
X63355Y-50531D01*
X63508Y-50359D01*
X63584Y-50142D01*
X63584Y-51720D01*
X62950Y-51720D01*
X62950Y-50585D01*
X62950Y-50050D01*
X62942Y-50050D01*
X62942Y-49950D01*
X62950Y-49950D01*
X62950Y-49414D01*
X62858Y-49367D01*
X62852Y-49368D01*
X62644Y-49468D01*
X62498Y-49631D01*
X62417Y-49510D01*
X62225Y-49382D01*
X62000Y-49337D01*
X61774Y-49382D01*
X61582Y-49510D01*
X61500Y-49634D01*
X61417Y-49510D01*
X61225Y-49382D01*
X61000Y-49337D01*
X60880Y-49361D01*
X60880Y-39325D01*
X60880Y-31325D01*
X60880Y-23325D01*
X60880Y-15325D01*
X60746Y-15002D01*
X60499Y-14754D01*
X60175Y-14620D01*
X59825Y-14619D01*
X59502Y-14753D01*
X59254Y-15000D01*
X59120Y-15324D01*
X59119Y-15674D01*
X59253Y-15997D01*
X59500Y-16245D01*
X59824Y-16379D01*
X60174Y-16380D01*
X60497Y-16246D01*
X60745Y-15999D01*
X60879Y-15675D01*
X60880Y-15325D01*
X60880Y-23325D01*
X60746Y-23002D01*
X60499Y-22754D01*
X60175Y-22620D01*
X59825Y-22619D01*
X59795Y-22632D01*
X59795Y-18892D01*
X59712Y-18691D01*
X59559Y-18538D01*
X59358Y-18454D01*
X59295Y-18454D01*
X59295Y-17892D01*
X59212Y-17691D01*
X59059Y-17538D01*
X58858Y-17454D01*
X58642Y-17454D01*
X58441Y-17537D01*
X58288Y-17690D01*
X58252Y-17775D01*
X58227Y-17714D01*
X58132Y-17688D01*
X58061Y-17758D01*
X58061Y-17617D01*
X58035Y-17522D01*
X57830Y-17449D01*
X57613Y-17460D01*
X57464Y-17522D01*
X57438Y-17617D01*
X57750Y-17929D01*
X58061Y-17617D01*
X58061Y-17758D01*
X57820Y-18000D01*
X58132Y-18311D01*
X58227Y-18285D01*
X58250Y-18219D01*
X58287Y-18308D01*
X58440Y-18461D01*
X58641Y-18545D01*
X58857Y-18545D01*
X59058Y-18462D01*
X59211Y-18309D01*
X59295Y-18108D01*
X59295Y-17892D01*
X59295Y-18454D01*
X59142Y-18454D01*
X58941Y-18537D01*
X58788Y-18690D01*
X58750Y-18782D01*
X58712Y-18691D01*
X58559Y-18538D01*
X58358Y-18454D01*
X58142Y-18454D01*
X58061Y-18487D01*
X58061Y-18382D01*
X57750Y-18070D01*
X57679Y-18141D01*
X57679Y-18000D01*
X57367Y-17688D01*
X57272Y-17714D01*
X57249Y-17780D01*
X57212Y-17691D01*
X57059Y-17538D01*
X56880Y-17463D01*
X56880Y-15325D01*
X56746Y-15002D01*
X56499Y-14754D01*
X56175Y-14620D01*
X55825Y-14619D01*
X55502Y-14753D01*
X55254Y-15000D01*
X55120Y-15324D01*
X55119Y-15674D01*
X55253Y-15997D01*
X55500Y-16245D01*
X55824Y-16379D01*
X56174Y-16380D01*
X56497Y-16246D01*
X56745Y-15999D01*
X56879Y-15675D01*
X56880Y-15325D01*
X56880Y-17463D01*
X56858Y-17454D01*
X56642Y-17454D01*
X56441Y-17537D01*
X56288Y-17690D01*
X56204Y-17891D01*
X56204Y-18107D01*
X56287Y-18308D01*
X56440Y-18461D01*
X56641Y-18545D01*
X56857Y-18545D01*
X57058Y-18462D01*
X57211Y-18309D01*
X57247Y-18224D01*
X57272Y-18285D01*
X57367Y-18311D01*
X57679Y-18000D01*
X57679Y-18141D01*
X57438Y-18382D01*
X57464Y-18477D01*
X57669Y-18550D01*
X57886Y-18539D01*
X58035Y-18477D01*
X58061Y-18382D01*
X58061Y-18487D01*
X57941Y-18537D01*
X57788Y-18690D01*
X57750Y-18782D01*
X57712Y-18691D01*
X57559Y-18538D01*
X57358Y-18454D01*
X57142Y-18454D01*
X56941Y-18537D01*
X56788Y-18690D01*
X56704Y-18891D01*
X56704Y-19107D01*
X56787Y-19308D01*
X56940Y-19461D01*
X57141Y-19545D01*
X57357Y-19545D01*
X57558Y-19462D01*
X57711Y-19309D01*
X57749Y-19217D01*
X57787Y-19308D01*
X57940Y-19461D01*
X58141Y-19545D01*
X58357Y-19545D01*
X58558Y-19462D01*
X58711Y-19309D01*
X58749Y-19217D01*
X58787Y-19308D01*
X58940Y-19461D01*
X59141Y-19545D01*
X59357Y-19545D01*
X59558Y-19462D01*
X59711Y-19309D01*
X59795Y-19108D01*
X59795Y-18892D01*
X59795Y-22632D01*
X59502Y-22753D01*
X59254Y-23000D01*
X59120Y-23324D01*
X59119Y-23674D01*
X59253Y-23997D01*
X59500Y-24245D01*
X59824Y-24379D01*
X60174Y-24380D01*
X60497Y-24246D01*
X60745Y-23999D01*
X60879Y-23675D01*
X60880Y-23325D01*
X60880Y-31325D01*
X60746Y-31002D01*
X60499Y-30754D01*
X60175Y-30620D01*
X59825Y-30619D01*
X59795Y-30632D01*
X59795Y-26892D01*
X59712Y-26691D01*
X59559Y-26538D01*
X59358Y-26454D01*
X59295Y-26454D01*
X59295Y-25892D01*
X59212Y-25691D01*
X59059Y-25538D01*
X58858Y-25454D01*
X58642Y-25454D01*
X58441Y-25537D01*
X58288Y-25690D01*
X58252Y-25775D01*
X58227Y-25714D01*
X58132Y-25688D01*
X58061Y-25758D01*
X58061Y-25617D01*
X58035Y-25522D01*
X57830Y-25449D01*
X57613Y-25460D01*
X57464Y-25522D01*
X57438Y-25617D01*
X57750Y-25929D01*
X58061Y-25617D01*
X58061Y-25758D01*
X57820Y-26000D01*
X58132Y-26311D01*
X58227Y-26285D01*
X58250Y-26219D01*
X58287Y-26308D01*
X58440Y-26461D01*
X58641Y-26545D01*
X58857Y-26545D01*
X59058Y-26462D01*
X59211Y-26309D01*
X59295Y-26108D01*
X59295Y-25892D01*
X59295Y-26454D01*
X59142Y-26454D01*
X58941Y-26537D01*
X58788Y-26690D01*
X58750Y-26782D01*
X58712Y-26691D01*
X58559Y-26538D01*
X58358Y-26454D01*
X58142Y-26454D01*
X58061Y-26487D01*
X58061Y-26382D01*
X57750Y-26070D01*
X57679Y-26141D01*
X57679Y-26000D01*
X57367Y-25688D01*
X57272Y-25714D01*
X57249Y-25780D01*
X57212Y-25691D01*
X57059Y-25538D01*
X56880Y-25463D01*
X56880Y-23325D01*
X56746Y-23002D01*
X56499Y-22754D01*
X56175Y-22620D01*
X55825Y-22619D01*
X55502Y-22753D01*
X55254Y-23000D01*
X55120Y-23324D01*
X55119Y-23674D01*
X55253Y-23997D01*
X55500Y-24245D01*
X55824Y-24379D01*
X56174Y-24380D01*
X56497Y-24246D01*
X56745Y-23999D01*
X56879Y-23675D01*
X56880Y-23325D01*
X56880Y-25463D01*
X56858Y-25454D01*
X56642Y-25454D01*
X56441Y-25537D01*
X56288Y-25690D01*
X56204Y-25891D01*
X56204Y-26107D01*
X56287Y-26308D01*
X56440Y-26461D01*
X56641Y-26545D01*
X56857Y-26545D01*
X57058Y-26462D01*
X57211Y-26309D01*
X57247Y-26224D01*
X57272Y-26285D01*
X57367Y-26311D01*
X57679Y-26000D01*
X57679Y-26141D01*
X57438Y-26382D01*
X57464Y-26477D01*
X57669Y-26550D01*
X57886Y-26539D01*
X58035Y-26477D01*
X58061Y-26382D01*
X58061Y-26487D01*
X57941Y-26537D01*
X57788Y-26690D01*
X57750Y-26782D01*
X57712Y-26691D01*
X57559Y-26538D01*
X57358Y-26454D01*
X57142Y-26454D01*
X56941Y-26537D01*
X56788Y-26690D01*
X56704Y-26891D01*
X56704Y-27107D01*
X56787Y-27308D01*
X56940Y-27461D01*
X57141Y-27545D01*
X57357Y-27545D01*
X57558Y-27462D01*
X57711Y-27309D01*
X57749Y-27217D01*
X57787Y-27308D01*
X57940Y-27461D01*
X58141Y-27545D01*
X58357Y-27545D01*
X58558Y-27462D01*
X58711Y-27309D01*
X58749Y-27217D01*
X58787Y-27308D01*
X58940Y-27461D01*
X59141Y-27545D01*
X59357Y-27545D01*
X59558Y-27462D01*
X59711Y-27309D01*
X59795Y-27108D01*
X59795Y-26892D01*
X59795Y-30632D01*
X59502Y-30753D01*
X59254Y-31000D01*
X59120Y-31324D01*
X59119Y-31674D01*
X59253Y-31997D01*
X59500Y-32245D01*
X59824Y-32379D01*
X60174Y-32380D01*
X60497Y-32246D01*
X60745Y-31999D01*
X60879Y-31675D01*
X60880Y-31325D01*
X60880Y-39325D01*
X60746Y-39002D01*
X60499Y-38754D01*
X60175Y-38620D01*
X59825Y-38619D01*
X59795Y-38632D01*
X59795Y-34892D01*
X59712Y-34691D01*
X59559Y-34538D01*
X59358Y-34454D01*
X59295Y-34454D01*
X59295Y-33892D01*
X59212Y-33691D01*
X59059Y-33538D01*
X58858Y-33454D01*
X58642Y-33454D01*
X58441Y-33537D01*
X58288Y-33690D01*
X58252Y-33775D01*
X58227Y-33714D01*
X58132Y-33688D01*
X58061Y-33758D01*
X58061Y-33617D01*
X58035Y-33522D01*
X57830Y-33449D01*
X57613Y-33460D01*
X57464Y-33522D01*
X57438Y-33617D01*
X57750Y-33929D01*
X58061Y-33617D01*
X58061Y-33758D01*
X57820Y-34000D01*
X58132Y-34311D01*
X58227Y-34285D01*
X58250Y-34219D01*
X58287Y-34308D01*
X58440Y-34461D01*
X58641Y-34545D01*
X58857Y-34545D01*
X59058Y-34462D01*
X59211Y-34309D01*
X59295Y-34108D01*
X59295Y-33892D01*
X59295Y-34454D01*
X59142Y-34454D01*
X58941Y-34537D01*
X58788Y-34690D01*
X58750Y-34782D01*
X58712Y-34691D01*
X58559Y-34538D01*
X58358Y-34454D01*
X58142Y-34454D01*
X58061Y-34487D01*
X58061Y-34382D01*
X57750Y-34070D01*
X57679Y-34141D01*
X57679Y-34000D01*
X57367Y-33688D01*
X57272Y-33714D01*
X57249Y-33780D01*
X57212Y-33691D01*
X57059Y-33538D01*
X56880Y-33463D01*
X56880Y-31325D01*
X56746Y-31002D01*
X56499Y-30754D01*
X56175Y-30620D01*
X55825Y-30619D01*
X55502Y-30753D01*
X55254Y-31000D01*
X55120Y-31324D01*
X55119Y-31674D01*
X55253Y-31997D01*
X55500Y-32245D01*
X55824Y-32379D01*
X56174Y-32380D01*
X56497Y-32246D01*
X56745Y-31999D01*
X56879Y-31675D01*
X56880Y-31325D01*
X56880Y-33463D01*
X56858Y-33454D01*
X56642Y-33454D01*
X56441Y-33537D01*
X56288Y-33690D01*
X56204Y-33891D01*
X56204Y-34107D01*
X56287Y-34308D01*
X56440Y-34461D01*
X56641Y-34545D01*
X56857Y-34545D01*
X57058Y-34462D01*
X57211Y-34309D01*
X57247Y-34224D01*
X57272Y-34285D01*
X57367Y-34311D01*
X57679Y-34000D01*
X57679Y-34141D01*
X57438Y-34382D01*
X57464Y-34477D01*
X57669Y-34550D01*
X57886Y-34539D01*
X58035Y-34477D01*
X58061Y-34382D01*
X58061Y-34487D01*
X57941Y-34537D01*
X57788Y-34690D01*
X57750Y-34782D01*
X57712Y-34691D01*
X57559Y-34538D01*
X57358Y-34454D01*
X57142Y-34454D01*
X56941Y-34537D01*
X56788Y-34690D01*
X56704Y-34891D01*
X56704Y-35107D01*
X56787Y-35308D01*
X56940Y-35461D01*
X57141Y-35545D01*
X57357Y-35545D01*
X57558Y-35462D01*
X57711Y-35309D01*
X57749Y-35217D01*
X57787Y-35308D01*
X57940Y-35461D01*
X58141Y-35545D01*
X58357Y-35545D01*
X58558Y-35462D01*
X58711Y-35309D01*
X58749Y-35217D01*
X58787Y-35308D01*
X58940Y-35461D01*
X59141Y-35545D01*
X59357Y-35545D01*
X59558Y-35462D01*
X59711Y-35309D01*
X59795Y-35108D01*
X59795Y-34892D01*
X59795Y-38632D01*
X59502Y-38753D01*
X59254Y-39000D01*
X59120Y-39324D01*
X59119Y-39674D01*
X59253Y-39997D01*
X59500Y-40245D01*
X59824Y-40379D01*
X60174Y-40380D01*
X60497Y-40246D01*
X60745Y-39999D01*
X60879Y-39675D01*
X60880Y-39325D01*
X60880Y-49361D01*
X60774Y-49382D01*
X60582Y-49510D01*
X60500Y-49634D01*
X60417Y-49510D01*
X60225Y-49382D01*
X60000Y-49337D01*
X59795Y-49377D01*
X59795Y-42892D01*
X59712Y-42691D01*
X59559Y-42538D01*
X59358Y-42454D01*
X59295Y-42454D01*
X59295Y-41892D01*
X59212Y-41691D01*
X59059Y-41538D01*
X58858Y-41454D01*
X58642Y-41454D01*
X58441Y-41537D01*
X58288Y-41690D01*
X58252Y-41775D01*
X58227Y-41714D01*
X58132Y-41688D01*
X58061Y-41758D01*
X58061Y-41617D01*
X58035Y-41522D01*
X57830Y-41449D01*
X57613Y-41460D01*
X57464Y-41522D01*
X57438Y-41617D01*
X57750Y-41929D01*
X58061Y-41617D01*
X58061Y-41758D01*
X57820Y-42000D01*
X58132Y-42311D01*
X58227Y-42285D01*
X58250Y-42219D01*
X58287Y-42308D01*
X58440Y-42461D01*
X58641Y-42545D01*
X58857Y-42545D01*
X59058Y-42462D01*
X59211Y-42309D01*
X59295Y-42108D01*
X59295Y-41892D01*
X59295Y-42454D01*
X59142Y-42454D01*
X58941Y-42537D01*
X58788Y-42690D01*
X58750Y-42782D01*
X58712Y-42691D01*
X58559Y-42538D01*
X58358Y-42454D01*
X58142Y-42454D01*
X58061Y-42487D01*
X58061Y-42382D01*
X57750Y-42070D01*
X57679Y-42141D01*
X57679Y-42000D01*
X57367Y-41688D01*
X57272Y-41714D01*
X57249Y-41780D01*
X57212Y-41691D01*
X57059Y-41538D01*
X56880Y-41463D01*
X56880Y-39325D01*
X56746Y-39002D01*
X56499Y-38754D01*
X56175Y-38620D01*
X55825Y-38619D01*
X55502Y-38753D01*
X55254Y-39000D01*
X55120Y-39324D01*
X55119Y-39674D01*
X55253Y-39997D01*
X55500Y-40245D01*
X55824Y-40379D01*
X56174Y-40380D01*
X56497Y-40246D01*
X56745Y-39999D01*
X56879Y-39675D01*
X56880Y-39325D01*
X56880Y-41463D01*
X56858Y-41454D01*
X56642Y-41454D01*
X56441Y-41537D01*
X56288Y-41690D01*
X56204Y-41891D01*
X56204Y-42107D01*
X56287Y-42308D01*
X56440Y-42461D01*
X56641Y-42545D01*
X56857Y-42545D01*
X57058Y-42462D01*
X57211Y-42309D01*
X57247Y-42224D01*
X57272Y-42285D01*
X57367Y-42311D01*
X57679Y-42000D01*
X57679Y-42141D01*
X57438Y-42382D01*
X57464Y-42477D01*
X57669Y-42550D01*
X57886Y-42539D01*
X58035Y-42477D01*
X58061Y-42382D01*
X58061Y-42487D01*
X57941Y-42537D01*
X57788Y-42690D01*
X57750Y-42782D01*
X57712Y-42691D01*
X57559Y-42538D01*
X57358Y-42454D01*
X57142Y-42454D01*
X56941Y-42537D01*
X56788Y-42690D01*
X56704Y-42891D01*
X56704Y-43107D01*
X56787Y-43308D01*
X56940Y-43461D01*
X57141Y-43545D01*
X57357Y-43545D01*
X57558Y-43462D01*
X57711Y-43309D01*
X57749Y-43217D01*
X57787Y-43308D01*
X57940Y-43461D01*
X58141Y-43545D01*
X58357Y-43545D01*
X58558Y-43462D01*
X58711Y-43309D01*
X58749Y-43217D01*
X58787Y-43308D01*
X58940Y-43461D01*
X59141Y-43545D01*
X59357Y-43545D01*
X59558Y-43462D01*
X59711Y-43309D01*
X59795Y-43108D01*
X59795Y-42892D01*
X59795Y-49377D01*
X59774Y-49382D01*
X59582Y-49510D01*
X59500Y-49634D01*
X59417Y-49510D01*
X59225Y-49382D01*
X59000Y-49337D01*
X58774Y-49382D01*
X58582Y-49510D01*
X58500Y-49634D01*
X58417Y-49510D01*
X58225Y-49382D01*
X58000Y-49337D01*
X57774Y-49382D01*
X57582Y-49510D01*
X57500Y-49634D01*
X57417Y-49510D01*
X57225Y-49382D01*
X57000Y-49337D01*
X56774Y-49382D01*
X56582Y-49510D01*
X56500Y-49634D01*
X56417Y-49510D01*
X56225Y-49382D01*
X56000Y-49337D01*
X55774Y-49382D01*
X55582Y-49510D01*
X55500Y-49634D01*
X55417Y-49510D01*
X55225Y-49382D01*
X55000Y-49337D01*
X54774Y-49382D01*
X54582Y-49510D01*
X54500Y-49634D01*
X54417Y-49510D01*
X54225Y-49382D01*
X54000Y-49337D01*
X53880Y-49361D01*
X53880Y-39325D01*
X53880Y-31325D01*
X53880Y-23325D01*
X53880Y-15325D01*
X53746Y-15002D01*
X53499Y-14754D01*
X53175Y-14620D01*
X52825Y-14619D01*
X52502Y-14753D01*
X52254Y-15000D01*
X52120Y-15324D01*
X52119Y-15674D01*
X52253Y-15997D01*
X52500Y-16245D01*
X52824Y-16379D01*
X53174Y-16380D01*
X53497Y-16246D01*
X53745Y-15999D01*
X53879Y-15675D01*
X53880Y-15325D01*
X53880Y-23325D01*
X53746Y-23002D01*
X53499Y-22754D01*
X53175Y-22620D01*
X52825Y-22619D01*
X52795Y-22632D01*
X52795Y-18892D01*
X52712Y-18691D01*
X52559Y-18538D01*
X52358Y-18454D01*
X52295Y-18454D01*
X52295Y-17892D01*
X52212Y-17691D01*
X52059Y-17538D01*
X51858Y-17454D01*
X51642Y-17454D01*
X51441Y-17537D01*
X51288Y-17690D01*
X51252Y-17775D01*
X51227Y-17714D01*
X51132Y-17688D01*
X51061Y-17758D01*
X51061Y-17617D01*
X51035Y-17522D01*
X50830Y-17449D01*
X50613Y-17460D01*
X50464Y-17522D01*
X50438Y-17617D01*
X50750Y-17929D01*
X51061Y-17617D01*
X51061Y-17758D01*
X50820Y-18000D01*
X51132Y-18311D01*
X51227Y-18285D01*
X51250Y-18219D01*
X51287Y-18308D01*
X51440Y-18461D01*
X51641Y-18545D01*
X51857Y-18545D01*
X52058Y-18462D01*
X52211Y-18309D01*
X52295Y-18108D01*
X52295Y-17892D01*
X52295Y-18454D01*
X52142Y-18454D01*
X51941Y-18537D01*
X51788Y-18690D01*
X51750Y-18782D01*
X51712Y-18691D01*
X51559Y-18538D01*
X51358Y-18454D01*
X51142Y-18454D01*
X51061Y-18487D01*
X51061Y-18382D01*
X50750Y-18070D01*
X50679Y-18141D01*
X50679Y-18000D01*
X50367Y-17688D01*
X50272Y-17714D01*
X50249Y-17780D01*
X50212Y-17691D01*
X50059Y-17538D01*
X49880Y-17463D01*
X49880Y-15325D01*
X49746Y-15002D01*
X49499Y-14754D01*
X49175Y-14620D01*
X48825Y-14619D01*
X48502Y-14753D01*
X48254Y-15000D01*
X48120Y-15324D01*
X48119Y-15674D01*
X48253Y-15997D01*
X48500Y-16245D01*
X48824Y-16379D01*
X49174Y-16380D01*
X49497Y-16246D01*
X49745Y-15999D01*
X49879Y-15675D01*
X49880Y-15325D01*
X49880Y-17463D01*
X49858Y-17454D01*
X49642Y-17454D01*
X49441Y-17537D01*
X49288Y-17690D01*
X49204Y-17891D01*
X49204Y-18107D01*
X49287Y-18308D01*
X49440Y-18461D01*
X49641Y-18545D01*
X49857Y-18545D01*
X50058Y-18462D01*
X50211Y-18309D01*
X50247Y-18224D01*
X50272Y-18285D01*
X50367Y-18311D01*
X50679Y-18000D01*
X50679Y-18141D01*
X50438Y-18382D01*
X50464Y-18477D01*
X50669Y-18550D01*
X50886Y-18539D01*
X51035Y-18477D01*
X51061Y-18382D01*
X51061Y-18487D01*
X50941Y-18537D01*
X50788Y-18690D01*
X50750Y-18782D01*
X50712Y-18691D01*
X50559Y-18538D01*
X50358Y-18454D01*
X50142Y-18454D01*
X49941Y-18537D01*
X49788Y-18690D01*
X49704Y-18891D01*
X49704Y-19107D01*
X49787Y-19308D01*
X49940Y-19461D01*
X50141Y-19545D01*
X50357Y-19545D01*
X50558Y-19462D01*
X50711Y-19309D01*
X50749Y-19217D01*
X50787Y-19308D01*
X50940Y-19461D01*
X51141Y-19545D01*
X51357Y-19545D01*
X51558Y-19462D01*
X51711Y-19309D01*
X51749Y-19217D01*
X51787Y-19308D01*
X51940Y-19461D01*
X52141Y-19545D01*
X52357Y-19545D01*
X52558Y-19462D01*
X52711Y-19309D01*
X52795Y-19108D01*
X52795Y-18892D01*
X52795Y-22632D01*
X52502Y-22753D01*
X52254Y-23000D01*
X52120Y-23324D01*
X52119Y-23674D01*
X52253Y-23997D01*
X52500Y-24245D01*
X52824Y-24379D01*
X53174Y-24380D01*
X53497Y-24246D01*
X53745Y-23999D01*
X53879Y-23675D01*
X53880Y-23325D01*
X53880Y-31325D01*
X53746Y-31002D01*
X53499Y-30754D01*
X53175Y-30620D01*
X52825Y-30619D01*
X52795Y-30632D01*
X52795Y-26892D01*
X52712Y-26691D01*
X52559Y-26538D01*
X52358Y-26454D01*
X52295Y-26454D01*
X52295Y-25892D01*
X52212Y-25691D01*
X52059Y-25538D01*
X51858Y-25454D01*
X51642Y-25454D01*
X51441Y-25537D01*
X51288Y-25690D01*
X51252Y-25775D01*
X51227Y-25714D01*
X51132Y-25688D01*
X51061Y-25758D01*
X51061Y-25617D01*
X51035Y-25522D01*
X50830Y-25449D01*
X50613Y-25460D01*
X50464Y-25522D01*
X50438Y-25617D01*
X50750Y-25929D01*
X51061Y-25617D01*
X51061Y-25758D01*
X50820Y-26000D01*
X51132Y-26311D01*
X51227Y-26285D01*
X51250Y-26219D01*
X51287Y-26308D01*
X51440Y-26461D01*
X51641Y-26545D01*
X51857Y-26545D01*
X52058Y-26462D01*
X52211Y-26309D01*
X52295Y-26108D01*
X52295Y-25892D01*
X52295Y-26454D01*
X52142Y-26454D01*
X51941Y-26537D01*
X51788Y-26690D01*
X51750Y-26782D01*
X51712Y-26691D01*
X51559Y-26538D01*
X51358Y-26454D01*
X51142Y-26454D01*
X51061Y-26487D01*
X51061Y-26382D01*
X50750Y-26070D01*
X50679Y-26141D01*
X50679Y-26000D01*
X50367Y-25688D01*
X50272Y-25714D01*
X50249Y-25780D01*
X50212Y-25691D01*
X50059Y-25538D01*
X49880Y-25463D01*
X49880Y-23325D01*
X49746Y-23002D01*
X49499Y-22754D01*
X49175Y-22620D01*
X48825Y-22619D01*
X48502Y-22753D01*
X48254Y-23000D01*
X48120Y-23324D01*
X48119Y-23674D01*
X48253Y-23997D01*
X48500Y-24245D01*
X48824Y-24379D01*
X49174Y-24380D01*
X49497Y-24246D01*
X49745Y-23999D01*
X49879Y-23675D01*
X49880Y-23325D01*
X49880Y-25463D01*
X49858Y-25454D01*
X49642Y-25454D01*
X49441Y-25537D01*
X49288Y-25690D01*
X49204Y-25891D01*
X49204Y-26107D01*
X49287Y-26308D01*
X49440Y-26461D01*
X49641Y-26545D01*
X49857Y-26545D01*
X50058Y-26462D01*
X50211Y-26309D01*
X50247Y-26224D01*
X50272Y-26285D01*
X50367Y-26311D01*
X50679Y-26000D01*
X50679Y-26141D01*
X50438Y-26382D01*
X50464Y-26477D01*
X50669Y-26550D01*
X50886Y-26539D01*
X51035Y-26477D01*
X51061Y-26382D01*
X51061Y-26487D01*
X50941Y-26537D01*
X50788Y-26690D01*
X50750Y-26782D01*
X50712Y-26691D01*
X50559Y-26538D01*
X50358Y-26454D01*
X50142Y-26454D01*
X49941Y-26537D01*
X49788Y-26690D01*
X49704Y-26891D01*
X49704Y-27107D01*
X49787Y-27308D01*
X49940Y-27461D01*
X50141Y-27545D01*
X50357Y-27545D01*
X50558Y-27462D01*
X50711Y-27309D01*
X50749Y-27217D01*
X50787Y-27308D01*
X50940Y-27461D01*
X51141Y-27545D01*
X51357Y-27545D01*
X51558Y-27462D01*
X51711Y-27309D01*
X51749Y-27217D01*
X51787Y-27308D01*
X51940Y-27461D01*
X52141Y-27545D01*
X52357Y-27545D01*
X52558Y-27462D01*
X52711Y-27309D01*
X52795Y-27108D01*
X52795Y-26892D01*
X52795Y-30632D01*
X52502Y-30753D01*
X52254Y-31000D01*
X52120Y-31324D01*
X52119Y-31674D01*
X52253Y-31997D01*
X52500Y-32245D01*
X52824Y-32379D01*
X53174Y-32380D01*
X53497Y-32246D01*
X53745Y-31999D01*
X53879Y-31675D01*
X53880Y-31325D01*
X53880Y-39325D01*
X53746Y-39002D01*
X53499Y-38754D01*
X53175Y-38620D01*
X52825Y-38619D01*
X52795Y-38632D01*
X52795Y-34892D01*
X52712Y-34691D01*
X52559Y-34538D01*
X52358Y-34454D01*
X52295Y-34454D01*
X52295Y-33892D01*
X52212Y-33691D01*
X52059Y-33538D01*
X51858Y-33454D01*
X51642Y-33454D01*
X51441Y-33537D01*
X51288Y-33690D01*
X51252Y-33775D01*
X51227Y-33714D01*
X51132Y-33688D01*
X51061Y-33758D01*
X51061Y-33617D01*
X51035Y-33522D01*
X50830Y-33449D01*
X50613Y-33460D01*
X50464Y-33522D01*
X50438Y-33617D01*
X50750Y-33929D01*
X51061Y-33617D01*
X51061Y-33758D01*
X50820Y-34000D01*
X51132Y-34311D01*
X51227Y-34285D01*
X51250Y-34219D01*
X51287Y-34308D01*
X51440Y-34461D01*
X51641Y-34545D01*
X51857Y-34545D01*
X52058Y-34462D01*
X52211Y-34309D01*
X52295Y-34108D01*
X52295Y-33892D01*
X52295Y-34454D01*
X52142Y-34454D01*
X51941Y-34537D01*
X51788Y-34690D01*
X51750Y-34782D01*
X51712Y-34691D01*
X51559Y-34538D01*
X51358Y-34454D01*
X51142Y-34454D01*
X51061Y-34487D01*
X51061Y-34382D01*
X50750Y-34070D01*
X50679Y-34141D01*
X50679Y-34000D01*
X50367Y-33688D01*
X50272Y-33714D01*
X50249Y-33780D01*
X50212Y-33691D01*
X50059Y-33538D01*
X49880Y-33463D01*
X49880Y-31325D01*
X49746Y-31002D01*
X49499Y-30754D01*
X49175Y-30620D01*
X48825Y-30619D01*
X48502Y-30753D01*
X48254Y-31000D01*
X48120Y-31324D01*
X48119Y-31674D01*
X48253Y-31997D01*
X48500Y-32245D01*
X48824Y-32379D01*
X49174Y-32380D01*
X49497Y-32246D01*
X49745Y-31999D01*
X49879Y-31675D01*
X49880Y-31325D01*
X49880Y-33463D01*
X49858Y-33454D01*
X49642Y-33454D01*
X49441Y-33537D01*
X49288Y-33690D01*
X49204Y-33891D01*
X49204Y-34107D01*
X49287Y-34308D01*
X49440Y-34461D01*
X49641Y-34545D01*
X49857Y-34545D01*
X50058Y-34462D01*
X50211Y-34309D01*
X50247Y-34224D01*
X50272Y-34285D01*
X50367Y-34311D01*
X50679Y-34000D01*
X50679Y-34141D01*
X50438Y-34382D01*
X50464Y-34477D01*
X50669Y-34550D01*
X50886Y-34539D01*
X51035Y-34477D01*
X51061Y-34382D01*
X51061Y-34487D01*
X50941Y-34537D01*
X50788Y-34690D01*
X50750Y-34782D01*
X50712Y-34691D01*
X50559Y-34538D01*
X50358Y-34454D01*
X50142Y-34454D01*
X49941Y-34537D01*
X49788Y-34690D01*
X49704Y-34891D01*
X49704Y-35107D01*
X49787Y-35308D01*
X49940Y-35461D01*
X50141Y-35545D01*
X50357Y-35545D01*
X50558Y-35462D01*
X50711Y-35309D01*
X50749Y-35217D01*
X50787Y-35308D01*
X50940Y-35461D01*
X51141Y-35545D01*
X51357Y-35545D01*
X51558Y-35462D01*
X51711Y-35309D01*
X51749Y-35217D01*
X51787Y-35308D01*
X51940Y-35461D01*
X52141Y-35545D01*
X52357Y-35545D01*
X52558Y-35462D01*
X52711Y-35309D01*
X52795Y-35108D01*
X52795Y-34892D01*
X52795Y-38632D01*
X52502Y-38753D01*
X52254Y-39000D01*
X52120Y-39324D01*
X52119Y-39674D01*
X52253Y-39997D01*
X52500Y-40245D01*
X52824Y-40379D01*
X53174Y-40380D01*
X53497Y-40246D01*
X53745Y-39999D01*
X53879Y-39675D01*
X53880Y-39325D01*
X53880Y-49361D01*
X53774Y-49382D01*
X53582Y-49510D01*
X53500Y-49634D01*
X53417Y-49510D01*
X53225Y-49382D01*
X53000Y-49337D01*
X52795Y-49377D01*
X52795Y-42892D01*
X52712Y-42691D01*
X52559Y-42538D01*
X52358Y-42454D01*
X52295Y-42454D01*
X52295Y-41892D01*
X52212Y-41691D01*
X52059Y-41538D01*
X51858Y-41454D01*
X51642Y-41454D01*
X51441Y-41537D01*
X51288Y-41690D01*
X51252Y-41775D01*
X51227Y-41714D01*
X51132Y-41688D01*
X51061Y-41758D01*
X51061Y-41617D01*
X51035Y-41522D01*
X50830Y-41449D01*
X50613Y-41460D01*
X50464Y-41522D01*
X50438Y-41617D01*
X50750Y-41929D01*
X51061Y-41617D01*
X51061Y-41758D01*
X50820Y-42000D01*
X51132Y-42311D01*
X51227Y-42285D01*
X51250Y-42219D01*
X51287Y-42308D01*
X51440Y-42461D01*
X51641Y-42545D01*
X51857Y-42545D01*
X52058Y-42462D01*
X52211Y-42309D01*
X52295Y-42108D01*
X52295Y-41892D01*
X52295Y-42454D01*
X52142Y-42454D01*
X51941Y-42537D01*
X51788Y-42690D01*
X51750Y-42782D01*
X51712Y-42691D01*
X51559Y-42538D01*
X51358Y-42454D01*
X51142Y-42454D01*
X51061Y-42487D01*
X51061Y-42382D01*
X50750Y-42070D01*
X50679Y-42141D01*
X50679Y-42000D01*
X50367Y-41688D01*
X50272Y-41714D01*
X50249Y-41780D01*
X50212Y-41691D01*
X50059Y-41538D01*
X49880Y-41463D01*
X49880Y-39325D01*
X49746Y-39002D01*
X49499Y-38754D01*
X49175Y-38620D01*
X48825Y-38619D01*
X48502Y-38753D01*
X48254Y-39000D01*
X48120Y-39324D01*
X48119Y-39674D01*
X48253Y-39997D01*
X48500Y-40245D01*
X48824Y-40379D01*
X49174Y-40380D01*
X49497Y-40246D01*
X49745Y-39999D01*
X49879Y-39675D01*
X49880Y-39325D01*
X49880Y-41463D01*
X49858Y-41454D01*
X49642Y-41454D01*
X49441Y-41537D01*
X49288Y-41690D01*
X49204Y-41891D01*
X49204Y-42107D01*
X49287Y-42308D01*
X49440Y-42461D01*
X49641Y-42545D01*
X49857Y-42545D01*
X50058Y-42462D01*
X50211Y-42309D01*
X50247Y-42224D01*
X50272Y-42285D01*
X50367Y-42311D01*
X50679Y-42000D01*
X50679Y-42141D01*
X50438Y-42382D01*
X50464Y-42477D01*
X50669Y-42550D01*
X50886Y-42539D01*
X51035Y-42477D01*
X51061Y-42382D01*
X51061Y-42487D01*
X50941Y-42537D01*
X50788Y-42690D01*
X50750Y-42782D01*
X50712Y-42691D01*
X50559Y-42538D01*
X50358Y-42454D01*
X50142Y-42454D01*
X49941Y-42537D01*
X49788Y-42690D01*
X49704Y-42891D01*
X49704Y-43107D01*
X49787Y-43308D01*
X49940Y-43461D01*
X50141Y-43545D01*
X50357Y-43545D01*
X50558Y-43462D01*
X50711Y-43309D01*
X50749Y-43217D01*
X50787Y-43308D01*
X50940Y-43461D01*
X51141Y-43545D01*
X51357Y-43545D01*
X51558Y-43462D01*
X51711Y-43309D01*
X51749Y-43217D01*
X51787Y-43308D01*
X51940Y-43461D01*
X52141Y-43545D01*
X52357Y-43545D01*
X52558Y-43462D01*
X52711Y-43309D01*
X52795Y-43108D01*
X52795Y-42892D01*
X52795Y-49377D01*
X52774Y-49382D01*
X52582Y-49510D01*
X52500Y-49634D01*
X52417Y-49510D01*
X52225Y-49382D01*
X52000Y-49337D01*
X51774Y-49382D01*
X51582Y-49510D01*
X51500Y-49634D01*
X51417Y-49510D01*
X51225Y-49382D01*
X51000Y-49337D01*
X50774Y-49382D01*
X50582Y-49510D01*
X50500Y-49634D01*
X50417Y-49510D01*
X50225Y-49382D01*
X50000Y-49337D01*
X49774Y-49382D01*
X49582Y-49510D01*
X49500Y-49634D01*
X49417Y-49510D01*
X49225Y-49382D01*
X49000Y-49337D01*
X48774Y-49382D01*
X48582Y-49510D01*
X48500Y-49634D01*
X48417Y-49510D01*
X48225Y-49382D01*
X48000Y-49337D01*
X47774Y-49382D01*
X47582Y-49510D01*
X47500Y-49634D01*
X47417Y-49510D01*
X47225Y-49382D01*
X47000Y-49337D01*
X46880Y-49361D01*
X46880Y-39325D01*
X46880Y-31325D01*
X46880Y-23325D01*
X46880Y-15325D01*
X46746Y-15002D01*
X46499Y-14754D01*
X46175Y-14620D01*
X45825Y-14619D01*
X45502Y-14753D01*
X45254Y-15000D01*
X45120Y-15324D01*
X45119Y-15674D01*
X45253Y-15997D01*
X45500Y-16245D01*
X45824Y-16379D01*
X46174Y-16380D01*
X46497Y-16246D01*
X46745Y-15999D01*
X46879Y-15675D01*
X46880Y-15325D01*
X46880Y-23325D01*
X46746Y-23002D01*
X46499Y-22754D01*
X46175Y-22620D01*
X45825Y-22619D01*
X45795Y-22632D01*
X45795Y-18892D01*
X45712Y-18691D01*
X45559Y-18538D01*
X45358Y-18454D01*
X45295Y-18454D01*
X45295Y-17892D01*
X45212Y-17691D01*
X45059Y-17538D01*
X44858Y-17454D01*
X44642Y-17454D01*
X44441Y-17537D01*
X44288Y-17690D01*
X44252Y-17775D01*
X44227Y-17714D01*
X44132Y-17688D01*
X44061Y-17758D01*
X44061Y-17617D01*
X44035Y-17522D01*
X43830Y-17449D01*
X43613Y-17460D01*
X43464Y-17522D01*
X43438Y-17617D01*
X43750Y-17929D01*
X44061Y-17617D01*
X44061Y-17758D01*
X43820Y-18000D01*
X44132Y-18311D01*
X44227Y-18285D01*
X44250Y-18219D01*
X44287Y-18308D01*
X44440Y-18461D01*
X44641Y-18545D01*
X44857Y-18545D01*
X45058Y-18462D01*
X45211Y-18309D01*
X45295Y-18108D01*
X45295Y-17892D01*
X45295Y-18454D01*
X45142Y-18454D01*
X44941Y-18537D01*
X44788Y-18690D01*
X44750Y-18782D01*
X44712Y-18691D01*
X44559Y-18538D01*
X44358Y-18454D01*
X44142Y-18454D01*
X44061Y-18487D01*
X44061Y-18382D01*
X43750Y-18070D01*
X43679Y-18141D01*
X43679Y-18000D01*
X43367Y-17688D01*
X43272Y-17714D01*
X43249Y-17780D01*
X43212Y-17691D01*
X43059Y-17538D01*
X42880Y-17463D01*
X42880Y-15325D01*
X42746Y-15002D01*
X42499Y-14754D01*
X42175Y-14620D01*
X41825Y-14619D01*
X41502Y-14753D01*
X41254Y-15000D01*
X41120Y-15324D01*
X41119Y-15674D01*
X41253Y-15997D01*
X41500Y-16245D01*
X41824Y-16379D01*
X42174Y-16380D01*
X42497Y-16246D01*
X42745Y-15999D01*
X42879Y-15675D01*
X42880Y-15325D01*
X42880Y-17463D01*
X42858Y-17454D01*
X42642Y-17454D01*
X42441Y-17537D01*
X42288Y-17690D01*
X42204Y-17891D01*
X42204Y-18107D01*
X42287Y-18308D01*
X42440Y-18461D01*
X42641Y-18545D01*
X42857Y-18545D01*
X43058Y-18462D01*
X43211Y-18309D01*
X43247Y-18224D01*
X43272Y-18285D01*
X43367Y-18311D01*
X43679Y-18000D01*
X43679Y-18141D01*
X43438Y-18382D01*
X43464Y-18477D01*
X43669Y-18550D01*
X43886Y-18539D01*
X44035Y-18477D01*
X44061Y-18382D01*
X44061Y-18487D01*
X43941Y-18537D01*
X43788Y-18690D01*
X43750Y-18782D01*
X43712Y-18691D01*
X43559Y-18538D01*
X43358Y-18454D01*
X43142Y-18454D01*
X42941Y-18537D01*
X42788Y-18690D01*
X42704Y-18891D01*
X42704Y-19107D01*
X42787Y-19308D01*
X42940Y-19461D01*
X43141Y-19545D01*
X43357Y-19545D01*
X43558Y-19462D01*
X43711Y-19309D01*
X43749Y-19217D01*
X43787Y-19308D01*
X43940Y-19461D01*
X44141Y-19545D01*
X44357Y-19545D01*
X44558Y-19462D01*
X44711Y-19309D01*
X44749Y-19217D01*
X44787Y-19308D01*
X44940Y-19461D01*
X45141Y-19545D01*
X45357Y-19545D01*
X45558Y-19462D01*
X45711Y-19309D01*
X45795Y-19108D01*
X45795Y-18892D01*
X45795Y-22632D01*
X45502Y-22753D01*
X45254Y-23000D01*
X45120Y-23324D01*
X45119Y-23674D01*
X45253Y-23997D01*
X45500Y-24245D01*
X45824Y-24379D01*
X46174Y-24380D01*
X46497Y-24246D01*
X46745Y-23999D01*
X46879Y-23675D01*
X46880Y-23325D01*
X46880Y-31325D01*
X46746Y-31002D01*
X46499Y-30754D01*
X46175Y-30620D01*
X45825Y-30619D01*
X45795Y-30632D01*
X45795Y-26892D01*
X45712Y-26691D01*
X45559Y-26538D01*
X45358Y-26454D01*
X45295Y-26454D01*
X45295Y-25892D01*
X45212Y-25691D01*
X45059Y-25538D01*
X44858Y-25454D01*
X44642Y-25454D01*
X44441Y-25537D01*
X44288Y-25690D01*
X44252Y-25775D01*
X44227Y-25714D01*
X44132Y-25688D01*
X44061Y-25758D01*
X44061Y-25617D01*
X44035Y-25522D01*
X43830Y-25449D01*
X43613Y-25460D01*
X43464Y-25522D01*
X43438Y-25617D01*
X43750Y-25929D01*
X44061Y-25617D01*
X44061Y-25758D01*
X43820Y-26000D01*
X44132Y-26311D01*
X44227Y-26285D01*
X44250Y-26219D01*
X44287Y-26308D01*
X44440Y-26461D01*
X44641Y-26545D01*
X44857Y-26545D01*
X45058Y-26462D01*
X45211Y-26309D01*
X45295Y-26108D01*
X45295Y-25892D01*
X45295Y-26454D01*
X45142Y-26454D01*
X44941Y-26537D01*
X44788Y-26690D01*
X44750Y-26782D01*
X44712Y-26691D01*
X44559Y-26538D01*
X44358Y-26454D01*
X44142Y-26454D01*
X44061Y-26487D01*
X44061Y-26382D01*
X43750Y-26070D01*
X43679Y-26141D01*
X43679Y-26000D01*
X43367Y-25688D01*
X43272Y-25714D01*
X43249Y-25780D01*
X43212Y-25691D01*
X43059Y-25538D01*
X42880Y-25463D01*
X42880Y-23325D01*
X42746Y-23002D01*
X42499Y-22754D01*
X42175Y-22620D01*
X41825Y-22619D01*
X41502Y-22753D01*
X41254Y-23000D01*
X41120Y-23324D01*
X41119Y-23674D01*
X41253Y-23997D01*
X41500Y-24245D01*
X41824Y-24379D01*
X42174Y-24380D01*
X42497Y-24246D01*
X42745Y-23999D01*
X42879Y-23675D01*
X42880Y-23325D01*
X42880Y-25463D01*
X42858Y-25454D01*
X42642Y-25454D01*
X42441Y-25537D01*
X42288Y-25690D01*
X42204Y-25891D01*
X42204Y-26107D01*
X42287Y-26308D01*
X42440Y-26461D01*
X42641Y-26545D01*
X42857Y-26545D01*
X43058Y-26462D01*
X43211Y-26309D01*
X43247Y-26224D01*
X43272Y-26285D01*
X43367Y-26311D01*
X43679Y-26000D01*
X43679Y-26141D01*
X43438Y-26382D01*
X43464Y-26477D01*
X43669Y-26550D01*
X43886Y-26539D01*
X44035Y-26477D01*
X44061Y-26382D01*
X44061Y-26487D01*
X43941Y-26537D01*
X43788Y-26690D01*
X43750Y-26782D01*
X43712Y-26691D01*
X43559Y-26538D01*
X43358Y-26454D01*
X43142Y-26454D01*
X42941Y-26537D01*
X42788Y-26690D01*
X42704Y-26891D01*
X42704Y-27107D01*
X42787Y-27308D01*
X42940Y-27461D01*
X43141Y-27545D01*
X43357Y-27545D01*
X43558Y-27462D01*
X43711Y-27309D01*
X43749Y-27217D01*
X43787Y-27308D01*
X43940Y-27461D01*
X44141Y-27545D01*
X44357Y-27545D01*
X44558Y-27462D01*
X44711Y-27309D01*
X44749Y-27217D01*
X44787Y-27308D01*
X44940Y-27461D01*
X45141Y-27545D01*
X45357Y-27545D01*
X45558Y-27462D01*
X45711Y-27309D01*
X45795Y-27108D01*
X45795Y-26892D01*
X45795Y-30632D01*
X45502Y-30753D01*
X45254Y-31000D01*
X45120Y-31324D01*
X45119Y-31674D01*
X45253Y-31997D01*
X45500Y-32245D01*
X45824Y-32379D01*
X46174Y-32380D01*
X46497Y-32246D01*
X46745Y-31999D01*
X46879Y-31675D01*
X46880Y-31325D01*
X46880Y-39325D01*
X46746Y-39002D01*
X46499Y-38754D01*
X46175Y-38620D01*
X45825Y-38619D01*
X45795Y-38632D01*
X45795Y-34892D01*
X45712Y-34691D01*
X45559Y-34538D01*
X45358Y-34454D01*
X45295Y-34454D01*
X45295Y-33892D01*
X45212Y-33691D01*
X45059Y-33538D01*
X44858Y-33454D01*
X44642Y-33454D01*
X44441Y-33537D01*
X44288Y-33690D01*
X44252Y-33775D01*
X44227Y-33714D01*
X44132Y-33688D01*
X44061Y-33758D01*
X44061Y-33617D01*
X44035Y-33522D01*
X43830Y-33449D01*
X43613Y-33460D01*
X43464Y-33522D01*
X43438Y-33617D01*
X43750Y-33929D01*
X44061Y-33617D01*
X44061Y-33758D01*
X43820Y-34000D01*
X44132Y-34311D01*
X44227Y-34285D01*
X44250Y-34219D01*
X44287Y-34308D01*
X44440Y-34461D01*
X44641Y-34545D01*
X44857Y-34545D01*
X45058Y-34462D01*
X45211Y-34309D01*
X45295Y-34108D01*
X45295Y-33892D01*
X45295Y-34454D01*
X45142Y-34454D01*
X44941Y-34537D01*
X44788Y-34690D01*
X44750Y-34782D01*
X44712Y-34691D01*
X44559Y-34538D01*
X44358Y-34454D01*
X44142Y-34454D01*
X44061Y-34487D01*
X44061Y-34382D01*
X43750Y-34070D01*
X43679Y-34141D01*
X43679Y-34000D01*
X43367Y-33688D01*
X43272Y-33714D01*
X43249Y-33780D01*
X43212Y-33691D01*
X43059Y-33538D01*
X42880Y-33463D01*
X42880Y-31325D01*
X42746Y-31002D01*
X42499Y-30754D01*
X42175Y-30620D01*
X41825Y-30619D01*
X41502Y-30753D01*
X41254Y-31000D01*
X41120Y-31324D01*
X41119Y-31674D01*
X41253Y-31997D01*
X41500Y-32245D01*
X41824Y-32379D01*
X42174Y-32380D01*
X42497Y-32246D01*
X42745Y-31999D01*
X42879Y-31675D01*
X42880Y-31325D01*
X42880Y-33463D01*
X42858Y-33454D01*
X42642Y-33454D01*
X42441Y-33537D01*
X42288Y-33690D01*
X42204Y-33891D01*
X42204Y-34107D01*
X42287Y-34308D01*
X42440Y-34461D01*
X42641Y-34545D01*
X42857Y-34545D01*
X43058Y-34462D01*
X43211Y-34309D01*
X43247Y-34224D01*
X43272Y-34285D01*
X43367Y-34311D01*
X43679Y-34000D01*
X43679Y-34141D01*
X43438Y-34382D01*
X43464Y-34477D01*
X43669Y-34550D01*
X43886Y-34539D01*
X44035Y-34477D01*
X44061Y-34382D01*
X44061Y-34487D01*
X43941Y-34537D01*
X43788Y-34690D01*
X43750Y-34782D01*
X43712Y-34691D01*
X43559Y-34538D01*
X43358Y-34454D01*
X43142Y-34454D01*
X42941Y-34537D01*
X42788Y-34690D01*
X42704Y-34891D01*
X42704Y-35107D01*
X42787Y-35308D01*
X42940Y-35461D01*
X43141Y-35545D01*
X43357Y-35545D01*
X43558Y-35462D01*
X43711Y-35309D01*
X43749Y-35217D01*
X43787Y-35308D01*
X43940Y-35461D01*
X44141Y-35545D01*
X44357Y-35545D01*
X44558Y-35462D01*
X44711Y-35309D01*
X44749Y-35217D01*
X44787Y-35308D01*
X44940Y-35461D01*
X45141Y-35545D01*
X45357Y-35545D01*
X45558Y-35462D01*
X45711Y-35309D01*
X45795Y-35108D01*
X45795Y-34892D01*
X45795Y-38632D01*
X45502Y-38753D01*
X45254Y-39000D01*
X45120Y-39324D01*
X45119Y-39674D01*
X45253Y-39997D01*
X45500Y-40245D01*
X45824Y-40379D01*
X46174Y-40380D01*
X46497Y-40246D01*
X46745Y-39999D01*
X46879Y-39675D01*
X46880Y-39325D01*
X46880Y-49361D01*
X46774Y-49382D01*
X46582Y-49510D01*
X46500Y-49634D01*
X46417Y-49510D01*
X46225Y-49382D01*
X46000Y-49337D01*
X45795Y-49377D01*
X45795Y-42892D01*
X45712Y-42691D01*
X45559Y-42538D01*
X45358Y-42454D01*
X45295Y-42454D01*
X45295Y-41892D01*
X45212Y-41691D01*
X45059Y-41538D01*
X44858Y-41454D01*
X44642Y-41454D01*
X44441Y-41537D01*
X44288Y-41690D01*
X44252Y-41775D01*
X44227Y-41714D01*
X44132Y-41688D01*
X44061Y-41758D01*
X44061Y-41617D01*
X44035Y-41522D01*
X43830Y-41449D01*
X43613Y-41460D01*
X43464Y-41522D01*
X43438Y-41617D01*
X43750Y-41929D01*
X44061Y-41617D01*
X44061Y-41758D01*
X43820Y-42000D01*
X44132Y-42311D01*
X44227Y-42285D01*
X44250Y-42219D01*
X44287Y-42308D01*
X44440Y-42461D01*
X44641Y-42545D01*
X44857Y-42545D01*
X45058Y-42462D01*
X45211Y-42309D01*
X45295Y-42108D01*
X45295Y-41892D01*
X45295Y-42454D01*
X45142Y-42454D01*
X44941Y-42537D01*
X44788Y-42690D01*
X44750Y-42782D01*
X44712Y-42691D01*
X44559Y-42538D01*
X44358Y-42454D01*
X44142Y-42454D01*
X44061Y-42487D01*
X44061Y-42382D01*
X43750Y-42070D01*
X43679Y-42141D01*
X43679Y-42000D01*
X43367Y-41688D01*
X43272Y-41714D01*
X43249Y-41780D01*
X43212Y-41691D01*
X43059Y-41538D01*
X42880Y-41463D01*
X42880Y-39325D01*
X42746Y-39002D01*
X42499Y-38754D01*
X42175Y-38620D01*
X41825Y-38619D01*
X41502Y-38753D01*
X41254Y-39000D01*
X41120Y-39324D01*
X41119Y-39674D01*
X41253Y-39997D01*
X41500Y-40245D01*
X41824Y-40379D01*
X42174Y-40380D01*
X42497Y-40246D01*
X42745Y-39999D01*
X42879Y-39675D01*
X42880Y-39325D01*
X42880Y-41463D01*
X42858Y-41454D01*
X42642Y-41454D01*
X42441Y-41537D01*
X42288Y-41690D01*
X42204Y-41891D01*
X42204Y-42107D01*
X42287Y-42308D01*
X42440Y-42461D01*
X42641Y-42545D01*
X42857Y-42545D01*
X43058Y-42462D01*
X43211Y-42309D01*
X43247Y-42224D01*
X43272Y-42285D01*
X43367Y-42311D01*
X43679Y-42000D01*
X43679Y-42141D01*
X43438Y-42382D01*
X43464Y-42477D01*
X43669Y-42550D01*
X43886Y-42539D01*
X44035Y-42477D01*
X44061Y-42382D01*
X44061Y-42487D01*
X43941Y-42537D01*
X43788Y-42690D01*
X43750Y-42782D01*
X43712Y-42691D01*
X43559Y-42538D01*
X43358Y-42454D01*
X43142Y-42454D01*
X42941Y-42537D01*
X42788Y-42690D01*
X42704Y-42891D01*
X42704Y-43107D01*
X42787Y-43308D01*
X42940Y-43461D01*
X43141Y-43545D01*
X43357Y-43545D01*
X43558Y-43462D01*
X43711Y-43309D01*
X43749Y-43217D01*
X43787Y-43308D01*
X43940Y-43461D01*
X44141Y-43545D01*
X44357Y-43545D01*
X44558Y-43462D01*
X44711Y-43309D01*
X44749Y-43217D01*
X44787Y-43308D01*
X44940Y-43461D01*
X45141Y-43545D01*
X45357Y-43545D01*
X45558Y-43462D01*
X45711Y-43309D01*
X45795Y-43108D01*
X45795Y-42892D01*
X45795Y-49377D01*
X45774Y-49382D01*
X45582Y-49510D01*
X45500Y-49634D01*
X45417Y-49510D01*
X45225Y-49382D01*
X45000Y-49337D01*
X44774Y-49382D01*
X44582Y-49510D01*
X44500Y-49634D01*
X44417Y-49510D01*
X44225Y-49382D01*
X44000Y-49337D01*
X43774Y-49382D01*
X43582Y-49510D01*
X43500Y-49634D01*
X43417Y-49510D01*
X43225Y-49382D01*
X43000Y-49337D01*
X42966Y-49343D01*
X42966Y-46880D01*
X42838Y-46571D01*
X42602Y-46335D01*
X42293Y-46206D01*
X41959Y-46206D01*
X41650Y-46334D01*
X41413Y-46570D01*
X41285Y-46879D01*
X41285Y-47213D01*
X41413Y-47522D01*
X41649Y-47759D01*
X41958Y-47887D01*
X42292Y-47887D01*
X42601Y-47760D01*
X42838Y-47523D01*
X42966Y-47215D01*
X42966Y-46880D01*
X42966Y-49343D01*
X42774Y-49382D01*
X42582Y-49510D01*
X42576Y-49518D01*
X42551Y-49458D01*
X42481Y-49388D01*
X42389Y-49350D01*
X42290Y-49350D01*
X41610Y-49350D01*
X41518Y-49388D01*
X41448Y-49458D01*
X41410Y-49550D01*
X41410Y-49649D01*
X41410Y-50449D01*
X41448Y-50541D01*
X41518Y-50611D01*
X41610Y-50650D01*
X41709Y-50650D01*
X42389Y-50650D01*
X42481Y-50611D01*
X42551Y-50541D01*
X42576Y-50481D01*
X42582Y-50489D01*
X42774Y-50617D01*
X43000Y-50662D01*
X43225Y-50617D01*
X43417Y-50489D01*
X43500Y-50365D01*
X43582Y-50489D01*
X43774Y-50617D01*
X44000Y-50662D01*
X44225Y-50617D01*
X44417Y-50489D01*
X44500Y-50365D01*
X44582Y-50489D01*
X44774Y-50617D01*
X45000Y-50662D01*
X45225Y-50617D01*
X45417Y-50489D01*
X45500Y-50365D01*
X45582Y-50489D01*
X45774Y-50617D01*
X46000Y-50662D01*
X46225Y-50617D01*
X46417Y-50489D01*
X46500Y-50365D01*
X46582Y-50489D01*
X46774Y-50617D01*
X47000Y-50662D01*
X47225Y-50617D01*
X47417Y-50489D01*
X47500Y-50365D01*
X47582Y-50489D01*
X47774Y-50617D01*
X48000Y-50662D01*
X48225Y-50617D01*
X48417Y-50489D01*
X48500Y-50365D01*
X48582Y-50489D01*
X48774Y-50617D01*
X49000Y-50662D01*
X49225Y-50617D01*
X49417Y-50489D01*
X49500Y-50365D01*
X49582Y-50489D01*
X49774Y-50617D01*
X50000Y-50662D01*
X50225Y-50617D01*
X50417Y-50489D01*
X50500Y-50365D01*
X50582Y-50489D01*
X50774Y-50617D01*
X51000Y-50662D01*
X51225Y-50617D01*
X51417Y-50489D01*
X51500Y-50365D01*
X51582Y-50489D01*
X51774Y-50617D01*
X52000Y-50662D01*
X52225Y-50617D01*
X52417Y-50489D01*
X52500Y-50365D01*
X52582Y-50489D01*
X52774Y-50617D01*
X53000Y-50662D01*
X53225Y-50617D01*
X53417Y-50489D01*
X53500Y-50365D01*
X53582Y-50489D01*
X53774Y-50617D01*
X54000Y-50662D01*
X54225Y-50617D01*
X54417Y-50489D01*
X54500Y-50365D01*
X54582Y-50489D01*
X54774Y-50617D01*
X55000Y-50662D01*
X55225Y-50617D01*
X55417Y-50489D01*
X55500Y-50365D01*
X55582Y-50489D01*
X55774Y-50617D01*
X56000Y-50662D01*
X56225Y-50617D01*
X56417Y-50489D01*
X56500Y-50365D01*
X56582Y-50489D01*
X56774Y-50617D01*
X57000Y-50662D01*
X57225Y-50617D01*
X57417Y-50489D01*
X57500Y-50365D01*
X57582Y-50489D01*
X57774Y-50617D01*
X58000Y-50662D01*
X58225Y-50617D01*
X58417Y-50489D01*
X58500Y-50365D01*
X58582Y-50489D01*
X58774Y-50617D01*
X59000Y-50662D01*
X59225Y-50617D01*
X59417Y-50489D01*
X59500Y-50365D01*
X59582Y-50489D01*
X59774Y-50617D01*
X60000Y-50662D01*
X60225Y-50617D01*
X60417Y-50489D01*
X60500Y-50365D01*
X60582Y-50489D01*
X60774Y-50617D01*
X61000Y-50662D01*
X61225Y-50617D01*
X61417Y-50489D01*
X61500Y-50365D01*
X61582Y-50489D01*
X61774Y-50617D01*
X62000Y-50662D01*
X62225Y-50617D01*
X62417Y-50489D01*
X62498Y-50368D01*
X62644Y-50531D01*
X62852Y-50631D01*
X62858Y-50632D01*
X62950Y-50585D01*
X62950Y-51720D01*
X49000Y-51720D01*
X48893Y-51741D01*
X48802Y-51802D01*
X48741Y-51893D01*
X48720Y-52000D01*
X48720Y-55884D01*
X48384Y-56220D01*
X48340Y-56220D01*
X48340Y-53396D01*
X48227Y-53123D01*
X48019Y-52914D01*
X47746Y-52801D01*
X47451Y-52801D01*
X47178Y-52913D01*
X46969Y-53122D01*
X46856Y-53395D01*
X46856Y-53690D01*
X46968Y-53963D01*
X47177Y-54172D01*
X47450Y-54285D01*
X47745Y-54285D01*
X48018Y-54172D01*
X48227Y-53964D01*
X48340Y-53691D01*
X48340Y-53396D01*
X48340Y-56220D01*
X46372Y-56220D01*
X46372Y-53396D01*
X46259Y-53123D01*
X46050Y-52914D01*
X45778Y-52801D01*
X45482Y-52801D01*
X45210Y-52913D01*
X45001Y-53122D01*
X44887Y-53395D01*
X44887Y-53690D01*
X45000Y-53963D01*
X45208Y-54172D01*
X45481Y-54285D01*
X45776Y-54285D01*
X46049Y-54172D01*
X46258Y-53964D01*
X46371Y-53691D01*
X46372Y-53396D01*
X46372Y-56220D01*
X44403Y-56220D01*
X44403Y-53396D01*
X44290Y-53123D01*
X44082Y-52914D01*
X43809Y-52801D01*
X43514Y-52801D01*
X43241Y-52913D01*
X43032Y-53122D01*
X42919Y-53395D01*
X42919Y-53690D01*
X43031Y-53963D01*
X43240Y-54172D01*
X43513Y-54285D01*
X43808Y-54285D01*
X44081Y-54172D01*
X44290Y-53964D01*
X44403Y-53691D01*
X44403Y-53396D01*
X44403Y-56220D01*
X42435Y-56220D01*
X42435Y-53396D01*
X42322Y-53123D01*
X42113Y-52914D01*
X41841Y-52801D01*
X41545Y-52801D01*
X41273Y-52913D01*
X41064Y-53122D01*
X40950Y-53395D01*
X40950Y-53690D01*
X41063Y-53963D01*
X41271Y-54172D01*
X41544Y-54285D01*
X41839Y-54285D01*
X42112Y-54172D01*
X42321Y-53964D01*
X42434Y-53691D01*
X42435Y-53396D01*
X42435Y-56220D01*
X41115Y-56220D01*
X40279Y-55384D01*
X40279Y-52000D01*
X40279Y-12779D01*
X41000Y-12779D01*
X76220Y-12779D01*
X76220Y-51720D01*
X76220Y-51720D01*
G37*
G54D19*
X76220Y-51720D02*
X75250Y-51720D01*
X75250Y-14203D01*
X75122Y-13894D01*
X74886Y-13657D01*
X74577Y-13529D01*
X74242Y-13529D01*
X73933Y-13657D01*
X73697Y-13893D01*
X73569Y-14202D01*
X73568Y-14536D01*
X73696Y-14845D01*
X73932Y-15082D01*
X74241Y-15210D01*
X74575Y-15210D01*
X74884Y-15083D01*
X75121Y-14846D01*
X75249Y-14537D01*
X75250Y-14203D01*
X75250Y-51720D01*
X74856Y-51720D01*
X74856Y-49636D01*
X74728Y-49327D01*
X74492Y-49091D01*
X74360Y-49036D01*
X74360Y-38238D01*
X74360Y-38139D01*
X74360Y-37612D01*
X74360Y-37387D01*
X74360Y-36860D01*
X74360Y-36761D01*
X74360Y-31238D01*
X74360Y-31139D01*
X74360Y-30612D01*
X74360Y-30387D01*
X74360Y-29860D01*
X74360Y-29761D01*
X74321Y-29669D01*
X74251Y-29599D01*
X74159Y-29561D01*
X73533Y-29561D01*
X73471Y-29623D01*
X73471Y-30450D01*
X74297Y-30450D01*
X74360Y-30387D01*
X74360Y-30612D01*
X74297Y-30550D01*
X73471Y-30550D01*
X73471Y-31376D01*
X73533Y-31439D01*
X74159Y-31439D01*
X74251Y-31400D01*
X74321Y-31330D01*
X74360Y-31238D01*
X74360Y-36761D01*
X74321Y-36669D01*
X74251Y-36599D01*
X74159Y-36561D01*
X73533Y-36561D01*
X73471Y-36623D01*
X73471Y-37450D01*
X74297Y-37450D01*
X74360Y-37387D01*
X74360Y-37612D01*
X74297Y-37550D01*
X73471Y-37550D01*
X73471Y-38376D01*
X73533Y-38439D01*
X74159Y-38439D01*
X74251Y-38400D01*
X74321Y-38330D01*
X74360Y-38238D01*
X74360Y-49036D01*
X74183Y-48962D01*
X73849Y-48962D01*
X73540Y-49090D01*
X73371Y-49259D01*
X73371Y-38376D01*
X73371Y-37550D01*
X73371Y-37450D01*
X73371Y-36623D01*
X73371Y-31376D01*
X73371Y-30550D01*
X73371Y-30450D01*
X73371Y-29623D01*
X73308Y-29561D01*
X73046Y-29561D01*
X73070Y-29550D01*
X73140Y-29480D01*
X73179Y-29388D01*
X73179Y-29289D01*
X73179Y-28762D01*
X73179Y-28537D01*
X73179Y-28010D01*
X73179Y-27911D01*
X73140Y-27819D01*
X73070Y-27749D01*
X72978Y-27711D01*
X72352Y-27711D01*
X72290Y-27773D01*
X72290Y-28600D01*
X73116Y-28600D01*
X73179Y-28537D01*
X73179Y-28762D01*
X73116Y-28700D01*
X72290Y-28700D01*
X72290Y-29526D01*
X72352Y-29589D01*
X72614Y-29589D01*
X72590Y-29599D01*
X72520Y-29669D01*
X72482Y-29761D01*
X72482Y-29860D01*
X72482Y-30387D01*
X72544Y-30450D01*
X73371Y-30450D01*
X73371Y-30550D01*
X72544Y-30550D01*
X72482Y-30612D01*
X72482Y-31139D01*
X72482Y-31238D01*
X72520Y-31330D01*
X72590Y-31400D01*
X72682Y-31439D01*
X73308Y-31439D01*
X73371Y-31376D01*
X73371Y-36623D01*
X73308Y-36561D01*
X73046Y-36561D01*
X73070Y-36550D01*
X73140Y-36480D01*
X73179Y-36388D01*
X73179Y-36289D01*
X73179Y-35762D01*
X73179Y-35537D01*
X73179Y-35010D01*
X73179Y-34911D01*
X73140Y-34819D01*
X73070Y-34749D01*
X72978Y-34711D01*
X72352Y-34711D01*
X72290Y-34773D01*
X72290Y-35600D01*
X73116Y-35600D01*
X73179Y-35537D01*
X73179Y-35762D01*
X73116Y-35700D01*
X72290Y-35700D01*
X72290Y-36526D01*
X72352Y-36589D01*
X72614Y-36589D01*
X72590Y-36599D01*
X72520Y-36669D01*
X72482Y-36761D01*
X72482Y-36860D01*
X72482Y-37387D01*
X72544Y-37450D01*
X73371Y-37450D01*
X73371Y-37550D01*
X72544Y-37550D01*
X72482Y-37612D01*
X72482Y-38139D01*
X72482Y-38238D01*
X72520Y-38330D01*
X72590Y-38400D01*
X72682Y-38439D01*
X73308Y-38439D01*
X73371Y-38376D01*
X73371Y-49259D01*
X73303Y-49326D01*
X73175Y-49635D01*
X73175Y-49969D01*
X73302Y-50278D01*
X73539Y-50515D01*
X73847Y-50643D01*
X74182Y-50643D01*
X74491Y-50516D01*
X74727Y-50279D01*
X74856Y-49971D01*
X74856Y-49636D01*
X74856Y-51720D01*
X72956Y-51720D01*
X72956Y-46848D01*
X72956Y-41448D01*
X72950Y-41114D01*
X72834Y-40835D01*
X72709Y-40772D01*
X72638Y-40843D01*
X72638Y-40701D01*
X72575Y-40576D01*
X72264Y-40454D01*
X72190Y-40455D01*
X72190Y-36526D01*
X72190Y-35700D01*
X72190Y-35600D01*
X72190Y-34773D01*
X72190Y-29526D01*
X72190Y-28700D01*
X72190Y-28600D01*
X72190Y-27773D01*
X72127Y-27711D01*
X71501Y-27711D01*
X71409Y-27749D01*
X71339Y-27819D01*
X71301Y-27911D01*
X71301Y-28010D01*
X71301Y-28537D01*
X71363Y-28600D01*
X72190Y-28600D01*
X72190Y-28700D01*
X71363Y-28700D01*
X71301Y-28762D01*
X71301Y-29289D01*
X71301Y-29388D01*
X71339Y-29480D01*
X71409Y-29550D01*
X71433Y-29561D01*
X70320Y-29561D01*
X70228Y-29599D01*
X70158Y-29669D01*
X70120Y-29761D01*
X70120Y-29860D01*
X70120Y-31238D01*
X70158Y-31330D01*
X70228Y-31400D01*
X70320Y-31439D01*
X70419Y-31439D01*
X71797Y-31439D01*
X71889Y-31400D01*
X71959Y-31330D01*
X71998Y-31238D01*
X71998Y-31139D01*
X71998Y-29761D01*
X71959Y-29669D01*
X71889Y-29599D01*
X71865Y-29589D01*
X72127Y-29589D01*
X72190Y-29526D01*
X72190Y-34773D01*
X72127Y-34711D01*
X71501Y-34711D01*
X71409Y-34749D01*
X71339Y-34819D01*
X71301Y-34911D01*
X71301Y-35010D01*
X71301Y-35537D01*
X71363Y-35600D01*
X72190Y-35600D01*
X72190Y-35700D01*
X71363Y-35700D01*
X71301Y-35762D01*
X71301Y-36289D01*
X71301Y-36388D01*
X71339Y-36480D01*
X71409Y-36550D01*
X71433Y-36561D01*
X70320Y-36561D01*
X70228Y-36599D01*
X70158Y-36669D01*
X70120Y-36761D01*
X70120Y-36860D01*
X70120Y-38238D01*
X70158Y-38330D01*
X70228Y-38400D01*
X70320Y-38439D01*
X70419Y-38439D01*
X71797Y-38439D01*
X71889Y-38400D01*
X71959Y-38330D01*
X71998Y-38238D01*
X71998Y-38139D01*
X71998Y-36761D01*
X71959Y-36669D01*
X71889Y-36599D01*
X71865Y-36589D01*
X72127Y-36589D01*
X72190Y-36526D01*
X72190Y-40455D01*
X71929Y-40460D01*
X71650Y-40576D01*
X71587Y-40701D01*
X72112Y-41226D01*
X72638Y-40701D01*
X72638Y-40843D01*
X72183Y-41297D01*
X72709Y-41822D01*
X72834Y-41760D01*
X72956Y-41448D01*
X72956Y-46848D01*
X72950Y-46514D01*
X72834Y-46235D01*
X72709Y-46172D01*
X72638Y-46243D01*
X72638Y-46101D01*
X72638Y-41893D01*
X72112Y-41368D01*
X72042Y-41439D01*
X72042Y-41297D01*
X71516Y-40772D01*
X71391Y-40835D01*
X71269Y-41146D01*
X71275Y-41480D01*
X71391Y-41760D01*
X71516Y-41822D01*
X72042Y-41297D01*
X72042Y-41439D01*
X71587Y-41893D01*
X71650Y-42019D01*
X71961Y-42141D01*
X72296Y-42134D01*
X72575Y-42019D01*
X72638Y-41893D01*
X72638Y-46101D01*
X72575Y-45976D01*
X72264Y-45854D01*
X71929Y-45860D01*
X71650Y-45976D01*
X71613Y-46050D01*
X71613Y-42578D01*
X71602Y-42361D01*
X71540Y-42212D01*
X71445Y-42185D01*
X71374Y-42256D01*
X71374Y-42114D01*
X71348Y-42020D01*
X71143Y-41947D01*
X70926Y-41958D01*
X70777Y-42020D01*
X70751Y-42114D01*
X71062Y-42426D01*
X71374Y-42114D01*
X71374Y-42256D01*
X71133Y-42497D01*
X71445Y-42809D01*
X71540Y-42782D01*
X71613Y-42578D01*
X71613Y-46050D01*
X71608Y-46059D01*
X71608Y-45189D01*
X71525Y-44989D01*
X71372Y-44835D01*
X71281Y-44797D01*
X71371Y-44760D01*
X71525Y-44607D01*
X71608Y-44406D01*
X71608Y-44189D01*
X71525Y-43989D01*
X71434Y-43897D01*
X71525Y-43807D01*
X71608Y-43606D01*
X71608Y-43389D01*
X71525Y-43189D01*
X71372Y-43035D01*
X71287Y-43000D01*
X71348Y-42975D01*
X71374Y-42880D01*
X71062Y-42568D01*
X70992Y-42639D01*
X70992Y-42497D01*
X70680Y-42185D01*
X70585Y-42212D01*
X70512Y-42416D01*
X70523Y-42633D01*
X70585Y-42782D01*
X70680Y-42809D01*
X70992Y-42497D01*
X70992Y-42639D01*
X70751Y-42880D01*
X70777Y-42975D01*
X70842Y-42998D01*
X70754Y-43034D01*
X70600Y-43188D01*
X70517Y-43388D01*
X70517Y-43605D01*
X70600Y-43806D01*
X70691Y-43897D01*
X70600Y-43988D01*
X70517Y-44188D01*
X70517Y-44405D01*
X70600Y-44606D01*
X70753Y-44759D01*
X70844Y-44797D01*
X70754Y-44834D01*
X70600Y-44988D01*
X70517Y-45188D01*
X70517Y-45405D01*
X70600Y-45606D01*
X70753Y-45759D01*
X70954Y-45843D01*
X71171Y-45843D01*
X71371Y-45760D01*
X71525Y-45607D01*
X71608Y-45406D01*
X71608Y-45189D01*
X71608Y-46059D01*
X71587Y-46101D01*
X72112Y-46626D01*
X72638Y-46101D01*
X72638Y-46243D01*
X72183Y-46697D01*
X72709Y-47222D01*
X72834Y-47160D01*
X72956Y-46848D01*
X72956Y-51720D01*
X72638Y-51720D01*
X72638Y-47293D01*
X72112Y-46768D01*
X72042Y-46839D01*
X72042Y-46697D01*
X71516Y-46172D01*
X71391Y-46235D01*
X71269Y-46546D01*
X71275Y-46880D01*
X71391Y-47160D01*
X71516Y-47222D01*
X72042Y-46697D01*
X72042Y-46839D01*
X71587Y-47293D01*
X71650Y-47419D01*
X71961Y-47541D01*
X72296Y-47534D01*
X72575Y-47419D01*
X72638Y-47293D01*
X72638Y-51720D01*
X67880Y-51720D01*
X67880Y-39325D01*
X67880Y-31325D01*
X67880Y-23325D01*
X67880Y-15325D01*
X67746Y-15002D01*
X67499Y-14754D01*
X67175Y-14620D01*
X66825Y-14619D01*
X66502Y-14753D01*
X66254Y-15000D01*
X66120Y-15324D01*
X66119Y-15674D01*
X66253Y-15997D01*
X66500Y-16245D01*
X66824Y-16379D01*
X67174Y-16380D01*
X67497Y-16246D01*
X67745Y-15999D01*
X67879Y-15675D01*
X67880Y-15325D01*
X67880Y-23325D01*
X67746Y-23002D01*
X67499Y-22754D01*
X67175Y-22620D01*
X66825Y-22619D01*
X66795Y-22632D01*
X66795Y-18892D01*
X66712Y-18691D01*
X66559Y-18538D01*
X66358Y-18454D01*
X66295Y-18454D01*
X66295Y-17892D01*
X66212Y-17691D01*
X66059Y-17538D01*
X65858Y-17454D01*
X65642Y-17454D01*
X65441Y-17537D01*
X65288Y-17690D01*
X65252Y-17775D01*
X65227Y-17714D01*
X65132Y-17688D01*
X65061Y-17758D01*
X65061Y-17617D01*
X65035Y-17522D01*
X64830Y-17449D01*
X64613Y-17460D01*
X64464Y-17522D01*
X64438Y-17617D01*
X64750Y-17929D01*
X65061Y-17617D01*
X65061Y-17758D01*
X64820Y-18000D01*
X65132Y-18311D01*
X65227Y-18285D01*
X65250Y-18219D01*
X65287Y-18308D01*
X65440Y-18461D01*
X65641Y-18545D01*
X65857Y-18545D01*
X66058Y-18462D01*
X66211Y-18309D01*
X66295Y-18108D01*
X66295Y-17892D01*
X66295Y-18454D01*
X66142Y-18454D01*
X65941Y-18537D01*
X65788Y-18690D01*
X65750Y-18782D01*
X65712Y-18691D01*
X65559Y-18538D01*
X65358Y-18454D01*
X65142Y-18454D01*
X65061Y-18487D01*
X65061Y-18382D01*
X64750Y-18070D01*
X64679Y-18141D01*
X64679Y-18000D01*
X64367Y-17688D01*
X64272Y-17714D01*
X64249Y-17780D01*
X64212Y-17691D01*
X64059Y-17538D01*
X63880Y-17463D01*
X63880Y-15325D01*
X63746Y-15002D01*
X63499Y-14754D01*
X63175Y-14620D01*
X62825Y-14619D01*
X62502Y-14753D01*
X62254Y-15000D01*
X62120Y-15324D01*
X62119Y-15674D01*
X62253Y-15997D01*
X62500Y-16245D01*
X62824Y-16379D01*
X63174Y-16380D01*
X63497Y-16246D01*
X63745Y-15999D01*
X63879Y-15675D01*
X63880Y-15325D01*
X63880Y-17463D01*
X63858Y-17454D01*
X63642Y-17454D01*
X63441Y-17537D01*
X63288Y-17690D01*
X63204Y-17891D01*
X63204Y-18107D01*
X63287Y-18308D01*
X63440Y-18461D01*
X63641Y-18545D01*
X63857Y-18545D01*
X64058Y-18462D01*
X64211Y-18309D01*
X64247Y-18224D01*
X64272Y-18285D01*
X64367Y-18311D01*
X64679Y-18000D01*
X64679Y-18141D01*
X64438Y-18382D01*
X64464Y-18477D01*
X64669Y-18550D01*
X64886Y-18539D01*
X65035Y-18477D01*
X65061Y-18382D01*
X65061Y-18487D01*
X64941Y-18537D01*
X64788Y-18690D01*
X64750Y-18782D01*
X64712Y-18691D01*
X64559Y-18538D01*
X64358Y-18454D01*
X64142Y-18454D01*
X63941Y-18537D01*
X63788Y-18690D01*
X63704Y-18891D01*
X63704Y-19107D01*
X63787Y-19308D01*
X63940Y-19461D01*
X64141Y-19545D01*
X64357Y-19545D01*
X64558Y-19462D01*
X64711Y-19309D01*
X64749Y-19217D01*
X64787Y-19308D01*
X64940Y-19461D01*
X65141Y-19545D01*
X65357Y-19545D01*
X65558Y-19462D01*
X65711Y-19309D01*
X65749Y-19217D01*
X65787Y-19308D01*
X65940Y-19461D01*
X66141Y-19545D01*
X66357Y-19545D01*
X66558Y-19462D01*
X66711Y-19309D01*
X66795Y-19108D01*
X66795Y-18892D01*
X66795Y-22632D01*
X66502Y-22753D01*
X66254Y-23000D01*
X66120Y-23324D01*
X66119Y-23674D01*
X66253Y-23997D01*
X66500Y-24245D01*
X66824Y-24379D01*
X67174Y-24380D01*
X67497Y-24246D01*
X67745Y-23999D01*
X67879Y-23675D01*
X67880Y-23325D01*
X67880Y-31325D01*
X67746Y-31002D01*
X67499Y-30754D01*
X67175Y-30620D01*
X66825Y-30619D01*
X66795Y-30632D01*
X66795Y-26892D01*
X66712Y-26691D01*
X66559Y-26538D01*
X66358Y-26454D01*
X66295Y-26454D01*
X66295Y-25892D01*
X66212Y-25691D01*
X66059Y-25538D01*
X65858Y-25454D01*
X65642Y-25454D01*
X65441Y-25537D01*
X65288Y-25690D01*
X65252Y-25775D01*
X65227Y-25714D01*
X65132Y-25688D01*
X65061Y-25758D01*
X65061Y-25617D01*
X65035Y-25522D01*
X64830Y-25449D01*
X64613Y-25460D01*
X64464Y-25522D01*
X64438Y-25617D01*
X64750Y-25929D01*
X65061Y-25617D01*
X65061Y-25758D01*
X64820Y-26000D01*
X65132Y-26311D01*
X65227Y-26285D01*
X65250Y-26219D01*
X65287Y-26308D01*
X65440Y-26461D01*
X65641Y-26545D01*
X65857Y-26545D01*
X66058Y-26462D01*
X66211Y-26309D01*
X66295Y-26108D01*
X66295Y-25892D01*
X66295Y-26454D01*
X66142Y-26454D01*
X65941Y-26537D01*
X65788Y-26690D01*
X65750Y-26782D01*
X65712Y-26691D01*
X65559Y-26538D01*
X65358Y-26454D01*
X65142Y-26454D01*
X65061Y-26487D01*
X65061Y-26382D01*
X64750Y-26070D01*
X64679Y-26141D01*
X64679Y-26000D01*
X64367Y-25688D01*
X64272Y-25714D01*
X64249Y-25780D01*
X64212Y-25691D01*
X64059Y-25538D01*
X63880Y-25463D01*
X63880Y-23325D01*
X63746Y-23002D01*
X63499Y-22754D01*
X63175Y-22620D01*
X62825Y-22619D01*
X62502Y-22753D01*
X62254Y-23000D01*
X62120Y-23324D01*
X62119Y-23674D01*
X62253Y-23997D01*
X62500Y-24245D01*
X62824Y-24379D01*
X63174Y-24380D01*
X63497Y-24246D01*
X63745Y-23999D01*
X63879Y-23675D01*
X63880Y-23325D01*
X63880Y-25463D01*
X63858Y-25454D01*
X63642Y-25454D01*
X63441Y-25537D01*
X63288Y-25690D01*
X63204Y-25891D01*
X63204Y-26107D01*
X63287Y-26308D01*
X63440Y-26461D01*
X63641Y-26545D01*
X63857Y-26545D01*
X64058Y-26462D01*
X64211Y-26309D01*
X64247Y-26224D01*
X64272Y-26285D01*
X64367Y-26311D01*
X64679Y-26000D01*
X64679Y-26141D01*
X64438Y-26382D01*
X64464Y-26477D01*
X64669Y-26550D01*
X64886Y-26539D01*
X65035Y-26477D01*
X65061Y-26382D01*
X65061Y-26487D01*
X64941Y-26537D01*
X64788Y-26690D01*
X64750Y-26782D01*
X64712Y-26691D01*
X64559Y-26538D01*
X64358Y-26454D01*
X64142Y-26454D01*
X63941Y-26537D01*
X63788Y-26690D01*
X63704Y-26891D01*
X63704Y-27107D01*
X63787Y-27308D01*
X63940Y-27461D01*
X64141Y-27545D01*
X64357Y-27545D01*
X64558Y-27462D01*
X64711Y-27309D01*
X64749Y-27217D01*
X64787Y-27308D01*
X64940Y-27461D01*
X65141Y-27545D01*
X65357Y-27545D01*
X65558Y-27462D01*
X65711Y-27309D01*
X65749Y-27217D01*
X65787Y-27308D01*
X65940Y-27461D01*
X66141Y-27545D01*
X66357Y-27545D01*
X66558Y-27462D01*
X66711Y-27309D01*
X66795Y-27108D01*
X66795Y-26892D01*
X66795Y-30632D01*
X66502Y-30753D01*
X66254Y-31000D01*
X66120Y-31324D01*
X66119Y-31674D01*
X66253Y-31997D01*
X66500Y-32245D01*
X66824Y-32379D01*
X67174Y-32380D01*
X67497Y-32246D01*
X67745Y-31999D01*
X67879Y-31675D01*
X67880Y-31325D01*
X67880Y-39325D01*
X67746Y-39002D01*
X67499Y-38754D01*
X67175Y-38620D01*
X66825Y-38619D01*
X66795Y-38632D01*
X66795Y-34892D01*
X66712Y-34691D01*
X66559Y-34538D01*
X66358Y-34454D01*
X66295Y-34454D01*
X66295Y-33892D01*
X66212Y-33691D01*
X66059Y-33538D01*
X65858Y-33454D01*
X65642Y-33454D01*
X65441Y-33537D01*
X65288Y-33690D01*
X65252Y-33775D01*
X65227Y-33714D01*
X65132Y-33688D01*
X65061Y-33758D01*
X65061Y-33617D01*
X65035Y-33522D01*
X64830Y-33449D01*
X64613Y-33460D01*
X64464Y-33522D01*
X64438Y-33617D01*
X64750Y-33929D01*
X65061Y-33617D01*
X65061Y-33758D01*
X64820Y-34000D01*
X65132Y-34311D01*
X65227Y-34285D01*
X65250Y-34219D01*
X65287Y-34308D01*
X65440Y-34461D01*
X65641Y-34545D01*
X65857Y-34545D01*
X66058Y-34462D01*
X66211Y-34309D01*
X66295Y-34108D01*
X66295Y-33892D01*
X66295Y-34454D01*
X66142Y-34454D01*
X65941Y-34537D01*
X65788Y-34690D01*
X65750Y-34782D01*
X65712Y-34691D01*
X65559Y-34538D01*
X65358Y-34454D01*
X65142Y-34454D01*
X65061Y-34487D01*
X65061Y-34382D01*
X64750Y-34070D01*
X64679Y-34141D01*
X64679Y-34000D01*
X64367Y-33688D01*
X64272Y-33714D01*
X64249Y-33780D01*
X64212Y-33691D01*
X64059Y-33538D01*
X63880Y-33463D01*
X63880Y-31325D01*
X63746Y-31002D01*
X63499Y-30754D01*
X63175Y-30620D01*
X62825Y-30619D01*
X62502Y-30753D01*
X62254Y-31000D01*
X62120Y-31324D01*
X62119Y-31674D01*
X62253Y-31997D01*
X62500Y-32245D01*
X62824Y-32379D01*
X63174Y-32380D01*
X63497Y-32246D01*
X63745Y-31999D01*
X63879Y-31675D01*
X63880Y-31325D01*
X63880Y-33463D01*
X63858Y-33454D01*
X63642Y-33454D01*
X63441Y-33537D01*
X63288Y-33690D01*
X63204Y-33891D01*
X63204Y-34107D01*
X63287Y-34308D01*
X63440Y-34461D01*
X63641Y-34545D01*
X63857Y-34545D01*
X64058Y-34462D01*
X64211Y-34309D01*
X64247Y-34224D01*
X64272Y-34285D01*
X64367Y-34311D01*
X64679Y-34000D01*
X64679Y-34141D01*
X64438Y-34382D01*
X64464Y-34477D01*
X64669Y-34550D01*
X64886Y-34539D01*
X65035Y-34477D01*
X65061Y-34382D01*
X65061Y-34487D01*
X64941Y-34537D01*
X64788Y-34690D01*
X64750Y-34782D01*
X64712Y-34691D01*
X64559Y-34538D01*
X64358Y-34454D01*
X64142Y-34454D01*
X63941Y-34537D01*
X63788Y-34690D01*
X63704Y-34891D01*
X63704Y-35107D01*
X63787Y-35308D01*
X63940Y-35461D01*
X64141Y-35545D01*
X64357Y-35545D01*
X64558Y-35462D01*
X64711Y-35309D01*
X64749Y-35217D01*
X64787Y-35308D01*
X64940Y-35461D01*
X65141Y-35545D01*
X65357Y-35545D01*
X65558Y-35462D01*
X65711Y-35309D01*
X65749Y-35217D01*
X65787Y-35308D01*
X65940Y-35461D01*
X66141Y-35545D01*
X66357Y-35545D01*
X66558Y-35462D01*
X66711Y-35309D01*
X66795Y-35108D01*
X66795Y-34892D01*
X66795Y-38632D01*
X66502Y-38753D01*
X66254Y-39000D01*
X66120Y-39324D01*
X66119Y-39674D01*
X66253Y-39997D01*
X66500Y-40245D01*
X66824Y-40379D01*
X67174Y-40380D01*
X67497Y-40246D01*
X67745Y-39999D01*
X67879Y-39675D01*
X67880Y-39325D01*
X67880Y-51720D01*
X67050Y-51720D01*
X67050Y-50080D01*
X67045Y-49988D01*
X67045Y-48891D01*
X66962Y-48691D01*
X66809Y-48537D01*
X66795Y-48531D01*
X66795Y-42892D01*
X66712Y-42691D01*
X66559Y-42538D01*
X66358Y-42454D01*
X66295Y-42454D01*
X66295Y-41892D01*
X66212Y-41691D01*
X66059Y-41538D01*
X65858Y-41454D01*
X65642Y-41454D01*
X65441Y-41537D01*
X65288Y-41690D01*
X65252Y-41775D01*
X65227Y-41714D01*
X65132Y-41688D01*
X65061Y-41758D01*
X65061Y-41617D01*
X65035Y-41522D01*
X64830Y-41449D01*
X64613Y-41460D01*
X64464Y-41522D01*
X64438Y-41617D01*
X64750Y-41929D01*
X65061Y-41617D01*
X65061Y-41758D01*
X64820Y-42000D01*
X65132Y-42311D01*
X65227Y-42285D01*
X65250Y-42219D01*
X65287Y-42308D01*
X65440Y-42461D01*
X65641Y-42545D01*
X65857Y-42545D01*
X66058Y-42462D01*
X66211Y-42309D01*
X66295Y-42108D01*
X66295Y-41892D01*
X66295Y-42454D01*
X66142Y-42454D01*
X65941Y-42537D01*
X65788Y-42690D01*
X65750Y-42782D01*
X65712Y-42691D01*
X65559Y-42538D01*
X65358Y-42454D01*
X65142Y-42454D01*
X65061Y-42487D01*
X65061Y-42382D01*
X64750Y-42070D01*
X64679Y-42141D01*
X64679Y-42000D01*
X64367Y-41688D01*
X64272Y-41714D01*
X64249Y-41780D01*
X64212Y-41691D01*
X64059Y-41538D01*
X63880Y-41463D01*
X63880Y-39325D01*
X63746Y-39002D01*
X63499Y-38754D01*
X63175Y-38620D01*
X62825Y-38619D01*
X62502Y-38753D01*
X62254Y-39000D01*
X62120Y-39324D01*
X62119Y-39674D01*
X62253Y-39997D01*
X62500Y-40245D01*
X62824Y-40379D01*
X63174Y-40380D01*
X63497Y-40246D01*
X63745Y-39999D01*
X63879Y-39675D01*
X63880Y-39325D01*
X63880Y-41463D01*
X63858Y-41454D01*
X63642Y-41454D01*
X63441Y-41537D01*
X63288Y-41690D01*
X63204Y-41891D01*
X63204Y-42107D01*
X63287Y-42308D01*
X63440Y-42461D01*
X63641Y-42545D01*
X63857Y-42545D01*
X64058Y-42462D01*
X64211Y-42309D01*
X64247Y-42224D01*
X64272Y-42285D01*
X64367Y-42311D01*
X64679Y-42000D01*
X64679Y-42141D01*
X64438Y-42382D01*
X64464Y-42477D01*
X64669Y-42550D01*
X64886Y-42539D01*
X65035Y-42477D01*
X65061Y-42382D01*
X65061Y-42487D01*
X64941Y-42537D01*
X64788Y-42690D01*
X64750Y-42782D01*
X64712Y-42691D01*
X64559Y-42538D01*
X64358Y-42454D01*
X64142Y-42454D01*
X63941Y-42537D01*
X63788Y-42690D01*
X63704Y-42891D01*
X63704Y-43107D01*
X63787Y-43308D01*
X63940Y-43461D01*
X64141Y-43545D01*
X64357Y-43545D01*
X64558Y-43462D01*
X64711Y-43309D01*
X64749Y-43217D01*
X64787Y-43308D01*
X64940Y-43461D01*
X65141Y-43545D01*
X65357Y-43545D01*
X65558Y-43462D01*
X65711Y-43309D01*
X65749Y-43217D01*
X65787Y-43308D01*
X65940Y-43461D01*
X66141Y-43545D01*
X66357Y-43545D01*
X66558Y-43462D01*
X66711Y-43309D01*
X66795Y-43108D01*
X66795Y-42892D01*
X66795Y-48531D01*
X66608Y-48454D01*
X66391Y-48454D01*
X66191Y-48537D01*
X66037Y-48690D01*
X65954Y-48891D01*
X65954Y-49108D01*
X66037Y-49308D01*
X66190Y-49462D01*
X66275Y-49497D01*
X66214Y-49522D01*
X66188Y-49617D01*
X66500Y-49929D01*
X66811Y-49617D01*
X66785Y-49522D01*
X66720Y-49499D01*
X66808Y-49462D01*
X66962Y-49309D01*
X67045Y-49108D01*
X67045Y-48891D01*
X67045Y-49988D01*
X67039Y-49863D01*
X66977Y-49714D01*
X66882Y-49688D01*
X66570Y-50000D01*
X66882Y-50311D01*
X66977Y-50285D01*
X67050Y-50080D01*
X67050Y-51720D01*
X66811Y-51720D01*
X66811Y-50382D01*
X66500Y-50070D01*
X66429Y-50141D01*
X66429Y-50000D01*
X66117Y-49688D01*
X66022Y-49714D01*
X65949Y-49919D01*
X65960Y-50136D01*
X66022Y-50285D01*
X66117Y-50311D01*
X66429Y-50000D01*
X66429Y-50141D01*
X66188Y-50382D01*
X66214Y-50477D01*
X66419Y-50550D01*
X66636Y-50539D01*
X66785Y-50477D01*
X66811Y-50382D01*
X66811Y-51720D01*
X63584Y-51720D01*
X63584Y-50142D01*
X63584Y-49857D01*
X63508Y-49640D01*
X63355Y-49468D01*
X63147Y-49368D01*
X63141Y-49367D01*
X63050Y-49414D01*
X63050Y-49950D01*
X63527Y-49950D01*
X63584Y-49857D01*
X63584Y-50142D01*
X63527Y-50050D01*
X63050Y-50050D01*
X63050Y-50585D01*
X63141Y-50632D01*
X63147Y-50631D01*
X63355Y-50531D01*
X63508Y-50359D01*
X63584Y-50142D01*
X63584Y-51720D01*
X62950Y-51720D01*
X62950Y-50585D01*
X62950Y-50050D01*
X62942Y-50050D01*
X62942Y-49950D01*
X62950Y-49950D01*
X62950Y-49414D01*
X62858Y-49367D01*
X62852Y-49368D01*
X62644Y-49468D01*
X62498Y-49631D01*
X62417Y-49510D01*
X62225Y-49382D01*
X62000Y-49337D01*
X61774Y-49382D01*
X61582Y-49510D01*
X61500Y-49634D01*
X61417Y-49510D01*
X61225Y-49382D01*
X61000Y-49337D01*
X60880Y-49361D01*
X60880Y-39325D01*
X60880Y-31325D01*
X60880Y-23325D01*
X60880Y-15325D01*
X60746Y-15002D01*
X60499Y-14754D01*
X60175Y-14620D01*
X59825Y-14619D01*
X59502Y-14753D01*
X59254Y-15000D01*
X59120Y-15324D01*
X59119Y-15674D01*
X59253Y-15997D01*
X59500Y-16245D01*
X59824Y-16379D01*
X60174Y-16380D01*
X60497Y-16246D01*
X60745Y-15999D01*
X60879Y-15675D01*
X60880Y-15325D01*
X60880Y-23325D01*
X60746Y-23002D01*
X60499Y-22754D01*
X60175Y-22620D01*
X59825Y-22619D01*
X59795Y-22632D01*
X59795Y-18892D01*
X59712Y-18691D01*
X59559Y-18538D01*
X59358Y-18454D01*
X59295Y-18454D01*
X59295Y-17892D01*
X59212Y-17691D01*
X59059Y-17538D01*
X58858Y-17454D01*
X58642Y-17454D01*
X58441Y-17537D01*
X58288Y-17690D01*
X58252Y-17775D01*
X58227Y-17714D01*
X58132Y-17688D01*
X58061Y-17758D01*
X58061Y-17617D01*
X58035Y-17522D01*
X57830Y-17449D01*
X57613Y-17460D01*
X57464Y-17522D01*
X57438Y-17617D01*
X57750Y-17929D01*
X58061Y-17617D01*
X58061Y-17758D01*
X57820Y-18000D01*
X58132Y-18311D01*
X58227Y-18285D01*
X58250Y-18219D01*
X58287Y-18308D01*
X58440Y-18461D01*
X58641Y-18545D01*
X58857Y-18545D01*
X59058Y-18462D01*
X59211Y-18309D01*
X59295Y-18108D01*
X59295Y-17892D01*
X59295Y-18454D01*
X59142Y-18454D01*
X58941Y-18537D01*
X58788Y-18690D01*
X58750Y-18782D01*
X58712Y-18691D01*
X58559Y-18538D01*
X58358Y-18454D01*
X58142Y-18454D01*
X58061Y-18487D01*
X58061Y-18382D01*
X57750Y-18070D01*
X57679Y-18141D01*
X57679Y-18000D01*
X57367Y-17688D01*
X57272Y-17714D01*
X57249Y-17780D01*
X57212Y-17691D01*
X57059Y-17538D01*
X56880Y-17463D01*
X56880Y-15325D01*
X56746Y-15002D01*
X56499Y-14754D01*
X56175Y-14620D01*
X55825Y-14619D01*
X55502Y-14753D01*
X55254Y-15000D01*
X55120Y-15324D01*
X55119Y-15674D01*
X55253Y-15997D01*
X55500Y-16245D01*
X55824Y-16379D01*
X56174Y-16380D01*
X56497Y-16246D01*
X56745Y-15999D01*
X56879Y-15675D01*
X56880Y-15325D01*
X56880Y-17463D01*
X56858Y-17454D01*
X56642Y-17454D01*
X56441Y-17537D01*
X56288Y-17690D01*
X56204Y-17891D01*
X56204Y-18107D01*
X56287Y-18308D01*
X56440Y-18461D01*
X56641Y-18545D01*
X56857Y-18545D01*
X57058Y-18462D01*
X57211Y-18309D01*
X57247Y-18224D01*
X57272Y-18285D01*
X57367Y-18311D01*
X57679Y-18000D01*
X57679Y-18141D01*
X57438Y-18382D01*
X57464Y-18477D01*
X57669Y-18550D01*
X57886Y-18539D01*
X58035Y-18477D01*
X58061Y-18382D01*
X58061Y-18487D01*
X57941Y-18537D01*
X57788Y-18690D01*
X57750Y-18782D01*
X57712Y-18691D01*
X57559Y-18538D01*
X57358Y-18454D01*
X57142Y-18454D01*
X56941Y-18537D01*
X56788Y-18690D01*
X56704Y-18891D01*
X56704Y-19107D01*
X56787Y-19308D01*
X56940Y-19461D01*
X57141Y-19545D01*
X57357Y-19545D01*
X57558Y-19462D01*
X57711Y-19309D01*
X57749Y-19217D01*
X57787Y-19308D01*
X57940Y-19461D01*
X58141Y-19545D01*
X58357Y-19545D01*
X58558Y-19462D01*
X58711Y-19309D01*
X58749Y-19217D01*
X58787Y-19308D01*
X58940Y-19461D01*
X59141Y-19545D01*
X59357Y-19545D01*
X59558Y-19462D01*
X59711Y-19309D01*
X59795Y-19108D01*
X59795Y-18892D01*
X59795Y-22632D01*
X59502Y-22753D01*
X59254Y-23000D01*
X59120Y-23324D01*
X59119Y-23674D01*
X59253Y-23997D01*
X59500Y-24245D01*
X59824Y-24379D01*
X60174Y-24380D01*
X60497Y-24246D01*
X60745Y-23999D01*
X60879Y-23675D01*
X60880Y-23325D01*
X60880Y-31325D01*
X60746Y-31002D01*
X60499Y-30754D01*
X60175Y-30620D01*
X59825Y-30619D01*
X59795Y-30632D01*
X59795Y-26892D01*
X59712Y-26691D01*
X59559Y-26538D01*
X59358Y-26454D01*
X59295Y-26454D01*
X59295Y-25892D01*
X59212Y-25691D01*
X59059Y-25538D01*
X58858Y-25454D01*
X58642Y-25454D01*
X58441Y-25537D01*
X58288Y-25690D01*
X58252Y-25775D01*
X58227Y-25714D01*
X58132Y-25688D01*
X58061Y-25758D01*
X58061Y-25617D01*
X58035Y-25522D01*
X57830Y-25449D01*
X57613Y-25460D01*
X57464Y-25522D01*
X57438Y-25617D01*
X57750Y-25929D01*
X58061Y-25617D01*
X58061Y-25758D01*
X57820Y-26000D01*
X58132Y-26311D01*
X58227Y-26285D01*
X58250Y-26219D01*
X58287Y-26308D01*
X58440Y-26461D01*
X58641Y-26545D01*
X58857Y-26545D01*
X59058Y-26462D01*
X59211Y-26309D01*
X59295Y-26108D01*
X59295Y-25892D01*
X59295Y-26454D01*
X59142Y-26454D01*
X58941Y-26537D01*
X58788Y-26690D01*
X58750Y-26782D01*
X58712Y-26691D01*
X58559Y-26538D01*
X58358Y-26454D01*
X58142Y-26454D01*
X58061Y-26487D01*
X58061Y-26382D01*
X57750Y-26070D01*
X57679Y-26141D01*
X57679Y-26000D01*
X57367Y-25688D01*
X57272Y-25714D01*
X57249Y-25780D01*
X57212Y-25691D01*
X57059Y-25538D01*
X56880Y-25463D01*
X56880Y-23325D01*
X56746Y-23002D01*
X56499Y-22754D01*
X56175Y-22620D01*
X55825Y-22619D01*
X55502Y-22753D01*
X55254Y-23000D01*
X55120Y-23324D01*
X55119Y-23674D01*
X55253Y-23997D01*
X55500Y-24245D01*
X55824Y-24379D01*
X56174Y-24380D01*
X56497Y-24246D01*
X56745Y-23999D01*
X56879Y-23675D01*
X56880Y-23325D01*
X56880Y-25463D01*
X56858Y-25454D01*
X56642Y-25454D01*
X56441Y-25537D01*
X56288Y-25690D01*
X56204Y-25891D01*
X56204Y-26107D01*
X56287Y-26308D01*
X56440Y-26461D01*
X56641Y-26545D01*
X56857Y-26545D01*
X57058Y-26462D01*
X57211Y-26309D01*
X57247Y-26224D01*
X57272Y-26285D01*
X57367Y-26311D01*
X57679Y-26000D01*
X57679Y-26141D01*
X57438Y-26382D01*
X57464Y-26477D01*
X57669Y-26550D01*
X57886Y-26539D01*
X58035Y-26477D01*
X58061Y-26382D01*
X58061Y-26487D01*
X57941Y-26537D01*
X57788Y-26690D01*
X57750Y-26782D01*
X57712Y-26691D01*
X57559Y-26538D01*
X57358Y-26454D01*
X57142Y-26454D01*
X56941Y-26537D01*
X56788Y-26690D01*
X56704Y-26891D01*
X56704Y-27107D01*
X56787Y-27308D01*
X56940Y-27461D01*
X57141Y-27545D01*
X57357Y-27545D01*
X57558Y-27462D01*
X57711Y-27309D01*
X57749Y-27217D01*
X57787Y-27308D01*
X57940Y-27461D01*
X58141Y-27545D01*
X58357Y-27545D01*
X58558Y-27462D01*
X58711Y-27309D01*
X58749Y-27217D01*
X58787Y-27308D01*
X58940Y-27461D01*
X59141Y-27545D01*
X59357Y-27545D01*
X59558Y-27462D01*
X59711Y-27309D01*
X59795Y-27108D01*
X59795Y-26892D01*
X59795Y-30632D01*
X59502Y-30753D01*
X59254Y-31000D01*
X59120Y-31324D01*
X59119Y-31674D01*
X59253Y-31997D01*
X59500Y-32245D01*
X59824Y-32379D01*
X60174Y-32380D01*
X60497Y-32246D01*
X60745Y-31999D01*
X60879Y-31675D01*
X60880Y-31325D01*
X60880Y-39325D01*
X60746Y-39002D01*
X60499Y-38754D01*
X60175Y-38620D01*
X59825Y-38619D01*
X59795Y-38632D01*
X59795Y-34892D01*
X59712Y-34691D01*
X59559Y-34538D01*
X59358Y-34454D01*
X59295Y-34454D01*
X59295Y-33892D01*
X59212Y-33691D01*
X59059Y-33538D01*
X58858Y-33454D01*
X58642Y-33454D01*
X58441Y-33537D01*
X58288Y-33690D01*
X58252Y-33775D01*
X58227Y-33714D01*
X58132Y-33688D01*
X58061Y-33758D01*
X58061Y-33617D01*
X58035Y-33522D01*
X57830Y-33449D01*
X57613Y-33460D01*
X57464Y-33522D01*
X57438Y-33617D01*
X57750Y-33929D01*
X58061Y-33617D01*
X58061Y-33758D01*
X57820Y-34000D01*
X58132Y-34311D01*
X58227Y-34285D01*
X58250Y-34219D01*
X58287Y-34308D01*
X58440Y-34461D01*
X58641Y-34545D01*
X58857Y-34545D01*
X59058Y-34462D01*
X59211Y-34309D01*
X59295Y-34108D01*
X59295Y-33892D01*
X59295Y-34454D01*
X59142Y-34454D01*
X58941Y-34537D01*
X58788Y-34690D01*
X58750Y-34782D01*
X58712Y-34691D01*
X58559Y-34538D01*
X58358Y-34454D01*
X58142Y-34454D01*
X58061Y-34487D01*
X58061Y-34382D01*
X57750Y-34070D01*
X57679Y-34141D01*
X57679Y-34000D01*
X57367Y-33688D01*
X57272Y-33714D01*
X57249Y-33780D01*
X57212Y-33691D01*
X57059Y-33538D01*
X56880Y-33463D01*
X56880Y-31325D01*
X56746Y-31002D01*
X56499Y-30754D01*
X56175Y-30620D01*
X55825Y-30619D01*
X55502Y-30753D01*
X55254Y-31000D01*
X55120Y-31324D01*
X55119Y-31674D01*
X55253Y-31997D01*
X55500Y-32245D01*
X55824Y-32379D01*
X56174Y-32380D01*
X56497Y-32246D01*
X56745Y-31999D01*
X56879Y-31675D01*
X56880Y-31325D01*
X56880Y-33463D01*
X56858Y-33454D01*
X56642Y-33454D01*
X56441Y-33537D01*
X56288Y-33690D01*
X56204Y-33891D01*
X56204Y-34107D01*
X56287Y-34308D01*
X56440Y-34461D01*
X56641Y-34545D01*
X56857Y-34545D01*
X57058Y-34462D01*
X57211Y-34309D01*
X57247Y-34224D01*
X57272Y-34285D01*
X57367Y-34311D01*
X57679Y-34000D01*
X57679Y-34141D01*
X57438Y-34382D01*
X57464Y-34477D01*
X57669Y-34550D01*
X57886Y-34539D01*
X58035Y-34477D01*
X58061Y-34382D01*
X58061Y-34487D01*
X57941Y-34537D01*
X57788Y-34690D01*
X57750Y-34782D01*
X57712Y-34691D01*
X57559Y-34538D01*
X57358Y-34454D01*
X57142Y-34454D01*
X56941Y-34537D01*
X56788Y-34690D01*
X56704Y-34891D01*
X56704Y-35107D01*
X56787Y-35308D01*
X56940Y-35461D01*
X57141Y-35545D01*
X57357Y-35545D01*
X57558Y-35462D01*
X57711Y-35309D01*
X57749Y-35217D01*
X57787Y-35308D01*
X57940Y-35461D01*
X58141Y-35545D01*
X58357Y-35545D01*
X58558Y-35462D01*
X58711Y-35309D01*
X58749Y-35217D01*
X58787Y-35308D01*
X58940Y-35461D01*
X59141Y-35545D01*
X59357Y-35545D01*
X59558Y-35462D01*
X59711Y-35309D01*
X59795Y-35108D01*
X59795Y-34892D01*
X59795Y-38632D01*
X59502Y-38753D01*
X59254Y-39000D01*
X59120Y-39324D01*
X59119Y-39674D01*
X59253Y-39997D01*
X59500Y-40245D01*
X59824Y-40379D01*
X60174Y-40380D01*
X60497Y-40246D01*
X60745Y-39999D01*
X60879Y-39675D01*
X60880Y-39325D01*
X60880Y-49361D01*
X60774Y-49382D01*
X60582Y-49510D01*
X60500Y-49634D01*
X60417Y-49510D01*
X60225Y-49382D01*
X60000Y-49337D01*
X59795Y-49377D01*
X59795Y-42892D01*
X59712Y-42691D01*
X59559Y-42538D01*
X59358Y-42454D01*
X59295Y-42454D01*
X59295Y-41892D01*
X59212Y-41691D01*
X59059Y-41538D01*
X58858Y-41454D01*
X58642Y-41454D01*
X58441Y-41537D01*
X58288Y-41690D01*
X58252Y-41775D01*
X58227Y-41714D01*
X58132Y-41688D01*
X58061Y-41758D01*
X58061Y-41617D01*
X58035Y-41522D01*
X57830Y-41449D01*
X57613Y-41460D01*
X57464Y-41522D01*
X57438Y-41617D01*
X57750Y-41929D01*
X58061Y-41617D01*
X58061Y-41758D01*
X57820Y-42000D01*
X58132Y-42311D01*
X58227Y-42285D01*
X58250Y-42219D01*
X58287Y-42308D01*
X58440Y-42461D01*
X58641Y-42545D01*
X58857Y-42545D01*
X59058Y-42462D01*
X59211Y-42309D01*
X59295Y-42108D01*
X59295Y-41892D01*
X59295Y-42454D01*
X59142Y-42454D01*
X58941Y-42537D01*
X58788Y-42690D01*
X58750Y-42782D01*
X58712Y-42691D01*
X58559Y-42538D01*
X58358Y-42454D01*
X58142Y-42454D01*
X58061Y-42487D01*
X58061Y-42382D01*
X57750Y-42070D01*
X57679Y-42141D01*
X57679Y-42000D01*
X57367Y-41688D01*
X57272Y-41714D01*
X57249Y-41780D01*
X57212Y-41691D01*
X57059Y-41538D01*
X56880Y-41463D01*
X56880Y-39325D01*
X56746Y-39002D01*
X56499Y-38754D01*
X56175Y-38620D01*
X55825Y-38619D01*
X55502Y-38753D01*
X55254Y-39000D01*
X55120Y-39324D01*
X55119Y-39674D01*
X55253Y-39997D01*
X55500Y-40245D01*
X55824Y-40379D01*
X56174Y-40380D01*
X56497Y-40246D01*
X56745Y-39999D01*
X56879Y-39675D01*
X56880Y-39325D01*
X56880Y-41463D01*
X56858Y-41454D01*
X56642Y-41454D01*
X56441Y-41537D01*
X56288Y-41690D01*
X56204Y-41891D01*
X56204Y-42107D01*
X56287Y-42308D01*
X56440Y-42461D01*
X56641Y-42545D01*
X56857Y-42545D01*
X57058Y-42462D01*
X57211Y-42309D01*
X57247Y-42224D01*
X57272Y-42285D01*
X57367Y-42311D01*
X57679Y-42000D01*
X57679Y-42141D01*
X57438Y-42382D01*
X57464Y-42477D01*
X57669Y-42550D01*
X57886Y-42539D01*
X58035Y-42477D01*
X58061Y-42382D01*
X58061Y-42487D01*
X57941Y-42537D01*
X57788Y-42690D01*
X57750Y-42782D01*
X57712Y-42691D01*
X57559Y-42538D01*
X57358Y-42454D01*
X57142Y-42454D01*
X56941Y-42537D01*
X56788Y-42690D01*
X56704Y-42891D01*
X56704Y-43107D01*
X56787Y-43308D01*
X56940Y-43461D01*
X57141Y-43545D01*
X57357Y-43545D01*
X57558Y-43462D01*
X57711Y-43309D01*
X57749Y-43217D01*
X57787Y-43308D01*
X57940Y-43461D01*
X58141Y-43545D01*
X58357Y-43545D01*
X58558Y-43462D01*
X58711Y-43309D01*
X58749Y-43217D01*
X58787Y-43308D01*
X58940Y-43461D01*
X59141Y-43545D01*
X59357Y-43545D01*
X59558Y-43462D01*
X59711Y-43309D01*
X59795Y-43108D01*
X59795Y-42892D01*
X59795Y-49377D01*
X59774Y-49382D01*
X59582Y-49510D01*
X59500Y-49634D01*
X59417Y-49510D01*
X59225Y-49382D01*
X59000Y-49337D01*
X58774Y-49382D01*
X58582Y-49510D01*
X58500Y-49634D01*
X58417Y-49510D01*
X58225Y-49382D01*
X58000Y-49337D01*
X57774Y-49382D01*
X57582Y-49510D01*
X57500Y-49634D01*
X57417Y-49510D01*
X57225Y-49382D01*
X57000Y-49337D01*
X56774Y-49382D01*
X56582Y-49510D01*
X56500Y-49634D01*
X56417Y-49510D01*
X56225Y-49382D01*
X56000Y-49337D01*
X55774Y-49382D01*
X55582Y-49510D01*
X55500Y-49634D01*
X55417Y-49510D01*
X55225Y-49382D01*
X55000Y-49337D01*
X54774Y-49382D01*
X54582Y-49510D01*
X54500Y-49634D01*
X54417Y-49510D01*
X54225Y-49382D01*
X54000Y-49337D01*
X53880Y-49361D01*
X53880Y-39325D01*
X53880Y-31325D01*
X53880Y-23325D01*
X53880Y-15325D01*
X53746Y-15002D01*
X53499Y-14754D01*
X53175Y-14620D01*
X52825Y-14619D01*
X52502Y-14753D01*
X52254Y-15000D01*
X52120Y-15324D01*
X52119Y-15674D01*
X52253Y-15997D01*
X52500Y-16245D01*
X52824Y-16379D01*
X53174Y-16380D01*
X53497Y-16246D01*
X53745Y-15999D01*
X53879Y-15675D01*
X53880Y-15325D01*
X53880Y-23325D01*
X53746Y-23002D01*
X53499Y-22754D01*
X53175Y-22620D01*
X52825Y-22619D01*
X52795Y-22632D01*
X52795Y-18892D01*
X52712Y-18691D01*
X52559Y-18538D01*
X52358Y-18454D01*
X52295Y-18454D01*
X52295Y-17892D01*
X52212Y-17691D01*
X52059Y-17538D01*
X51858Y-17454D01*
X51642Y-17454D01*
X51441Y-17537D01*
X51288Y-17690D01*
X51252Y-17775D01*
X51227Y-17714D01*
X51132Y-17688D01*
X51061Y-17758D01*
X51061Y-17617D01*
X51035Y-17522D01*
X50830Y-17449D01*
X50613Y-17460D01*
X50464Y-17522D01*
X50438Y-17617D01*
X50750Y-17929D01*
X51061Y-17617D01*
X51061Y-17758D01*
X50820Y-18000D01*
X51132Y-18311D01*
X51227Y-18285D01*
X51250Y-18219D01*
X51287Y-18308D01*
X51440Y-18461D01*
X51641Y-18545D01*
X51857Y-18545D01*
X52058Y-18462D01*
X52211Y-18309D01*
X52295Y-18108D01*
X52295Y-17892D01*
X52295Y-18454D01*
X52142Y-18454D01*
X51941Y-18537D01*
X51788Y-18690D01*
X51750Y-18782D01*
X51712Y-18691D01*
X51559Y-18538D01*
X51358Y-18454D01*
X51142Y-18454D01*
X51061Y-18487D01*
X51061Y-18382D01*
X50750Y-18070D01*
X50679Y-18141D01*
X50679Y-18000D01*
X50367Y-17688D01*
X50272Y-17714D01*
X50249Y-17780D01*
X50212Y-17691D01*
X50059Y-17538D01*
X49880Y-17463D01*
X49880Y-15325D01*
X49746Y-15002D01*
X49499Y-14754D01*
X49175Y-14620D01*
X48825Y-14619D01*
X48502Y-14753D01*
X48254Y-15000D01*
X48120Y-15324D01*
X48119Y-15674D01*
X48253Y-15997D01*
X48500Y-16245D01*
X48824Y-16379D01*
X49174Y-16380D01*
X49497Y-16246D01*
X49745Y-15999D01*
X49879Y-15675D01*
X49880Y-15325D01*
X49880Y-17463D01*
X49858Y-17454D01*
X49642Y-17454D01*
X49441Y-17537D01*
X49288Y-17690D01*
X49204Y-17891D01*
X49204Y-18107D01*
X49287Y-18308D01*
X49440Y-18461D01*
X49641Y-18545D01*
X49857Y-18545D01*
X50058Y-18462D01*
X50211Y-18309D01*
X50247Y-18224D01*
X50272Y-18285D01*
X50367Y-18311D01*
X50679Y-18000D01*
X50679Y-18141D01*
X50438Y-18382D01*
X50464Y-18477D01*
X50669Y-18550D01*
X50886Y-18539D01*
X51035Y-18477D01*
X51061Y-18382D01*
X51061Y-18487D01*
X50941Y-18537D01*
X50788Y-18690D01*
X50750Y-18782D01*
X50712Y-18691D01*
X50559Y-18538D01*
X50358Y-18454D01*
X50142Y-18454D01*
X49941Y-18537D01*
X49788Y-18690D01*
X49704Y-18891D01*
X49704Y-19107D01*
X49787Y-19308D01*
X49940Y-19461D01*
X50141Y-19545D01*
X50357Y-19545D01*
X50558Y-19462D01*
X50711Y-19309D01*
X50749Y-19217D01*
X50787Y-19308D01*
X50940Y-19461D01*
X51141Y-19545D01*
X51357Y-19545D01*
X51558Y-19462D01*
X51711Y-19309D01*
X51749Y-19217D01*
X51787Y-19308D01*
X51940Y-19461D01*
X52141Y-19545D01*
X52357Y-19545D01*
X52558Y-19462D01*
X52711Y-19309D01*
X52795Y-19108D01*
X52795Y-18892D01*
X52795Y-22632D01*
X52502Y-22753D01*
X52254Y-23000D01*
X52120Y-23324D01*
X52119Y-23674D01*
X52253Y-23997D01*
X52500Y-24245D01*
X52824Y-24379D01*
X53174Y-24380D01*
X53497Y-24246D01*
X53745Y-23999D01*
X53879Y-23675D01*
X53880Y-23325D01*
X53880Y-31325D01*
X53746Y-31002D01*
X53499Y-30754D01*
X53175Y-30620D01*
X52825Y-30619D01*
X52795Y-30632D01*
X52795Y-26892D01*
X52712Y-26691D01*
X52559Y-26538D01*
X52358Y-26454D01*
X52295Y-26454D01*
X52295Y-25892D01*
X52212Y-25691D01*
X52059Y-25538D01*
X51858Y-25454D01*
X51642Y-25454D01*
X51441Y-25537D01*
X51288Y-25690D01*
X51252Y-25775D01*
X51227Y-25714D01*
X51132Y-25688D01*
X51061Y-25758D01*
X51061Y-25617D01*
X51035Y-25522D01*
X50830Y-25449D01*
X50613Y-25460D01*
X50464Y-25522D01*
X50438Y-25617D01*
X50750Y-25929D01*
X51061Y-25617D01*
X51061Y-25758D01*
X50820Y-26000D01*
X51132Y-26311D01*
X51227Y-26285D01*
X51250Y-26219D01*
X51287Y-26308D01*
X51440Y-26461D01*
X51641Y-26545D01*
X51857Y-26545D01*
X52058Y-26462D01*
X52211Y-26309D01*
X52295Y-26108D01*
X52295Y-25892D01*
X52295Y-26454D01*
X52142Y-26454D01*
X51941Y-26537D01*
X51788Y-26690D01*
X51750Y-26782D01*
X51712Y-26691D01*
X51559Y-26538D01*
X51358Y-26454D01*
X51142Y-26454D01*
X51061Y-26487D01*
X51061Y-26382D01*
X50750Y-26070D01*
X50679Y-26141D01*
X50679Y-26000D01*
X50367Y-25688D01*
X50272Y-25714D01*
X50249Y-25780D01*
X50212Y-25691D01*
X50059Y-25538D01*
X49880Y-25463D01*
X49880Y-23325D01*
X49746Y-23002D01*
X49499Y-22754D01*
X49175Y-22620D01*
X48825Y-22619D01*
X48502Y-22753D01*
X48254Y-23000D01*
X48120Y-23324D01*
X48119Y-23674D01*
X48253Y-23997D01*
X48500Y-24245D01*
X48824Y-24379D01*
X49174Y-24380D01*
X49497Y-24246D01*
X49745Y-23999D01*
X49879Y-23675D01*
X49880Y-23325D01*
X49880Y-25463D01*
X49858Y-25454D01*
X49642Y-25454D01*
X49441Y-25537D01*
X49288Y-25690D01*
X49204Y-25891D01*
X49204Y-26107D01*
X49287Y-26308D01*
X49440Y-26461D01*
X49641Y-26545D01*
X49857Y-26545D01*
X50058Y-26462D01*
X50211Y-26309D01*
X50247Y-26224D01*
X50272Y-26285D01*
X50367Y-26311D01*
X50679Y-26000D01*
X50679Y-26141D01*
X50438Y-26382D01*
X50464Y-26477D01*
X50669Y-26550D01*
X50886Y-26539D01*
X51035Y-26477D01*
X51061Y-26382D01*
X51061Y-26487D01*
X50941Y-26537D01*
X50788Y-26690D01*
X50750Y-26782D01*
X50712Y-26691D01*
X50559Y-26538D01*
X50358Y-26454D01*
X50142Y-26454D01*
X49941Y-26537D01*
X49788Y-26690D01*
X49704Y-26891D01*
X49704Y-27107D01*
X49787Y-27308D01*
X49940Y-27461D01*
X50141Y-27545D01*
X50357Y-27545D01*
X50558Y-27462D01*
X50711Y-27309D01*
X50749Y-27217D01*
X50787Y-27308D01*
X50940Y-27461D01*
X51141Y-27545D01*
X51357Y-27545D01*
X51558Y-27462D01*
X51711Y-27309D01*
X51749Y-27217D01*
X51787Y-27308D01*
X51940Y-27461D01*
X52141Y-27545D01*
X52357Y-27545D01*
X52558Y-27462D01*
X52711Y-27309D01*
X52795Y-27108D01*
X52795Y-26892D01*
X52795Y-30632D01*
X52502Y-30753D01*
X52254Y-31000D01*
X52120Y-31324D01*
X52119Y-31674D01*
X52253Y-31997D01*
X52500Y-32245D01*
X52824Y-32379D01*
X53174Y-32380D01*
X53497Y-32246D01*
X53745Y-31999D01*
X53879Y-31675D01*
X53880Y-31325D01*
X53880Y-39325D01*
X53746Y-39002D01*
X53499Y-38754D01*
X53175Y-38620D01*
X52825Y-38619D01*
X52795Y-38632D01*
X52795Y-34892D01*
X52712Y-34691D01*
X52559Y-34538D01*
X52358Y-34454D01*
X52295Y-34454D01*
X52295Y-33892D01*
X52212Y-33691D01*
X52059Y-33538D01*
X51858Y-33454D01*
X51642Y-33454D01*
X51441Y-33537D01*
X51288Y-33690D01*
X51252Y-33775D01*
X51227Y-33714D01*
X51132Y-33688D01*
X51061Y-33758D01*
X51061Y-33617D01*
X51035Y-33522D01*
X50830Y-33449D01*
X50613Y-33460D01*
X50464Y-33522D01*
X50438Y-33617D01*
X50750Y-33929D01*
X51061Y-33617D01*
X51061Y-33758D01*
X50820Y-34000D01*
X51132Y-34311D01*
X51227Y-34285D01*
X51250Y-34219D01*
X51287Y-34308D01*
X51440Y-34461D01*
X51641Y-34545D01*
X51857Y-34545D01*
X52058Y-34462D01*
X52211Y-34309D01*
X52295Y-34108D01*
X52295Y-33892D01*
X52295Y-34454D01*
X52142Y-34454D01*
X51941Y-34537D01*
X51788Y-34690D01*
X51750Y-34782D01*
X51712Y-34691D01*
X51559Y-34538D01*
X51358Y-34454D01*
X51142Y-34454D01*
X51061Y-34487D01*
X51061Y-34382D01*
X50750Y-34070D01*
X50679Y-34141D01*
X50679Y-34000D01*
X50367Y-33688D01*
X50272Y-33714D01*
X50249Y-33780D01*
X50212Y-33691D01*
X50059Y-33538D01*
X49880Y-33463D01*
X49880Y-31325D01*
X49746Y-31002D01*
X49499Y-30754D01*
X49175Y-30620D01*
X48825Y-30619D01*
X48502Y-30753D01*
X48254Y-31000D01*
X48120Y-31324D01*
X48119Y-31674D01*
X48253Y-31997D01*
X48500Y-32245D01*
X48824Y-32379D01*
X49174Y-32380D01*
X49497Y-32246D01*
X49745Y-31999D01*
X49879Y-31675D01*
X49880Y-31325D01*
X49880Y-33463D01*
X49858Y-33454D01*
X49642Y-33454D01*
X49441Y-33537D01*
X49288Y-33690D01*
X49204Y-33891D01*
X49204Y-34107D01*
X49287Y-34308D01*
X49440Y-34461D01*
X49641Y-34545D01*
X49857Y-34545D01*
X50058Y-34462D01*
X50211Y-34309D01*
X50247Y-34224D01*
X50272Y-34285D01*
X50367Y-34311D01*
X50679Y-34000D01*
X50679Y-34141D01*
X50438Y-34382D01*
X50464Y-34477D01*
X50669Y-34550D01*
X50886Y-34539D01*
X51035Y-34477D01*
X51061Y-34382D01*
X51061Y-34487D01*
X50941Y-34537D01*
X50788Y-34690D01*
X50750Y-34782D01*
X50712Y-34691D01*
X50559Y-34538D01*
X50358Y-34454D01*
X50142Y-34454D01*
X49941Y-34537D01*
X49788Y-34690D01*
X49704Y-34891D01*
X49704Y-35107D01*
X49787Y-35308D01*
X49940Y-35461D01*
X50141Y-35545D01*
X50357Y-35545D01*
X50558Y-35462D01*
X50711Y-35309D01*
X50749Y-35217D01*
X50787Y-35308D01*
X50940Y-35461D01*
X51141Y-35545D01*
X51357Y-35545D01*
X51558Y-35462D01*
X51711Y-35309D01*
X51749Y-35217D01*
X51787Y-35308D01*
X51940Y-35461D01*
X52141Y-35545D01*
X52357Y-35545D01*
X52558Y-35462D01*
X52711Y-35309D01*
X52795Y-35108D01*
X52795Y-34892D01*
X52795Y-38632D01*
X52502Y-38753D01*
X52254Y-39000D01*
X52120Y-39324D01*
X52119Y-39674D01*
X52253Y-39997D01*
X52500Y-40245D01*
X52824Y-40379D01*
X53174Y-40380D01*
X53497Y-40246D01*
X53745Y-39999D01*
X53879Y-39675D01*
X53880Y-39325D01*
X53880Y-49361D01*
X53774Y-49382D01*
X53582Y-49510D01*
X53500Y-49634D01*
X53417Y-49510D01*
X53225Y-49382D01*
X53000Y-49337D01*
X52795Y-49377D01*
X52795Y-42892D01*
X52712Y-42691D01*
X52559Y-42538D01*
X52358Y-42454D01*
X52295Y-42454D01*
X52295Y-41892D01*
X52212Y-41691D01*
X52059Y-41538D01*
X51858Y-41454D01*
X51642Y-41454D01*
X51441Y-41537D01*
X51288Y-41690D01*
X51252Y-41775D01*
X51227Y-41714D01*
X51132Y-41688D01*
X51061Y-41758D01*
X51061Y-41617D01*
X51035Y-41522D01*
X50830Y-41449D01*
X50613Y-41460D01*
X50464Y-41522D01*
X50438Y-41617D01*
X50750Y-41929D01*
X51061Y-41617D01*
X51061Y-41758D01*
X50820Y-42000D01*
X51132Y-42311D01*
X51227Y-42285D01*
X51250Y-42219D01*
X51287Y-42308D01*
X51440Y-42461D01*
X51641Y-42545D01*
X51857Y-42545D01*
X52058Y-42462D01*
X52211Y-42309D01*
X52295Y-42108D01*
X52295Y-41892D01*
X52295Y-42454D01*
X52142Y-42454D01*
X51941Y-42537D01*
X51788Y-42690D01*
X51750Y-42782D01*
X51712Y-42691D01*
X51559Y-42538D01*
X51358Y-42454D01*
X51142Y-42454D01*
X51061Y-42487D01*
X51061Y-42382D01*
X50750Y-42070D01*
X50679Y-42141D01*
X50679Y-42000D01*
X50367Y-41688D01*
X50272Y-41714D01*
X50249Y-41780D01*
X50212Y-41691D01*
X50059Y-41538D01*
X49880Y-41463D01*
X49880Y-39325D01*
X49746Y-39002D01*
X49499Y-38754D01*
X49175Y-38620D01*
X48825Y-38619D01*
X48502Y-38753D01*
X48254Y-39000D01*
X48120Y-39324D01*
X48119Y-39674D01*
X48253Y-39997D01*
X48500Y-40245D01*
X48824Y-40379D01*
X49174Y-40380D01*
X49497Y-40246D01*
X49745Y-39999D01*
X49879Y-39675D01*
X49880Y-39325D01*
X49880Y-41463D01*
X49858Y-41454D01*
X49642Y-41454D01*
X49441Y-41537D01*
X49288Y-41690D01*
X49204Y-41891D01*
X49204Y-42107D01*
X49287Y-42308D01*
X49440Y-42461D01*
X49641Y-42545D01*
X49857Y-42545D01*
X50058Y-42462D01*
X50211Y-42309D01*
X50247Y-42224D01*
X50272Y-42285D01*
X50367Y-42311D01*
X50679Y-42000D01*
X50679Y-42141D01*
X50438Y-42382D01*
X50464Y-42477D01*
X50669Y-42550D01*
X50886Y-42539D01*
X51035Y-42477D01*
X51061Y-42382D01*
X51061Y-42487D01*
X50941Y-42537D01*
X50788Y-42690D01*
X50750Y-42782D01*
X50712Y-42691D01*
X50559Y-42538D01*
X50358Y-42454D01*
X50142Y-42454D01*
X49941Y-42537D01*
X49788Y-42690D01*
X49704Y-42891D01*
X49704Y-43107D01*
X49787Y-43308D01*
X49940Y-43461D01*
X50141Y-43545D01*
X50357Y-43545D01*
X50558Y-43462D01*
X50711Y-43309D01*
X50749Y-43217D01*
X50787Y-43308D01*
X50940Y-43461D01*
X51141Y-43545D01*
X51357Y-43545D01*
X51558Y-43462D01*
X51711Y-43309D01*
X51749Y-43217D01*
X51787Y-43308D01*
X51940Y-43461D01*
X52141Y-43545D01*
X52357Y-43545D01*
X52558Y-43462D01*
X52711Y-43309D01*
X52795Y-43108D01*
X52795Y-42892D01*
X52795Y-49377D01*
X52774Y-49382D01*
X52582Y-49510D01*
X52500Y-49634D01*
X52417Y-49510D01*
X52225Y-49382D01*
X52000Y-49337D01*
X51774Y-49382D01*
X51582Y-49510D01*
X51500Y-49634D01*
X51417Y-49510D01*
X51225Y-49382D01*
X51000Y-49337D01*
X50774Y-49382D01*
X50582Y-49510D01*
X50500Y-49634D01*
X50417Y-49510D01*
X50225Y-49382D01*
X50000Y-49337D01*
X49774Y-49382D01*
X49582Y-49510D01*
X49500Y-49634D01*
X49417Y-49510D01*
X49225Y-49382D01*
X49000Y-49337D01*
X48774Y-49382D01*
X48582Y-49510D01*
X48500Y-49634D01*
X48417Y-49510D01*
X48225Y-49382D01*
X48000Y-49337D01*
X47774Y-49382D01*
X47582Y-49510D01*
X47500Y-49634D01*
X47417Y-49510D01*
X47225Y-49382D01*
X47000Y-49337D01*
X46880Y-49361D01*
X46880Y-39325D01*
X46880Y-31325D01*
X46880Y-23325D01*
X46880Y-15325D01*
X46746Y-15002D01*
X46499Y-14754D01*
X46175Y-14620D01*
X45825Y-14619D01*
X45502Y-14753D01*
X45254Y-15000D01*
X45120Y-15324D01*
X45119Y-15674D01*
X45253Y-15997D01*
X45500Y-16245D01*
X45824Y-16379D01*
X46174Y-16380D01*
X46497Y-16246D01*
X46745Y-15999D01*
X46879Y-15675D01*
X46880Y-15325D01*
X46880Y-23325D01*
X46746Y-23002D01*
X46499Y-22754D01*
X46175Y-22620D01*
X45825Y-22619D01*
X45795Y-22632D01*
X45795Y-18892D01*
X45712Y-18691D01*
X45559Y-18538D01*
X45358Y-18454D01*
X45295Y-18454D01*
X45295Y-17892D01*
X45212Y-17691D01*
X45059Y-17538D01*
X44858Y-17454D01*
X44642Y-17454D01*
X44441Y-17537D01*
X44288Y-17690D01*
X44252Y-17775D01*
X44227Y-17714D01*
X44132Y-17688D01*
X44061Y-17758D01*
X44061Y-17617D01*
X44035Y-17522D01*
X43830Y-17449D01*
X43613Y-17460D01*
X43464Y-17522D01*
X43438Y-17617D01*
X43750Y-17929D01*
X44061Y-17617D01*
X44061Y-17758D01*
X43820Y-18000D01*
X44132Y-18311D01*
X44227Y-18285D01*
X44250Y-18219D01*
X44287Y-18308D01*
X44440Y-18461D01*
X44641Y-18545D01*
X44857Y-18545D01*
X45058Y-18462D01*
X45211Y-18309D01*
X45295Y-18108D01*
X45295Y-17892D01*
X45295Y-18454D01*
X45142Y-18454D01*
X44941Y-18537D01*
X44788Y-18690D01*
X44750Y-18782D01*
X44712Y-18691D01*
X44559Y-18538D01*
X44358Y-18454D01*
X44142Y-18454D01*
X44061Y-18487D01*
X44061Y-18382D01*
X43750Y-18070D01*
X43679Y-18141D01*
X43679Y-18000D01*
X43367Y-17688D01*
X43272Y-17714D01*
X43249Y-17780D01*
X43212Y-17691D01*
X43059Y-17538D01*
X42880Y-17463D01*
X42880Y-15325D01*
X42746Y-15002D01*
X42499Y-14754D01*
X42175Y-14620D01*
X41825Y-14619D01*
X41502Y-14753D01*
X41254Y-15000D01*
X41120Y-15324D01*
X41119Y-15674D01*
X41253Y-15997D01*
X41500Y-16245D01*
X41824Y-16379D01*
X42174Y-16380D01*
X42497Y-16246D01*
X42745Y-15999D01*
X42879Y-15675D01*
X42880Y-15325D01*
X42880Y-17463D01*
X42858Y-17454D01*
X42642Y-17454D01*
X42441Y-17537D01*
X42288Y-17690D01*
X42204Y-17891D01*
X42204Y-18107D01*
X42287Y-18308D01*
X42440Y-18461D01*
X42641Y-18545D01*
X42857Y-18545D01*
X43058Y-18462D01*
X43211Y-18309D01*
X43247Y-18224D01*
X43272Y-18285D01*
X43367Y-18311D01*
X43679Y-18000D01*
X43679Y-18141D01*
X43438Y-18382D01*
X43464Y-18477D01*
X43669Y-18550D01*
X43886Y-18539D01*
X44035Y-18477D01*
X44061Y-18382D01*
X44061Y-18487D01*
X43941Y-18537D01*
X43788Y-18690D01*
X43750Y-18782D01*
X43712Y-18691D01*
X43559Y-18538D01*
X43358Y-18454D01*
X43142Y-18454D01*
X42941Y-18537D01*
X42788Y-18690D01*
X42704Y-18891D01*
X42704Y-19107D01*
X42787Y-19308D01*
X42940Y-19461D01*
X43141Y-19545D01*
X43357Y-19545D01*
X43558Y-19462D01*
X43711Y-19309D01*
X43749Y-19217D01*
X43787Y-19308D01*
X43940Y-19461D01*
X44141Y-19545D01*
X44357Y-19545D01*
X44558Y-19462D01*
X44711Y-19309D01*
X44749Y-19217D01*
X44787Y-19308D01*
X44940Y-19461D01*
X45141Y-19545D01*
X45357Y-19545D01*
X45558Y-19462D01*
X45711Y-19309D01*
X45795Y-19108D01*
X45795Y-18892D01*
X45795Y-22632D01*
X45502Y-22753D01*
X45254Y-23000D01*
X45120Y-23324D01*
X45119Y-23674D01*
X45253Y-23997D01*
X45500Y-24245D01*
X45824Y-24379D01*
X46174Y-24380D01*
X46497Y-24246D01*
X46745Y-23999D01*
X46879Y-23675D01*
X46880Y-23325D01*
X46880Y-31325D01*
X46746Y-31002D01*
X46499Y-30754D01*
X46175Y-30620D01*
X45825Y-30619D01*
X45795Y-30632D01*
X45795Y-26892D01*
X45712Y-26691D01*
X45559Y-26538D01*
X45358Y-26454D01*
X45295Y-26454D01*
X45295Y-25892D01*
X45212Y-25691D01*
X45059Y-25538D01*
X44858Y-25454D01*
X44642Y-25454D01*
X44441Y-25537D01*
X44288Y-25690D01*
X44252Y-25775D01*
X44227Y-25714D01*
X44132Y-25688D01*
X44061Y-25758D01*
X44061Y-25617D01*
X44035Y-25522D01*
X43830Y-25449D01*
X43613Y-25460D01*
X43464Y-25522D01*
X43438Y-25617D01*
X43750Y-25929D01*
X44061Y-25617D01*
X44061Y-25758D01*
X43820Y-26000D01*
X44132Y-26311D01*
X44227Y-26285D01*
X44250Y-26219D01*
X44287Y-26308D01*
X44440Y-26461D01*
X44641Y-26545D01*
X44857Y-26545D01*
X45058Y-26462D01*
X45211Y-26309D01*
X45295Y-26108D01*
X45295Y-25892D01*
X45295Y-26454D01*
X45142Y-26454D01*
X44941Y-26537D01*
X44788Y-26690D01*
X44750Y-26782D01*
X44712Y-26691D01*
X44559Y-26538D01*
X44358Y-26454D01*
X44142Y-26454D01*
X44061Y-26487D01*
X44061Y-26382D01*
X43750Y-26070D01*
X43679Y-26141D01*
X43679Y-26000D01*
X43367Y-25688D01*
X43272Y-25714D01*
X43249Y-25780D01*
X43212Y-25691D01*
X43059Y-25538D01*
X42880Y-25463D01*
X42880Y-23325D01*
X42746Y-23002D01*
X42499Y-22754D01*
X42175Y-22620D01*
X41825Y-22619D01*
X41502Y-22753D01*
X41254Y-23000D01*
X41120Y-23324D01*
X41119Y-23674D01*
X41253Y-23997D01*
X41500Y-24245D01*
X41824Y-24379D01*
X42174Y-24380D01*
X42497Y-24246D01*
X42745Y-23999D01*
X42879Y-23675D01*
X42880Y-23325D01*
X42880Y-25463D01*
X42858Y-25454D01*
X42642Y-25454D01*
X42441Y-25537D01*
X42288Y-25690D01*
X42204Y-25891D01*
X42204Y-26107D01*
X42287Y-26308D01*
X42440Y-26461D01*
X42641Y-26545D01*
X42857Y-26545D01*
X43058Y-26462D01*
X43211Y-26309D01*
X43247Y-26224D01*
X43272Y-26285D01*
X43367Y-26311D01*
X43679Y-26000D01*
X43679Y-26141D01*
X43438Y-26382D01*
X43464Y-26477D01*
X43669Y-26550D01*
X43886Y-26539D01*
X44035Y-26477D01*
X44061Y-26382D01*
X44061Y-26487D01*
X43941Y-26537D01*
X43788Y-26690D01*
X43750Y-26782D01*
X43712Y-26691D01*
X43559Y-26538D01*
X43358Y-26454D01*
X43142Y-26454D01*
X42941Y-26537D01*
X42788Y-26690D01*
X42704Y-26891D01*
X42704Y-27107D01*
X42787Y-27308D01*
X42940Y-27461D01*
X43141Y-27545D01*
X43357Y-27545D01*
X43558Y-27462D01*
X43711Y-27309D01*
X43749Y-27217D01*
X43787Y-27308D01*
X43940Y-27461D01*
X44141Y-27545D01*
X44357Y-27545D01*
X44558Y-27462D01*
X44711Y-27309D01*
X44749Y-27217D01*
X44787Y-27308D01*
X44940Y-27461D01*
X45141Y-27545D01*
X45357Y-27545D01*
X45558Y-27462D01*
X45711Y-27309D01*
X45795Y-27108D01*
X45795Y-26892D01*
X45795Y-30632D01*
X45502Y-30753D01*
X45254Y-31000D01*
X45120Y-31324D01*
X45119Y-31674D01*
X45253Y-31997D01*
X45500Y-32245D01*
X45824Y-32379D01*
X46174Y-32380D01*
X46497Y-32246D01*
X46745Y-31999D01*
X46879Y-31675D01*
X46880Y-31325D01*
X46880Y-39325D01*
X46746Y-39002D01*
X46499Y-38754D01*
X46175Y-38620D01*
X45825Y-38619D01*
X45795Y-38632D01*
X45795Y-34892D01*
X45712Y-34691D01*
X45559Y-34538D01*
X45358Y-34454D01*
X45295Y-34454D01*
X45295Y-33892D01*
X45212Y-33691D01*
X45059Y-33538D01*
X44858Y-33454D01*
X44642Y-33454D01*
X44441Y-33537D01*
X44288Y-33690D01*
X44252Y-33775D01*
X44227Y-33714D01*
X44132Y-33688D01*
X44061Y-33758D01*
X44061Y-33617D01*
X44035Y-33522D01*
X43830Y-33449D01*
X43613Y-33460D01*
X43464Y-33522D01*
X43438Y-33617D01*
X43750Y-33929D01*
X44061Y-33617D01*
X44061Y-33758D01*
X43820Y-34000D01*
X44132Y-34311D01*
X44227Y-34285D01*
X44250Y-34219D01*
X44287Y-34308D01*
X44440Y-34461D01*
X44641Y-34545D01*
X44857Y-34545D01*
X45058Y-34462D01*
X45211Y-34309D01*
X45295Y-34108D01*
X45295Y-33892D01*
X45295Y-34454D01*
X45142Y-34454D01*
X44941Y-34537D01*
X44788Y-34690D01*
X44750Y-34782D01*
X44712Y-34691D01*
X44559Y-34538D01*
X44358Y-34454D01*
X44142Y-34454D01*
X44061Y-34487D01*
X44061Y-34382D01*
X43750Y-34070D01*
X43679Y-34141D01*
X43679Y-34000D01*
X43367Y-33688D01*
X43272Y-33714D01*
X43249Y-33780D01*
X43212Y-33691D01*
X43059Y-33538D01*
X42880Y-33463D01*
X42880Y-31325D01*
X42746Y-31002D01*
X42499Y-30754D01*
X42175Y-30620D01*
X41825Y-30619D01*
X41502Y-30753D01*
X41254Y-31000D01*
X41120Y-31324D01*
X41119Y-31674D01*
X41253Y-31997D01*
X41500Y-32245D01*
X41824Y-32379D01*
X42174Y-32380D01*
X42497Y-32246D01*
X42745Y-31999D01*
X42879Y-31675D01*
X42880Y-31325D01*
X42880Y-33463D01*
X42858Y-33454D01*
X42642Y-33454D01*
X42441Y-33537D01*
X42288Y-33690D01*
X42204Y-33891D01*
X42204Y-34107D01*
X42287Y-34308D01*
X42440Y-34461D01*
X42641Y-34545D01*
X42857Y-34545D01*
X43058Y-34462D01*
X43211Y-34309D01*
X43247Y-34224D01*
X43272Y-34285D01*
X43367Y-34311D01*
X43679Y-34000D01*
X43679Y-34141D01*
X43438Y-34382D01*
X43464Y-34477D01*
X43669Y-34550D01*
X43886Y-34539D01*
X44035Y-34477D01*
X44061Y-34382D01*
X44061Y-34487D01*
X43941Y-34537D01*
X43788Y-34690D01*
X43750Y-34782D01*
X43712Y-34691D01*
X43559Y-34538D01*
X43358Y-34454D01*
X43142Y-34454D01*
X42941Y-34537D01*
X42788Y-34690D01*
X42704Y-34891D01*
X42704Y-35107D01*
X42787Y-35308D01*
X42940Y-35461D01*
X43141Y-35545D01*
X43357Y-35545D01*
X43558Y-35462D01*
X43711Y-35309D01*
X43749Y-35217D01*
X43787Y-35308D01*
X43940Y-35461D01*
X44141Y-35545D01*
X44357Y-35545D01*
X44558Y-35462D01*
X44711Y-35309D01*
X44749Y-35217D01*
X44787Y-35308D01*
X44940Y-35461D01*
X45141Y-35545D01*
X45357Y-35545D01*
X45558Y-35462D01*
X45711Y-35309D01*
X45795Y-35108D01*
X45795Y-34892D01*
X45795Y-38632D01*
X45502Y-38753D01*
X45254Y-39000D01*
X45120Y-39324D01*
X45119Y-39674D01*
X45253Y-39997D01*
X45500Y-40245D01*
X45824Y-40379D01*
X46174Y-40380D01*
X46497Y-40246D01*
X46745Y-39999D01*
X46879Y-39675D01*
X46880Y-39325D01*
X46880Y-49361D01*
X46774Y-49382D01*
X46582Y-49510D01*
X46500Y-49634D01*
X46417Y-49510D01*
X46225Y-49382D01*
X46000Y-49337D01*
X45795Y-49377D01*
X45795Y-42892D01*
X45712Y-42691D01*
X45559Y-42538D01*
X45358Y-42454D01*
X45295Y-42454D01*
X45295Y-41892D01*
X45212Y-41691D01*
X45059Y-41538D01*
X44858Y-41454D01*
X44642Y-41454D01*
X44441Y-41537D01*
X44288Y-41690D01*
X44252Y-41775D01*
X44227Y-41714D01*
X44132Y-41688D01*
X44061Y-41758D01*
X44061Y-41617D01*
X44035Y-41522D01*
X43830Y-41449D01*
X43613Y-41460D01*
X43464Y-41522D01*
X43438Y-41617D01*
X43750Y-41929D01*
X44061Y-41617D01*
X44061Y-41758D01*
X43820Y-42000D01*
X44132Y-42311D01*
X44227Y-42285D01*
X44250Y-42219D01*
X44287Y-42308D01*
X44440Y-42461D01*
X44641Y-42545D01*
X44857Y-42545D01*
X45058Y-42462D01*
X45211Y-42309D01*
X45295Y-42108D01*
X45295Y-41892D01*
X45295Y-42454D01*
X45142Y-42454D01*
X44941Y-42537D01*
X44788Y-42690D01*
X44750Y-42782D01*
X44712Y-42691D01*
X44559Y-42538D01*
X44358Y-42454D01*
X44142Y-42454D01*
X44061Y-42487D01*
X44061Y-42382D01*
X43750Y-42070D01*
X43679Y-42141D01*
X43679Y-42000D01*
X43367Y-41688D01*
X43272Y-41714D01*
X43249Y-41780D01*
X43212Y-41691D01*
X43059Y-41538D01*
X42880Y-41463D01*
X42880Y-39325D01*
X42746Y-39002D01*
X42499Y-38754D01*
X42175Y-38620D01*
X41825Y-38619D01*
X41502Y-38753D01*
X41254Y-39000D01*
X41120Y-39324D01*
X41119Y-39674D01*
X41253Y-39997D01*
X41500Y-40245D01*
X41824Y-40379D01*
X42174Y-40380D01*
X42497Y-40246D01*
X42745Y-39999D01*
X42879Y-39675D01*
X42880Y-39325D01*
X42880Y-41463D01*
X42858Y-41454D01*
X42642Y-41454D01*
X42441Y-41537D01*
X42288Y-41690D01*
X42204Y-41891D01*
X42204Y-42107D01*
X42287Y-42308D01*
X42440Y-42461D01*
X42641Y-42545D01*
X42857Y-42545D01*
X43058Y-42462D01*
X43211Y-42309D01*
X43247Y-42224D01*
X43272Y-42285D01*
X43367Y-42311D01*
X43679Y-42000D01*
X43679Y-42141D01*
X43438Y-42382D01*
X43464Y-42477D01*
X43669Y-42550D01*
X43886Y-42539D01*
X44035Y-42477D01*
X44061Y-42382D01*
X44061Y-42487D01*
X43941Y-42537D01*
X43788Y-42690D01*
X43750Y-42782D01*
X43712Y-42691D01*
X43559Y-42538D01*
X43358Y-42454D01*
X43142Y-42454D01*
X42941Y-42537D01*
X42788Y-42690D01*
X42704Y-42891D01*
X42704Y-43107D01*
X42787Y-43308D01*
X42940Y-43461D01*
X43141Y-43545D01*
X43357Y-43545D01*
X43558Y-43462D01*
X43711Y-43309D01*
X43749Y-43217D01*
X43787Y-43308D01*
X43940Y-43461D01*
X44141Y-43545D01*
X44357Y-43545D01*
X44558Y-43462D01*
X44711Y-43309D01*
X44749Y-43217D01*
X44787Y-43308D01*
X44940Y-43461D01*
X45141Y-43545D01*
X45357Y-43545D01*
X45558Y-43462D01*
X45711Y-43309D01*
X45795Y-43108D01*
X45795Y-42892D01*
X45795Y-49377D01*
X45774Y-49382D01*
X45582Y-49510D01*
X45500Y-49634D01*
X45417Y-49510D01*
X45225Y-49382D01*
X45000Y-49337D01*
X44774Y-49382D01*
X44582Y-49510D01*
X44500Y-49634D01*
X44417Y-49510D01*
X44225Y-49382D01*
X44000Y-49337D01*
X43774Y-49382D01*
X43582Y-49510D01*
X43500Y-49634D01*
X43417Y-49510D01*
X43225Y-49382D01*
X43000Y-49337D01*
X42966Y-49343D01*
X42966Y-46880D01*
X42838Y-46571D01*
X42602Y-46335D01*
X42293Y-46206D01*
X41959Y-46206D01*
X41650Y-46334D01*
X41413Y-46570D01*
X41285Y-46879D01*
X41285Y-47213D01*
X41413Y-47522D01*
X41649Y-47759D01*
X41958Y-47887D01*
X42292Y-47887D01*
X42601Y-47760D01*
X42838Y-47523D01*
X42966Y-47215D01*
X42966Y-46880D01*
X42966Y-49343D01*
X42774Y-49382D01*
X42582Y-49510D01*
X42576Y-49518D01*
X42551Y-49458D01*
X42481Y-49388D01*
X42389Y-49350D01*
X42290Y-49350D01*
X41610Y-49350D01*
X41518Y-49388D01*
X41448Y-49458D01*
X41410Y-49550D01*
X41410Y-49649D01*
X41410Y-50449D01*
X41448Y-50541D01*
X41518Y-50611D01*
X41610Y-50650D01*
X41709Y-50650D01*
X42389Y-50650D01*
X42481Y-50611D01*
X42551Y-50541D01*
X42576Y-50481D01*
X42582Y-50489D01*
X42774Y-50617D01*
X43000Y-50662D01*
X43225Y-50617D01*
X43417Y-50489D01*
X43500Y-50365D01*
X43582Y-50489D01*
X43774Y-50617D01*
X44000Y-50662D01*
X44225Y-50617D01*
X44417Y-50489D01*
X44500Y-50365D01*
X44582Y-50489D01*
X44774Y-50617D01*
X45000Y-50662D01*
X45225Y-50617D01*
X45417Y-50489D01*
X45500Y-50365D01*
X45582Y-50489D01*
X45774Y-50617D01*
X46000Y-50662D01*
X46225Y-50617D01*
X46417Y-50489D01*
X46500Y-50365D01*
X46582Y-50489D01*
X46774Y-50617D01*
X47000Y-50662D01*
X47225Y-50617D01*
X47417Y-50489D01*
X47500Y-50365D01*
X47582Y-50489D01*
X47774Y-50617D01*
X48000Y-50662D01*
X48225Y-50617D01*
X48417Y-50489D01*
X48500Y-50365D01*
X48582Y-50489D01*
X48774Y-50617D01*
X49000Y-50662D01*
X49225Y-50617D01*
X49417Y-50489D01*
X49500Y-50365D01*
X49582Y-50489D01*
X49774Y-50617D01*
X50000Y-50662D01*
X50225Y-50617D01*
X50417Y-50489D01*
X50500Y-50365D01*
X50582Y-50489D01*
X50774Y-50617D01*
X51000Y-50662D01*
X51225Y-50617D01*
X51417Y-50489D01*
X51500Y-50365D01*
X51582Y-50489D01*
X51774Y-50617D01*
X52000Y-50662D01*
X52225Y-50617D01*
X52417Y-50489D01*
X52500Y-50365D01*
X52582Y-50489D01*
X52774Y-50617D01*
X53000Y-50662D01*
X53225Y-50617D01*
X53417Y-50489D01*
X53500Y-50365D01*
X53582Y-50489D01*
X53774Y-50617D01*
X54000Y-50662D01*
X54225Y-50617D01*
X54417Y-50489D01*
X54500Y-50365D01*
X54582Y-50489D01*
X54774Y-50617D01*
X55000Y-50662D01*
X55225Y-50617D01*
X55417Y-50489D01*
X55500Y-50365D01*
X55582Y-50489D01*
X55774Y-50617D01*
X56000Y-50662D01*
X56225Y-50617D01*
X56417Y-50489D01*
X56500Y-50365D01*
X56582Y-50489D01*
X56774Y-50617D01*
X57000Y-50662D01*
X57225Y-50617D01*
X57417Y-50489D01*
X57500Y-50365D01*
X57582Y-50489D01*
X57774Y-50617D01*
X58000Y-50662D01*
X58225Y-50617D01*
X58417Y-50489D01*
X58500Y-50365D01*
X58582Y-50489D01*
X58774Y-50617D01*
X59000Y-50662D01*
X59225Y-50617D01*
X59417Y-50489D01*
X59500Y-50365D01*
X59582Y-50489D01*
X59774Y-50617D01*
X60000Y-50662D01*
X60225Y-50617D01*
X60417Y-50489D01*
X60500Y-50365D01*
X60582Y-50489D01*
X60774Y-50617D01*
X61000Y-50662D01*
X61225Y-50617D01*
X61417Y-50489D01*
X61500Y-50365D01*
X61582Y-50489D01*
X61774Y-50617D01*
X62000Y-50662D01*
X62225Y-50617D01*
X62417Y-50489D01*
X62498Y-50368D01*
X62644Y-50531D01*
X62852Y-50631D01*
X62858Y-50632D01*
X62950Y-50585D01*
X62950Y-51720D01*
X49000Y-51720D01*
X48893Y-51741D01*
X48802Y-51802D01*
X48741Y-51893D01*
X48720Y-52000D01*
X48720Y-55884D01*
X48384Y-56220D01*
X48340Y-56220D01*
X48340Y-53396D01*
X48227Y-53123D01*
X48019Y-52914D01*
X47746Y-52801D01*
X47451Y-52801D01*
X47178Y-52913D01*
X46969Y-53122D01*
X46856Y-53395D01*
X46856Y-53690D01*
X46968Y-53963D01*
X47177Y-54172D01*
X47450Y-54285D01*
X47745Y-54285D01*
X48018Y-54172D01*
X48227Y-53964D01*
X48340Y-53691D01*
X48340Y-53396D01*
X48340Y-56220D01*
X46372Y-56220D01*
X46372Y-53396D01*
X46259Y-53123D01*
X46050Y-52914D01*
X45778Y-52801D01*
X45482Y-52801D01*
X45210Y-52913D01*
X45001Y-53122D01*
X44887Y-53395D01*
X44887Y-53690D01*
X45000Y-53963D01*
X45208Y-54172D01*
X45481Y-54285D01*
X45776Y-54285D01*
X46049Y-54172D01*
X46258Y-53964D01*
X46371Y-53691D01*
X46372Y-53396D01*
X46372Y-56220D01*
X44403Y-56220D01*
X44403Y-53396D01*
X44290Y-53123D01*
X44082Y-52914D01*
X43809Y-52801D01*
X43514Y-52801D01*
X43241Y-52913D01*
X43032Y-53122D01*
X42919Y-53395D01*
X42919Y-53690D01*
X43031Y-53963D01*
X43240Y-54172D01*
X43513Y-54285D01*
X43808Y-54285D01*
X44081Y-54172D01*
X44290Y-53964D01*
X44403Y-53691D01*
X44403Y-53396D01*
X44403Y-56220D01*
X42435Y-56220D01*
X42435Y-53396D01*
X42322Y-53123D01*
X42113Y-52914D01*
X41841Y-52801D01*
X41545Y-52801D01*
X41273Y-52913D01*
X41064Y-53122D01*
X40950Y-53395D01*
X40950Y-53690D01*
X41063Y-53963D01*
X41271Y-54172D01*
X41544Y-54285D01*
X41839Y-54285D01*
X42112Y-54172D01*
X42321Y-53964D01*
X42434Y-53691D01*
X42435Y-53396D01*
X42435Y-56220D01*
X41115Y-56220D01*
X40279Y-55384D01*
X40279Y-52000D01*
X40279Y-12779D01*
X41000Y-12779D01*
X76220Y-12779D01*
X76220Y-51720D01*
M02*
