solid OpenSCAD_Model
  facet normal -1 0 0
    outer loop
      vertex 0 -2 0
      vertex 0 -2 5.58
      vertex 0 15.26 0
    endloop
  endfacet
  facet normal -1 0 0
    outer loop
      vertex 0 15.26 0
      vertex 0 -2 5.58
      vertex 0 15.26 5.58
    endloop
  endfacet
  facet normal 0 -1 0
    outer loop
      vertex 0 -2 5.58
      vertex 0 -2 0
      vertex 12 -2 0
    endloop
  endfacet
  facet normal 0 -1 0
    outer loop
      vertex 12 -2 5.58
      vertex 0 -2 5.58
      vertex 12 -2 0
    endloop
  endfacet
  facet normal 0 0 -1
    outer loop
      vertex 0 -2 0
      vertex 0 15.26 0
      vertex 12 -2 0
    endloop
  endfacet
  facet normal 0 0 -1
    outer loop
      vertex 12 -2 0
      vertex 0 15.26 0
      vertex 12 15.26 0
    endloop
  endfacet
  facet normal 0 1 0
    outer loop
      vertex 0 15.26 0
      vertex 0 15.26 5.58
      vertex 12 15.26 0
    endloop
  endfacet
  facet normal 0 1 0
    outer loop
      vertex 12 15.26 0
      vertex 0 15.26 5.58
      vertex 12 15.26 5.58
    endloop
  endfacet
  facet normal 0 0 1
    outer loop
      vertex 5.51 0 5.58
      vertex 0 -2 5.58
      vertex 12 -2 5.58
    endloop
  endfacet
  facet normal 0 0 1
    outer loop
      vertex 5.01 6.63 5.58
      vertex 5.01 13.26 5.58
      vertex 0 15.26 5.58
    endloop
  endfacet
  facet normal 0 0 1
    outer loop
      vertex 0 15.26 5.58
      vertex 0 -2 5.58
      vertex 5.51 0 5.58
    endloop
  endfacet
  facet normal 0 0 1
    outer loop
      vertex 5.01 6.63 5.58
      vertex 5.51 0 5.58
      vertex 5.51 6.63 5.58
    endloop
  endfacet
  facet normal 0 0 1
    outer loop
      vertex 0 15.26 5.58
      vertex 5.51 0 5.58
      vertex 5.01 6.63 5.58
    endloop
  endfacet
  facet normal 0 0 1
    outer loop
      vertex 12 13.26 5.58
      vertex 0 15.26 5.58
      vertex 5.01 13.26 5.58
    endloop
  endfacet
  facet normal 0 0 1
    outer loop
      vertex 12 15.26 5.58
      vertex 0 15.26 5.58
      vertex 12 13.26 5.58
    endloop
  endfacet
  facet normal 0 0 1
    outer loop
      vertex 12 0 5.58
      vertex 5.51 0 5.58
      vertex 12 -2 5.58
    endloop
  endfacet
  facet normal 1 0 0
    outer loop
      vertex 12 0 3
      vertex 12 -2 0
      vertex 12 15.26 0
    endloop
  endfacet
  facet normal 1 0 0
    outer loop
      vertex 12 0 3
      vertex 12 0 5.58
      vertex 12 -2 5.58
    endloop
  endfacet
  facet normal 1 0 0
    outer loop
      vertex 12 15.26 5.58
      vertex 12 13.26 5.58
      vertex 12 15.26 0
    endloop
  endfacet
  facet normal 1 0 0
    outer loop
      vertex 12 13.26 5.58
      vertex 12 13.26 3
      vertex 12 15.26 0
    endloop
  endfacet
  facet normal 1 0 0
    outer loop
      vertex 12 -2 5.58
      vertex 12 -2 0
      vertex 12 0 3
    endloop
  endfacet
  facet normal 1 0 0
    outer loop
      vertex 12 13.26 3
      vertex 12 0 3
      vertex 12 15.26 0
    endloop
  endfacet
  facet normal 0 -1 0
    outer loop
      vertex 12 13.26 3
      vertex 12 13.26 5.58
      vertex 5.01 13.26 5.58
    endloop
  endfacet
  facet normal 0 -1 0
    outer loop
      vertex 5.01 13.26 3
      vertex 12 13.26 3
      vertex 5.01 13.26 5.58
    endloop
  endfacet
  facet normal 1 0 0
    outer loop
      vertex 5.01 6.63 5.58
      vertex 5.01 6.63 3
      vertex 5.01 13.26 3
    endloop
  endfacet
  facet normal 1 0 0
    outer loop
      vertex 5.01 13.26 5.58
      vertex 5.01 6.63 5.58
      vertex 5.01 13.26 3
    endloop
  endfacet
  facet normal 0 1 0
    outer loop
      vertex 5.01 6.63 3
      vertex 5.01 6.63 5.58
      vertex 5.51 6.63 3
    endloop
  endfacet
  facet normal 0 1 0
    outer loop
      vertex 5.51 6.63 3
      vertex 5.01 6.63 5.58
      vertex 5.51 6.63 5.58
    endloop
  endfacet
  facet normal 1 0 0
    outer loop
      vertex 5.51 0 5.58
      vertex 5.51 0 3
      vertex 5.51 6.63 3
    endloop
  endfacet
  facet normal 1 0 0
    outer loop
      vertex 5.51 6.63 5.58
      vertex 5.51 0 5.58
      vertex 5.51 6.63 3
    endloop
  endfacet
  facet normal 0 1 0
    outer loop
      vertex 12 0 5.58
      vertex 12 0 3
      vertex 5.51 0 5.58
    endloop
  endfacet
  facet normal 0 1 0
    outer loop
      vertex 5.51 0 5.58
      vertex 12 0 3
      vertex 5.51 0 3
    endloop
  endfacet
  facet normal 0 0 1
    outer loop
      vertex 5.01 13.26 3
      vertex 5.01 6.63 3
      vertex 5.51 6.63 3
    endloop
  endfacet
  facet normal 0 0 1
    outer loop
      vertex 12 0 3
      vertex 5.01 13.26 3
      vertex 5.51 6.63 3
    endloop
  endfacet
  facet normal 0 0 1
    outer loop
      vertex 5.51 0 3
      vertex 12 0 3
      vertex 5.51 6.63 3
    endloop
  endfacet
  facet normal 0 0 1
    outer loop
      vertex 12 0 3
      vertex 12 13.26 3
      vertex 5.01 13.26 3
    endloop
  endfacet
endsolid OpenSCAD_Model
