M48
;DRILL file {pcbnew (2014-jan-25)-product} date Wed 30 Apr 2014 08:13:09 PM MDT
;FORMAT={-:-/ absolute / metric / decimal}
FMAT,2
METRIC,TZ
T1C0.600
T2C0.635
T3C1.016
T4C1.400
T5C3.000
%
G90
G05
M71
T1
X127.648Y-127.136
X129.048Y-127.136
X130.448Y-127.136
T2
X118.85Y-126.5
X132.816Y-99.268
X133.85Y-106.
X137.1Y-107.25
X137.35Y-99.75
X137.85Y-123.5
X138.1Y-98.75
X139.1Y-111.25
X140.1Y-106.25
X140.1Y-110.25
X141.35Y-124.5
X141.706Y-115.778
X141.85Y-121.
X142.35Y-101.5
X142.35Y-108.5
X144.1Y-108.
X144.85Y-130.564
X145.6Y-117.5
X146.532Y-110.952
X146.6Y-116.75
X146.786Y-121.366
X147.6Y-109.25
X147.802Y-121.112
X147.802Y-123.652
X147.85Y-117.5
X148.6Y-107.25
X148.6Y-108.75
X148.85Y-111.25
X148.85Y-113.5
X148.85Y-121.
X150.35Y-130.564
X151.1Y-97.5
X152.35Y-117.5
X152.374Y-122.89
X152.85Y-107.
X153.35Y-105.
X153.85Y-106.25
X156.6Y-97.5
X158.35Y-122.064
X158.47Y-106.888
X160.35Y-103.75
X161.1Y-109.75
X170.35Y-127.064
X170.35Y-134.064
X172.35Y-130.564
X174.85Y-134.564
T3
X112.85Y-105.11
X112.85Y-107.65
X112.85Y-110.19
X112.85Y-112.73
X112.85Y-115.27
X112.85Y-117.81
X112.85Y-120.35
X112.85Y-122.89
X124.18Y-142.064
X124.28Y-86.236
X126.72Y-142.064
X126.82Y-86.236
X129.26Y-142.064
X129.36Y-86.236
X131.8Y-142.064
X131.9Y-86.236
X134.34Y-142.064
X134.44Y-86.236
X136.88Y-142.064
X136.98Y-86.236
X139.42Y-142.064
X139.52Y-86.236
X141.96Y-142.064
X142.06Y-86.236
X144.5Y-142.064
X144.6Y-86.236
X147.04Y-142.064
X147.14Y-86.236
X149.58Y-142.064
X149.68Y-86.236
X152.12Y-142.064
X152.22Y-86.236
X154.66Y-142.064
X154.76Y-86.236
X157.2Y-142.064
X157.3Y-86.236
X159.74Y-142.064
X159.84Y-86.236
X162.28Y-142.064
X162.38Y-86.236
X164.82Y-142.064
X164.92Y-86.236
X167.36Y-142.064
X167.46Y-86.236
X169.9Y-142.064
X170.Y-86.236
X172.44Y-142.064
X172.54Y-86.236
X174.98Y-142.064
X175.08Y-86.236
X177.52Y-142.064
X177.62Y-86.236
T4
X98.85Y-96.5
X98.85Y-101.5
X98.85Y-106.5
X98.85Y-111.5
X98.85Y-116.5
X98.85Y-121.5
X98.85Y-126.5
X98.85Y-131.5
T5
X99.796Y-139.654
X100.05Y-89.87
X175.234Y-105.618
T0
M30
