%FSLAX34Y34*%
G04 Gerber Fmt 3.4, Leading zero omitted, Abs format*
G04 (created by PCBNEW (2014-jan-25)-product) date Wed 30 Apr 2014 08:12:59 PM MDT*
%MOIN*%
G01*
G70*
G90*
G04 APERTURE LIST*
%ADD10C,0.003937*%
%ADD11R,0.080000X0.060000*%
%ADD12R,0.062992X0.011811*%
%ADD13R,0.039400X0.035400*%
%ADD14R,0.035400X0.039400*%
G04 APERTURE END LIST*
G54D10*
G54D11*
X47623Y-48661D03*
X47623Y-49961D03*
X48989Y-49931D03*
X48989Y-48631D03*
G54D12*
X57106Y-47466D03*
X57106Y-47662D03*
X57106Y-47859D03*
X57106Y-48056D03*
X57106Y-48253D03*
X57106Y-48450D03*
X57106Y-48647D03*
X57106Y-48844D03*
X57106Y-49040D03*
X57106Y-49237D03*
X57106Y-49434D03*
X57106Y-49631D03*
X57106Y-49828D03*
X57106Y-50025D03*
X57106Y-50222D03*
X57106Y-50418D03*
X57106Y-50615D03*
X57106Y-50812D03*
X57106Y-51009D03*
X59311Y-51009D03*
X59311Y-50812D03*
X59311Y-50615D03*
X59311Y-50418D03*
X59311Y-50222D03*
X59311Y-50025D03*
X59311Y-49828D03*
X59311Y-49631D03*
X59311Y-49434D03*
X59311Y-49237D03*
X59311Y-49040D03*
X59311Y-48844D03*
X59311Y-48647D03*
X59311Y-48450D03*
X59311Y-48253D03*
X59311Y-48056D03*
X59311Y-47859D03*
X59311Y-47662D03*
X59311Y-47466D03*
X61673Y-42297D03*
X61673Y-42100D03*
X61673Y-41903D03*
X61673Y-41707D03*
X61673Y-41510D03*
X61673Y-41313D03*
X61673Y-41116D03*
X61673Y-40919D03*
X61673Y-40722D03*
X61673Y-40525D03*
X61673Y-40329D03*
X61673Y-40132D03*
X61673Y-39935D03*
X61673Y-39738D03*
X61673Y-39541D03*
X61673Y-39344D03*
X61673Y-39148D03*
X61673Y-38951D03*
X61673Y-38754D03*
X59468Y-38754D03*
X59468Y-38951D03*
X59468Y-39148D03*
X59468Y-39344D03*
X59468Y-39541D03*
X59468Y-39738D03*
X59468Y-39935D03*
X59468Y-40132D03*
X59468Y-40329D03*
X59468Y-40525D03*
X59468Y-40722D03*
X59468Y-40919D03*
X59468Y-41116D03*
X59468Y-41313D03*
X59468Y-41510D03*
X59468Y-41707D03*
X59468Y-41903D03*
X59468Y-42100D03*
X59468Y-42297D03*
G54D13*
X63425Y-42026D03*
X63425Y-42618D03*
G54D14*
X61062Y-47859D03*
X61654Y-47859D03*
X61062Y-48844D03*
X61654Y-48844D03*
X57815Y-42519D03*
X57223Y-42519D03*
M02*
