%FSLAX34Y34*%
G04 Gerber Fmt 3.4, Leading zero omitted, Abs format*
G04 (created by PCBNEW (2014-jan-25)-product) date Wed 30 Apr 2014 08:12:59 PM MDT*
%MOIN*%
G01*
G70*
G90*
G04 APERTURE LIST*
%ADD10C,0.003937*%
%ADD11C,0.039370*%
%ADD12R,0.068000X0.080000*%
%ADD13O,0.068000X0.080000*%
%ADD14R,0.080000X0.068000*%
%ADD15O,0.080000X0.068000*%
%ADD16C,0.098425*%
G04 APERTURE END LIST*
G54D10*
G54D11*
X51357Y-50053D03*
X50806Y-50053D03*
X50255Y-50053D03*
G54D12*
X69889Y-55930D03*
G54D13*
X68889Y-55930D03*
X67889Y-55930D03*
X66889Y-55930D03*
X65889Y-55930D03*
X64889Y-55930D03*
X63889Y-55930D03*
X62889Y-55930D03*
X61889Y-55930D03*
X60889Y-55930D03*
X59889Y-55930D03*
X58889Y-55930D03*
X57889Y-55930D03*
X56889Y-55930D03*
X55889Y-55930D03*
X54889Y-55930D03*
X53889Y-55930D03*
X52889Y-55930D03*
X51889Y-55930D03*
X50889Y-55930D03*
X49889Y-55930D03*
X48889Y-55930D03*
G54D12*
X48929Y-33951D03*
G54D13*
X49929Y-33951D03*
X50929Y-33951D03*
X51929Y-33951D03*
X52929Y-33951D03*
X53929Y-33951D03*
X54929Y-33951D03*
X55929Y-33951D03*
X56929Y-33951D03*
X57929Y-33951D03*
X58929Y-33951D03*
X59929Y-33951D03*
X60929Y-33951D03*
X61929Y-33951D03*
X62929Y-33951D03*
X63929Y-33951D03*
X64929Y-33951D03*
X65929Y-33951D03*
X66929Y-33951D03*
X67929Y-33951D03*
X68929Y-33951D03*
X69929Y-33951D03*
G54D14*
X44429Y-48381D03*
G54D15*
X44429Y-47381D03*
X44429Y-46381D03*
X44429Y-45381D03*
X44429Y-44381D03*
X44429Y-43381D03*
X44429Y-42381D03*
X44429Y-41381D03*
G54D16*
X38917Y-37992D03*
X38917Y-39960D03*
X38917Y-41929D03*
X38917Y-43897D03*
X38917Y-51771D03*
X38917Y-49803D03*
X38917Y-47834D03*
X38917Y-45866D03*
M02*
