%FSLAX34Y34*%
G04 Gerber Fmt 3.4, Leading zero omitted, Abs format*
G04 (created by PCBNEW (2014-jan-25)-product) date Wed 30 Apr 2014 08:12:59 PM MDT*
%MOIN*%
G01*
G70*
G90*
G04 APERTURE LIST*
%ADD10C,0.003937*%
%ADD11C,0.039370*%
%ADD12R,0.068000X0.080000*%
%ADD13O,0.068000X0.080000*%
%ADD14R,0.080000X0.068000*%
%ADD15O,0.080000X0.068000*%
%ADD16C,0.098425*%
%ADD17C,0.035000*%
%ADD18C,0.011811*%
%ADD19C,0.010000*%
G04 APERTURE END LIST*
G54D10*
G54D11*
X51357Y-50053D03*
X50806Y-50053D03*
X50255Y-50053D03*
G54D12*
X69889Y-55930D03*
G54D13*
X68889Y-55930D03*
X67889Y-55930D03*
X66889Y-55930D03*
X65889Y-55930D03*
X64889Y-55930D03*
X63889Y-55930D03*
X62889Y-55930D03*
X61889Y-55930D03*
X60889Y-55930D03*
X59889Y-55930D03*
X58889Y-55930D03*
X57889Y-55930D03*
X56889Y-55930D03*
X55889Y-55930D03*
X54889Y-55930D03*
X53889Y-55930D03*
X52889Y-55930D03*
X51889Y-55930D03*
X50889Y-55930D03*
X49889Y-55930D03*
X48889Y-55930D03*
G54D12*
X48929Y-33951D03*
G54D13*
X49929Y-33951D03*
X50929Y-33951D03*
X51929Y-33951D03*
X52929Y-33951D03*
X53929Y-33951D03*
X54929Y-33951D03*
X55929Y-33951D03*
X56929Y-33951D03*
X57929Y-33951D03*
X58929Y-33951D03*
X59929Y-33951D03*
X60929Y-33951D03*
X61929Y-33951D03*
X62929Y-33951D03*
X63929Y-33951D03*
X64929Y-33951D03*
X65929Y-33951D03*
X66929Y-33951D03*
X67929Y-33951D03*
X68929Y-33951D03*
X69929Y-33951D03*
G54D14*
X44429Y-48381D03*
G54D15*
X44429Y-47381D03*
X44429Y-46381D03*
X44429Y-45381D03*
X44429Y-44381D03*
X44429Y-43381D03*
X44429Y-42381D03*
X44429Y-41381D03*
G54D16*
X38917Y-37992D03*
X38917Y-39960D03*
X38917Y-41929D03*
X38917Y-43897D03*
X38917Y-51771D03*
X38917Y-49803D03*
X38917Y-47834D03*
X38917Y-45866D03*
G54D17*
X53976Y-42224D03*
X55157Y-43405D03*
X57716Y-45964D03*
X57789Y-47781D03*
X55157Y-41830D03*
X56043Y-42716D03*
X59980Y-46259D03*
X59989Y-48381D03*
X58208Y-46259D03*
X58189Y-47681D03*
X60374Y-41338D03*
X59192Y-51403D03*
X57027Y-51403D03*
X62342Y-48056D03*
X56732Y-42519D03*
X59488Y-38385D03*
X61653Y-38385D03*
X63129Y-40846D03*
X55649Y-49015D03*
X55846Y-47637D03*
X46791Y-49803D03*
X63425Y-43208D03*
X62389Y-42081D03*
X58110Y-43011D03*
X58602Y-43799D03*
X58602Y-44685D03*
X58602Y-47637D03*
X54271Y-48622D03*
X68838Y-52977D03*
X52696Y-41732D03*
X54763Y-43799D03*
X57322Y-46259D03*
X58189Y-48681D03*
X67854Y-51403D03*
X67066Y-50025D03*
X67066Y-52781D03*
X58503Y-42224D03*
X56043Y-39960D03*
X58503Y-42814D03*
X52289Y-39081D03*
X60177Y-42125D03*
X54074Y-39271D03*
X60570Y-41830D03*
X54370Y-38877D03*
X55789Y-45581D03*
X57689Y-43681D03*
G54D18*
X53976Y-42224D02*
X55157Y-43405D01*
X57716Y-45964D02*
X57789Y-46037D01*
X57789Y-46037D02*
X57789Y-46281D01*
X57789Y-47781D02*
X57789Y-46281D01*
X55157Y-41830D02*
X56043Y-42716D01*
X59980Y-46259D02*
X59989Y-46269D01*
X59989Y-46269D02*
X59989Y-46281D01*
X59989Y-47081D02*
X59989Y-46281D01*
X59989Y-48381D02*
X59989Y-47081D01*
X58208Y-46259D02*
X58189Y-46278D01*
X58189Y-46278D02*
X58189Y-46281D01*
X58189Y-47681D02*
X58189Y-46281D01*
X58110Y-43011D02*
X58602Y-43700D01*
X58602Y-43700D02*
X58602Y-43799D01*
X58602Y-45472D02*
X58602Y-47637D01*
X58602Y-44685D02*
X58602Y-45472D01*
X57421Y-45472D02*
X54271Y-48622D01*
X58602Y-45472D02*
X57421Y-45472D01*
X68889Y-53029D02*
X68838Y-52977D01*
X68889Y-55930D02*
X68889Y-53029D01*
X52696Y-41732D02*
X54763Y-43799D01*
X57322Y-46259D02*
X57300Y-46281D01*
X57300Y-46281D02*
X57289Y-46281D01*
X57289Y-47781D02*
X57289Y-46281D01*
X58189Y-48681D02*
X57289Y-47781D01*
X67854Y-51403D02*
X67889Y-51438D01*
X67889Y-51438D02*
X67889Y-55930D01*
X67066Y-50025D02*
X67066Y-52781D01*
X58503Y-42224D02*
X56240Y-39960D01*
X56240Y-39960D02*
X56043Y-39960D01*
X58503Y-42814D02*
X57224Y-41535D01*
X57224Y-41535D02*
X55649Y-41535D01*
X55649Y-41535D02*
X53089Y-39781D01*
X53089Y-39781D02*
X52289Y-39081D01*
X60177Y-42125D02*
X58799Y-40748D01*
X58799Y-40748D02*
X57618Y-40748D01*
X57618Y-40748D02*
X56141Y-39271D01*
X56141Y-39271D02*
X54074Y-39271D01*
X60570Y-41830D02*
X60472Y-41732D01*
X60472Y-41732D02*
X60275Y-41732D01*
X60275Y-41732D02*
X58996Y-40452D01*
X58996Y-40452D02*
X57716Y-40452D01*
X57716Y-40452D02*
X56141Y-38877D01*
X56141Y-38877D02*
X54370Y-38877D01*
X55789Y-45581D02*
X57689Y-43681D01*
G54D10*
G36*
X70734Y-56816D02*
X70513Y-56816D01*
X70513Y-34093D01*
X70457Y-34001D01*
X69979Y-34001D01*
X69979Y-34536D01*
X70070Y-34583D01*
X70076Y-34582D01*
X70284Y-34482D01*
X70437Y-34311D01*
X70513Y-34093D01*
X70513Y-56816D01*
X70479Y-56816D01*
X70479Y-56380D01*
X70479Y-56280D01*
X70479Y-55480D01*
X70441Y-55389D01*
X70371Y-55318D01*
X70279Y-55280D01*
X70180Y-55280D01*
X69830Y-55280D01*
X69830Y-41415D01*
X69702Y-41106D01*
X69466Y-40869D01*
X69157Y-40741D01*
X68823Y-40741D01*
X68514Y-40868D01*
X68277Y-41105D01*
X68149Y-41413D01*
X68149Y-41748D01*
X68276Y-42057D01*
X68513Y-42294D01*
X68821Y-42422D01*
X69156Y-42422D01*
X69465Y-42294D01*
X69701Y-42058D01*
X69830Y-41749D01*
X69830Y-41415D01*
X69830Y-55280D01*
X69500Y-55280D01*
X69408Y-55318D01*
X69337Y-55389D01*
X69312Y-55449D01*
X69306Y-55440D01*
X69198Y-55368D01*
X69198Y-53218D01*
X69263Y-53062D01*
X69263Y-52893D01*
X69199Y-52737D01*
X69079Y-52617D01*
X68923Y-52553D01*
X68754Y-52552D01*
X68598Y-52617D01*
X68478Y-52736D01*
X68413Y-52893D01*
X68413Y-53062D01*
X68478Y-53218D01*
X68580Y-53321D01*
X68580Y-55368D01*
X68472Y-55440D01*
X68389Y-55564D01*
X68306Y-55440D01*
X68198Y-55368D01*
X68198Y-51659D01*
X68214Y-51644D01*
X68279Y-51488D01*
X68279Y-51318D01*
X68214Y-51162D01*
X68095Y-51043D01*
X67939Y-50978D01*
X67770Y-50978D01*
X67613Y-51042D01*
X67494Y-51162D01*
X67429Y-51318D01*
X67429Y-51487D01*
X67493Y-51643D01*
X67580Y-51730D01*
X67580Y-55368D01*
X67492Y-55427D01*
X67492Y-52696D01*
X67427Y-52540D01*
X67375Y-52489D01*
X67375Y-50317D01*
X67427Y-50266D01*
X67491Y-50110D01*
X67492Y-49941D01*
X67427Y-49784D01*
X67307Y-49665D01*
X67151Y-49600D01*
X66982Y-49600D01*
X66826Y-49664D01*
X66706Y-49784D01*
X66642Y-49940D01*
X66641Y-50109D01*
X66706Y-50265D01*
X66757Y-50317D01*
X66757Y-52489D01*
X66706Y-52540D01*
X66642Y-52696D01*
X66641Y-52865D01*
X66706Y-53021D01*
X66825Y-53141D01*
X66982Y-53206D01*
X67151Y-53206D01*
X67307Y-53141D01*
X67427Y-53022D01*
X67491Y-52866D01*
X67492Y-52696D01*
X67492Y-55427D01*
X67472Y-55440D01*
X67389Y-55564D01*
X67306Y-55440D01*
X67115Y-55312D01*
X66889Y-55267D01*
X66663Y-55312D01*
X66472Y-55440D01*
X66389Y-55564D01*
X66306Y-55440D01*
X66115Y-55312D01*
X65889Y-55267D01*
X65663Y-55312D01*
X65472Y-55440D01*
X65389Y-55564D01*
X65306Y-55440D01*
X65115Y-55312D01*
X64889Y-55267D01*
X64663Y-55312D01*
X64472Y-55440D01*
X64389Y-55564D01*
X64306Y-55440D01*
X64115Y-55312D01*
X63889Y-55267D01*
X63663Y-55312D01*
X63472Y-55440D01*
X63389Y-55564D01*
X63306Y-55440D01*
X63115Y-55312D01*
X62889Y-55267D01*
X62663Y-55312D01*
X62472Y-55440D01*
X62389Y-55564D01*
X62306Y-55440D01*
X62115Y-55312D01*
X61889Y-55267D01*
X61663Y-55312D01*
X61472Y-55440D01*
X61389Y-55564D01*
X61306Y-55440D01*
X61115Y-55312D01*
X60995Y-55289D01*
X60995Y-41746D01*
X60931Y-41590D01*
X60811Y-41470D01*
X60655Y-41405D01*
X60486Y-41405D01*
X60444Y-41423D01*
X60403Y-41423D01*
X59214Y-40234D01*
X59114Y-40167D01*
X58996Y-40143D01*
X57844Y-40143D01*
X56360Y-38659D01*
X56260Y-38592D01*
X56141Y-38568D01*
X54662Y-38568D01*
X54611Y-38517D01*
X54454Y-38453D01*
X54285Y-38452D01*
X54129Y-38517D01*
X54009Y-38636D01*
X53945Y-38793D01*
X53945Y-38865D01*
X53834Y-38911D01*
X53714Y-39030D01*
X53649Y-39186D01*
X53649Y-39355D01*
X53714Y-39512D01*
X53833Y-39631D01*
X53989Y-39696D01*
X54158Y-39696D01*
X54315Y-39632D01*
X54366Y-39580D01*
X55849Y-39580D01*
X55802Y-39600D01*
X55683Y-39719D01*
X55618Y-39875D01*
X55618Y-40044D01*
X55682Y-40201D01*
X55802Y-40320D01*
X55958Y-40385D01*
X56127Y-40385D01*
X56198Y-40356D01*
X57068Y-41226D01*
X55745Y-41226D01*
X53279Y-39537D01*
X52714Y-39043D01*
X52714Y-38997D01*
X52650Y-38841D01*
X52530Y-38721D01*
X52374Y-38656D01*
X52205Y-38656D01*
X52049Y-38721D01*
X51929Y-38840D01*
X51864Y-38996D01*
X51864Y-39166D01*
X51929Y-39322D01*
X52048Y-39441D01*
X52204Y-39506D01*
X52306Y-39506D01*
X52886Y-40014D01*
X52902Y-40023D01*
X52915Y-40036D01*
X54973Y-41446D01*
X54917Y-41470D01*
X54797Y-41589D01*
X54732Y-41745D01*
X54732Y-41914D01*
X54796Y-42071D01*
X54916Y-42190D01*
X55072Y-42255D01*
X55145Y-42255D01*
X55618Y-42728D01*
X55618Y-42800D01*
X55682Y-42956D01*
X55802Y-43076D01*
X55958Y-43141D01*
X56127Y-43141D01*
X56283Y-43077D01*
X56403Y-42957D01*
X56468Y-42801D01*
X56468Y-42632D01*
X56403Y-42476D01*
X56284Y-42356D01*
X56128Y-42291D01*
X56055Y-42291D01*
X55601Y-41838D01*
X55618Y-41838D01*
X55649Y-41844D01*
X57096Y-41844D01*
X57893Y-42641D01*
X57869Y-42651D01*
X57750Y-42770D01*
X57685Y-42926D01*
X57685Y-43095D01*
X57749Y-43252D01*
X57754Y-43256D01*
X57605Y-43256D01*
X57449Y-43321D01*
X57329Y-43440D01*
X57264Y-43596D01*
X57264Y-43669D01*
X55777Y-45156D01*
X55705Y-45156D01*
X55582Y-45207D01*
X55582Y-43321D01*
X55517Y-43165D01*
X55398Y-43045D01*
X55242Y-42980D01*
X55169Y-42980D01*
X54401Y-42212D01*
X54401Y-42140D01*
X54336Y-41983D01*
X54217Y-41864D01*
X54061Y-41799D01*
X53892Y-41799D01*
X53735Y-41863D01*
X53616Y-41983D01*
X53551Y-42139D01*
X53551Y-42149D01*
X53121Y-41720D01*
X53121Y-41648D01*
X53057Y-41491D01*
X52937Y-41372D01*
X52781Y-41307D01*
X52612Y-41307D01*
X52456Y-41371D01*
X52336Y-41491D01*
X52271Y-41647D01*
X52271Y-41816D01*
X52336Y-41972D01*
X52455Y-42092D01*
X52611Y-42157D01*
X52684Y-42157D01*
X54338Y-43811D01*
X54338Y-43883D01*
X54403Y-44039D01*
X54522Y-44159D01*
X54678Y-44224D01*
X54847Y-44224D01*
X55004Y-44159D01*
X55123Y-44040D01*
X55188Y-43884D01*
X55188Y-43830D01*
X55241Y-43830D01*
X55397Y-43766D01*
X55517Y-43646D01*
X55582Y-43490D01*
X55582Y-43321D01*
X55582Y-45207D01*
X55549Y-45221D01*
X55429Y-45340D01*
X55364Y-45496D01*
X55364Y-45666D01*
X55429Y-45822D01*
X55548Y-45941D01*
X55704Y-46006D01*
X55873Y-46006D01*
X56030Y-45942D01*
X56149Y-45822D01*
X56214Y-45666D01*
X56214Y-45593D01*
X57701Y-44106D01*
X57773Y-44106D01*
X57930Y-44042D01*
X58049Y-43922D01*
X58114Y-43766D01*
X58114Y-43597D01*
X58068Y-43484D01*
X58197Y-43665D01*
X58177Y-43714D01*
X58177Y-43883D01*
X58241Y-44039D01*
X58361Y-44159D01*
X58517Y-44224D01*
X58686Y-44224D01*
X58842Y-44159D01*
X58962Y-44040D01*
X59027Y-43884D01*
X59027Y-43715D01*
X58962Y-43558D01*
X58843Y-43439D01*
X58774Y-43410D01*
X58638Y-43219D01*
X58744Y-43175D01*
X58864Y-43056D01*
X58928Y-42899D01*
X58929Y-42730D01*
X58864Y-42574D01*
X58809Y-42519D01*
X58864Y-42465D01*
X58928Y-42309D01*
X58929Y-42140D01*
X58864Y-41983D01*
X58744Y-41864D01*
X58588Y-41799D01*
X58516Y-41799D01*
X57773Y-41057D01*
X58671Y-41057D01*
X59752Y-42138D01*
X59752Y-42210D01*
X59816Y-42366D01*
X59936Y-42486D01*
X60092Y-42550D01*
X60261Y-42551D01*
X60417Y-42486D01*
X60537Y-42367D01*
X60583Y-42255D01*
X60655Y-42255D01*
X60811Y-42191D01*
X60930Y-42071D01*
X60995Y-41915D01*
X60995Y-41746D01*
X60995Y-55289D01*
X60889Y-55267D01*
X60663Y-55312D01*
X60472Y-55440D01*
X60414Y-55527D01*
X60414Y-48297D01*
X60350Y-48141D01*
X60298Y-48089D01*
X60298Y-47081D01*
X60298Y-46542D01*
X60340Y-46500D01*
X60405Y-46344D01*
X60405Y-46175D01*
X60340Y-46019D01*
X60221Y-45899D01*
X60065Y-45834D01*
X59896Y-45834D01*
X59739Y-45899D01*
X59620Y-46018D01*
X59555Y-46174D01*
X59555Y-46344D01*
X59619Y-46500D01*
X59680Y-46561D01*
X59680Y-47081D01*
X59680Y-48089D01*
X59629Y-48140D01*
X59564Y-48296D01*
X59564Y-48466D01*
X59629Y-48622D01*
X59748Y-48741D01*
X59904Y-48806D01*
X60073Y-48806D01*
X60230Y-48742D01*
X60349Y-48622D01*
X60414Y-48466D01*
X60414Y-48297D01*
X60414Y-55527D01*
X60389Y-55564D01*
X60306Y-55440D01*
X60115Y-55312D01*
X59889Y-55267D01*
X59663Y-55312D01*
X59472Y-55440D01*
X59389Y-55564D01*
X59306Y-55440D01*
X59115Y-55312D01*
X59027Y-55295D01*
X59027Y-47553D01*
X58962Y-47397D01*
X58911Y-47345D01*
X58911Y-45472D01*
X58911Y-44977D01*
X58962Y-44926D01*
X59027Y-44769D01*
X59027Y-44600D01*
X58962Y-44444D01*
X58843Y-44324D01*
X58687Y-44260D01*
X58518Y-44259D01*
X58361Y-44324D01*
X58242Y-44443D01*
X58177Y-44600D01*
X58177Y-44769D01*
X58241Y-44925D01*
X58293Y-44977D01*
X58293Y-45163D01*
X57421Y-45163D01*
X57302Y-45186D01*
X57202Y-45253D01*
X57202Y-45253D01*
X54259Y-48197D01*
X54187Y-48196D01*
X54031Y-48261D01*
X53911Y-48380D01*
X53846Y-48537D01*
X53846Y-48706D01*
X53911Y-48862D01*
X54030Y-48982D01*
X54186Y-49046D01*
X54355Y-49047D01*
X54512Y-48982D01*
X54631Y-48863D01*
X54696Y-48706D01*
X54696Y-48634D01*
X56923Y-46406D01*
X56962Y-46500D01*
X56980Y-46518D01*
X56980Y-47781D01*
X57004Y-47900D01*
X57071Y-48000D01*
X57764Y-48693D01*
X57764Y-48766D01*
X57829Y-48922D01*
X57948Y-49041D01*
X58104Y-49106D01*
X58273Y-49106D01*
X58430Y-49042D01*
X58549Y-48922D01*
X58614Y-48766D01*
X58614Y-48597D01*
X58550Y-48441D01*
X58430Y-48321D01*
X58274Y-48256D01*
X58201Y-48256D01*
X58058Y-48113D01*
X58077Y-48095D01*
X58104Y-48106D01*
X58273Y-48106D01*
X58430Y-48042D01*
X58441Y-48031D01*
X58517Y-48062D01*
X58686Y-48062D01*
X58842Y-47998D01*
X58962Y-47878D01*
X59027Y-47722D01*
X59027Y-47553D01*
X59027Y-55295D01*
X58889Y-55267D01*
X58663Y-55312D01*
X58472Y-55440D01*
X58389Y-55564D01*
X58306Y-55440D01*
X58115Y-55312D01*
X57889Y-55267D01*
X57663Y-55312D01*
X57472Y-55440D01*
X57389Y-55564D01*
X57306Y-55440D01*
X57115Y-55312D01*
X56889Y-55267D01*
X56663Y-55312D01*
X56472Y-55440D01*
X56389Y-55564D01*
X56306Y-55440D01*
X56115Y-55312D01*
X55889Y-55267D01*
X55663Y-55312D01*
X55472Y-55440D01*
X55389Y-55564D01*
X55306Y-55440D01*
X55115Y-55312D01*
X54889Y-55267D01*
X54663Y-55312D01*
X54472Y-55440D01*
X54389Y-55564D01*
X54306Y-55440D01*
X54115Y-55312D01*
X53889Y-55267D01*
X53663Y-55312D01*
X53472Y-55440D01*
X53389Y-55564D01*
X53306Y-55440D01*
X53115Y-55312D01*
X52889Y-55267D01*
X52663Y-55312D01*
X52472Y-55440D01*
X52389Y-55564D01*
X52306Y-55440D01*
X52115Y-55312D01*
X51889Y-55267D01*
X51804Y-55284D01*
X51804Y-49965D01*
X51736Y-49800D01*
X51610Y-49674D01*
X51446Y-49606D01*
X51268Y-49606D01*
X51104Y-49674D01*
X51081Y-49697D01*
X51059Y-49674D01*
X50895Y-49606D01*
X50717Y-49606D01*
X50553Y-49674D01*
X50493Y-49733D01*
X50480Y-49657D01*
X50312Y-49601D01*
X50134Y-49614D01*
X50029Y-49657D01*
X50014Y-49742D01*
X50255Y-49982D01*
X50260Y-49977D01*
X50331Y-50047D01*
X50325Y-50053D01*
X50331Y-50059D01*
X50260Y-50129D01*
X50255Y-50124D01*
X50184Y-50194D01*
X50184Y-50053D01*
X49944Y-49813D01*
X49859Y-49827D01*
X49803Y-49996D01*
X49815Y-50173D01*
X49859Y-50279D01*
X49944Y-50293D01*
X50184Y-50053D01*
X50184Y-50194D01*
X50014Y-50364D01*
X50029Y-50449D01*
X50198Y-50505D01*
X50375Y-50492D01*
X50480Y-50449D01*
X50493Y-50373D01*
X50552Y-50432D01*
X50717Y-50500D01*
X50894Y-50500D01*
X51059Y-50432D01*
X51081Y-50409D01*
X51104Y-50432D01*
X51268Y-50500D01*
X51445Y-50500D01*
X51610Y-50432D01*
X51736Y-50306D01*
X51804Y-50142D01*
X51804Y-49965D01*
X51804Y-55284D01*
X51663Y-55312D01*
X51472Y-55440D01*
X51389Y-55564D01*
X51306Y-55440D01*
X51115Y-55312D01*
X50889Y-55267D01*
X50663Y-55312D01*
X50472Y-55440D01*
X50389Y-55564D01*
X50306Y-55440D01*
X50115Y-55312D01*
X49889Y-55267D01*
X49663Y-55312D01*
X49472Y-55440D01*
X49391Y-55562D01*
X49244Y-55398D01*
X49037Y-55298D01*
X49031Y-55297D01*
X48939Y-55345D01*
X48939Y-55880D01*
X48947Y-55880D01*
X48947Y-55980D01*
X48939Y-55980D01*
X48939Y-56515D01*
X49031Y-56563D01*
X49037Y-56562D01*
X49244Y-56462D01*
X49391Y-56298D01*
X49472Y-56420D01*
X49663Y-56548D01*
X49889Y-56593D01*
X50115Y-56548D01*
X50306Y-56420D01*
X50389Y-56296D01*
X50472Y-56420D01*
X50663Y-56548D01*
X50889Y-56593D01*
X51115Y-56548D01*
X51306Y-56420D01*
X51389Y-56296D01*
X51472Y-56420D01*
X51663Y-56548D01*
X51889Y-56593D01*
X52115Y-56548D01*
X52306Y-56420D01*
X52389Y-56296D01*
X52472Y-56420D01*
X52663Y-56548D01*
X52889Y-56593D01*
X53115Y-56548D01*
X53306Y-56420D01*
X53389Y-56296D01*
X53472Y-56420D01*
X53663Y-56548D01*
X53889Y-56593D01*
X54115Y-56548D01*
X54306Y-56420D01*
X54389Y-56296D01*
X54472Y-56420D01*
X54663Y-56548D01*
X54889Y-56593D01*
X55115Y-56548D01*
X55306Y-56420D01*
X55389Y-56296D01*
X55472Y-56420D01*
X55663Y-56548D01*
X55889Y-56593D01*
X56115Y-56548D01*
X56306Y-56420D01*
X56389Y-56296D01*
X56472Y-56420D01*
X56663Y-56548D01*
X56889Y-56593D01*
X57115Y-56548D01*
X57306Y-56420D01*
X57389Y-56296D01*
X57472Y-56420D01*
X57663Y-56548D01*
X57889Y-56593D01*
X58115Y-56548D01*
X58306Y-56420D01*
X58389Y-56296D01*
X58472Y-56420D01*
X58663Y-56548D01*
X58889Y-56593D01*
X59115Y-56548D01*
X59306Y-56420D01*
X59389Y-56296D01*
X59472Y-56420D01*
X59663Y-56548D01*
X59889Y-56593D01*
X60115Y-56548D01*
X60306Y-56420D01*
X60389Y-56296D01*
X60472Y-56420D01*
X60663Y-56548D01*
X60889Y-56593D01*
X61115Y-56548D01*
X61306Y-56420D01*
X61389Y-56296D01*
X61472Y-56420D01*
X61663Y-56548D01*
X61889Y-56593D01*
X62115Y-56548D01*
X62306Y-56420D01*
X62389Y-56296D01*
X62472Y-56420D01*
X62663Y-56548D01*
X62889Y-56593D01*
X63115Y-56548D01*
X63306Y-56420D01*
X63389Y-56296D01*
X63472Y-56420D01*
X63663Y-56548D01*
X63889Y-56593D01*
X64115Y-56548D01*
X64306Y-56420D01*
X64389Y-56296D01*
X64472Y-56420D01*
X64663Y-56548D01*
X64889Y-56593D01*
X65115Y-56548D01*
X65306Y-56420D01*
X65389Y-56296D01*
X65472Y-56420D01*
X65663Y-56548D01*
X65889Y-56593D01*
X66115Y-56548D01*
X66306Y-56420D01*
X66389Y-56296D01*
X66472Y-56420D01*
X66663Y-56548D01*
X66889Y-56593D01*
X67115Y-56548D01*
X67306Y-56420D01*
X67389Y-56296D01*
X67472Y-56420D01*
X67663Y-56548D01*
X67889Y-56593D01*
X68115Y-56548D01*
X68306Y-56420D01*
X68389Y-56296D01*
X68472Y-56420D01*
X68663Y-56548D01*
X68889Y-56593D01*
X69115Y-56548D01*
X69306Y-56420D01*
X69312Y-56411D01*
X69337Y-56472D01*
X69408Y-56542D01*
X69500Y-56580D01*
X69599Y-56580D01*
X70279Y-56580D01*
X70371Y-56542D01*
X70441Y-56472D01*
X70479Y-56380D01*
X70479Y-56816D01*
X48839Y-56816D01*
X48839Y-56515D01*
X48839Y-55980D01*
X48839Y-55880D01*
X48839Y-55345D01*
X48748Y-55297D01*
X48742Y-55298D01*
X48534Y-55398D01*
X48381Y-55570D01*
X48305Y-55788D01*
X48361Y-55880D01*
X48839Y-55880D01*
X48839Y-55980D01*
X48361Y-55980D01*
X48305Y-56073D01*
X48381Y-56290D01*
X48534Y-56462D01*
X48742Y-56562D01*
X48748Y-56563D01*
X48839Y-56515D01*
X48839Y-56816D01*
X45091Y-56816D01*
X45091Y-47381D01*
X45091Y-45381D01*
X45046Y-45156D01*
X44919Y-44964D01*
X44795Y-44881D01*
X44919Y-44799D01*
X45046Y-44607D01*
X45091Y-44381D01*
X45046Y-44156D01*
X44919Y-43964D01*
X44795Y-43881D01*
X44919Y-43799D01*
X45046Y-43607D01*
X45091Y-43381D01*
X45046Y-43156D01*
X44919Y-42964D01*
X44795Y-42881D01*
X44919Y-42799D01*
X45046Y-42607D01*
X45091Y-42381D01*
X45046Y-42156D01*
X44919Y-41964D01*
X44795Y-41881D01*
X44919Y-41799D01*
X45046Y-41607D01*
X45091Y-41381D01*
X45046Y-41156D01*
X44919Y-40964D01*
X44727Y-40836D01*
X44501Y-40791D01*
X44356Y-40791D01*
X44130Y-40836D01*
X43939Y-40964D01*
X43811Y-41156D01*
X43766Y-41381D01*
X43811Y-41607D01*
X43939Y-41799D01*
X44063Y-41881D01*
X43939Y-41964D01*
X43811Y-42156D01*
X43766Y-42381D01*
X43811Y-42607D01*
X43939Y-42799D01*
X44063Y-42881D01*
X43939Y-42964D01*
X43811Y-43156D01*
X43766Y-43381D01*
X43811Y-43607D01*
X43939Y-43799D01*
X44063Y-43881D01*
X43939Y-43964D01*
X43811Y-44156D01*
X43766Y-44381D01*
X43811Y-44607D01*
X43939Y-44799D01*
X44063Y-44881D01*
X43939Y-44964D01*
X43811Y-45156D01*
X43766Y-45381D01*
X43811Y-45607D01*
X43939Y-45799D01*
X44061Y-45880D01*
X43897Y-46026D01*
X43797Y-46234D01*
X43796Y-46240D01*
X43844Y-46331D01*
X44379Y-46331D01*
X44379Y-46324D01*
X44479Y-46324D01*
X44479Y-46331D01*
X45014Y-46331D01*
X45061Y-46240D01*
X45060Y-46234D01*
X44960Y-46026D01*
X44797Y-45880D01*
X44919Y-45799D01*
X45046Y-45607D01*
X45091Y-45381D01*
X45091Y-47381D01*
X45046Y-47156D01*
X44919Y-46964D01*
X44797Y-46883D01*
X44960Y-46737D01*
X45060Y-46529D01*
X45061Y-46523D01*
X45014Y-46431D01*
X44479Y-46431D01*
X44479Y-46439D01*
X44379Y-46439D01*
X44379Y-46431D01*
X43844Y-46431D01*
X43796Y-46523D01*
X43797Y-46529D01*
X43897Y-46737D01*
X44061Y-46883D01*
X43939Y-46964D01*
X43811Y-47156D01*
X43766Y-47381D01*
X43811Y-47607D01*
X43939Y-47799D01*
X43947Y-47804D01*
X43887Y-47829D01*
X43817Y-47900D01*
X43779Y-47992D01*
X43779Y-48091D01*
X43779Y-48771D01*
X43817Y-48863D01*
X43887Y-48933D01*
X43979Y-48971D01*
X44078Y-48971D01*
X44878Y-48971D01*
X44970Y-48933D01*
X45041Y-48863D01*
X45079Y-48771D01*
X45079Y-48672D01*
X45079Y-47992D01*
X45041Y-47900D01*
X44970Y-47829D01*
X44910Y-47804D01*
X44919Y-47799D01*
X45046Y-47607D01*
X45091Y-47381D01*
X45091Y-56816D01*
X40230Y-56816D01*
X40230Y-35215D01*
X40102Y-34906D01*
X39866Y-34669D01*
X39557Y-34541D01*
X39223Y-34541D01*
X38914Y-34668D01*
X38677Y-34905D01*
X38549Y-35213D01*
X38549Y-35548D01*
X38676Y-35857D01*
X38913Y-36094D01*
X39221Y-36222D01*
X39556Y-36222D01*
X39865Y-36094D01*
X40101Y-35858D01*
X40230Y-35549D01*
X40230Y-35215D01*
X40230Y-56816D01*
X40130Y-56816D01*
X40130Y-54815D01*
X40002Y-54506D01*
X39766Y-54269D01*
X39663Y-54226D01*
X39663Y-47962D01*
X39659Y-47829D01*
X39659Y-45719D01*
X39659Y-43750D01*
X39659Y-41782D01*
X39659Y-39813D01*
X39659Y-37845D01*
X39546Y-37572D01*
X39338Y-37363D01*
X39065Y-37250D01*
X38770Y-37249D01*
X38497Y-37362D01*
X38288Y-37571D01*
X38175Y-37843D01*
X38175Y-38139D01*
X38287Y-38411D01*
X38496Y-38620D01*
X38769Y-38734D01*
X39064Y-38734D01*
X39337Y-38621D01*
X39546Y-38413D01*
X39659Y-38140D01*
X39659Y-37845D01*
X39659Y-39813D01*
X39546Y-39540D01*
X39338Y-39331D01*
X39065Y-39218D01*
X38770Y-39218D01*
X38497Y-39331D01*
X38288Y-39539D01*
X38175Y-39812D01*
X38175Y-40107D01*
X38287Y-40380D01*
X38496Y-40589D01*
X38769Y-40702D01*
X39064Y-40702D01*
X39337Y-40590D01*
X39546Y-40381D01*
X39659Y-40108D01*
X39659Y-39813D01*
X39659Y-41782D01*
X39546Y-41509D01*
X39338Y-41300D01*
X39065Y-41187D01*
X38770Y-41186D01*
X38497Y-41299D01*
X38288Y-41508D01*
X38175Y-41780D01*
X38175Y-42076D01*
X38287Y-42348D01*
X38496Y-42557D01*
X38769Y-42671D01*
X39064Y-42671D01*
X39337Y-42558D01*
X39546Y-42350D01*
X39659Y-42077D01*
X39659Y-41782D01*
X39659Y-43750D01*
X39546Y-43477D01*
X39338Y-43268D01*
X39065Y-43155D01*
X38770Y-43155D01*
X38497Y-43268D01*
X38288Y-43476D01*
X38175Y-43749D01*
X38175Y-44044D01*
X38287Y-44317D01*
X38496Y-44526D01*
X38769Y-44639D01*
X39064Y-44639D01*
X39337Y-44527D01*
X39546Y-44318D01*
X39659Y-44045D01*
X39659Y-43750D01*
X39659Y-45719D01*
X39546Y-45446D01*
X39338Y-45237D01*
X39065Y-45124D01*
X38770Y-45123D01*
X38497Y-45236D01*
X38288Y-45445D01*
X38175Y-45717D01*
X38175Y-46013D01*
X38287Y-46285D01*
X38496Y-46494D01*
X38769Y-46608D01*
X39064Y-46608D01*
X39337Y-46495D01*
X39546Y-46287D01*
X39659Y-46014D01*
X39659Y-45719D01*
X39659Y-47829D01*
X39655Y-47667D01*
X39557Y-47431D01*
X39442Y-47380D01*
X39371Y-47451D01*
X39371Y-47309D01*
X39320Y-47194D01*
X39044Y-47088D01*
X38749Y-47096D01*
X38513Y-47194D01*
X38463Y-47309D01*
X38917Y-47763D01*
X39371Y-47309D01*
X39371Y-47451D01*
X38988Y-47834D01*
X39442Y-48288D01*
X39557Y-48237D01*
X39663Y-47962D01*
X39663Y-54226D01*
X39659Y-54225D01*
X39659Y-51624D01*
X39659Y-49656D01*
X39546Y-49383D01*
X39371Y-49207D01*
X39371Y-48359D01*
X38917Y-47905D01*
X38846Y-47976D01*
X38846Y-47834D01*
X38392Y-47380D01*
X38277Y-47431D01*
X38171Y-47707D01*
X38179Y-48002D01*
X38277Y-48237D01*
X38392Y-48288D01*
X38846Y-47834D01*
X38846Y-47976D01*
X38463Y-48359D01*
X38513Y-48474D01*
X38789Y-48580D01*
X39084Y-48572D01*
X39320Y-48474D01*
X39371Y-48359D01*
X39371Y-49207D01*
X39338Y-49174D01*
X39065Y-49061D01*
X38770Y-49060D01*
X38497Y-49173D01*
X38288Y-49382D01*
X38175Y-49654D01*
X38175Y-49950D01*
X38287Y-50222D01*
X38496Y-50431D01*
X38769Y-50545D01*
X39064Y-50545D01*
X39337Y-50432D01*
X39546Y-50224D01*
X39659Y-49951D01*
X39659Y-49656D01*
X39659Y-51624D01*
X39546Y-51351D01*
X39338Y-51142D01*
X39065Y-51029D01*
X38770Y-51029D01*
X38497Y-51142D01*
X38288Y-51350D01*
X38175Y-51623D01*
X38175Y-51918D01*
X38287Y-52191D01*
X38496Y-52400D01*
X38769Y-52513D01*
X39064Y-52513D01*
X39337Y-52401D01*
X39546Y-52192D01*
X39659Y-51919D01*
X39659Y-51624D01*
X39659Y-54225D01*
X39457Y-54141D01*
X39123Y-54141D01*
X38814Y-54268D01*
X38577Y-54505D01*
X38449Y-54813D01*
X38449Y-55148D01*
X38576Y-55457D01*
X38813Y-55694D01*
X39121Y-55822D01*
X39456Y-55822D01*
X39765Y-55694D01*
X40001Y-55458D01*
X40130Y-55149D01*
X40130Y-54815D01*
X40130Y-56816D01*
X37218Y-56816D01*
X37218Y-36318D01*
X37218Y-34055D01*
X37218Y-33438D01*
X48365Y-33438D01*
X48339Y-33501D01*
X48339Y-33600D01*
X48339Y-34400D01*
X48377Y-34492D01*
X48447Y-34563D01*
X48539Y-34601D01*
X48638Y-34601D01*
X49318Y-34601D01*
X49410Y-34563D01*
X49481Y-34492D01*
X49506Y-34432D01*
X49511Y-34441D01*
X49703Y-34569D01*
X49929Y-34613D01*
X50154Y-34569D01*
X50346Y-34441D01*
X50429Y-34317D01*
X50511Y-34441D01*
X50703Y-34569D01*
X50929Y-34613D01*
X51154Y-34569D01*
X51346Y-34441D01*
X51429Y-34317D01*
X51511Y-34441D01*
X51703Y-34569D01*
X51929Y-34613D01*
X52154Y-34569D01*
X52346Y-34441D01*
X52429Y-34317D01*
X52511Y-34441D01*
X52703Y-34569D01*
X52929Y-34613D01*
X53154Y-34569D01*
X53346Y-34441D01*
X53429Y-34317D01*
X53511Y-34441D01*
X53703Y-34569D01*
X53929Y-34613D01*
X54154Y-34569D01*
X54346Y-34441D01*
X54429Y-34317D01*
X54511Y-34441D01*
X54703Y-34569D01*
X54929Y-34613D01*
X55154Y-34569D01*
X55346Y-34441D01*
X55429Y-34317D01*
X55511Y-34441D01*
X55703Y-34569D01*
X55929Y-34613D01*
X56154Y-34569D01*
X56346Y-34441D01*
X56429Y-34317D01*
X56511Y-34441D01*
X56703Y-34569D01*
X56929Y-34613D01*
X57154Y-34569D01*
X57346Y-34441D01*
X57429Y-34317D01*
X57511Y-34441D01*
X57703Y-34569D01*
X57929Y-34613D01*
X58154Y-34569D01*
X58346Y-34441D01*
X58429Y-34317D01*
X58511Y-34441D01*
X58703Y-34569D01*
X58929Y-34613D01*
X59154Y-34569D01*
X59346Y-34441D01*
X59429Y-34317D01*
X59511Y-34441D01*
X59703Y-34569D01*
X59929Y-34613D01*
X60154Y-34569D01*
X60346Y-34441D01*
X60429Y-34317D01*
X60511Y-34441D01*
X60703Y-34569D01*
X60929Y-34613D01*
X61154Y-34569D01*
X61346Y-34441D01*
X61429Y-34317D01*
X61511Y-34441D01*
X61703Y-34569D01*
X61929Y-34613D01*
X62154Y-34569D01*
X62346Y-34441D01*
X62429Y-34317D01*
X62511Y-34441D01*
X62703Y-34569D01*
X62929Y-34613D01*
X63154Y-34569D01*
X63346Y-34441D01*
X63429Y-34317D01*
X63511Y-34441D01*
X63703Y-34569D01*
X63929Y-34613D01*
X64154Y-34569D01*
X64346Y-34441D01*
X64429Y-34317D01*
X64511Y-34441D01*
X64703Y-34569D01*
X64929Y-34613D01*
X65154Y-34569D01*
X65346Y-34441D01*
X65429Y-34317D01*
X65511Y-34441D01*
X65703Y-34569D01*
X65929Y-34613D01*
X66154Y-34569D01*
X66346Y-34441D01*
X66429Y-34317D01*
X66511Y-34441D01*
X66703Y-34569D01*
X66929Y-34613D01*
X67154Y-34569D01*
X67346Y-34441D01*
X67429Y-34317D01*
X67511Y-34441D01*
X67703Y-34569D01*
X67929Y-34613D01*
X68154Y-34569D01*
X68346Y-34441D01*
X68429Y-34317D01*
X68511Y-34441D01*
X68703Y-34569D01*
X68929Y-34613D01*
X69154Y-34569D01*
X69346Y-34441D01*
X69427Y-34319D01*
X69574Y-34482D01*
X69781Y-34582D01*
X69787Y-34583D01*
X69879Y-34536D01*
X69879Y-34001D01*
X69871Y-34001D01*
X69871Y-33901D01*
X69879Y-33901D01*
X69879Y-33893D01*
X69979Y-33893D01*
X69979Y-33901D01*
X70457Y-33901D01*
X70513Y-33808D01*
X70437Y-33591D01*
X70301Y-33438D01*
X70734Y-33438D01*
X70734Y-43602D01*
X70734Y-56816D01*
X70734Y-56816D01*
G37*
G54D19*
X70734Y-56816D02*
X70513Y-56816D01*
X70513Y-34093D01*
X70457Y-34001D01*
X69979Y-34001D01*
X69979Y-34536D01*
X70070Y-34583D01*
X70076Y-34582D01*
X70284Y-34482D01*
X70437Y-34311D01*
X70513Y-34093D01*
X70513Y-56816D01*
X70479Y-56816D01*
X70479Y-56380D01*
X70479Y-56280D01*
X70479Y-55480D01*
X70441Y-55389D01*
X70371Y-55318D01*
X70279Y-55280D01*
X70180Y-55280D01*
X69830Y-55280D01*
X69830Y-41415D01*
X69702Y-41106D01*
X69466Y-40869D01*
X69157Y-40741D01*
X68823Y-40741D01*
X68514Y-40868D01*
X68277Y-41105D01*
X68149Y-41413D01*
X68149Y-41748D01*
X68276Y-42057D01*
X68513Y-42294D01*
X68821Y-42422D01*
X69156Y-42422D01*
X69465Y-42294D01*
X69701Y-42058D01*
X69830Y-41749D01*
X69830Y-41415D01*
X69830Y-55280D01*
X69500Y-55280D01*
X69408Y-55318D01*
X69337Y-55389D01*
X69312Y-55449D01*
X69306Y-55440D01*
X69198Y-55368D01*
X69198Y-53218D01*
X69263Y-53062D01*
X69263Y-52893D01*
X69199Y-52737D01*
X69079Y-52617D01*
X68923Y-52553D01*
X68754Y-52552D01*
X68598Y-52617D01*
X68478Y-52736D01*
X68413Y-52893D01*
X68413Y-53062D01*
X68478Y-53218D01*
X68580Y-53321D01*
X68580Y-55368D01*
X68472Y-55440D01*
X68389Y-55564D01*
X68306Y-55440D01*
X68198Y-55368D01*
X68198Y-51659D01*
X68214Y-51644D01*
X68279Y-51488D01*
X68279Y-51318D01*
X68214Y-51162D01*
X68095Y-51043D01*
X67939Y-50978D01*
X67770Y-50978D01*
X67613Y-51042D01*
X67494Y-51162D01*
X67429Y-51318D01*
X67429Y-51487D01*
X67493Y-51643D01*
X67580Y-51730D01*
X67580Y-55368D01*
X67492Y-55427D01*
X67492Y-52696D01*
X67427Y-52540D01*
X67375Y-52489D01*
X67375Y-50317D01*
X67427Y-50266D01*
X67491Y-50110D01*
X67492Y-49941D01*
X67427Y-49784D01*
X67307Y-49665D01*
X67151Y-49600D01*
X66982Y-49600D01*
X66826Y-49664D01*
X66706Y-49784D01*
X66642Y-49940D01*
X66641Y-50109D01*
X66706Y-50265D01*
X66757Y-50317D01*
X66757Y-52489D01*
X66706Y-52540D01*
X66642Y-52696D01*
X66641Y-52865D01*
X66706Y-53021D01*
X66825Y-53141D01*
X66982Y-53206D01*
X67151Y-53206D01*
X67307Y-53141D01*
X67427Y-53022D01*
X67491Y-52866D01*
X67492Y-52696D01*
X67492Y-55427D01*
X67472Y-55440D01*
X67389Y-55564D01*
X67306Y-55440D01*
X67115Y-55312D01*
X66889Y-55267D01*
X66663Y-55312D01*
X66472Y-55440D01*
X66389Y-55564D01*
X66306Y-55440D01*
X66115Y-55312D01*
X65889Y-55267D01*
X65663Y-55312D01*
X65472Y-55440D01*
X65389Y-55564D01*
X65306Y-55440D01*
X65115Y-55312D01*
X64889Y-55267D01*
X64663Y-55312D01*
X64472Y-55440D01*
X64389Y-55564D01*
X64306Y-55440D01*
X64115Y-55312D01*
X63889Y-55267D01*
X63663Y-55312D01*
X63472Y-55440D01*
X63389Y-55564D01*
X63306Y-55440D01*
X63115Y-55312D01*
X62889Y-55267D01*
X62663Y-55312D01*
X62472Y-55440D01*
X62389Y-55564D01*
X62306Y-55440D01*
X62115Y-55312D01*
X61889Y-55267D01*
X61663Y-55312D01*
X61472Y-55440D01*
X61389Y-55564D01*
X61306Y-55440D01*
X61115Y-55312D01*
X60995Y-55289D01*
X60995Y-41746D01*
X60931Y-41590D01*
X60811Y-41470D01*
X60655Y-41405D01*
X60486Y-41405D01*
X60444Y-41423D01*
X60403Y-41423D01*
X59214Y-40234D01*
X59114Y-40167D01*
X58996Y-40143D01*
X57844Y-40143D01*
X56360Y-38659D01*
X56260Y-38592D01*
X56141Y-38568D01*
X54662Y-38568D01*
X54611Y-38517D01*
X54454Y-38453D01*
X54285Y-38452D01*
X54129Y-38517D01*
X54009Y-38636D01*
X53945Y-38793D01*
X53945Y-38865D01*
X53834Y-38911D01*
X53714Y-39030D01*
X53649Y-39186D01*
X53649Y-39355D01*
X53714Y-39512D01*
X53833Y-39631D01*
X53989Y-39696D01*
X54158Y-39696D01*
X54315Y-39632D01*
X54366Y-39580D01*
X55849Y-39580D01*
X55802Y-39600D01*
X55683Y-39719D01*
X55618Y-39875D01*
X55618Y-40044D01*
X55682Y-40201D01*
X55802Y-40320D01*
X55958Y-40385D01*
X56127Y-40385D01*
X56198Y-40356D01*
X57068Y-41226D01*
X55745Y-41226D01*
X53279Y-39537D01*
X52714Y-39043D01*
X52714Y-38997D01*
X52650Y-38841D01*
X52530Y-38721D01*
X52374Y-38656D01*
X52205Y-38656D01*
X52049Y-38721D01*
X51929Y-38840D01*
X51864Y-38996D01*
X51864Y-39166D01*
X51929Y-39322D01*
X52048Y-39441D01*
X52204Y-39506D01*
X52306Y-39506D01*
X52886Y-40014D01*
X52902Y-40023D01*
X52915Y-40036D01*
X54973Y-41446D01*
X54917Y-41470D01*
X54797Y-41589D01*
X54732Y-41745D01*
X54732Y-41914D01*
X54796Y-42071D01*
X54916Y-42190D01*
X55072Y-42255D01*
X55145Y-42255D01*
X55618Y-42728D01*
X55618Y-42800D01*
X55682Y-42956D01*
X55802Y-43076D01*
X55958Y-43141D01*
X56127Y-43141D01*
X56283Y-43077D01*
X56403Y-42957D01*
X56468Y-42801D01*
X56468Y-42632D01*
X56403Y-42476D01*
X56284Y-42356D01*
X56128Y-42291D01*
X56055Y-42291D01*
X55601Y-41838D01*
X55618Y-41838D01*
X55649Y-41844D01*
X57096Y-41844D01*
X57893Y-42641D01*
X57869Y-42651D01*
X57750Y-42770D01*
X57685Y-42926D01*
X57685Y-43095D01*
X57749Y-43252D01*
X57754Y-43256D01*
X57605Y-43256D01*
X57449Y-43321D01*
X57329Y-43440D01*
X57264Y-43596D01*
X57264Y-43669D01*
X55777Y-45156D01*
X55705Y-45156D01*
X55582Y-45207D01*
X55582Y-43321D01*
X55517Y-43165D01*
X55398Y-43045D01*
X55242Y-42980D01*
X55169Y-42980D01*
X54401Y-42212D01*
X54401Y-42140D01*
X54336Y-41983D01*
X54217Y-41864D01*
X54061Y-41799D01*
X53892Y-41799D01*
X53735Y-41863D01*
X53616Y-41983D01*
X53551Y-42139D01*
X53551Y-42149D01*
X53121Y-41720D01*
X53121Y-41648D01*
X53057Y-41491D01*
X52937Y-41372D01*
X52781Y-41307D01*
X52612Y-41307D01*
X52456Y-41371D01*
X52336Y-41491D01*
X52271Y-41647D01*
X52271Y-41816D01*
X52336Y-41972D01*
X52455Y-42092D01*
X52611Y-42157D01*
X52684Y-42157D01*
X54338Y-43811D01*
X54338Y-43883D01*
X54403Y-44039D01*
X54522Y-44159D01*
X54678Y-44224D01*
X54847Y-44224D01*
X55004Y-44159D01*
X55123Y-44040D01*
X55188Y-43884D01*
X55188Y-43830D01*
X55241Y-43830D01*
X55397Y-43766D01*
X55517Y-43646D01*
X55582Y-43490D01*
X55582Y-43321D01*
X55582Y-45207D01*
X55549Y-45221D01*
X55429Y-45340D01*
X55364Y-45496D01*
X55364Y-45666D01*
X55429Y-45822D01*
X55548Y-45941D01*
X55704Y-46006D01*
X55873Y-46006D01*
X56030Y-45942D01*
X56149Y-45822D01*
X56214Y-45666D01*
X56214Y-45593D01*
X57701Y-44106D01*
X57773Y-44106D01*
X57930Y-44042D01*
X58049Y-43922D01*
X58114Y-43766D01*
X58114Y-43597D01*
X58068Y-43484D01*
X58197Y-43665D01*
X58177Y-43714D01*
X58177Y-43883D01*
X58241Y-44039D01*
X58361Y-44159D01*
X58517Y-44224D01*
X58686Y-44224D01*
X58842Y-44159D01*
X58962Y-44040D01*
X59027Y-43884D01*
X59027Y-43715D01*
X58962Y-43558D01*
X58843Y-43439D01*
X58774Y-43410D01*
X58638Y-43219D01*
X58744Y-43175D01*
X58864Y-43056D01*
X58928Y-42899D01*
X58929Y-42730D01*
X58864Y-42574D01*
X58809Y-42519D01*
X58864Y-42465D01*
X58928Y-42309D01*
X58929Y-42140D01*
X58864Y-41983D01*
X58744Y-41864D01*
X58588Y-41799D01*
X58516Y-41799D01*
X57773Y-41057D01*
X58671Y-41057D01*
X59752Y-42138D01*
X59752Y-42210D01*
X59816Y-42366D01*
X59936Y-42486D01*
X60092Y-42550D01*
X60261Y-42551D01*
X60417Y-42486D01*
X60537Y-42367D01*
X60583Y-42255D01*
X60655Y-42255D01*
X60811Y-42191D01*
X60930Y-42071D01*
X60995Y-41915D01*
X60995Y-41746D01*
X60995Y-55289D01*
X60889Y-55267D01*
X60663Y-55312D01*
X60472Y-55440D01*
X60414Y-55527D01*
X60414Y-48297D01*
X60350Y-48141D01*
X60298Y-48089D01*
X60298Y-47081D01*
X60298Y-46542D01*
X60340Y-46500D01*
X60405Y-46344D01*
X60405Y-46175D01*
X60340Y-46019D01*
X60221Y-45899D01*
X60065Y-45834D01*
X59896Y-45834D01*
X59739Y-45899D01*
X59620Y-46018D01*
X59555Y-46174D01*
X59555Y-46344D01*
X59619Y-46500D01*
X59680Y-46561D01*
X59680Y-47081D01*
X59680Y-48089D01*
X59629Y-48140D01*
X59564Y-48296D01*
X59564Y-48466D01*
X59629Y-48622D01*
X59748Y-48741D01*
X59904Y-48806D01*
X60073Y-48806D01*
X60230Y-48742D01*
X60349Y-48622D01*
X60414Y-48466D01*
X60414Y-48297D01*
X60414Y-55527D01*
X60389Y-55564D01*
X60306Y-55440D01*
X60115Y-55312D01*
X59889Y-55267D01*
X59663Y-55312D01*
X59472Y-55440D01*
X59389Y-55564D01*
X59306Y-55440D01*
X59115Y-55312D01*
X59027Y-55295D01*
X59027Y-47553D01*
X58962Y-47397D01*
X58911Y-47345D01*
X58911Y-45472D01*
X58911Y-44977D01*
X58962Y-44926D01*
X59027Y-44769D01*
X59027Y-44600D01*
X58962Y-44444D01*
X58843Y-44324D01*
X58687Y-44260D01*
X58518Y-44259D01*
X58361Y-44324D01*
X58242Y-44443D01*
X58177Y-44600D01*
X58177Y-44769D01*
X58241Y-44925D01*
X58293Y-44977D01*
X58293Y-45163D01*
X57421Y-45163D01*
X57302Y-45186D01*
X57202Y-45253D01*
X57202Y-45253D01*
X54259Y-48197D01*
X54187Y-48196D01*
X54031Y-48261D01*
X53911Y-48380D01*
X53846Y-48537D01*
X53846Y-48706D01*
X53911Y-48862D01*
X54030Y-48982D01*
X54186Y-49046D01*
X54355Y-49047D01*
X54512Y-48982D01*
X54631Y-48863D01*
X54696Y-48706D01*
X54696Y-48634D01*
X56923Y-46406D01*
X56962Y-46500D01*
X56980Y-46518D01*
X56980Y-47781D01*
X57004Y-47900D01*
X57071Y-48000D01*
X57764Y-48693D01*
X57764Y-48766D01*
X57829Y-48922D01*
X57948Y-49041D01*
X58104Y-49106D01*
X58273Y-49106D01*
X58430Y-49042D01*
X58549Y-48922D01*
X58614Y-48766D01*
X58614Y-48597D01*
X58550Y-48441D01*
X58430Y-48321D01*
X58274Y-48256D01*
X58201Y-48256D01*
X58058Y-48113D01*
X58077Y-48095D01*
X58104Y-48106D01*
X58273Y-48106D01*
X58430Y-48042D01*
X58441Y-48031D01*
X58517Y-48062D01*
X58686Y-48062D01*
X58842Y-47998D01*
X58962Y-47878D01*
X59027Y-47722D01*
X59027Y-47553D01*
X59027Y-55295D01*
X58889Y-55267D01*
X58663Y-55312D01*
X58472Y-55440D01*
X58389Y-55564D01*
X58306Y-55440D01*
X58115Y-55312D01*
X57889Y-55267D01*
X57663Y-55312D01*
X57472Y-55440D01*
X57389Y-55564D01*
X57306Y-55440D01*
X57115Y-55312D01*
X56889Y-55267D01*
X56663Y-55312D01*
X56472Y-55440D01*
X56389Y-55564D01*
X56306Y-55440D01*
X56115Y-55312D01*
X55889Y-55267D01*
X55663Y-55312D01*
X55472Y-55440D01*
X55389Y-55564D01*
X55306Y-55440D01*
X55115Y-55312D01*
X54889Y-55267D01*
X54663Y-55312D01*
X54472Y-55440D01*
X54389Y-55564D01*
X54306Y-55440D01*
X54115Y-55312D01*
X53889Y-55267D01*
X53663Y-55312D01*
X53472Y-55440D01*
X53389Y-55564D01*
X53306Y-55440D01*
X53115Y-55312D01*
X52889Y-55267D01*
X52663Y-55312D01*
X52472Y-55440D01*
X52389Y-55564D01*
X52306Y-55440D01*
X52115Y-55312D01*
X51889Y-55267D01*
X51804Y-55284D01*
X51804Y-49965D01*
X51736Y-49800D01*
X51610Y-49674D01*
X51446Y-49606D01*
X51268Y-49606D01*
X51104Y-49674D01*
X51081Y-49697D01*
X51059Y-49674D01*
X50895Y-49606D01*
X50717Y-49606D01*
X50553Y-49674D01*
X50493Y-49733D01*
X50480Y-49657D01*
X50312Y-49601D01*
X50134Y-49614D01*
X50029Y-49657D01*
X50014Y-49742D01*
X50255Y-49982D01*
X50260Y-49977D01*
X50331Y-50047D01*
X50325Y-50053D01*
X50331Y-50059D01*
X50260Y-50129D01*
X50255Y-50124D01*
X50184Y-50194D01*
X50184Y-50053D01*
X49944Y-49813D01*
X49859Y-49827D01*
X49803Y-49996D01*
X49815Y-50173D01*
X49859Y-50279D01*
X49944Y-50293D01*
X50184Y-50053D01*
X50184Y-50194D01*
X50014Y-50364D01*
X50029Y-50449D01*
X50198Y-50505D01*
X50375Y-50492D01*
X50480Y-50449D01*
X50493Y-50373D01*
X50552Y-50432D01*
X50717Y-50500D01*
X50894Y-50500D01*
X51059Y-50432D01*
X51081Y-50409D01*
X51104Y-50432D01*
X51268Y-50500D01*
X51445Y-50500D01*
X51610Y-50432D01*
X51736Y-50306D01*
X51804Y-50142D01*
X51804Y-49965D01*
X51804Y-55284D01*
X51663Y-55312D01*
X51472Y-55440D01*
X51389Y-55564D01*
X51306Y-55440D01*
X51115Y-55312D01*
X50889Y-55267D01*
X50663Y-55312D01*
X50472Y-55440D01*
X50389Y-55564D01*
X50306Y-55440D01*
X50115Y-55312D01*
X49889Y-55267D01*
X49663Y-55312D01*
X49472Y-55440D01*
X49391Y-55562D01*
X49244Y-55398D01*
X49037Y-55298D01*
X49031Y-55297D01*
X48939Y-55345D01*
X48939Y-55880D01*
X48947Y-55880D01*
X48947Y-55980D01*
X48939Y-55980D01*
X48939Y-56515D01*
X49031Y-56563D01*
X49037Y-56562D01*
X49244Y-56462D01*
X49391Y-56298D01*
X49472Y-56420D01*
X49663Y-56548D01*
X49889Y-56593D01*
X50115Y-56548D01*
X50306Y-56420D01*
X50389Y-56296D01*
X50472Y-56420D01*
X50663Y-56548D01*
X50889Y-56593D01*
X51115Y-56548D01*
X51306Y-56420D01*
X51389Y-56296D01*
X51472Y-56420D01*
X51663Y-56548D01*
X51889Y-56593D01*
X52115Y-56548D01*
X52306Y-56420D01*
X52389Y-56296D01*
X52472Y-56420D01*
X52663Y-56548D01*
X52889Y-56593D01*
X53115Y-56548D01*
X53306Y-56420D01*
X53389Y-56296D01*
X53472Y-56420D01*
X53663Y-56548D01*
X53889Y-56593D01*
X54115Y-56548D01*
X54306Y-56420D01*
X54389Y-56296D01*
X54472Y-56420D01*
X54663Y-56548D01*
X54889Y-56593D01*
X55115Y-56548D01*
X55306Y-56420D01*
X55389Y-56296D01*
X55472Y-56420D01*
X55663Y-56548D01*
X55889Y-56593D01*
X56115Y-56548D01*
X56306Y-56420D01*
X56389Y-56296D01*
X56472Y-56420D01*
X56663Y-56548D01*
X56889Y-56593D01*
X57115Y-56548D01*
X57306Y-56420D01*
X57389Y-56296D01*
X57472Y-56420D01*
X57663Y-56548D01*
X57889Y-56593D01*
X58115Y-56548D01*
X58306Y-56420D01*
X58389Y-56296D01*
X58472Y-56420D01*
X58663Y-56548D01*
X58889Y-56593D01*
X59115Y-56548D01*
X59306Y-56420D01*
X59389Y-56296D01*
X59472Y-56420D01*
X59663Y-56548D01*
X59889Y-56593D01*
X60115Y-56548D01*
X60306Y-56420D01*
X60389Y-56296D01*
X60472Y-56420D01*
X60663Y-56548D01*
X60889Y-56593D01*
X61115Y-56548D01*
X61306Y-56420D01*
X61389Y-56296D01*
X61472Y-56420D01*
X61663Y-56548D01*
X61889Y-56593D01*
X62115Y-56548D01*
X62306Y-56420D01*
X62389Y-56296D01*
X62472Y-56420D01*
X62663Y-56548D01*
X62889Y-56593D01*
X63115Y-56548D01*
X63306Y-56420D01*
X63389Y-56296D01*
X63472Y-56420D01*
X63663Y-56548D01*
X63889Y-56593D01*
X64115Y-56548D01*
X64306Y-56420D01*
X64389Y-56296D01*
X64472Y-56420D01*
X64663Y-56548D01*
X64889Y-56593D01*
X65115Y-56548D01*
X65306Y-56420D01*
X65389Y-56296D01*
X65472Y-56420D01*
X65663Y-56548D01*
X65889Y-56593D01*
X66115Y-56548D01*
X66306Y-56420D01*
X66389Y-56296D01*
X66472Y-56420D01*
X66663Y-56548D01*
X66889Y-56593D01*
X67115Y-56548D01*
X67306Y-56420D01*
X67389Y-56296D01*
X67472Y-56420D01*
X67663Y-56548D01*
X67889Y-56593D01*
X68115Y-56548D01*
X68306Y-56420D01*
X68389Y-56296D01*
X68472Y-56420D01*
X68663Y-56548D01*
X68889Y-56593D01*
X69115Y-56548D01*
X69306Y-56420D01*
X69312Y-56411D01*
X69337Y-56472D01*
X69408Y-56542D01*
X69500Y-56580D01*
X69599Y-56580D01*
X70279Y-56580D01*
X70371Y-56542D01*
X70441Y-56472D01*
X70479Y-56380D01*
X70479Y-56816D01*
X48839Y-56816D01*
X48839Y-56515D01*
X48839Y-55980D01*
X48839Y-55880D01*
X48839Y-55345D01*
X48748Y-55297D01*
X48742Y-55298D01*
X48534Y-55398D01*
X48381Y-55570D01*
X48305Y-55788D01*
X48361Y-55880D01*
X48839Y-55880D01*
X48839Y-55980D01*
X48361Y-55980D01*
X48305Y-56073D01*
X48381Y-56290D01*
X48534Y-56462D01*
X48742Y-56562D01*
X48748Y-56563D01*
X48839Y-56515D01*
X48839Y-56816D01*
X45091Y-56816D01*
X45091Y-47381D01*
X45091Y-45381D01*
X45046Y-45156D01*
X44919Y-44964D01*
X44795Y-44881D01*
X44919Y-44799D01*
X45046Y-44607D01*
X45091Y-44381D01*
X45046Y-44156D01*
X44919Y-43964D01*
X44795Y-43881D01*
X44919Y-43799D01*
X45046Y-43607D01*
X45091Y-43381D01*
X45046Y-43156D01*
X44919Y-42964D01*
X44795Y-42881D01*
X44919Y-42799D01*
X45046Y-42607D01*
X45091Y-42381D01*
X45046Y-42156D01*
X44919Y-41964D01*
X44795Y-41881D01*
X44919Y-41799D01*
X45046Y-41607D01*
X45091Y-41381D01*
X45046Y-41156D01*
X44919Y-40964D01*
X44727Y-40836D01*
X44501Y-40791D01*
X44356Y-40791D01*
X44130Y-40836D01*
X43939Y-40964D01*
X43811Y-41156D01*
X43766Y-41381D01*
X43811Y-41607D01*
X43939Y-41799D01*
X44063Y-41881D01*
X43939Y-41964D01*
X43811Y-42156D01*
X43766Y-42381D01*
X43811Y-42607D01*
X43939Y-42799D01*
X44063Y-42881D01*
X43939Y-42964D01*
X43811Y-43156D01*
X43766Y-43381D01*
X43811Y-43607D01*
X43939Y-43799D01*
X44063Y-43881D01*
X43939Y-43964D01*
X43811Y-44156D01*
X43766Y-44381D01*
X43811Y-44607D01*
X43939Y-44799D01*
X44063Y-44881D01*
X43939Y-44964D01*
X43811Y-45156D01*
X43766Y-45381D01*
X43811Y-45607D01*
X43939Y-45799D01*
X44061Y-45880D01*
X43897Y-46026D01*
X43797Y-46234D01*
X43796Y-46240D01*
X43844Y-46331D01*
X44379Y-46331D01*
X44379Y-46324D01*
X44479Y-46324D01*
X44479Y-46331D01*
X45014Y-46331D01*
X45061Y-46240D01*
X45060Y-46234D01*
X44960Y-46026D01*
X44797Y-45880D01*
X44919Y-45799D01*
X45046Y-45607D01*
X45091Y-45381D01*
X45091Y-47381D01*
X45046Y-47156D01*
X44919Y-46964D01*
X44797Y-46883D01*
X44960Y-46737D01*
X45060Y-46529D01*
X45061Y-46523D01*
X45014Y-46431D01*
X44479Y-46431D01*
X44479Y-46439D01*
X44379Y-46439D01*
X44379Y-46431D01*
X43844Y-46431D01*
X43796Y-46523D01*
X43797Y-46529D01*
X43897Y-46737D01*
X44061Y-46883D01*
X43939Y-46964D01*
X43811Y-47156D01*
X43766Y-47381D01*
X43811Y-47607D01*
X43939Y-47799D01*
X43947Y-47804D01*
X43887Y-47829D01*
X43817Y-47900D01*
X43779Y-47992D01*
X43779Y-48091D01*
X43779Y-48771D01*
X43817Y-48863D01*
X43887Y-48933D01*
X43979Y-48971D01*
X44078Y-48971D01*
X44878Y-48971D01*
X44970Y-48933D01*
X45041Y-48863D01*
X45079Y-48771D01*
X45079Y-48672D01*
X45079Y-47992D01*
X45041Y-47900D01*
X44970Y-47829D01*
X44910Y-47804D01*
X44919Y-47799D01*
X45046Y-47607D01*
X45091Y-47381D01*
X45091Y-56816D01*
X40230Y-56816D01*
X40230Y-35215D01*
X40102Y-34906D01*
X39866Y-34669D01*
X39557Y-34541D01*
X39223Y-34541D01*
X38914Y-34668D01*
X38677Y-34905D01*
X38549Y-35213D01*
X38549Y-35548D01*
X38676Y-35857D01*
X38913Y-36094D01*
X39221Y-36222D01*
X39556Y-36222D01*
X39865Y-36094D01*
X40101Y-35858D01*
X40230Y-35549D01*
X40230Y-35215D01*
X40230Y-56816D01*
X40130Y-56816D01*
X40130Y-54815D01*
X40002Y-54506D01*
X39766Y-54269D01*
X39663Y-54226D01*
X39663Y-47962D01*
X39659Y-47829D01*
X39659Y-45719D01*
X39659Y-43750D01*
X39659Y-41782D01*
X39659Y-39813D01*
X39659Y-37845D01*
X39546Y-37572D01*
X39338Y-37363D01*
X39065Y-37250D01*
X38770Y-37249D01*
X38497Y-37362D01*
X38288Y-37571D01*
X38175Y-37843D01*
X38175Y-38139D01*
X38287Y-38411D01*
X38496Y-38620D01*
X38769Y-38734D01*
X39064Y-38734D01*
X39337Y-38621D01*
X39546Y-38413D01*
X39659Y-38140D01*
X39659Y-37845D01*
X39659Y-39813D01*
X39546Y-39540D01*
X39338Y-39331D01*
X39065Y-39218D01*
X38770Y-39218D01*
X38497Y-39331D01*
X38288Y-39539D01*
X38175Y-39812D01*
X38175Y-40107D01*
X38287Y-40380D01*
X38496Y-40589D01*
X38769Y-40702D01*
X39064Y-40702D01*
X39337Y-40590D01*
X39546Y-40381D01*
X39659Y-40108D01*
X39659Y-39813D01*
X39659Y-41782D01*
X39546Y-41509D01*
X39338Y-41300D01*
X39065Y-41187D01*
X38770Y-41186D01*
X38497Y-41299D01*
X38288Y-41508D01*
X38175Y-41780D01*
X38175Y-42076D01*
X38287Y-42348D01*
X38496Y-42557D01*
X38769Y-42671D01*
X39064Y-42671D01*
X39337Y-42558D01*
X39546Y-42350D01*
X39659Y-42077D01*
X39659Y-41782D01*
X39659Y-43750D01*
X39546Y-43477D01*
X39338Y-43268D01*
X39065Y-43155D01*
X38770Y-43155D01*
X38497Y-43268D01*
X38288Y-43476D01*
X38175Y-43749D01*
X38175Y-44044D01*
X38287Y-44317D01*
X38496Y-44526D01*
X38769Y-44639D01*
X39064Y-44639D01*
X39337Y-44527D01*
X39546Y-44318D01*
X39659Y-44045D01*
X39659Y-43750D01*
X39659Y-45719D01*
X39546Y-45446D01*
X39338Y-45237D01*
X39065Y-45124D01*
X38770Y-45123D01*
X38497Y-45236D01*
X38288Y-45445D01*
X38175Y-45717D01*
X38175Y-46013D01*
X38287Y-46285D01*
X38496Y-46494D01*
X38769Y-46608D01*
X39064Y-46608D01*
X39337Y-46495D01*
X39546Y-46287D01*
X39659Y-46014D01*
X39659Y-45719D01*
X39659Y-47829D01*
X39655Y-47667D01*
X39557Y-47431D01*
X39442Y-47380D01*
X39371Y-47451D01*
X39371Y-47309D01*
X39320Y-47194D01*
X39044Y-47088D01*
X38749Y-47096D01*
X38513Y-47194D01*
X38463Y-47309D01*
X38917Y-47763D01*
X39371Y-47309D01*
X39371Y-47451D01*
X38988Y-47834D01*
X39442Y-48288D01*
X39557Y-48237D01*
X39663Y-47962D01*
X39663Y-54226D01*
X39659Y-54225D01*
X39659Y-51624D01*
X39659Y-49656D01*
X39546Y-49383D01*
X39371Y-49207D01*
X39371Y-48359D01*
X38917Y-47905D01*
X38846Y-47976D01*
X38846Y-47834D01*
X38392Y-47380D01*
X38277Y-47431D01*
X38171Y-47707D01*
X38179Y-48002D01*
X38277Y-48237D01*
X38392Y-48288D01*
X38846Y-47834D01*
X38846Y-47976D01*
X38463Y-48359D01*
X38513Y-48474D01*
X38789Y-48580D01*
X39084Y-48572D01*
X39320Y-48474D01*
X39371Y-48359D01*
X39371Y-49207D01*
X39338Y-49174D01*
X39065Y-49061D01*
X38770Y-49060D01*
X38497Y-49173D01*
X38288Y-49382D01*
X38175Y-49654D01*
X38175Y-49950D01*
X38287Y-50222D01*
X38496Y-50431D01*
X38769Y-50545D01*
X39064Y-50545D01*
X39337Y-50432D01*
X39546Y-50224D01*
X39659Y-49951D01*
X39659Y-49656D01*
X39659Y-51624D01*
X39546Y-51351D01*
X39338Y-51142D01*
X39065Y-51029D01*
X38770Y-51029D01*
X38497Y-51142D01*
X38288Y-51350D01*
X38175Y-51623D01*
X38175Y-51918D01*
X38287Y-52191D01*
X38496Y-52400D01*
X38769Y-52513D01*
X39064Y-52513D01*
X39337Y-52401D01*
X39546Y-52192D01*
X39659Y-51919D01*
X39659Y-51624D01*
X39659Y-54225D01*
X39457Y-54141D01*
X39123Y-54141D01*
X38814Y-54268D01*
X38577Y-54505D01*
X38449Y-54813D01*
X38449Y-55148D01*
X38576Y-55457D01*
X38813Y-55694D01*
X39121Y-55822D01*
X39456Y-55822D01*
X39765Y-55694D01*
X40001Y-55458D01*
X40130Y-55149D01*
X40130Y-54815D01*
X40130Y-56816D01*
X37218Y-56816D01*
X37218Y-36318D01*
X37218Y-34055D01*
X37218Y-33438D01*
X48365Y-33438D01*
X48339Y-33501D01*
X48339Y-33600D01*
X48339Y-34400D01*
X48377Y-34492D01*
X48447Y-34563D01*
X48539Y-34601D01*
X48638Y-34601D01*
X49318Y-34601D01*
X49410Y-34563D01*
X49481Y-34492D01*
X49506Y-34432D01*
X49511Y-34441D01*
X49703Y-34569D01*
X49929Y-34613D01*
X50154Y-34569D01*
X50346Y-34441D01*
X50429Y-34317D01*
X50511Y-34441D01*
X50703Y-34569D01*
X50929Y-34613D01*
X51154Y-34569D01*
X51346Y-34441D01*
X51429Y-34317D01*
X51511Y-34441D01*
X51703Y-34569D01*
X51929Y-34613D01*
X52154Y-34569D01*
X52346Y-34441D01*
X52429Y-34317D01*
X52511Y-34441D01*
X52703Y-34569D01*
X52929Y-34613D01*
X53154Y-34569D01*
X53346Y-34441D01*
X53429Y-34317D01*
X53511Y-34441D01*
X53703Y-34569D01*
X53929Y-34613D01*
X54154Y-34569D01*
X54346Y-34441D01*
X54429Y-34317D01*
X54511Y-34441D01*
X54703Y-34569D01*
X54929Y-34613D01*
X55154Y-34569D01*
X55346Y-34441D01*
X55429Y-34317D01*
X55511Y-34441D01*
X55703Y-34569D01*
X55929Y-34613D01*
X56154Y-34569D01*
X56346Y-34441D01*
X56429Y-34317D01*
X56511Y-34441D01*
X56703Y-34569D01*
X56929Y-34613D01*
X57154Y-34569D01*
X57346Y-34441D01*
X57429Y-34317D01*
X57511Y-34441D01*
X57703Y-34569D01*
X57929Y-34613D01*
X58154Y-34569D01*
X58346Y-34441D01*
X58429Y-34317D01*
X58511Y-34441D01*
X58703Y-34569D01*
X58929Y-34613D01*
X59154Y-34569D01*
X59346Y-34441D01*
X59429Y-34317D01*
X59511Y-34441D01*
X59703Y-34569D01*
X59929Y-34613D01*
X60154Y-34569D01*
X60346Y-34441D01*
X60429Y-34317D01*
X60511Y-34441D01*
X60703Y-34569D01*
X60929Y-34613D01*
X61154Y-34569D01*
X61346Y-34441D01*
X61429Y-34317D01*
X61511Y-34441D01*
X61703Y-34569D01*
X61929Y-34613D01*
X62154Y-34569D01*
X62346Y-34441D01*
X62429Y-34317D01*
X62511Y-34441D01*
X62703Y-34569D01*
X62929Y-34613D01*
X63154Y-34569D01*
X63346Y-34441D01*
X63429Y-34317D01*
X63511Y-34441D01*
X63703Y-34569D01*
X63929Y-34613D01*
X64154Y-34569D01*
X64346Y-34441D01*
X64429Y-34317D01*
X64511Y-34441D01*
X64703Y-34569D01*
X64929Y-34613D01*
X65154Y-34569D01*
X65346Y-34441D01*
X65429Y-34317D01*
X65511Y-34441D01*
X65703Y-34569D01*
X65929Y-34613D01*
X66154Y-34569D01*
X66346Y-34441D01*
X66429Y-34317D01*
X66511Y-34441D01*
X66703Y-34569D01*
X66929Y-34613D01*
X67154Y-34569D01*
X67346Y-34441D01*
X67429Y-34317D01*
X67511Y-34441D01*
X67703Y-34569D01*
X67929Y-34613D01*
X68154Y-34569D01*
X68346Y-34441D01*
X68429Y-34317D01*
X68511Y-34441D01*
X68703Y-34569D01*
X68929Y-34613D01*
X69154Y-34569D01*
X69346Y-34441D01*
X69427Y-34319D01*
X69574Y-34482D01*
X69781Y-34582D01*
X69787Y-34583D01*
X69879Y-34536D01*
X69879Y-34001D01*
X69871Y-34001D01*
X69871Y-33901D01*
X69879Y-33901D01*
X69879Y-33893D01*
X69979Y-33893D01*
X69979Y-33901D01*
X70457Y-33901D01*
X70513Y-33808D01*
X70437Y-33591D01*
X70301Y-33438D01*
X70734Y-33438D01*
X70734Y-43602D01*
X70734Y-56816D01*
M02*
