M48
;DRILL file {pcbnew (2014-jan-25)-product} date Wed 30 Apr 2014 07:58:27 PM MDT
;FORMAT={-:-/ absolute / metric / decimal}
FMAT,2
METRIC,TZ
T1C0.635
T2C0.813
T3C0.900
T4C1.000
T5C2.500
T6C3.000
T7C3.200
%
G90
G05
M71
T1
X122.682Y-77.47
X122.682Y-81.28
X123.063Y-88.9
X130.81Y-85.09
X130.81Y-97.79
X132.08Y-77.216
X136.9Y-83.5
X136.906Y-77.978
X137.922Y-74.041
X139.1Y-78.1
X142.875Y-73.279
X146.939Y-80.01
X151.257Y-85.979
X154.3Y-85.1
X155.067Y-81.661
T2
X149.86Y-74.93
X152.4Y-74.93
X154.94Y-74.93
T3
X149.225Y-93.98
X150.495Y-91.44
X151.765Y-93.98
X153.035Y-91.44
X154.305Y-93.98
X155.575Y-91.44
T4
X116.08Y-77.51
X116.08Y-80.01
X116.08Y-82.51
X116.08Y-92.75
X116.08Y-95.25
X116.08Y-97.75
X135.05Y-89.699
X136.95Y-85.979
X136.95Y-88.519
X142.45Y-85.979
X142.45Y-88.519
T5
X139.7Y-85.349
X139.7Y-89.149
T6
X170.18Y-76.2
X170.18Y-99.06
T7
X147.32Y-100.33
X157.48Y-100.33
T0
M30
