%FSLAX34Y34*%
G04 Gerber Fmt 3.4, Leading zero omitted, Abs format*
G04 (created by PCBNEW (2014-jan-25)-product) date Wed 30 Apr 2014 07:54:19 PM MDT*
%MOIN*%
G01*
G70*
G90*
G04 APERTURE LIST*
%ADD10C,0.003937*%
%ADD11C,0.125984*%
%ADD12C,0.059055*%
%ADD13C,0.078740*%
%ADD14C,0.098425*%
%ADD15C,0.039370*%
%ADD16R,0.086614X0.070866*%
%ADD17R,0.055000X0.055000*%
%ADD18C,0.055000*%
%ADD19C,0.035000*%
%ADD20C,0.019685*%
%ADD21C,0.040000*%
%ADD22C,0.010000*%
G04 APERTURE END LIST*
G54D10*
G54D11*
X62000Y-39500D03*
X58000Y-39500D03*
G54D12*
X61250Y-36000D03*
X60750Y-37000D03*
X60250Y-36000D03*
X59750Y-37000D03*
X59250Y-36000D03*
X58750Y-37000D03*
G54D13*
X53917Y-33850D03*
X56082Y-33850D03*
X53917Y-34850D03*
X56082Y-34850D03*
G54D14*
X55000Y-35098D03*
X55000Y-33601D03*
G54D15*
X53169Y-35314D03*
G54D12*
X45700Y-38484D03*
X45700Y-37500D03*
X45700Y-36515D03*
G54D16*
X47000Y-39468D03*
X47000Y-35531D03*
G54D17*
X61000Y-29500D03*
G54D18*
X60000Y-29500D03*
X59000Y-29500D03*
G54D12*
X45700Y-32484D03*
X45700Y-31500D03*
X45700Y-30515D03*
G54D16*
X47000Y-33468D03*
X47000Y-29531D03*
G54D19*
X53900Y-30700D03*
X53897Y-32874D03*
X48300Y-30500D03*
X61050Y-32150D03*
X57850Y-31500D03*
X48450Y-35000D03*
X48300Y-32000D03*
X56250Y-28850D03*
X51500Y-33500D03*
X51500Y-38500D03*
X60748Y-33503D03*
X59550Y-33850D03*
X52000Y-30400D03*
X54300Y-29150D03*
X54763Y-30748D03*
G54D20*
X53897Y-32874D02*
X53900Y-30700D01*
X51500Y-38500D02*
X51500Y-33500D01*
G54D21*
X59550Y-33850D02*
X59881Y-33503D01*
X59881Y-33503D02*
X60748Y-33503D01*
G54D20*
X52600Y-33532D02*
X53917Y-34850D01*
X52600Y-33250D02*
X52600Y-33532D01*
X52000Y-32650D02*
X52600Y-33250D01*
X52000Y-30400D02*
X52000Y-32650D01*
X54300Y-30250D02*
X54300Y-29150D01*
X54763Y-30748D02*
X54300Y-30250D01*
G54D10*
G36*
X64100Y-40730D02*
X62880Y-40730D01*
X62880Y-39325D01*
X62746Y-39002D01*
X62499Y-38754D01*
X62175Y-38620D01*
X61825Y-38619D01*
X61795Y-38632D01*
X61795Y-35892D01*
X61712Y-35691D01*
X61559Y-35538D01*
X61525Y-35523D01*
X61525Y-29824D01*
X61525Y-29725D01*
X61525Y-29175D01*
X61486Y-29083D01*
X61416Y-29013D01*
X61324Y-28975D01*
X61225Y-28975D01*
X60675Y-28975D01*
X60583Y-29013D01*
X60513Y-29083D01*
X60475Y-29175D01*
X60475Y-29274D01*
X60475Y-29274D01*
X60445Y-29203D01*
X60297Y-29055D01*
X60104Y-28975D01*
X59896Y-28974D01*
X59703Y-29054D01*
X59555Y-29202D01*
X59502Y-29328D01*
X59460Y-29227D01*
X59367Y-29202D01*
X59297Y-29273D01*
X59297Y-29132D01*
X59272Y-29039D01*
X59075Y-28970D01*
X58867Y-28981D01*
X58727Y-29039D01*
X58702Y-29132D01*
X59000Y-29429D01*
X59297Y-29132D01*
X59297Y-29273D01*
X59070Y-29500D01*
X59367Y-29797D01*
X59460Y-29772D01*
X59499Y-29662D01*
X59554Y-29797D01*
X59702Y-29944D01*
X59895Y-30024D01*
X60103Y-30025D01*
X60297Y-29945D01*
X60444Y-29797D01*
X60475Y-29725D01*
X60475Y-29824D01*
X60513Y-29916D01*
X60583Y-29986D01*
X60675Y-30025D01*
X60774Y-30025D01*
X61324Y-30025D01*
X61416Y-29986D01*
X61486Y-29916D01*
X61525Y-29824D01*
X61525Y-35523D01*
X61358Y-35454D01*
X61198Y-35454D01*
X61198Y-33503D01*
X61163Y-33331D01*
X61066Y-33185D01*
X60920Y-33088D01*
X60748Y-33053D01*
X59881Y-33053D01*
X59877Y-33054D01*
X59872Y-33054D01*
X59791Y-33071D01*
X59709Y-33088D01*
X59705Y-33090D01*
X59701Y-33091D01*
X59632Y-33139D01*
X59563Y-33185D01*
X59561Y-33189D01*
X59557Y-33192D01*
X59297Y-33463D01*
X59297Y-29867D01*
X59000Y-29570D01*
X58929Y-29641D01*
X58929Y-29500D01*
X58632Y-29202D01*
X58539Y-29227D01*
X58470Y-29424D01*
X58481Y-29632D01*
X58539Y-29772D01*
X58632Y-29797D01*
X58929Y-29500D01*
X58929Y-29641D01*
X58702Y-29867D01*
X58727Y-29960D01*
X58924Y-30029D01*
X59132Y-30018D01*
X59272Y-29960D01*
X59297Y-29867D01*
X59297Y-33463D01*
X59225Y-33538D01*
X59130Y-33686D01*
X59100Y-33859D01*
X59137Y-34030D01*
X59238Y-34174D01*
X59386Y-34269D01*
X59559Y-34299D01*
X59730Y-34262D01*
X59874Y-34161D01*
X60073Y-33953D01*
X60748Y-33953D01*
X60920Y-33919D01*
X61066Y-33822D01*
X61163Y-33676D01*
X61198Y-33503D01*
X61198Y-35454D01*
X61142Y-35454D01*
X60941Y-35537D01*
X60788Y-35690D01*
X60750Y-35782D01*
X60712Y-35691D01*
X60559Y-35538D01*
X60358Y-35454D01*
X60142Y-35454D01*
X59941Y-35537D01*
X59788Y-35690D01*
X59750Y-35782D01*
X59712Y-35691D01*
X59559Y-35538D01*
X59358Y-35454D01*
X59142Y-35454D01*
X58941Y-35537D01*
X58788Y-35690D01*
X58704Y-35891D01*
X58704Y-36107D01*
X58787Y-36308D01*
X58940Y-36461D01*
X59141Y-36545D01*
X59357Y-36545D01*
X59558Y-36462D01*
X59711Y-36309D01*
X59749Y-36217D01*
X59787Y-36308D01*
X59940Y-36461D01*
X60141Y-36545D01*
X60357Y-36545D01*
X60558Y-36462D01*
X60711Y-36309D01*
X60749Y-36217D01*
X60787Y-36308D01*
X60940Y-36461D01*
X61141Y-36545D01*
X61357Y-36545D01*
X61558Y-36462D01*
X61711Y-36309D01*
X61795Y-36108D01*
X61795Y-35892D01*
X61795Y-38632D01*
X61502Y-38753D01*
X61295Y-38960D01*
X61295Y-36892D01*
X61212Y-36691D01*
X61059Y-36538D01*
X60858Y-36454D01*
X60642Y-36454D01*
X60441Y-36537D01*
X60288Y-36690D01*
X60252Y-36775D01*
X60227Y-36714D01*
X60132Y-36688D01*
X60061Y-36758D01*
X60061Y-36617D01*
X60035Y-36522D01*
X59830Y-36449D01*
X59613Y-36460D01*
X59464Y-36522D01*
X59438Y-36617D01*
X59750Y-36929D01*
X60061Y-36617D01*
X60061Y-36758D01*
X59820Y-37000D01*
X60132Y-37311D01*
X60227Y-37285D01*
X60250Y-37219D01*
X60287Y-37308D01*
X60440Y-37461D01*
X60641Y-37545D01*
X60857Y-37545D01*
X61058Y-37462D01*
X61211Y-37309D01*
X61295Y-37108D01*
X61295Y-36892D01*
X61295Y-38960D01*
X61254Y-39000D01*
X61120Y-39324D01*
X61119Y-39674D01*
X61253Y-39997D01*
X61500Y-40245D01*
X61824Y-40379D01*
X62174Y-40380D01*
X62497Y-40246D01*
X62745Y-39999D01*
X62879Y-39675D01*
X62880Y-39325D01*
X62880Y-40730D01*
X60061Y-40730D01*
X60061Y-37382D01*
X59750Y-37070D01*
X59679Y-37141D01*
X59679Y-37000D01*
X59367Y-36688D01*
X59272Y-36714D01*
X59249Y-36780D01*
X59212Y-36691D01*
X59059Y-36538D01*
X58858Y-36454D01*
X58642Y-36454D01*
X58441Y-36537D01*
X58288Y-36690D01*
X58204Y-36891D01*
X58204Y-37107D01*
X58287Y-37308D01*
X58440Y-37461D01*
X58641Y-37545D01*
X58857Y-37545D01*
X59058Y-37462D01*
X59211Y-37309D01*
X59247Y-37224D01*
X59272Y-37285D01*
X59367Y-37311D01*
X59679Y-37000D01*
X59679Y-37141D01*
X59438Y-37382D01*
X59464Y-37477D01*
X59669Y-37550D01*
X59886Y-37539D01*
X60035Y-37477D01*
X60061Y-37382D01*
X60061Y-40730D01*
X58880Y-40730D01*
X58880Y-39325D01*
X58746Y-39002D01*
X58499Y-38754D01*
X58175Y-38620D01*
X57825Y-38619D01*
X57502Y-38753D01*
X57254Y-39000D01*
X57120Y-39324D01*
X57119Y-39674D01*
X57253Y-39997D01*
X57500Y-40245D01*
X57824Y-40379D01*
X58174Y-40380D01*
X58497Y-40246D01*
X58745Y-39999D01*
X58879Y-39675D01*
X58880Y-39325D01*
X58880Y-40730D01*
X56730Y-40730D01*
X56730Y-34954D01*
X56726Y-34841D01*
X56726Y-33722D01*
X56628Y-33485D01*
X56447Y-33304D01*
X56211Y-33206D01*
X55955Y-33206D01*
X55718Y-33303D01*
X55691Y-33331D01*
X55629Y-33182D01*
X55420Y-32973D01*
X55148Y-32859D01*
X54853Y-32859D01*
X54580Y-32972D01*
X54371Y-33181D01*
X54308Y-33331D01*
X54282Y-33304D01*
X54125Y-33239D01*
X54138Y-33234D01*
X54257Y-33115D01*
X54322Y-32958D01*
X54322Y-32789D01*
X54258Y-32633D01*
X54246Y-32621D01*
X54248Y-30952D01*
X54260Y-30941D01*
X54324Y-30787D01*
X54338Y-30802D01*
X54338Y-30832D01*
X54403Y-30988D01*
X54522Y-31108D01*
X54678Y-31172D01*
X54847Y-31173D01*
X55004Y-31108D01*
X55123Y-30989D01*
X55188Y-30832D01*
X55188Y-30663D01*
X55124Y-30507D01*
X55004Y-30387D01*
X54848Y-30323D01*
X54844Y-30323D01*
X54648Y-30112D01*
X54648Y-29402D01*
X54660Y-29391D01*
X54724Y-29234D01*
X54725Y-29065D01*
X54660Y-28909D01*
X54541Y-28789D01*
X54384Y-28725D01*
X54215Y-28724D01*
X54059Y-28789D01*
X53939Y-28908D01*
X53875Y-29065D01*
X53874Y-29234D01*
X53939Y-29390D01*
X53951Y-29402D01*
X53951Y-30250D01*
X53956Y-30275D01*
X53815Y-30274D01*
X53659Y-30339D01*
X53539Y-30458D01*
X53475Y-30615D01*
X53474Y-30784D01*
X53539Y-30940D01*
X53551Y-30952D01*
X53549Y-32621D01*
X53537Y-32632D01*
X53472Y-32789D01*
X53472Y-32958D01*
X53537Y-33114D01*
X53656Y-33234D01*
X53689Y-33247D01*
X53553Y-33303D01*
X53371Y-33484D01*
X53276Y-33715D01*
X52948Y-33388D01*
X52948Y-33250D01*
X52921Y-33116D01*
X52846Y-33003D01*
X52846Y-33003D01*
X52348Y-32505D01*
X52348Y-30652D01*
X52360Y-30641D01*
X52424Y-30484D01*
X52425Y-30315D01*
X52360Y-30159D01*
X52241Y-30039D01*
X52084Y-29975D01*
X51915Y-29974D01*
X51759Y-30039D01*
X51639Y-30158D01*
X51575Y-30315D01*
X51574Y-30484D01*
X51639Y-30640D01*
X51651Y-30652D01*
X51651Y-32649D01*
X51651Y-32650D01*
X51673Y-32761D01*
X51678Y-32783D01*
X51753Y-32896D01*
X52251Y-33394D01*
X52251Y-33532D01*
X52251Y-33532D01*
X52273Y-33643D01*
X52278Y-33666D01*
X52353Y-33779D01*
X53280Y-34705D01*
X53273Y-34721D01*
X53273Y-34874D01*
X53258Y-34867D01*
X53080Y-34867D01*
X52916Y-34935D01*
X52790Y-35061D01*
X52722Y-35225D01*
X52722Y-35403D01*
X52790Y-35567D01*
X52915Y-35693D01*
X53080Y-35761D01*
X53257Y-35761D01*
X53422Y-35693D01*
X53547Y-35568D01*
X53609Y-35419D01*
X53788Y-35493D01*
X54044Y-35493D01*
X54281Y-35396D01*
X54308Y-35368D01*
X54370Y-35517D01*
X54579Y-35726D01*
X54851Y-35840D01*
X55146Y-35840D01*
X55419Y-35727D01*
X55628Y-35518D01*
X55708Y-35327D01*
X55738Y-35408D01*
X55978Y-35497D01*
X56234Y-35488D01*
X56426Y-35408D01*
X56465Y-35303D01*
X56082Y-34920D01*
X56077Y-34926D01*
X56006Y-34855D01*
X56011Y-34850D01*
X55628Y-34466D01*
X55523Y-34505D01*
X55505Y-34554D01*
X55420Y-34469D01*
X55148Y-34356D01*
X54853Y-34355D01*
X54580Y-34468D01*
X54492Y-34556D01*
X54463Y-34485D01*
X54327Y-34349D01*
X54462Y-34215D01*
X54492Y-34143D01*
X54579Y-34230D01*
X54851Y-34343D01*
X55146Y-34344D01*
X55419Y-34231D01*
X55507Y-34143D01*
X55536Y-34214D01*
X55704Y-34382D01*
X55699Y-34396D01*
X56082Y-34779D01*
X56465Y-34396D01*
X56460Y-34382D01*
X56628Y-34215D01*
X56726Y-33978D01*
X56726Y-33722D01*
X56726Y-34841D01*
X56721Y-34698D01*
X56641Y-34505D01*
X56536Y-34466D01*
X56153Y-34850D01*
X56536Y-35233D01*
X56641Y-35194D01*
X56730Y-34954D01*
X56730Y-40730D01*
X51925Y-40730D01*
X51925Y-38415D01*
X51860Y-38259D01*
X51848Y-38247D01*
X51848Y-33752D01*
X51860Y-33741D01*
X51924Y-33584D01*
X51925Y-33415D01*
X51860Y-33259D01*
X51741Y-33139D01*
X51584Y-33075D01*
X51415Y-33074D01*
X51259Y-33139D01*
X51139Y-33258D01*
X51075Y-33415D01*
X51074Y-33584D01*
X51139Y-33740D01*
X51151Y-33752D01*
X51151Y-38247D01*
X51139Y-38258D01*
X51075Y-38415D01*
X51074Y-38584D01*
X51139Y-38740D01*
X51258Y-38860D01*
X51415Y-38924D01*
X51584Y-38925D01*
X51740Y-38860D01*
X51860Y-38741D01*
X51924Y-38584D01*
X51925Y-38415D01*
X51925Y-40730D01*
X47683Y-40730D01*
X47683Y-39872D01*
X47683Y-39773D01*
X47683Y-39064D01*
X47683Y-35935D01*
X47683Y-35836D01*
X47683Y-35127D01*
X47683Y-33872D01*
X47683Y-33773D01*
X47683Y-33064D01*
X47683Y-29935D01*
X47683Y-29836D01*
X47683Y-29127D01*
X47645Y-29035D01*
X47574Y-28965D01*
X47482Y-28927D01*
X47383Y-28927D01*
X46517Y-28927D01*
X46425Y-28965D01*
X46354Y-29035D01*
X46316Y-29127D01*
X46316Y-29226D01*
X46316Y-29935D01*
X46354Y-30027D01*
X46425Y-30097D01*
X46517Y-30135D01*
X46616Y-30135D01*
X47482Y-30135D01*
X47574Y-30097D01*
X47645Y-30027D01*
X47683Y-29935D01*
X47683Y-33064D01*
X47645Y-32972D01*
X47574Y-32902D01*
X47482Y-32864D01*
X47383Y-32864D01*
X46517Y-32864D01*
X46425Y-32902D01*
X46354Y-32972D01*
X46316Y-33064D01*
X46316Y-33163D01*
X46316Y-33872D01*
X46354Y-33964D01*
X46425Y-34034D01*
X46517Y-34072D01*
X46616Y-34072D01*
X47482Y-34072D01*
X47574Y-34034D01*
X47645Y-33964D01*
X47683Y-33872D01*
X47683Y-35127D01*
X47645Y-35035D01*
X47574Y-34965D01*
X47482Y-34927D01*
X47383Y-34927D01*
X46517Y-34927D01*
X46425Y-34965D01*
X46354Y-35035D01*
X46316Y-35127D01*
X46316Y-35226D01*
X46316Y-35935D01*
X46354Y-36027D01*
X46425Y-36097D01*
X46517Y-36135D01*
X46616Y-36135D01*
X47482Y-36135D01*
X47574Y-36097D01*
X47645Y-36027D01*
X47683Y-35935D01*
X47683Y-39064D01*
X47645Y-38972D01*
X47574Y-38902D01*
X47482Y-38864D01*
X47383Y-38864D01*
X46517Y-38864D01*
X46425Y-38902D01*
X46354Y-38972D01*
X46316Y-39064D01*
X46316Y-39163D01*
X46316Y-39872D01*
X46354Y-39964D01*
X46425Y-40034D01*
X46517Y-40072D01*
X46616Y-40072D01*
X47482Y-40072D01*
X47574Y-40034D01*
X47645Y-39964D01*
X47683Y-39872D01*
X47683Y-40730D01*
X46250Y-40730D01*
X46250Y-30596D01*
X46239Y-30379D01*
X46178Y-30230D01*
X46083Y-30203D01*
X46012Y-30274D01*
X46012Y-30133D01*
X45985Y-30038D01*
X45781Y-29965D01*
X45564Y-29976D01*
X45415Y-30038D01*
X45389Y-30133D01*
X45700Y-30445D01*
X46012Y-30133D01*
X46012Y-30274D01*
X45771Y-30515D01*
X46083Y-30827D01*
X46178Y-30800D01*
X46250Y-30596D01*
X46250Y-40730D01*
X46246Y-40730D01*
X46246Y-38376D01*
X46163Y-38175D01*
X46010Y-38022D01*
X45937Y-37992D01*
X46009Y-37962D01*
X46162Y-37809D01*
X46245Y-37608D01*
X46246Y-37392D01*
X46163Y-37191D01*
X46010Y-37038D01*
X45937Y-37007D01*
X46009Y-36978D01*
X46162Y-36825D01*
X46245Y-36624D01*
X46246Y-36407D01*
X46246Y-32376D01*
X46163Y-32175D01*
X46010Y-32022D01*
X45937Y-31992D01*
X46009Y-31962D01*
X46162Y-31809D01*
X46245Y-31608D01*
X46246Y-31392D01*
X46163Y-31191D01*
X46010Y-31038D01*
X45943Y-31010D01*
X45985Y-30993D01*
X46012Y-30898D01*
X45700Y-30586D01*
X45630Y-30657D01*
X45630Y-30515D01*
X45318Y-30203D01*
X45223Y-30230D01*
X45150Y-30435D01*
X45161Y-30651D01*
X45223Y-30800D01*
X45318Y-30827D01*
X45630Y-30515D01*
X45630Y-30657D01*
X45389Y-30898D01*
X45415Y-30993D01*
X45460Y-31009D01*
X45392Y-31037D01*
X45238Y-31190D01*
X45155Y-31391D01*
X45155Y-31607D01*
X45238Y-31808D01*
X45391Y-31961D01*
X45464Y-31992D01*
X45392Y-32021D01*
X45238Y-32174D01*
X45155Y-32375D01*
X45155Y-32592D01*
X45238Y-32792D01*
X45391Y-32946D01*
X45591Y-33029D01*
X45808Y-33029D01*
X46009Y-32946D01*
X46162Y-32793D01*
X46245Y-32593D01*
X46246Y-32376D01*
X46246Y-36407D01*
X46163Y-36207D01*
X46010Y-36053D01*
X45809Y-35970D01*
X45592Y-35970D01*
X45392Y-36053D01*
X45238Y-36206D01*
X45155Y-36406D01*
X45155Y-36623D01*
X45238Y-36824D01*
X45391Y-36977D01*
X45464Y-37007D01*
X45392Y-37037D01*
X45238Y-37190D01*
X45155Y-37391D01*
X45155Y-37607D01*
X45238Y-37808D01*
X45391Y-37961D01*
X45464Y-37992D01*
X45392Y-38021D01*
X45238Y-38174D01*
X45155Y-38375D01*
X45155Y-38592D01*
X45238Y-38792D01*
X45391Y-38946D01*
X45591Y-39029D01*
X45808Y-39029D01*
X46009Y-38946D01*
X46162Y-38793D01*
X46245Y-38593D01*
X46246Y-38376D01*
X46246Y-40730D01*
X44769Y-40730D01*
X44769Y-28500D01*
X44769Y-28269D01*
X64100Y-28269D01*
X64100Y-40730D01*
X64100Y-40730D01*
G37*
G54D22*
X64100Y-40730D02*
X62880Y-40730D01*
X62880Y-39325D01*
X62746Y-39002D01*
X62499Y-38754D01*
X62175Y-38620D01*
X61825Y-38619D01*
X61795Y-38632D01*
X61795Y-35892D01*
X61712Y-35691D01*
X61559Y-35538D01*
X61525Y-35523D01*
X61525Y-29824D01*
X61525Y-29725D01*
X61525Y-29175D01*
X61486Y-29083D01*
X61416Y-29013D01*
X61324Y-28975D01*
X61225Y-28975D01*
X60675Y-28975D01*
X60583Y-29013D01*
X60513Y-29083D01*
X60475Y-29175D01*
X60475Y-29274D01*
X60475Y-29274D01*
X60445Y-29203D01*
X60297Y-29055D01*
X60104Y-28975D01*
X59896Y-28974D01*
X59703Y-29054D01*
X59555Y-29202D01*
X59502Y-29328D01*
X59460Y-29227D01*
X59367Y-29202D01*
X59297Y-29273D01*
X59297Y-29132D01*
X59272Y-29039D01*
X59075Y-28970D01*
X58867Y-28981D01*
X58727Y-29039D01*
X58702Y-29132D01*
X59000Y-29429D01*
X59297Y-29132D01*
X59297Y-29273D01*
X59070Y-29500D01*
X59367Y-29797D01*
X59460Y-29772D01*
X59499Y-29662D01*
X59554Y-29797D01*
X59702Y-29944D01*
X59895Y-30024D01*
X60103Y-30025D01*
X60297Y-29945D01*
X60444Y-29797D01*
X60475Y-29725D01*
X60475Y-29824D01*
X60513Y-29916D01*
X60583Y-29986D01*
X60675Y-30025D01*
X60774Y-30025D01*
X61324Y-30025D01*
X61416Y-29986D01*
X61486Y-29916D01*
X61525Y-29824D01*
X61525Y-35523D01*
X61358Y-35454D01*
X61198Y-35454D01*
X61198Y-33503D01*
X61163Y-33331D01*
X61066Y-33185D01*
X60920Y-33088D01*
X60748Y-33053D01*
X59881Y-33053D01*
X59877Y-33054D01*
X59872Y-33054D01*
X59791Y-33071D01*
X59709Y-33088D01*
X59705Y-33090D01*
X59701Y-33091D01*
X59632Y-33139D01*
X59563Y-33185D01*
X59561Y-33189D01*
X59557Y-33192D01*
X59297Y-33463D01*
X59297Y-29867D01*
X59000Y-29570D01*
X58929Y-29641D01*
X58929Y-29500D01*
X58632Y-29202D01*
X58539Y-29227D01*
X58470Y-29424D01*
X58481Y-29632D01*
X58539Y-29772D01*
X58632Y-29797D01*
X58929Y-29500D01*
X58929Y-29641D01*
X58702Y-29867D01*
X58727Y-29960D01*
X58924Y-30029D01*
X59132Y-30018D01*
X59272Y-29960D01*
X59297Y-29867D01*
X59297Y-33463D01*
X59225Y-33538D01*
X59130Y-33686D01*
X59100Y-33859D01*
X59137Y-34030D01*
X59238Y-34174D01*
X59386Y-34269D01*
X59559Y-34299D01*
X59730Y-34262D01*
X59874Y-34161D01*
X60073Y-33953D01*
X60748Y-33953D01*
X60920Y-33919D01*
X61066Y-33822D01*
X61163Y-33676D01*
X61198Y-33503D01*
X61198Y-35454D01*
X61142Y-35454D01*
X60941Y-35537D01*
X60788Y-35690D01*
X60750Y-35782D01*
X60712Y-35691D01*
X60559Y-35538D01*
X60358Y-35454D01*
X60142Y-35454D01*
X59941Y-35537D01*
X59788Y-35690D01*
X59750Y-35782D01*
X59712Y-35691D01*
X59559Y-35538D01*
X59358Y-35454D01*
X59142Y-35454D01*
X58941Y-35537D01*
X58788Y-35690D01*
X58704Y-35891D01*
X58704Y-36107D01*
X58787Y-36308D01*
X58940Y-36461D01*
X59141Y-36545D01*
X59357Y-36545D01*
X59558Y-36462D01*
X59711Y-36309D01*
X59749Y-36217D01*
X59787Y-36308D01*
X59940Y-36461D01*
X60141Y-36545D01*
X60357Y-36545D01*
X60558Y-36462D01*
X60711Y-36309D01*
X60749Y-36217D01*
X60787Y-36308D01*
X60940Y-36461D01*
X61141Y-36545D01*
X61357Y-36545D01*
X61558Y-36462D01*
X61711Y-36309D01*
X61795Y-36108D01*
X61795Y-35892D01*
X61795Y-38632D01*
X61502Y-38753D01*
X61295Y-38960D01*
X61295Y-36892D01*
X61212Y-36691D01*
X61059Y-36538D01*
X60858Y-36454D01*
X60642Y-36454D01*
X60441Y-36537D01*
X60288Y-36690D01*
X60252Y-36775D01*
X60227Y-36714D01*
X60132Y-36688D01*
X60061Y-36758D01*
X60061Y-36617D01*
X60035Y-36522D01*
X59830Y-36449D01*
X59613Y-36460D01*
X59464Y-36522D01*
X59438Y-36617D01*
X59750Y-36929D01*
X60061Y-36617D01*
X60061Y-36758D01*
X59820Y-37000D01*
X60132Y-37311D01*
X60227Y-37285D01*
X60250Y-37219D01*
X60287Y-37308D01*
X60440Y-37461D01*
X60641Y-37545D01*
X60857Y-37545D01*
X61058Y-37462D01*
X61211Y-37309D01*
X61295Y-37108D01*
X61295Y-36892D01*
X61295Y-38960D01*
X61254Y-39000D01*
X61120Y-39324D01*
X61119Y-39674D01*
X61253Y-39997D01*
X61500Y-40245D01*
X61824Y-40379D01*
X62174Y-40380D01*
X62497Y-40246D01*
X62745Y-39999D01*
X62879Y-39675D01*
X62880Y-39325D01*
X62880Y-40730D01*
X60061Y-40730D01*
X60061Y-37382D01*
X59750Y-37070D01*
X59679Y-37141D01*
X59679Y-37000D01*
X59367Y-36688D01*
X59272Y-36714D01*
X59249Y-36780D01*
X59212Y-36691D01*
X59059Y-36538D01*
X58858Y-36454D01*
X58642Y-36454D01*
X58441Y-36537D01*
X58288Y-36690D01*
X58204Y-36891D01*
X58204Y-37107D01*
X58287Y-37308D01*
X58440Y-37461D01*
X58641Y-37545D01*
X58857Y-37545D01*
X59058Y-37462D01*
X59211Y-37309D01*
X59247Y-37224D01*
X59272Y-37285D01*
X59367Y-37311D01*
X59679Y-37000D01*
X59679Y-37141D01*
X59438Y-37382D01*
X59464Y-37477D01*
X59669Y-37550D01*
X59886Y-37539D01*
X60035Y-37477D01*
X60061Y-37382D01*
X60061Y-40730D01*
X58880Y-40730D01*
X58880Y-39325D01*
X58746Y-39002D01*
X58499Y-38754D01*
X58175Y-38620D01*
X57825Y-38619D01*
X57502Y-38753D01*
X57254Y-39000D01*
X57120Y-39324D01*
X57119Y-39674D01*
X57253Y-39997D01*
X57500Y-40245D01*
X57824Y-40379D01*
X58174Y-40380D01*
X58497Y-40246D01*
X58745Y-39999D01*
X58879Y-39675D01*
X58880Y-39325D01*
X58880Y-40730D01*
X56730Y-40730D01*
X56730Y-34954D01*
X56726Y-34841D01*
X56726Y-33722D01*
X56628Y-33485D01*
X56447Y-33304D01*
X56211Y-33206D01*
X55955Y-33206D01*
X55718Y-33303D01*
X55691Y-33331D01*
X55629Y-33182D01*
X55420Y-32973D01*
X55148Y-32859D01*
X54853Y-32859D01*
X54580Y-32972D01*
X54371Y-33181D01*
X54308Y-33331D01*
X54282Y-33304D01*
X54125Y-33239D01*
X54138Y-33234D01*
X54257Y-33115D01*
X54322Y-32958D01*
X54322Y-32789D01*
X54258Y-32633D01*
X54246Y-32621D01*
X54248Y-30952D01*
X54260Y-30941D01*
X54324Y-30787D01*
X54338Y-30802D01*
X54338Y-30832D01*
X54403Y-30988D01*
X54522Y-31108D01*
X54678Y-31172D01*
X54847Y-31173D01*
X55004Y-31108D01*
X55123Y-30989D01*
X55188Y-30832D01*
X55188Y-30663D01*
X55124Y-30507D01*
X55004Y-30387D01*
X54848Y-30323D01*
X54844Y-30323D01*
X54648Y-30112D01*
X54648Y-29402D01*
X54660Y-29391D01*
X54724Y-29234D01*
X54725Y-29065D01*
X54660Y-28909D01*
X54541Y-28789D01*
X54384Y-28725D01*
X54215Y-28724D01*
X54059Y-28789D01*
X53939Y-28908D01*
X53875Y-29065D01*
X53874Y-29234D01*
X53939Y-29390D01*
X53951Y-29402D01*
X53951Y-30250D01*
X53956Y-30275D01*
X53815Y-30274D01*
X53659Y-30339D01*
X53539Y-30458D01*
X53475Y-30615D01*
X53474Y-30784D01*
X53539Y-30940D01*
X53551Y-30952D01*
X53549Y-32621D01*
X53537Y-32632D01*
X53472Y-32789D01*
X53472Y-32958D01*
X53537Y-33114D01*
X53656Y-33234D01*
X53689Y-33247D01*
X53553Y-33303D01*
X53371Y-33484D01*
X53276Y-33715D01*
X52948Y-33388D01*
X52948Y-33250D01*
X52921Y-33116D01*
X52846Y-33003D01*
X52846Y-33003D01*
X52348Y-32505D01*
X52348Y-30652D01*
X52360Y-30641D01*
X52424Y-30484D01*
X52425Y-30315D01*
X52360Y-30159D01*
X52241Y-30039D01*
X52084Y-29975D01*
X51915Y-29974D01*
X51759Y-30039D01*
X51639Y-30158D01*
X51575Y-30315D01*
X51574Y-30484D01*
X51639Y-30640D01*
X51651Y-30652D01*
X51651Y-32649D01*
X51651Y-32650D01*
X51673Y-32761D01*
X51678Y-32783D01*
X51753Y-32896D01*
X52251Y-33394D01*
X52251Y-33532D01*
X52251Y-33532D01*
X52273Y-33643D01*
X52278Y-33666D01*
X52353Y-33779D01*
X53280Y-34705D01*
X53273Y-34721D01*
X53273Y-34874D01*
X53258Y-34867D01*
X53080Y-34867D01*
X52916Y-34935D01*
X52790Y-35061D01*
X52722Y-35225D01*
X52722Y-35403D01*
X52790Y-35567D01*
X52915Y-35693D01*
X53080Y-35761D01*
X53257Y-35761D01*
X53422Y-35693D01*
X53547Y-35568D01*
X53609Y-35419D01*
X53788Y-35493D01*
X54044Y-35493D01*
X54281Y-35396D01*
X54308Y-35368D01*
X54370Y-35517D01*
X54579Y-35726D01*
X54851Y-35840D01*
X55146Y-35840D01*
X55419Y-35727D01*
X55628Y-35518D01*
X55708Y-35327D01*
X55738Y-35408D01*
X55978Y-35497D01*
X56234Y-35488D01*
X56426Y-35408D01*
X56465Y-35303D01*
X56082Y-34920D01*
X56077Y-34926D01*
X56006Y-34855D01*
X56011Y-34850D01*
X55628Y-34466D01*
X55523Y-34505D01*
X55505Y-34554D01*
X55420Y-34469D01*
X55148Y-34356D01*
X54853Y-34355D01*
X54580Y-34468D01*
X54492Y-34556D01*
X54463Y-34485D01*
X54327Y-34349D01*
X54462Y-34215D01*
X54492Y-34143D01*
X54579Y-34230D01*
X54851Y-34343D01*
X55146Y-34344D01*
X55419Y-34231D01*
X55507Y-34143D01*
X55536Y-34214D01*
X55704Y-34382D01*
X55699Y-34396D01*
X56082Y-34779D01*
X56465Y-34396D01*
X56460Y-34382D01*
X56628Y-34215D01*
X56726Y-33978D01*
X56726Y-33722D01*
X56726Y-34841D01*
X56721Y-34698D01*
X56641Y-34505D01*
X56536Y-34466D01*
X56153Y-34850D01*
X56536Y-35233D01*
X56641Y-35194D01*
X56730Y-34954D01*
X56730Y-40730D01*
X51925Y-40730D01*
X51925Y-38415D01*
X51860Y-38259D01*
X51848Y-38247D01*
X51848Y-33752D01*
X51860Y-33741D01*
X51924Y-33584D01*
X51925Y-33415D01*
X51860Y-33259D01*
X51741Y-33139D01*
X51584Y-33075D01*
X51415Y-33074D01*
X51259Y-33139D01*
X51139Y-33258D01*
X51075Y-33415D01*
X51074Y-33584D01*
X51139Y-33740D01*
X51151Y-33752D01*
X51151Y-38247D01*
X51139Y-38258D01*
X51075Y-38415D01*
X51074Y-38584D01*
X51139Y-38740D01*
X51258Y-38860D01*
X51415Y-38924D01*
X51584Y-38925D01*
X51740Y-38860D01*
X51860Y-38741D01*
X51924Y-38584D01*
X51925Y-38415D01*
X51925Y-40730D01*
X47683Y-40730D01*
X47683Y-39872D01*
X47683Y-39773D01*
X47683Y-39064D01*
X47683Y-35935D01*
X47683Y-35836D01*
X47683Y-35127D01*
X47683Y-33872D01*
X47683Y-33773D01*
X47683Y-33064D01*
X47683Y-29935D01*
X47683Y-29836D01*
X47683Y-29127D01*
X47645Y-29035D01*
X47574Y-28965D01*
X47482Y-28927D01*
X47383Y-28927D01*
X46517Y-28927D01*
X46425Y-28965D01*
X46354Y-29035D01*
X46316Y-29127D01*
X46316Y-29226D01*
X46316Y-29935D01*
X46354Y-30027D01*
X46425Y-30097D01*
X46517Y-30135D01*
X46616Y-30135D01*
X47482Y-30135D01*
X47574Y-30097D01*
X47645Y-30027D01*
X47683Y-29935D01*
X47683Y-33064D01*
X47645Y-32972D01*
X47574Y-32902D01*
X47482Y-32864D01*
X47383Y-32864D01*
X46517Y-32864D01*
X46425Y-32902D01*
X46354Y-32972D01*
X46316Y-33064D01*
X46316Y-33163D01*
X46316Y-33872D01*
X46354Y-33964D01*
X46425Y-34034D01*
X46517Y-34072D01*
X46616Y-34072D01*
X47482Y-34072D01*
X47574Y-34034D01*
X47645Y-33964D01*
X47683Y-33872D01*
X47683Y-35127D01*
X47645Y-35035D01*
X47574Y-34965D01*
X47482Y-34927D01*
X47383Y-34927D01*
X46517Y-34927D01*
X46425Y-34965D01*
X46354Y-35035D01*
X46316Y-35127D01*
X46316Y-35226D01*
X46316Y-35935D01*
X46354Y-36027D01*
X46425Y-36097D01*
X46517Y-36135D01*
X46616Y-36135D01*
X47482Y-36135D01*
X47574Y-36097D01*
X47645Y-36027D01*
X47683Y-35935D01*
X47683Y-39064D01*
X47645Y-38972D01*
X47574Y-38902D01*
X47482Y-38864D01*
X47383Y-38864D01*
X46517Y-38864D01*
X46425Y-38902D01*
X46354Y-38972D01*
X46316Y-39064D01*
X46316Y-39163D01*
X46316Y-39872D01*
X46354Y-39964D01*
X46425Y-40034D01*
X46517Y-40072D01*
X46616Y-40072D01*
X47482Y-40072D01*
X47574Y-40034D01*
X47645Y-39964D01*
X47683Y-39872D01*
X47683Y-40730D01*
X46250Y-40730D01*
X46250Y-30596D01*
X46239Y-30379D01*
X46178Y-30230D01*
X46083Y-30203D01*
X46012Y-30274D01*
X46012Y-30133D01*
X45985Y-30038D01*
X45781Y-29965D01*
X45564Y-29976D01*
X45415Y-30038D01*
X45389Y-30133D01*
X45700Y-30445D01*
X46012Y-30133D01*
X46012Y-30274D01*
X45771Y-30515D01*
X46083Y-30827D01*
X46178Y-30800D01*
X46250Y-30596D01*
X46250Y-40730D01*
X46246Y-40730D01*
X46246Y-38376D01*
X46163Y-38175D01*
X46010Y-38022D01*
X45937Y-37992D01*
X46009Y-37962D01*
X46162Y-37809D01*
X46245Y-37608D01*
X46246Y-37392D01*
X46163Y-37191D01*
X46010Y-37038D01*
X45937Y-37007D01*
X46009Y-36978D01*
X46162Y-36825D01*
X46245Y-36624D01*
X46246Y-36407D01*
X46246Y-32376D01*
X46163Y-32175D01*
X46010Y-32022D01*
X45937Y-31992D01*
X46009Y-31962D01*
X46162Y-31809D01*
X46245Y-31608D01*
X46246Y-31392D01*
X46163Y-31191D01*
X46010Y-31038D01*
X45943Y-31010D01*
X45985Y-30993D01*
X46012Y-30898D01*
X45700Y-30586D01*
X45630Y-30657D01*
X45630Y-30515D01*
X45318Y-30203D01*
X45223Y-30230D01*
X45150Y-30435D01*
X45161Y-30651D01*
X45223Y-30800D01*
X45318Y-30827D01*
X45630Y-30515D01*
X45630Y-30657D01*
X45389Y-30898D01*
X45415Y-30993D01*
X45460Y-31009D01*
X45392Y-31037D01*
X45238Y-31190D01*
X45155Y-31391D01*
X45155Y-31607D01*
X45238Y-31808D01*
X45391Y-31961D01*
X45464Y-31992D01*
X45392Y-32021D01*
X45238Y-32174D01*
X45155Y-32375D01*
X45155Y-32592D01*
X45238Y-32792D01*
X45391Y-32946D01*
X45591Y-33029D01*
X45808Y-33029D01*
X46009Y-32946D01*
X46162Y-32793D01*
X46245Y-32593D01*
X46246Y-32376D01*
X46246Y-36407D01*
X46163Y-36207D01*
X46010Y-36053D01*
X45809Y-35970D01*
X45592Y-35970D01*
X45392Y-36053D01*
X45238Y-36206D01*
X45155Y-36406D01*
X45155Y-36623D01*
X45238Y-36824D01*
X45391Y-36977D01*
X45464Y-37007D01*
X45392Y-37037D01*
X45238Y-37190D01*
X45155Y-37391D01*
X45155Y-37607D01*
X45238Y-37808D01*
X45391Y-37961D01*
X45464Y-37992D01*
X45392Y-38021D01*
X45238Y-38174D01*
X45155Y-38375D01*
X45155Y-38592D01*
X45238Y-38792D01*
X45391Y-38946D01*
X45591Y-39029D01*
X45808Y-39029D01*
X46009Y-38946D01*
X46162Y-38793D01*
X46245Y-38593D01*
X46246Y-38376D01*
X46246Y-40730D01*
X44769Y-40730D01*
X44769Y-28500D01*
X44769Y-28269D01*
X64100Y-28269D01*
X64100Y-40730D01*
M02*
