%FSLAX34Y34*%
G04 Gerber Fmt 3.4, Leading zero omitted, Abs format*
G04 (created by PCBNEW (2014-jan-25)-product) date Wed 30 Apr 2014 07:54:19 PM MDT*
%MOIN*%
G01*
G70*
G90*
G04 APERTURE LIST*
%ADD10C,0.003937*%
%ADD11C,0.005000*%
%ADD12C,0.012000*%
%ADD13C,0.005906*%
%ADD14C,0.010600*%
G04 APERTURE END LIST*
G54D10*
G54D11*
X53350Y-31600D02*
X52650Y-31600D01*
X52650Y-31600D02*
X52650Y-30400D01*
X52650Y-30400D02*
X53350Y-30400D01*
X53350Y-30400D02*
X53350Y-31600D01*
X59349Y-32100D02*
X58649Y-32100D01*
X58649Y-32100D02*
X58649Y-30900D01*
X58649Y-30900D02*
X59349Y-30900D01*
X59349Y-30900D02*
X59349Y-32100D01*
X55050Y-30500D02*
X55950Y-30500D01*
X55950Y-30500D02*
X55950Y-29850D01*
X55050Y-29150D02*
X55050Y-28500D01*
X55050Y-28500D02*
X55950Y-28500D01*
X55950Y-28500D02*
X55950Y-29150D01*
X55050Y-29850D02*
X55050Y-30500D01*
X56550Y-30500D02*
X57450Y-30500D01*
X57450Y-30500D02*
X57450Y-29850D01*
X56550Y-29150D02*
X56550Y-28500D01*
X56550Y-28500D02*
X57450Y-28500D01*
X57450Y-28500D02*
X57450Y-29150D01*
X56550Y-29850D02*
X56550Y-30500D01*
G54D12*
X61500Y-29000D02*
X61500Y-30000D01*
X61500Y-30000D02*
X58500Y-30000D01*
X58500Y-30000D02*
X58500Y-29000D01*
X58500Y-29000D02*
X61500Y-29000D01*
X60500Y-30000D02*
X60500Y-29000D01*
G54D11*
X61050Y-33050D02*
X61050Y-33950D01*
X61050Y-33950D02*
X61700Y-33950D01*
X62400Y-33050D02*
X63050Y-33050D01*
X63050Y-33050D02*
X63050Y-33950D01*
X63050Y-33950D02*
X62400Y-33950D01*
X61700Y-33050D02*
X61050Y-33050D01*
X51000Y-35450D02*
X51000Y-34550D01*
X51000Y-34550D02*
X50350Y-34550D01*
X49650Y-35450D02*
X49000Y-35450D01*
X49000Y-35450D02*
X49000Y-34550D01*
X49000Y-34550D02*
X49650Y-34550D01*
X50350Y-35450D02*
X51000Y-35450D01*
X51000Y-32450D02*
X51000Y-31550D01*
X51000Y-31550D02*
X50350Y-31550D01*
X49650Y-32450D02*
X49000Y-32450D01*
X49000Y-32450D02*
X49000Y-31550D01*
X49000Y-31550D02*
X49650Y-31550D01*
X50350Y-32450D02*
X51000Y-32450D01*
X49000Y-33050D02*
X49000Y-33950D01*
X49000Y-33950D02*
X49650Y-33950D01*
X50350Y-33050D02*
X51000Y-33050D01*
X51000Y-33050D02*
X51000Y-33950D01*
X51000Y-33950D02*
X50350Y-33950D01*
X49650Y-33050D02*
X49000Y-33050D01*
X62449Y-30500D02*
X61549Y-30500D01*
X61549Y-30500D02*
X61549Y-31150D01*
X62449Y-31850D02*
X62449Y-32500D01*
X62449Y-32500D02*
X61549Y-32500D01*
X61549Y-32500D02*
X61549Y-31850D01*
X62449Y-31150D02*
X62449Y-30500D01*
X51000Y-30950D02*
X51000Y-30050D01*
X51000Y-30050D02*
X50350Y-30050D01*
X49650Y-30950D02*
X49000Y-30950D01*
X49000Y-30950D02*
X49000Y-30050D01*
X49000Y-30050D02*
X49650Y-30050D01*
X50350Y-30950D02*
X51000Y-30950D01*
X51000Y-29600D02*
X51000Y-28700D01*
X51000Y-28700D02*
X50350Y-28700D01*
X49650Y-29600D02*
X49000Y-29600D01*
X49000Y-29600D02*
X49000Y-28700D01*
X49000Y-28700D02*
X49650Y-28700D01*
X50350Y-29600D02*
X51000Y-29600D01*
X53850Y-29600D02*
X53850Y-28700D01*
X53850Y-28700D02*
X53200Y-28700D01*
X52500Y-29600D02*
X51850Y-29600D01*
X51850Y-29600D02*
X51850Y-28700D01*
X51850Y-28700D02*
X52500Y-28700D01*
X53200Y-29600D02*
X53850Y-29600D01*
X49930Y-38860D02*
X50830Y-38860D01*
X50830Y-38860D02*
X50830Y-38210D01*
X49930Y-37510D02*
X49930Y-36860D01*
X49930Y-36860D02*
X50830Y-36860D01*
X50830Y-36860D02*
X50830Y-37510D01*
X49930Y-38210D02*
X49930Y-38860D01*
X52927Y-31729D02*
X52927Y-31931D01*
X52939Y-31955D01*
X52951Y-31967D01*
X52975Y-31979D01*
X53022Y-31979D01*
X53046Y-31967D01*
X53058Y-31955D01*
X53070Y-31931D01*
X53070Y-31729D01*
X53177Y-31752D02*
X53189Y-31741D01*
X53213Y-31729D01*
X53272Y-31729D01*
X53296Y-31741D01*
X53308Y-31752D01*
X53320Y-31776D01*
X53320Y-31800D01*
X53308Y-31836D01*
X53165Y-31979D01*
X53320Y-31979D01*
X52059Y-30113D02*
X52059Y-29863D01*
X52142Y-30041D01*
X52226Y-29863D01*
X52226Y-30113D01*
X52488Y-30089D02*
X52476Y-30101D01*
X52440Y-30113D01*
X52416Y-30113D01*
X52380Y-30101D01*
X52357Y-30077D01*
X52345Y-30053D01*
X52333Y-30005D01*
X52333Y-29970D01*
X52345Y-29922D01*
X52357Y-29898D01*
X52380Y-29875D01*
X52416Y-29863D01*
X52440Y-29863D01*
X52476Y-29875D01*
X52488Y-29886D01*
X52595Y-30113D02*
X52595Y-29863D01*
X52690Y-29863D01*
X52714Y-29875D01*
X52726Y-29886D01*
X52738Y-29910D01*
X52738Y-29946D01*
X52726Y-29970D01*
X52714Y-29982D01*
X52690Y-29994D01*
X52595Y-29994D01*
X52952Y-29863D02*
X52904Y-29863D01*
X52880Y-29875D01*
X52869Y-29886D01*
X52845Y-29922D01*
X52833Y-29970D01*
X52833Y-30065D01*
X52845Y-30089D01*
X52857Y-30101D01*
X52880Y-30113D01*
X52928Y-30113D01*
X52952Y-30101D01*
X52964Y-30089D01*
X52976Y-30065D01*
X52976Y-30005D01*
X52964Y-29982D01*
X52952Y-29970D01*
X52928Y-29958D01*
X52880Y-29958D01*
X52857Y-29970D01*
X52845Y-29982D01*
X52833Y-30005D01*
X53130Y-29863D02*
X53154Y-29863D01*
X53178Y-29875D01*
X53190Y-29886D01*
X53202Y-29910D01*
X53214Y-29958D01*
X53214Y-30017D01*
X53202Y-30065D01*
X53190Y-30089D01*
X53178Y-30101D01*
X53154Y-30113D01*
X53130Y-30113D01*
X53107Y-30101D01*
X53095Y-30089D01*
X53083Y-30065D01*
X53071Y-30017D01*
X53071Y-29958D01*
X53083Y-29910D01*
X53095Y-29886D01*
X53107Y-29875D01*
X53130Y-29863D01*
X53369Y-29863D02*
X53392Y-29863D01*
X53416Y-29875D01*
X53428Y-29886D01*
X53440Y-29910D01*
X53452Y-29958D01*
X53452Y-30017D01*
X53440Y-30065D01*
X53428Y-30089D01*
X53416Y-30101D01*
X53392Y-30113D01*
X53369Y-30113D01*
X53345Y-30101D01*
X53333Y-30089D01*
X53321Y-30065D01*
X53309Y-30017D01*
X53309Y-29958D01*
X53321Y-29910D01*
X53333Y-29886D01*
X53345Y-29875D01*
X53369Y-29863D01*
X53690Y-30113D02*
X53547Y-30113D01*
X53619Y-30113D02*
X53619Y-29863D01*
X53595Y-29898D01*
X53571Y-29922D01*
X53547Y-29934D01*
X53797Y-29863D02*
X53797Y-30065D01*
X53809Y-30089D01*
X53821Y-30101D01*
X53845Y-30113D01*
X53892Y-30113D01*
X53916Y-30101D01*
X53928Y-30089D01*
X53940Y-30065D01*
X53940Y-29863D01*
X58927Y-32229D02*
X58927Y-32431D01*
X58939Y-32455D01*
X58951Y-32467D01*
X58975Y-32479D01*
X59022Y-32479D01*
X59046Y-32467D01*
X59058Y-32455D01*
X59070Y-32431D01*
X59070Y-32229D01*
X59165Y-32229D02*
X59320Y-32229D01*
X59237Y-32324D01*
X59272Y-32324D01*
X59296Y-32336D01*
X59308Y-32348D01*
X59320Y-32371D01*
X59320Y-32431D01*
X59308Y-32455D01*
X59296Y-32467D01*
X59272Y-32479D01*
X59201Y-32479D01*
X59177Y-32467D01*
X59165Y-32455D01*
X58059Y-33113D02*
X58059Y-32863D01*
X58142Y-33041D01*
X58226Y-32863D01*
X58226Y-33113D01*
X58488Y-33089D02*
X58476Y-33101D01*
X58440Y-33113D01*
X58416Y-33113D01*
X58380Y-33101D01*
X58357Y-33077D01*
X58345Y-33053D01*
X58333Y-33005D01*
X58333Y-32970D01*
X58345Y-32922D01*
X58357Y-32898D01*
X58380Y-32875D01*
X58416Y-32863D01*
X58440Y-32863D01*
X58476Y-32875D01*
X58488Y-32886D01*
X58595Y-33113D02*
X58595Y-32863D01*
X58690Y-32863D01*
X58714Y-32875D01*
X58726Y-32886D01*
X58738Y-32910D01*
X58738Y-32946D01*
X58726Y-32970D01*
X58714Y-32982D01*
X58690Y-32994D01*
X58595Y-32994D01*
X58952Y-32863D02*
X58904Y-32863D01*
X58880Y-32875D01*
X58869Y-32886D01*
X58845Y-32922D01*
X58833Y-32970D01*
X58833Y-33065D01*
X58845Y-33089D01*
X58857Y-33101D01*
X58880Y-33113D01*
X58928Y-33113D01*
X58952Y-33101D01*
X58964Y-33089D01*
X58976Y-33065D01*
X58976Y-33005D01*
X58964Y-32982D01*
X58952Y-32970D01*
X58928Y-32958D01*
X58880Y-32958D01*
X58857Y-32970D01*
X58845Y-32982D01*
X58833Y-33005D01*
X59130Y-32863D02*
X59154Y-32863D01*
X59178Y-32875D01*
X59190Y-32886D01*
X59202Y-32910D01*
X59214Y-32958D01*
X59214Y-33017D01*
X59202Y-33065D01*
X59190Y-33089D01*
X59178Y-33101D01*
X59154Y-33113D01*
X59130Y-33113D01*
X59107Y-33101D01*
X59095Y-33089D01*
X59083Y-33065D01*
X59071Y-33017D01*
X59071Y-32958D01*
X59083Y-32910D01*
X59095Y-32886D01*
X59107Y-32875D01*
X59130Y-32863D01*
X59369Y-32863D02*
X59392Y-32863D01*
X59416Y-32875D01*
X59428Y-32886D01*
X59440Y-32910D01*
X59452Y-32958D01*
X59452Y-33017D01*
X59440Y-33065D01*
X59428Y-33089D01*
X59416Y-33101D01*
X59392Y-33113D01*
X59369Y-33113D01*
X59345Y-33101D01*
X59333Y-33089D01*
X59321Y-33065D01*
X59309Y-33017D01*
X59309Y-32958D01*
X59321Y-32910D01*
X59333Y-32886D01*
X59345Y-32875D01*
X59369Y-32863D01*
X59690Y-33113D02*
X59547Y-33113D01*
X59619Y-33113D02*
X59619Y-32863D01*
X59595Y-32898D01*
X59571Y-32922D01*
X59547Y-32934D01*
X59797Y-32863D02*
X59797Y-33065D01*
X59809Y-33089D01*
X59821Y-33101D01*
X59845Y-33113D01*
X59892Y-33113D01*
X59916Y-33101D01*
X59928Y-33089D01*
X59940Y-33065D01*
X59940Y-32863D01*
G54D13*
X59868Y-34784D02*
X59868Y-35065D01*
X59850Y-35121D01*
X59812Y-35159D01*
X59756Y-35178D01*
X59718Y-35178D01*
X60262Y-35178D02*
X60037Y-35178D01*
X60149Y-35178D02*
X60149Y-34784D01*
X60112Y-34840D01*
X60074Y-34878D01*
X60037Y-34896D01*
X59596Y-39678D02*
X59465Y-39490D01*
X59371Y-39678D02*
X59371Y-39284D01*
X59521Y-39284D01*
X59559Y-39303D01*
X59578Y-39321D01*
X59596Y-39359D01*
X59596Y-39415D01*
X59578Y-39453D01*
X59559Y-39471D01*
X59521Y-39490D01*
X59371Y-39490D01*
X59878Y-39284D02*
X59878Y-39565D01*
X59859Y-39621D01*
X59821Y-39659D01*
X59765Y-39678D01*
X59728Y-39678D01*
X60271Y-39678D02*
X60046Y-39678D01*
X60159Y-39678D02*
X60159Y-39284D01*
X60121Y-39340D01*
X60084Y-39378D01*
X60046Y-39396D01*
X60609Y-39415D02*
X60609Y-39678D01*
X60515Y-39265D02*
X60421Y-39546D01*
X60665Y-39546D01*
X54700Y-32134D02*
X54700Y-32453D01*
X54718Y-32490D01*
X54737Y-32509D01*
X54775Y-32528D01*
X54850Y-32528D01*
X54887Y-32509D01*
X54906Y-32490D01*
X54925Y-32453D01*
X54925Y-32134D01*
X55318Y-32528D02*
X55093Y-32528D01*
X55206Y-32528D02*
X55206Y-32134D01*
X55168Y-32190D01*
X55131Y-32228D01*
X55093Y-32246D01*
X53593Y-36134D02*
X53818Y-36134D01*
X53706Y-36528D02*
X53706Y-36134D01*
X54175Y-36490D02*
X54156Y-36509D01*
X54100Y-36528D01*
X54062Y-36528D01*
X54006Y-36509D01*
X53968Y-36471D01*
X53950Y-36434D01*
X53931Y-36359D01*
X53931Y-36303D01*
X53950Y-36228D01*
X53968Y-36190D01*
X54006Y-36153D01*
X54062Y-36134D01*
X54100Y-36134D01*
X54156Y-36153D01*
X54175Y-36171D01*
X54568Y-36528D02*
X54437Y-36340D01*
X54343Y-36528D02*
X54343Y-36134D01*
X54493Y-36134D01*
X54531Y-36153D01*
X54550Y-36171D01*
X54568Y-36209D01*
X54568Y-36265D01*
X54550Y-36303D01*
X54531Y-36321D01*
X54493Y-36340D01*
X54343Y-36340D01*
X54681Y-36134D02*
X54906Y-36134D01*
X54793Y-36528D02*
X54793Y-36134D01*
X55224Y-36134D02*
X55037Y-36134D01*
X55018Y-36321D01*
X55037Y-36303D01*
X55074Y-36284D01*
X55168Y-36284D01*
X55206Y-36303D01*
X55224Y-36321D01*
X55243Y-36359D01*
X55243Y-36453D01*
X55224Y-36490D01*
X55206Y-36509D01*
X55168Y-36528D01*
X55074Y-36528D01*
X55037Y-36509D01*
X55018Y-36490D01*
X55487Y-36134D02*
X55524Y-36134D01*
X55562Y-36153D01*
X55581Y-36171D01*
X55599Y-36209D01*
X55618Y-36284D01*
X55618Y-36378D01*
X55599Y-36453D01*
X55581Y-36490D01*
X55562Y-36509D01*
X55524Y-36528D01*
X55487Y-36528D01*
X55449Y-36509D01*
X55431Y-36490D01*
X55412Y-36453D01*
X55393Y-36378D01*
X55393Y-36284D01*
X55412Y-36209D01*
X55431Y-36171D01*
X55449Y-36153D01*
X55487Y-36134D01*
X55862Y-36134D02*
X55899Y-36134D01*
X55937Y-36153D01*
X55956Y-36171D01*
X55974Y-36209D01*
X55993Y-36284D01*
X55993Y-36378D01*
X55974Y-36453D01*
X55956Y-36490D01*
X55937Y-36509D01*
X55899Y-36528D01*
X55862Y-36528D01*
X55824Y-36509D01*
X55806Y-36490D01*
X55787Y-36453D01*
X55768Y-36378D01*
X55768Y-36284D01*
X55787Y-36209D01*
X55806Y-36171D01*
X55824Y-36153D01*
X55862Y-36134D01*
X56237Y-36134D02*
X56274Y-36134D01*
X56312Y-36153D01*
X56331Y-36171D01*
X56349Y-36209D01*
X56368Y-36284D01*
X56368Y-36378D01*
X56349Y-36453D01*
X56331Y-36490D01*
X56312Y-36509D01*
X56274Y-36528D01*
X56237Y-36528D01*
X56199Y-36509D01*
X56181Y-36490D01*
X56162Y-36453D01*
X56143Y-36378D01*
X56143Y-36284D01*
X56162Y-36209D01*
X56181Y-36171D01*
X56199Y-36153D01*
X56237Y-36134D01*
G54D11*
X55607Y-29550D02*
X55621Y-29564D01*
X55635Y-29607D01*
X55635Y-29635D01*
X55621Y-29678D01*
X55592Y-29707D01*
X55564Y-29721D01*
X55507Y-29735D01*
X55464Y-29735D01*
X55407Y-29721D01*
X55378Y-29707D01*
X55350Y-29678D01*
X55335Y-29635D01*
X55335Y-29607D01*
X55350Y-29564D01*
X55364Y-29550D01*
X55635Y-29264D02*
X55635Y-29435D01*
X55635Y-29350D02*
X55335Y-29350D01*
X55378Y-29378D01*
X55407Y-29407D01*
X55421Y-29435D01*
X57107Y-29550D02*
X57121Y-29564D01*
X57135Y-29607D01*
X57135Y-29635D01*
X57121Y-29678D01*
X57092Y-29707D01*
X57064Y-29721D01*
X57007Y-29735D01*
X56964Y-29735D01*
X56907Y-29721D01*
X56878Y-29707D01*
X56850Y-29678D01*
X56835Y-29635D01*
X56835Y-29607D01*
X56850Y-29564D01*
X56864Y-29550D01*
X56864Y-29435D02*
X56850Y-29421D01*
X56835Y-29392D01*
X56835Y-29321D01*
X56850Y-29292D01*
X56864Y-29278D01*
X56892Y-29264D01*
X56921Y-29264D01*
X56964Y-29278D01*
X57135Y-29450D01*
X57135Y-29264D01*
G54D13*
X46803Y-38053D02*
X46784Y-38090D01*
X46784Y-38146D01*
X46803Y-38203D01*
X46840Y-38240D01*
X46878Y-38259D01*
X46953Y-38278D01*
X47009Y-38278D01*
X47084Y-38259D01*
X47121Y-38240D01*
X47159Y-38203D01*
X47178Y-38146D01*
X47178Y-38109D01*
X47159Y-38053D01*
X47140Y-38034D01*
X47009Y-38034D01*
X47009Y-38109D01*
X47065Y-37884D02*
X47065Y-37696D01*
X47178Y-37921D02*
X46784Y-37790D01*
X47178Y-37659D01*
X47178Y-37528D02*
X46784Y-37528D01*
X47178Y-37340D02*
X46784Y-37340D01*
X47178Y-37115D01*
X46784Y-37115D01*
X46821Y-36946D02*
X46803Y-36928D01*
X46784Y-36890D01*
X46784Y-36796D01*
X46803Y-36759D01*
X46821Y-36740D01*
X46859Y-36721D01*
X46896Y-36721D01*
X46953Y-36740D01*
X47178Y-36965D01*
X47178Y-36721D01*
X45178Y-37959D02*
X45178Y-38184D01*
X45178Y-38071D02*
X44784Y-38071D01*
X44840Y-38109D01*
X44878Y-38146D01*
X44896Y-38184D01*
X44784Y-37715D02*
X44784Y-37678D01*
X44803Y-37640D01*
X44821Y-37621D01*
X44859Y-37603D01*
X44934Y-37584D01*
X45028Y-37584D01*
X45103Y-37603D01*
X45140Y-37621D01*
X45159Y-37640D01*
X45178Y-37678D01*
X45178Y-37715D01*
X45159Y-37753D01*
X45140Y-37771D01*
X45103Y-37790D01*
X45028Y-37809D01*
X44934Y-37809D01*
X44859Y-37790D01*
X44821Y-37771D01*
X44803Y-37753D01*
X44784Y-37715D01*
X44784Y-37340D02*
X44784Y-37303D01*
X44803Y-37265D01*
X44821Y-37246D01*
X44859Y-37228D01*
X44934Y-37209D01*
X45028Y-37209D01*
X45103Y-37228D01*
X45140Y-37246D01*
X45159Y-37265D01*
X45178Y-37303D01*
X45178Y-37340D01*
X45159Y-37378D01*
X45140Y-37396D01*
X45103Y-37415D01*
X45028Y-37434D01*
X44934Y-37434D01*
X44859Y-37415D01*
X44821Y-37396D01*
X44803Y-37378D01*
X44784Y-37340D01*
X45178Y-37040D02*
X44784Y-37040D01*
X45178Y-36815D02*
X44953Y-36984D01*
X44784Y-36815D02*
X45009Y-37040D01*
G54D14*
X61931Y-29137D02*
X61931Y-28432D01*
X62173Y-29137D02*
X61991Y-28734D01*
X62173Y-28432D02*
X61931Y-28835D01*
X62577Y-29137D02*
X62334Y-29137D01*
X62456Y-29137D02*
X62456Y-28432D01*
X62415Y-28533D01*
X62375Y-28600D01*
X62334Y-28634D01*
G54D12*
G54D13*
X47178Y-31996D02*
X47178Y-32184D01*
X46784Y-32184D01*
X46784Y-31790D02*
X46784Y-31715D01*
X46803Y-31678D01*
X46840Y-31640D01*
X46915Y-31621D01*
X47046Y-31621D01*
X47121Y-31640D01*
X47159Y-31678D01*
X47178Y-31715D01*
X47178Y-31790D01*
X47159Y-31828D01*
X47121Y-31865D01*
X47046Y-31884D01*
X46915Y-31884D01*
X46840Y-31865D01*
X46803Y-31828D01*
X46784Y-31790D01*
X46784Y-31490D02*
X47178Y-31396D01*
X46896Y-31321D01*
X47178Y-31246D01*
X46784Y-31153D01*
X47178Y-30796D02*
X47178Y-31021D01*
X47178Y-30909D02*
X46784Y-30909D01*
X46840Y-30946D01*
X46878Y-30984D01*
X46896Y-31021D01*
X45178Y-31921D02*
X45178Y-32146D01*
X45178Y-32034D02*
X44784Y-32034D01*
X44840Y-32071D01*
X44878Y-32109D01*
X44896Y-32146D01*
X44784Y-31678D02*
X44784Y-31640D01*
X44803Y-31603D01*
X44821Y-31584D01*
X44859Y-31565D01*
X44934Y-31546D01*
X45028Y-31546D01*
X45103Y-31565D01*
X45140Y-31584D01*
X45159Y-31603D01*
X45178Y-31640D01*
X45178Y-31678D01*
X45159Y-31715D01*
X45140Y-31734D01*
X45103Y-31753D01*
X45028Y-31771D01*
X44934Y-31771D01*
X44859Y-31753D01*
X44821Y-31734D01*
X44803Y-31715D01*
X44784Y-31678D01*
X44784Y-31303D02*
X44784Y-31265D01*
X44803Y-31228D01*
X44821Y-31209D01*
X44859Y-31190D01*
X44934Y-31171D01*
X45028Y-31171D01*
X45103Y-31190D01*
X45140Y-31209D01*
X45159Y-31228D01*
X45178Y-31265D01*
X45178Y-31303D01*
X45159Y-31340D01*
X45140Y-31359D01*
X45103Y-31378D01*
X45028Y-31396D01*
X44934Y-31396D01*
X44859Y-31378D01*
X44821Y-31359D01*
X44803Y-31340D01*
X44784Y-31303D01*
X45178Y-31003D02*
X44784Y-31003D01*
X45028Y-30965D02*
X45178Y-30853D01*
X44915Y-30853D02*
X45065Y-31003D01*
G54D11*
X62000Y-33635D02*
X61900Y-33492D01*
X61828Y-33635D02*
X61828Y-33335D01*
X61942Y-33335D01*
X61971Y-33350D01*
X61985Y-33364D01*
X62000Y-33392D01*
X62000Y-33435D01*
X61985Y-33464D01*
X61971Y-33478D01*
X61942Y-33492D01*
X61828Y-33492D01*
X62285Y-33635D02*
X62114Y-33635D01*
X62200Y-33635D02*
X62200Y-33335D01*
X62171Y-33378D01*
X62142Y-33407D01*
X62114Y-33421D01*
X49950Y-35135D02*
X49850Y-34992D01*
X49778Y-35135D02*
X49778Y-34835D01*
X49892Y-34835D01*
X49921Y-34850D01*
X49935Y-34864D01*
X49950Y-34892D01*
X49950Y-34935D01*
X49935Y-34964D01*
X49921Y-34978D01*
X49892Y-34992D01*
X49778Y-34992D01*
X50064Y-34864D02*
X50078Y-34850D01*
X50107Y-34835D01*
X50178Y-34835D01*
X50207Y-34850D01*
X50221Y-34864D01*
X50235Y-34892D01*
X50235Y-34921D01*
X50221Y-34964D01*
X50050Y-35135D01*
X50235Y-35135D01*
X49950Y-32135D02*
X49850Y-31992D01*
X49778Y-32135D02*
X49778Y-31835D01*
X49892Y-31835D01*
X49921Y-31850D01*
X49935Y-31864D01*
X49950Y-31892D01*
X49950Y-31935D01*
X49935Y-31964D01*
X49921Y-31978D01*
X49892Y-31992D01*
X49778Y-31992D01*
X50050Y-31835D02*
X50235Y-31835D01*
X50135Y-31950D01*
X50178Y-31950D01*
X50207Y-31964D01*
X50221Y-31978D01*
X50235Y-32007D01*
X50235Y-32078D01*
X50221Y-32107D01*
X50207Y-32121D01*
X50178Y-32135D01*
X50092Y-32135D01*
X50064Y-32121D01*
X50050Y-32107D01*
X49950Y-33635D02*
X49850Y-33492D01*
X49778Y-33635D02*
X49778Y-33335D01*
X49892Y-33335D01*
X49921Y-33350D01*
X49935Y-33364D01*
X49950Y-33392D01*
X49950Y-33435D01*
X49935Y-33464D01*
X49921Y-33478D01*
X49892Y-33492D01*
X49778Y-33492D01*
X50207Y-33435D02*
X50207Y-33635D01*
X50135Y-33321D02*
X50064Y-33535D01*
X50250Y-33535D01*
X62135Y-31550D02*
X61992Y-31650D01*
X62135Y-31721D02*
X61835Y-31721D01*
X61835Y-31607D01*
X61849Y-31578D01*
X61864Y-31564D01*
X61892Y-31550D01*
X61935Y-31550D01*
X61964Y-31564D01*
X61978Y-31578D01*
X61992Y-31607D01*
X61992Y-31721D01*
X61835Y-31278D02*
X61835Y-31421D01*
X61978Y-31435D01*
X61964Y-31421D01*
X61949Y-31392D01*
X61949Y-31321D01*
X61964Y-31292D01*
X61978Y-31278D01*
X62007Y-31264D01*
X62078Y-31264D01*
X62107Y-31278D01*
X62121Y-31292D01*
X62135Y-31321D01*
X62135Y-31392D01*
X62121Y-31421D01*
X62107Y-31435D01*
X49950Y-30635D02*
X49850Y-30492D01*
X49778Y-30635D02*
X49778Y-30335D01*
X49892Y-30335D01*
X49921Y-30350D01*
X49935Y-30364D01*
X49950Y-30392D01*
X49950Y-30435D01*
X49935Y-30464D01*
X49921Y-30478D01*
X49892Y-30492D01*
X49778Y-30492D01*
X50207Y-30335D02*
X50150Y-30335D01*
X50121Y-30350D01*
X50107Y-30364D01*
X50078Y-30407D01*
X50064Y-30464D01*
X50064Y-30578D01*
X50078Y-30607D01*
X50092Y-30621D01*
X50121Y-30635D01*
X50178Y-30635D01*
X50207Y-30621D01*
X50221Y-30607D01*
X50235Y-30578D01*
X50235Y-30507D01*
X50221Y-30478D01*
X50207Y-30464D01*
X50178Y-30450D01*
X50121Y-30450D01*
X50092Y-30464D01*
X50078Y-30478D01*
X50064Y-30507D01*
X49950Y-29285D02*
X49850Y-29142D01*
X49778Y-29285D02*
X49778Y-28985D01*
X49892Y-28985D01*
X49921Y-29000D01*
X49935Y-29014D01*
X49950Y-29042D01*
X49950Y-29085D01*
X49935Y-29114D01*
X49921Y-29128D01*
X49892Y-29142D01*
X49778Y-29142D01*
X50050Y-28985D02*
X50250Y-28985D01*
X50121Y-29285D01*
X52800Y-29285D02*
X52700Y-29142D01*
X52628Y-29285D02*
X52628Y-28985D01*
X52742Y-28985D01*
X52771Y-29000D01*
X52785Y-29014D01*
X52800Y-29042D01*
X52800Y-29085D01*
X52785Y-29114D01*
X52771Y-29128D01*
X52742Y-29142D01*
X52628Y-29142D01*
X52971Y-29114D02*
X52942Y-29100D01*
X52928Y-29085D01*
X52914Y-29057D01*
X52914Y-29042D01*
X52928Y-29014D01*
X52942Y-29000D01*
X52971Y-28985D01*
X53028Y-28985D01*
X53057Y-29000D01*
X53071Y-29014D01*
X53085Y-29042D01*
X53085Y-29057D01*
X53071Y-29085D01*
X53057Y-29100D01*
X53028Y-29114D01*
X52971Y-29114D01*
X52942Y-29128D01*
X52928Y-29142D01*
X52914Y-29171D01*
X52914Y-29228D01*
X52928Y-29257D01*
X52942Y-29271D01*
X52971Y-29285D01*
X53028Y-29285D01*
X53057Y-29271D01*
X53071Y-29257D01*
X53085Y-29228D01*
X53085Y-29171D01*
X53071Y-29142D01*
X53057Y-29128D01*
X53028Y-29114D01*
X50515Y-37910D02*
X50372Y-38010D01*
X50515Y-38081D02*
X50215Y-38081D01*
X50215Y-37967D01*
X50230Y-37938D01*
X50244Y-37924D01*
X50272Y-37910D01*
X50315Y-37910D01*
X50344Y-37924D01*
X50358Y-37938D01*
X50372Y-37967D01*
X50372Y-38081D01*
X50515Y-37767D02*
X50515Y-37710D01*
X50501Y-37681D01*
X50487Y-37667D01*
X50444Y-37638D01*
X50387Y-37624D01*
X50272Y-37624D01*
X50244Y-37638D01*
X50230Y-37652D01*
X50215Y-37681D01*
X50215Y-37738D01*
X50230Y-37767D01*
X50244Y-37781D01*
X50272Y-37795D01*
X50344Y-37795D01*
X50372Y-37781D01*
X50387Y-37767D01*
X50401Y-37738D01*
X50401Y-37681D01*
X50387Y-37652D01*
X50372Y-37638D01*
X50344Y-37624D01*
G54D12*
X66485Y-28696D02*
X66485Y-28096D01*
X66685Y-28525D01*
X66885Y-28096D01*
X66885Y-28696D01*
X67171Y-28696D02*
X67171Y-28096D01*
X67171Y-28382D02*
X67514Y-28382D01*
X67514Y-28696D02*
X67514Y-28096D01*
X66485Y-37696D02*
X66485Y-37096D01*
X66685Y-37525D01*
X66885Y-37096D01*
X66885Y-37696D01*
X67171Y-37696D02*
X67171Y-37096D01*
X67171Y-37382D02*
X67514Y-37382D01*
X67514Y-37696D02*
X67514Y-37096D01*
M02*
