%FSLAX34Y34*%
G04 Gerber Fmt 3.4, Leading zero omitted, Abs format*
G04 (created by PCBNEW (2014-jan-25)-product) date Wed 30 Apr 2014 07:54:19 PM MDT*
%MOIN*%
G01*
G70*
G90*
G04 APERTURE LIST*
%ADD10C,0.003937*%
%ADD11C,0.011811*%
%ADD12R,0.030000X0.020000*%
%ADD13C,0.125984*%
%ADD14C,0.059055*%
%ADD15C,0.078740*%
%ADD16C,0.098425*%
%ADD17C,0.039370*%
%ADD18R,0.080000X0.060000*%
%ADD19R,0.086614X0.070866*%
%ADD20R,0.055000X0.055000*%
%ADD21C,0.055000*%
%ADD22R,0.060000X0.080000*%
%ADD23C,0.035000*%
%ADD24C,0.040000*%
%ADD25C,0.010000*%
%ADD26C,0.019685*%
G04 APERTURE END LIST*
G54D10*
G54D11*
X48889Y-39960D02*
X48861Y-39989D01*
X48776Y-40017D01*
X48720Y-40017D01*
X48636Y-39989D01*
X48580Y-39932D01*
X48552Y-39876D01*
X48523Y-39764D01*
X48523Y-39679D01*
X48552Y-39567D01*
X48580Y-39510D01*
X48636Y-39454D01*
X48720Y-39426D01*
X48776Y-39426D01*
X48861Y-39454D01*
X48889Y-39482D01*
X49086Y-39623D02*
X49226Y-40017D01*
X49367Y-39623D02*
X49226Y-40017D01*
X49170Y-40157D01*
X49142Y-40185D01*
X49086Y-40214D01*
X49845Y-39989D02*
X49789Y-40017D01*
X49676Y-40017D01*
X49620Y-39989D01*
X49592Y-39960D01*
X49564Y-39904D01*
X49564Y-39735D01*
X49592Y-39679D01*
X49620Y-39651D01*
X49676Y-39623D01*
X49789Y-39623D01*
X49845Y-39651D01*
X50183Y-40017D02*
X50126Y-39989D01*
X50098Y-39932D01*
X50098Y-39426D01*
X50492Y-40017D02*
X50436Y-39989D01*
X50408Y-39960D01*
X50379Y-39904D01*
X50379Y-39735D01*
X50408Y-39679D01*
X50436Y-39651D01*
X50492Y-39623D01*
X50576Y-39623D01*
X50633Y-39651D01*
X50661Y-39679D01*
X50689Y-39735D01*
X50689Y-39904D01*
X50661Y-39960D01*
X50633Y-39989D01*
X50576Y-40017D01*
X50492Y-40017D01*
X51364Y-39989D02*
X51448Y-40017D01*
X51589Y-40017D01*
X51645Y-39989D01*
X51673Y-39960D01*
X51701Y-39904D01*
X51701Y-39848D01*
X51673Y-39792D01*
X51645Y-39764D01*
X51589Y-39735D01*
X51476Y-39707D01*
X51420Y-39679D01*
X51392Y-39651D01*
X51364Y-39595D01*
X51364Y-39539D01*
X51392Y-39482D01*
X51420Y-39454D01*
X51476Y-39426D01*
X51617Y-39426D01*
X51701Y-39454D01*
X52179Y-39989D02*
X52123Y-40017D01*
X52010Y-40017D01*
X51954Y-39989D01*
X51926Y-39932D01*
X51926Y-39707D01*
X51954Y-39651D01*
X52010Y-39623D01*
X52123Y-39623D01*
X52179Y-39651D01*
X52207Y-39707D01*
X52207Y-39764D01*
X51926Y-39820D01*
X52460Y-39623D02*
X52460Y-40017D01*
X52460Y-39679D02*
X52489Y-39651D01*
X52545Y-39623D01*
X52629Y-39623D01*
X52685Y-39651D01*
X52714Y-39707D01*
X52714Y-40017D01*
X52967Y-39989D02*
X53023Y-40017D01*
X53135Y-40017D01*
X53192Y-39989D01*
X53220Y-39932D01*
X53220Y-39904D01*
X53192Y-39848D01*
X53135Y-39820D01*
X53051Y-39820D01*
X52995Y-39792D01*
X52967Y-39735D01*
X52967Y-39707D01*
X52995Y-39651D01*
X53051Y-39623D01*
X53135Y-39623D01*
X53192Y-39651D01*
X53557Y-40017D02*
X53501Y-39989D01*
X53473Y-39960D01*
X53445Y-39904D01*
X53445Y-39735D01*
X53473Y-39679D01*
X53501Y-39651D01*
X53557Y-39623D01*
X53642Y-39623D01*
X53698Y-39651D01*
X53726Y-39679D01*
X53754Y-39735D01*
X53754Y-39904D01*
X53726Y-39960D01*
X53698Y-39989D01*
X53642Y-40017D01*
X53557Y-40017D01*
X54007Y-40017D02*
X54007Y-39623D01*
X54007Y-39735D02*
X54035Y-39679D01*
X54063Y-39651D01*
X54120Y-39623D01*
X54176Y-39623D01*
X55132Y-40017D02*
X54794Y-40017D01*
X54963Y-40017D02*
X54963Y-39426D01*
X54907Y-39510D01*
X54851Y-39567D01*
X54794Y-39595D01*
X55385Y-39960D02*
X55413Y-39989D01*
X55385Y-40017D01*
X55357Y-39989D01*
X55385Y-39960D01*
X55385Y-40017D01*
X55779Y-39426D02*
X55835Y-39426D01*
X55891Y-39454D01*
X55919Y-39482D01*
X55947Y-39539D01*
X55976Y-39651D01*
X55976Y-39792D01*
X55947Y-39904D01*
X55919Y-39960D01*
X55891Y-39989D01*
X55835Y-40017D01*
X55779Y-40017D01*
X55723Y-39989D01*
X55694Y-39960D01*
X55666Y-39904D01*
X55638Y-39792D01*
X55638Y-39651D01*
X55666Y-39539D01*
X55694Y-39482D01*
X55723Y-39454D01*
X55779Y-39426D01*
G54D12*
X52500Y-30625D03*
X52500Y-31375D03*
X53500Y-30625D03*
X52500Y-31000D03*
X53500Y-31375D03*
X58499Y-31125D03*
X58499Y-31875D03*
X59499Y-31125D03*
X58499Y-31500D03*
X59499Y-31875D03*
G54D13*
X62000Y-39500D03*
X58000Y-39500D03*
G54D14*
X61250Y-36000D03*
X60750Y-37000D03*
X60250Y-36000D03*
X59750Y-37000D03*
X59250Y-36000D03*
X58750Y-37000D03*
G54D15*
X53917Y-33850D03*
X56082Y-33850D03*
X53917Y-34850D03*
X56082Y-34850D03*
G54D16*
X55000Y-35098D03*
X55000Y-33601D03*
G54D17*
X53169Y-35314D03*
G54D18*
X55500Y-30150D03*
X55500Y-28850D03*
X57000Y-30150D03*
X57000Y-28850D03*
G54D14*
X45700Y-38484D03*
X45700Y-37500D03*
X45700Y-36515D03*
G54D19*
X47000Y-39468D03*
X47000Y-35531D03*
G54D20*
X61000Y-29500D03*
G54D21*
X60000Y-29500D03*
X59000Y-29500D03*
G54D14*
X45700Y-32484D03*
X45700Y-31500D03*
X45700Y-30515D03*
G54D19*
X47000Y-33468D03*
X47000Y-29531D03*
G54D22*
X61400Y-33500D03*
X62700Y-33500D03*
X50650Y-35000D03*
X49350Y-35000D03*
X50650Y-32000D03*
X49350Y-32000D03*
X49350Y-33500D03*
X50650Y-33500D03*
G54D18*
X61999Y-30850D03*
X61999Y-32150D03*
G54D22*
X50650Y-30500D03*
X49350Y-30500D03*
X50650Y-29150D03*
X49350Y-29150D03*
X53500Y-29150D03*
X52200Y-29150D03*
G54D18*
X50380Y-38510D03*
X50380Y-37210D03*
G54D23*
X53900Y-30700D03*
X53897Y-32874D03*
X48300Y-30500D03*
X61050Y-32150D03*
X57850Y-31500D03*
X48450Y-35000D03*
X48300Y-32000D03*
X56250Y-28850D03*
X51500Y-33500D03*
X51500Y-38500D03*
X60748Y-33503D03*
X59550Y-33850D03*
X52000Y-30400D03*
X54300Y-29150D03*
X54763Y-30748D03*
G54D24*
X45700Y-32484D02*
X44921Y-32480D01*
X48750Y-28450D02*
X49350Y-28450D01*
X48450Y-28750D02*
X48750Y-28450D01*
X46250Y-28750D02*
X48450Y-28750D01*
X44960Y-30000D02*
X46250Y-28750D01*
X44937Y-32464D02*
X44960Y-30000D01*
G54D25*
X44921Y-32480D02*
X44937Y-32464D01*
G54D26*
X54750Y-30150D02*
X54750Y-28500D01*
G54D24*
X49350Y-28450D02*
X49350Y-29150D01*
G54D26*
X54700Y-28450D02*
X49350Y-28450D01*
G54D25*
X54750Y-28500D02*
X54700Y-28450D01*
G54D26*
X53917Y-33850D02*
X53914Y-32891D01*
X53825Y-30625D02*
X53500Y-30625D01*
G54D25*
X53900Y-30700D02*
X53825Y-30625D01*
X53914Y-32891D02*
X53897Y-32874D01*
G54D24*
X62700Y-33500D02*
X63500Y-33500D01*
G54D25*
X63500Y-33500D02*
X63550Y-33450D01*
X63550Y-33450D02*
X63500Y-33450D01*
G54D26*
X55500Y-30150D02*
X54750Y-30150D01*
X54750Y-30150D02*
X54504Y-30150D01*
G54D25*
X54504Y-30150D02*
X54500Y-30150D01*
G54D26*
X54500Y-30150D02*
X54000Y-30150D01*
G54D25*
X54000Y-30150D02*
X53975Y-30150D01*
G54D26*
X53975Y-30150D02*
X53500Y-30625D01*
G54D24*
X55500Y-30150D02*
X57000Y-30150D01*
X57000Y-30150D02*
X58000Y-30150D01*
G54D25*
X58000Y-30150D02*
X58000Y-30000D01*
X59500Y-30500D02*
X59499Y-30500D01*
G54D24*
X58000Y-30500D02*
X59500Y-30500D01*
X58000Y-30000D02*
X58000Y-30500D01*
X59499Y-30500D02*
X59499Y-31125D01*
G54D25*
X63500Y-33500D02*
X63500Y-33450D01*
G54D24*
X63500Y-33450D02*
X63500Y-29500D01*
X63500Y-29500D02*
X61000Y-29500D01*
G54D25*
X63500Y-33500D02*
X63499Y-33500D01*
X63500Y-33500D02*
X63499Y-33500D01*
G54D24*
X60750Y-37000D02*
X63500Y-37000D01*
X63500Y-37000D02*
X63500Y-33500D01*
X61000Y-28500D02*
X58000Y-28500D01*
X58000Y-28500D02*
X58000Y-30000D01*
X61000Y-29500D02*
X61000Y-28500D01*
G54D26*
X49350Y-30500D02*
X48300Y-30500D01*
G54D24*
X61999Y-32150D02*
X61050Y-32150D01*
G54D26*
X58499Y-31500D02*
X57850Y-31500D01*
G54D24*
X49350Y-35000D02*
X48450Y-35000D01*
G54D26*
X48300Y-32000D02*
X49350Y-32000D01*
G54D24*
X57000Y-28850D02*
X56250Y-28850D01*
X56250Y-28850D02*
X55500Y-28850D01*
X50380Y-37210D02*
X56110Y-37210D01*
X58580Y-34740D02*
X60125Y-34740D01*
X56110Y-37210D02*
X58580Y-34740D01*
X60000Y-29500D02*
X60000Y-30440D01*
X60000Y-30440D02*
X60780Y-31220D01*
X48670Y-37210D02*
X50380Y-37210D01*
X45700Y-37500D02*
X48380Y-37500D01*
X48380Y-37500D02*
X48670Y-37210D01*
X60125Y-31875D02*
X60125Y-34740D01*
X60125Y-34740D02*
X60125Y-35875D01*
G54D25*
X60125Y-35875D02*
X60250Y-36000D01*
G54D26*
X59499Y-31875D02*
X60125Y-31875D01*
G54D24*
X61150Y-30850D02*
X61999Y-30850D01*
X60125Y-31875D02*
X60780Y-31220D01*
X60780Y-31220D02*
X61150Y-30850D01*
G54D26*
X50380Y-38510D02*
X51490Y-38510D01*
G54D25*
X51490Y-38510D02*
X51500Y-38500D01*
G54D26*
X45700Y-38484D02*
X50354Y-38484D01*
G54D25*
X50354Y-38484D02*
X50380Y-38510D01*
G54D26*
X58499Y-31875D02*
X54803Y-31889D01*
X54803Y-31889D02*
X51500Y-33500D01*
X51500Y-33500D02*
X50650Y-33500D01*
X47500Y-31500D02*
X47500Y-32350D01*
X48650Y-33500D02*
X49350Y-33500D01*
X47500Y-32350D02*
X48650Y-33500D01*
X45700Y-31500D02*
X47500Y-31500D01*
G54D25*
X47500Y-31500D02*
X47620Y-31500D01*
G54D26*
X51700Y-31300D02*
X52000Y-31000D01*
X47820Y-31300D02*
X48500Y-31300D01*
X48500Y-31300D02*
X51700Y-31300D01*
X47620Y-31500D02*
X47820Y-31300D01*
X50650Y-29000D02*
X51500Y-29000D01*
X51500Y-29000D02*
X51500Y-30500D01*
X50650Y-30500D02*
X51500Y-30500D01*
X52000Y-31000D02*
X52500Y-31000D01*
X51500Y-30500D02*
X52000Y-31000D01*
G54D24*
X60748Y-33503D02*
X61400Y-33500D01*
X56082Y-33850D02*
X59550Y-33850D01*
G54D26*
X52200Y-29150D02*
X52200Y-29900D01*
X52500Y-30200D02*
X52500Y-30625D01*
X52200Y-29900D02*
X52500Y-30200D01*
X52500Y-30625D02*
X52225Y-30625D01*
X52225Y-30625D02*
X52000Y-30400D01*
X50650Y-35000D02*
X52007Y-34606D01*
X52480Y-34606D02*
X53917Y-34850D01*
X52007Y-34606D02*
X52480Y-34606D01*
X52500Y-31375D02*
X52500Y-31673D01*
X53503Y-31692D02*
X53500Y-31375D01*
X53307Y-32007D02*
X53503Y-31692D01*
X52637Y-32007D02*
X53307Y-32007D01*
X52500Y-31673D02*
X52637Y-32007D01*
X54750Y-31350D02*
X54750Y-30700D01*
X54300Y-29150D02*
X53500Y-29150D01*
G54D25*
X54750Y-30700D02*
X54763Y-30748D01*
X54750Y-31350D02*
X54750Y-31375D01*
X54750Y-31375D02*
X54750Y-31350D01*
X54750Y-31350D02*
X54750Y-31375D01*
G54D26*
X50650Y-32000D02*
X51875Y-32000D01*
X51875Y-32000D02*
X52500Y-31375D01*
X53500Y-31375D02*
X54750Y-31375D01*
X54750Y-31375D02*
X56875Y-31375D01*
X57125Y-31125D02*
X58499Y-31125D01*
X56875Y-31375D02*
X57125Y-31125D01*
M02*
